<svg width="76" height="80" viewBox="0 0 76 80" fill="none" xmlns="http://www.w3.org/2000/svg">
<path d="M44.8907 22.0312V33.9062H56.7657" stroke="#499A9A" stroke-width="1.5" stroke-miterlimit="10" stroke-linejoin="round"/>
<path d="M56.7655 43.2403H63.6671C69.6955 43.2403 74.5824 38.3533 74.5824 32.3248C74.5824 26.8494 70.5499 22.3188 65.2933 21.5333C65.2485 10.5825 56.3583 1.71875 45.3969 1.71875C37.9449 1.71875 31.4508 5.81625 28.0416 11.8803C26.0257 10.5395 23.6069 9.75625 21.0044 9.75625C14.0738 9.75625 8.43725 15.2964 8.281 22.1897C4.25975 23.7991 1.41772 27.7287 1.41772 32.3248C1.41772 38.3533 6.30476 43.2403 12.333 43.2403H19.2654" stroke="#499A9A" stroke-width="1.5" stroke-miterlimit="10" stroke-linejoin="round"/>
<path d="M37.1159 69.5312H56.7657V33.9062L44.8907 22.0312H19.2657V51.9894" stroke="#499A9A" stroke-width="1.5" stroke-miterlimit="10" stroke-linejoin="round"/>
<circle cx="24.3783" cy="71.4026" r="1.71875" fill="#499A9A"/>
<path d="M24.3783 63.9288V57.8763" stroke="#499A9A" stroke-width="1.5" stroke-miterlimit="10" stroke-linecap="round" stroke-linejoin="round"/>
<path d="M24.3784 78.2812C31.9125 78.2812 38.0201 72.1736 38.0201 64.6395C38.0201 57.1054 31.9125 50.9978 24.3784 50.9978C16.8443 50.9978 10.7367 57.1054 10.7367 64.6395C10.7367 72.1736 16.8443 78.2812 24.3784 78.2812Z" stroke="#499A9A" stroke-width="1.5" stroke-miterlimit="10" stroke-linecap="round" stroke-linejoin="round"/>
</svg>
