<svg width="80" height="70" viewBox="0 0 80 70" fill="none" xmlns="http://www.w3.org/2000/svg">
<path d="M40.8316 21.1208C40.8543 14.4475 35.4655 9.01932 28.7954 8.99664C22.1252 8.97396 16.6996 14.3654 16.6769 21.0387C16.6543 27.712 22.0431 33.1402 28.7132 33.1629C35.3833 33.1856 40.8089 27.7942 40.8316 21.1208Z" stroke="#499A9A" stroke-width="1.5" stroke-miterlimit="10" stroke-linecap="round" stroke-linejoin="round"/>
<path d="M28.7534 40.4229C39.4315 40.4229 48.0879 31.7625 48.0879 21.0793C48.0879 10.3961 39.4315 1.73572 28.7534 1.73572C18.0752 1.73572 9.41882 10.3961 9.41882 21.0793C9.41882 31.7625 18.0752 40.4229 28.7534 40.4229Z" stroke="#499A9A" stroke-width="1.5" stroke-miterlimit="10" stroke-linecap="round" stroke-linejoin="round"/>
<path d="M28.7532 15.7372V21.0792L32.2646 23.5272" stroke="#499A9A" stroke-width="1.5" stroke-miterlimit="10" stroke-linecap="round" stroke-linejoin="round"/>
<path d="M55.3756 16.8048H67.6192" stroke="#499A9A" stroke-width="1.5" stroke-miterlimit="10" stroke-linecap="round" stroke-linejoin="round"/>
<path d="M66.3831 14.3331L68.8554 16.8048L66.3831 19.2767" stroke="#499A9A" stroke-width="1.5" stroke-miterlimit="10" stroke-linecap="round" stroke-linejoin="round"/>
<path d="M68.8554 26.2844H56.6118" stroke="#499A9A" stroke-width="1.5" stroke-miterlimit="10" stroke-linecap="round" stroke-linejoin="round"/>
<path d="M57.848 28.7562L55.3756 26.2843L57.848 23.8126" stroke="#499A9A" stroke-width="1.5" stroke-miterlimit="10" stroke-linecap="round" stroke-linejoin="round"/>
<path d="M20.9669 53.6125C20.9669 55.5997 22.5766 57.2107 24.5624 57.2107H42.1121" stroke="#499A9A" stroke-width="1.5" stroke-miterlimit="10" stroke-linecap="round" stroke-linejoin="round"/>
<path d="M55.3756 50.2234L53.3583 48.4129C49.0356 44.5337 42.5963 44.1921 37.888 47.5924L36.7317 48.4274H26.148C23.2866 48.4274 20.9669 50.7488 20.9669 53.6126C20.9669 53.9376 20.9969 54.2555 21.0541 54.564H20.8439L9.70376 43.857C7.88032 42.1043 5.00017 42.1021 3.17392 43.852C1.28142 45.6654 1.22814 48.6748 3.05532 50.554L18.6616 66.606C19.6922 67.6662 21.1074 68.2641 22.5855 68.2641H44.38C45.3783 68.2641 46.3577 67.991 47.212 67.4741L54.8545 62.2865" stroke="#499A9A" stroke-width="1.5" stroke-miterlimit="10" stroke-linecap="round" stroke-linejoin="round"/>
<path d="M78.2815 47.6273H55.7881V68.264H78.2815V47.6273Z" stroke="#499A9A" stroke-width="1.5" stroke-miterlimit="10" stroke-linecap="round" stroke-linejoin="round"/>
<path d="M63.2603 60.3834H70.8093" stroke="#499A9A" stroke-width="1.5" stroke-miterlimit="10" stroke-linecap="round" stroke-linejoin="round"/>
</svg>
