<svg width="80" height="80" viewBox="0 0 80 80" fill="none" xmlns="http://www.w3.org/2000/svg">
<path d="M50.9217 29.9522V15.0128H55.6251L40.0001 1.71875L24.3751 15.0128H29.0786V29.9522" stroke="#499A9A" stroke-width="1.5" stroke-miterlimit="2.6131" stroke-linecap="round" stroke-linejoin="round"/>
<path d="M45.3187 65.6322C53.433 62.6947 57.6296 53.7355 54.6921 45.6212C51.7547 37.5069 42.7955 33.3103 34.6812 36.2478C26.5669 39.1852 22.3703 48.1444 25.3078 56.2587C28.2452 64.373 37.2044 68.5696 45.3187 65.6322Z" stroke="#499A9A" stroke-width="1.5" stroke-miterlimit="2.6131" stroke-linecap="round" stroke-linejoin="round"/>
<path d="M37.6181 56.6879L38.4601 57.0366C40.0415 57.6916 41.8712 56.9338 42.5262 55.3524C43.1812 53.771 42.4234 51.9413 40.8422 51.2863L40 50.9375L39.1578 50.5888C37.5765 49.9338 36.8187 48.1041 37.4737 46.5227C38.1287 44.9411 39.9584 44.1835 41.5398 44.8385L42.3818 45.1872" stroke="#499A9A" stroke-width="1.5" stroke-miterlimit="22.9256" stroke-linecap="round" stroke-linejoin="round"/>
<path d="M40 57.7887V59.5312" stroke="#499A9A" stroke-width="1.5" stroke-miterlimit="22.9256" stroke-linecap="round" stroke-linejoin="round"/>
<path d="M40 42.3438V44.2425" stroke="#499A9A" stroke-width="1.5" stroke-miterlimit="22.9256" stroke-linecap="round" stroke-linejoin="round"/>
<path d="M10.7307 22.8848V30.3634" stroke="#499A9A" stroke-width="1.5" stroke-miterlimit="2.6131" stroke-linecap="round" stroke-linejoin="round"/>
<path d="M7.96875 24.8657L10.7308 22.1035L13.493 24.8657" stroke="#499A9A" stroke-width="1.5" stroke-miterlimit="22.9256" stroke-linecap="round" stroke-linejoin="round"/>
<path d="M16.1997 4.46887V11.9473" stroke="#499A9A" stroke-width="1.5" stroke-miterlimit="2.6131" stroke-linecap="round" stroke-linejoin="round"/>
<path d="M13.4375 6.44965L16.1997 3.68762L18.9617 6.44965" stroke="#499A9A" stroke-width="1.5" stroke-miterlimit="22.9256" stroke-linecap="round" stroke-linejoin="round"/>
<path d="M69.269 22.8848V30.3634" stroke="#499A9A" stroke-width="1.5" stroke-miterlimit="2.6131" stroke-linecap="round" stroke-linejoin="round"/>
<path d="M72.0313 24.8657L69.2691 22.1035L66.5071 24.8657" stroke="#499A9A" stroke-width="1.5" stroke-miterlimit="22.9256" stroke-linecap="round" stroke-linejoin="round"/>
<path d="M63.8003 4.46887V11.9473" stroke="#499A9A" stroke-width="1.5" stroke-miterlimit="2.6131" stroke-linecap="round" stroke-linejoin="round"/>
<path d="M66.5624 6.44965L63.8004 3.68762L61.0383 6.44965" stroke="#499A9A" stroke-width="1.5" stroke-miterlimit="22.9256" stroke-linecap="round" stroke-linejoin="round"/>
<path fill-rule="evenodd" clip-rule="evenodd" d="M36.1097 23.5938L35.7528 27.982C32.467 28.5861 29.4228 29.8791 26.7734 31.7044L23.4159 28.8517L17.9142 34.3534L20.7666 37.7106C18.9408 40.3597 17.6481 43.4045 17.0438 46.6903L12.6562 47.0472V54.8278L17.0445 55.1847C17.6486 58.4705 18.9416 61.5147 20.7667 64.1641L17.9141 67.5216L23.4158 73.0234L26.773 70.1711C29.422 71.9969 32.4669 73.2895 35.7527 73.8939L36.1097 78.2812H43.8903L44.247 73.8939C47.533 73.2895 50.5778 71.9969 53.2269 70.1711L56.5841 73.0234L62.0858 67.5216L59.2331 64.1641C61.0583 61.5148 62.3514 58.4705 62.9555 55.1847L67.3438 54.8278V47.0472L62.9564 46.6905C62.352 43.4045 61.0594 40.3598 59.2336 37.7108L62.0859 34.3536L56.5842 28.8519L53.2267 31.7045C50.5773 29.8794 47.5331 28.5864 44.2473 27.9822L43.8903 23.5938H36.1097Z" stroke="#499A9A" stroke-width="1.5" stroke-miterlimit="22.9256" stroke-linecap="round" stroke-linejoin="round"/>
</svg>
