<svg width="80" height="76" viewBox="0 0 80 76" fill="none" xmlns="http://www.w3.org/2000/svg">
<path d="M34.5766 38.0233C34.5989 31.0426 28.9609 25.3655 21.9836 25.3432C15.0064 25.3209 9.33207 30.9618 9.30973 37.9425C9.2874 44.9232 14.9255 50.6003 21.9027 50.6226C28.88 50.6449 34.5543 45.004 34.5766 38.0233Z" stroke="#499A9A" stroke-width="1.5" stroke-miterlimit="10" stroke-linecap="round" stroke-linejoin="round"/>
<path d="M58.1208 65.0297H51.0553V10.9391H58.1208" stroke="#499A9A" stroke-width="1.5" stroke-miterlimit="10" stroke-linecap="round" stroke-linejoin="round"/>
<path d="M43.2578 37.9844H58.1208" stroke="#499A9A" stroke-width="1.5" stroke-miterlimit="10" stroke-linecap="round" stroke-linejoin="round"/>
<path d="M21.9436 58.2192C33.1135 58.2192 42.1684 49.1597 42.1684 37.9844C42.1684 26.809 33.1135 17.7495 21.9436 17.7495C10.7737 17.7495 1.71875 26.809 1.71875 37.9844C1.71875 49.1597 10.7737 58.2192 21.9436 58.2192Z" stroke="#499A9A" stroke-width="1.5" stroke-miterlimit="10" stroke-linecap="round" stroke-linejoin="round"/>
<path d="M21.9436 32.3962V37.9844L25.6167 40.545" stroke="#499A9A" stroke-width="1.5" stroke-miterlimit="10" stroke-linecap="round" stroke-linejoin="round"/>
<path d="M68.5073 20.7111C73.9053 20.7111 78.2812 16.336 78.2812 10.939C78.2812 5.54208 73.9053 1.16699 68.5073 1.16699C63.1093 1.16699 58.7334 5.54208 58.7334 10.939C58.7334 16.336 63.1093 20.7111 68.5073 20.7111Z" stroke="#499A9A" stroke-width="1.5" stroke-miterlimit="10" stroke-linecap="round" stroke-linejoin="round"/>
<path d="M68.5073 47.7565C73.9053 47.7565 78.2812 43.3814 78.2812 37.9844C78.2812 32.5875 73.9053 28.2124 68.5073 28.2124C63.1093 28.2124 58.7334 32.5875 58.7334 37.9844C58.7334 43.3814 63.1093 47.7565 68.5073 47.7565Z" stroke="#499A9A" stroke-width="1.5" stroke-miterlimit="10" stroke-linecap="round" stroke-linejoin="round"/>
<path d="M68.5073 74.833C73.9053 74.833 78.2812 70.4579 78.2812 65.061C78.2812 59.664 73.9053 55.2889 68.5073 55.2889C63.1093 55.2889 58.7334 59.664 58.7334 65.061C58.7334 70.4579 63.1093 74.833 68.5073 74.833Z" stroke="#499A9A" stroke-width="1.5" stroke-miterlimit="10" stroke-linecap="round" stroke-linejoin="round"/>
<path d="M65.881 65.1829L68.275 67.2237L71.5571 63.2094" stroke="#499A9A" stroke-width="1.5" stroke-miterlimit="10" stroke-linecap="round" stroke-linejoin="round"/>
<path d="M65.881 10.9054L68.275 12.9463L71.5571 8.93176" stroke="#499A9A" stroke-width="1.5" stroke-miterlimit="10" stroke-linecap="round" stroke-linejoin="round"/>
<path d="M70.6017 35.9993L66.413 40.1872" stroke="#499A9A" stroke-width="1.5" stroke-miterlimit="10" stroke-linecap="round" stroke-linejoin="round"/>
<path d="M70.6017 40.1872L66.413 35.9993" stroke="#499A9A" stroke-width="1.5" stroke-miterlimit="10" stroke-linecap="round" stroke-linejoin="round"/>
</svg>
