<svg width="80" height="80" viewBox="0 0 80 80" fill="none" xmlns="http://www.w3.org/2000/svg">
<path d="M52.0692 19.7612C61.9806 24.3306 68.8598 34.3539 68.8598 45.9839C68.8598 48.22 68.6055 50.3967 68.1242 52.4867" stroke="#499A9A" stroke-width="1.5" stroke-miterlimit="10" stroke-linejoin="round"/>
<path d="M11.8756 52.4859C11.3944 50.3962 11.1401 48.2196 11.1401 45.9839C11.1401 34.3559 18.017 24.334 27.9256 19.7635" stroke="#499A9A" stroke-width="1.5" stroke-miterlimit="10" stroke-linejoin="round"/>
<path d="M53.7562 71.3605C49.667 73.5819 44.9809 74.8438 40 74.8438C35.0393 74.8438 30.371 73.5922 26.2937 71.3877" stroke="#499A9A" stroke-width="1.5" stroke-miterlimit="10" stroke-linejoin="round"/>
<path d="M40 49.4214C41.8985 49.4214 43.4375 47.8824 43.4375 45.9839C43.4375 44.0854 41.8985 42.5464 40 42.5464C38.1015 42.5464 36.5625 44.0854 36.5625 45.9839C36.5625 47.8824 38.1015 49.4214 40 49.4214Z" stroke="#499A9A" stroke-width="1.5" stroke-miterlimit="10" stroke-linecap="round" stroke-linejoin="round"/>
<path d="M50.3124 45.9839C50.3124 45.1317 50.209 44.3037 50.0141 43.5115L51.041 42.5678L48.4779 38.1292L47.1449 38.5476C45.9562 37.4051 44.4941 36.545 42.8666 36.075L42.5632 34.7143L37.4377 34.7139L37.134 36.0746C35.5062 36.5446 34.044 37.4048 32.8551 38.5475L31.5221 38.129L28.959 42.5676L29.9859 43.5114C29.791 44.3034 29.6876 45.1315 29.6876 45.9837C29.6876 46.8359 29.791 47.6639 29.9859 48.4561L28.959 49.3998L31.5221 53.8384L32.8551 53.42C34.0438 54.5625 35.5057 55.4226 37.1334 55.8926L37.4368 57.2532L42.5623 57.2537L42.866 55.8929C44.4938 55.4229 45.956 54.5628 47.1449 53.4201L48.4779 53.8386L51.041 49.4L50.0141 48.4562C50.209 47.664 50.3124 46.8361 50.3124 45.9839Z" stroke="#499A9A" stroke-width="1.5" stroke-miterlimit="10" stroke-linecap="round" stroke-linejoin="round"/>
<path d="M14.7789 55.5984V52.4734" stroke="#499A9A" stroke-width="1.5" stroke-miterlimit="10" stroke-linecap="round" stroke-linejoin="round"/>
<path d="M14.7789 77.9688V74.8438" stroke="#499A9A" stroke-width="1.5" stroke-miterlimit="10" stroke-linecap="round" stroke-linejoin="round"/>
<path d="M24.4016 65.2211H27.5266" stroke="#499A9A" stroke-width="1.5" stroke-miterlimit="10" stroke-linecap="round" stroke-linejoin="round"/>
<path d="M2.03125 65.2211H5.15625" stroke="#499A9A" stroke-width="1.5" stroke-miterlimit="10" stroke-linecap="round" stroke-linejoin="round"/>
<path d="M21.5831 58.4168L23.7928 56.2072" stroke="#499A9A" stroke-width="1.5" stroke-miterlimit="10" stroke-linecap="round" stroke-linejoin="round"/>
<path d="M5.76501 74.235L7.9747 72.0253" stroke="#499A9A" stroke-width="1.5" stroke-miterlimit="10" stroke-linecap="round" stroke-linejoin="round"/>
<path d="M21.5831 72.0253L23.7928 74.235" stroke="#499A9A" stroke-width="1.5" stroke-miterlimit="10" stroke-linecap="round" stroke-linejoin="round"/>
<path d="M5.76501 56.2072L7.9747 58.4168" stroke="#499A9A" stroke-width="1.5" stroke-miterlimit="10" stroke-linecap="round" stroke-linejoin="round"/>
<path d="M14.7789 62.4734V65.221L13.1958 66.8042" stroke="#499A9A" stroke-width="1.5" stroke-miterlimit="10" stroke-linecap="round" stroke-linejoin="round"/>
<path d="M65.2212 57.9229V59.9616" stroke="#499A9A" stroke-width="1.5" stroke-miterlimit="10" stroke-linecap="round" stroke-linejoin="round"/>
<path d="M65.2212 72.5192V70.4806" stroke="#499A9A" stroke-width="1.5" stroke-miterlimit="10" stroke-linecap="round" stroke-linejoin="round"/>
<path d="M62.4402 70.4807H65.2213C66.6736 70.4807 67.851 69.3033 67.851 67.851C67.851 66.3986 66.6736 65.2213 65.2213 65.2213C63.7689 65.2213 62.5916 64.0439 62.5916 62.5916C62.5916 61.1393 63.7689 59.9619 65.2213 59.9619H68.0024" stroke="#499A9A" stroke-width="1.5" stroke-miterlimit="10" stroke-linecap="round" stroke-linejoin="round"/>
<path d="M40.0055 16.7047C42.139 16.7047 43.8685 14.9752 43.8685 12.8417C43.8685 10.7083 42.139 8.97876 40.0055 8.97876C37.8721 8.97876 36.1426 10.7083 36.1426 12.8417C36.1426 14.9752 37.8721 16.7047 40.0055 16.7047Z" stroke="#499A9A" stroke-width="1.5" stroke-miterlimit="10" stroke-linejoin="round"/>
<path d="M31.8452 24.8648C31.8452 20.3581 35.4987 16.7045 40.0055 16.7045C44.5122 16.7045 48.1658 20.3579 48.1658 24.8648" stroke="#499A9A" stroke-width="1.5" stroke-miterlimit="10" stroke-linejoin="round"/>
<path d="M40 27.8391C47.2129 27.8391 53.0601 21.9918 53.0601 14.7789C53.0601 7.56598 47.2129 1.71875 40 1.71875C32.7871 1.71875 26.9398 7.56598 26.9398 14.7789C26.9398 21.9918 32.7871 27.8391 40 27.8391Z" stroke="#499A9A" stroke-width="1.5" stroke-miterlimit="10" stroke-linejoin="round"/>
<path d="M65.221 78.2812C72.434 78.2812 78.2812 72.434 78.2812 65.221C78.2812 58.0081 72.434 52.1609 65.221 52.1609C58.0081 52.1609 52.1609 58.0081 52.1609 65.221C52.1609 72.434 58.0081 78.2812 65.221 78.2812Z" stroke="#499A9A" stroke-width="1.5" stroke-miterlimit="10" stroke-linecap="round" stroke-linejoin="round"/>
<path d="M14.7789 78.2812C21.9918 78.2812 27.8391 72.434 27.8391 65.221C27.8391 58.0081 21.9918 52.1609 14.7789 52.1609C7.56598 52.1609 1.71875 58.0081 1.71875 65.221C1.71875 72.434 7.56598 78.2812 14.7789 78.2812Z" stroke="#499A9A" stroke-width="1.5" stroke-miterlimit="10" stroke-linecap="round" stroke-linejoin="round"/>
</svg>
