<svg width="60" height="60" viewBox="0 0 60 60" fill="none" xmlns="http://www.w3.org/2000/svg">
<rect width="60" height="60" rx="30" fill="white"/>
<path d="M16.7733 20.851H11.1719V41.0424H13.2619V44.7099L19.4705 41.0424H37.8101V35.4816" stroke="#082326" stroke-miterlimit="10" stroke-linecap="round" stroke-linejoin="round"/>
<path d="M16.7734 15.2901H48.8283V35.4816H46.7383V39.1491L40.5297 35.4816H16.7734V15.2901Z" stroke="#082326" stroke-miterlimit="10" stroke-linecap="round" stroke-linejoin="round"/>
<path d="M30.2947 26.049L29.1986 24.9423V22.322C29.1986 20.962 28.0978 19.8596 26.7399 19.8596C25.382 19.8596 24.2812 20.9621 24.2812 22.322V24.8945L23.1218 26.0426C22.0846 27.0696 21.501 28.4696 21.501 29.9304V30.7367H31.8779V29.8993C31.8781 28.457 31.3089 27.0731 30.2947 26.049Z" stroke="#082326" stroke-miterlimit="10" stroke-linecap="round" stroke-linejoin="round"/>
<path d="M24.2812 24.8945H29.1986" stroke="#082326" stroke-miterlimit="10" stroke-linecap="round" stroke-linejoin="round"/>
<path d="M35.2607 20.919H43.9598" stroke="#082326" stroke-miterlimit="10" stroke-linecap="round" stroke-linejoin="round"/>
<path d="M38.3223 25.3808H43.9599" stroke="#082326" stroke-miterlimit="10" stroke-linecap="round" stroke-linejoin="round"/>
<path d="M38.3223 29.8426H43.9599" stroke="#082326" stroke-miterlimit="10" stroke-linecap="round" stroke-linejoin="round"/>
</svg>
