<svg width="60" height="60" viewBox="0 0 60 60" fill="none" xmlns="http://www.w3.org/2000/svg">
<rect width="60" height="60" rx="30" fill="white"/>
<g clip-path="url(#clip0_4461_16070)">
<path d="M44.0895 17.3271C44.0067 17.1828 43.8702 17.0774 43.71 17.0343C43.5499 16.9912 43.3793 17.0137 43.2358 17.0971L37.0993 20.6598C37.0072 20.7129 36.9301 20.7889 36.8756 20.8805C36.821 20.9721 36.7908 21.0763 36.7878 21.1831L29.0913 21.1011C28.5602 21.0878 28.033 21.1967 27.5501 21.4195C27.0671 21.6423 26.6412 21.9731 26.3047 22.3866L25.3702 23.5022C25.3624 23.4977 25.3542 23.4926 25.3456 23.4883L22.7409 22.183L23.1296 21.5059C23.2125 21.3615 23.235 21.19 23.1921 21.029C23.1492 20.868 23.0444 20.7307 22.9009 20.6474L16.7642 17.0847C16.6932 17.0434 16.6147 17.0166 16.5333 17.0059C16.4519 16.9951 16.3692 17.0005 16.29 17.0219C16.2107 17.0433 16.1364 17.0801 16.0713 17.1304C16.0061 17.1806 15.9515 17.2433 15.9105 17.3148L10.0838 27.4634C10.0427 27.5349 10.0161 27.6138 10.0054 27.6956C9.99463 27.7774 10 27.8606 10.0213 27.9403C10.0425 28.0201 10.0792 28.0948 10.1292 28.1603C10.1791 28.2258 10.2414 28.2807 10.3125 28.322L16.449 31.8846C16.5925 31.9679 16.7631 31.9905 16.9232 31.9474C17.0834 31.9042 17.2199 31.7989 17.3027 31.6546L17.3664 31.5437L18.0935 31.9375C17.697 32.4074 17.4906 33.0099 17.5152 33.6257C17.5398 34.2414 17.7936 34.8254 18.2263 35.2618C18.5649 35.6037 18.997 35.8365 19.4677 35.9305C19.2996 36.3041 19.2275 36.7141 19.2578 37.1229C19.2881 37.5318 19.4199 37.9265 19.6412 38.2708C19.8624 38.6152 20.1661 38.8983 20.5243 39.0941C20.8825 39.2899 21.2838 39.3923 21.6915 39.3918C21.8276 39.3916 21.9635 39.3802 22.0977 39.3576C22.1257 39.9881 22.3948 40.5833 22.8488 41.0191C23.3028 41.4548 23.9066 41.6974 24.5342 41.6962C24.6704 41.696 24.8062 41.6845 24.9405 41.662C24.9629 42.1368 25.1219 42.5948 25.3981 42.9805C25.6744 43.3661 26.0561 43.6629 26.4968 43.8346C26.9375 44.0064 27.4184 44.0458 27.8809 43.948C28.3435 43.8503 28.7679 43.6196 29.1026 43.284L29.6791 42.7042C30.0547 42.9185 30.4804 43.0283 30.9122 43.0223C31.3441 43.0163 31.7665 42.8946 32.1361 42.6699C32.5057 42.4451 32.809 42.1254 33.0149 41.7436C33.2208 41.3618 33.3217 40.9318 33.3074 40.4977C33.8336 40.5799 34.3721 40.4821 34.8363 40.2198C35.655 39.772 36.201 38.9247 36.2381 38.0534C36.6013 38.1472 36.9811 38.1554 37.348 38.0774C37.7149 37.9994 38.0589 37.8373 38.3533 37.6037C38.6477 37.3702 38.8846 37.0715 39.0454 36.7308C39.2063 36.3902 39.2868 36.0168 39.2806 35.6398C39.471 35.6879 39.6665 35.7124 39.8628 35.7128C40.0581 35.7127 40.2527 35.6893 40.4424 35.6431C40.8669 35.5396 41.256 35.3235 41.5692 35.0174C41.8823 34.7112 42.108 34.3261 42.2227 33.9023C42.3375 33.4785 42.337 33.0316 42.2214 32.608C42.1059 32.1845 41.8794 31.7999 41.5656 31.4943L42.3097 30.9939L42.6961 31.6669C42.7371 31.7384 42.7917 31.8011 42.8569 31.8513C42.922 31.9016 42.9963 31.9385 43.0756 31.9598C43.1549 31.9812 43.2376 31.9866 43.319 31.9758C43.4003 31.965 43.4788 31.9382 43.5499 31.8969L49.6875 28.3342C49.8311 28.2509 49.9358 28.1136 49.9787 27.9526C50.0216 27.7916 49.9991 27.6201 49.9163 27.4757L44.0895 17.3271ZM11.4788 27.5476L16.6805 18.4875L21.7344 21.4217L16.5327 30.4818L11.4788 27.5476ZM19.1105 32.6801L20.1058 31.6793C20.3284 31.4543 20.6308 31.3274 20.9465 31.3266C21.2621 31.3258 21.5652 31.4511 21.789 31.675C22.0127 31.8988 22.1389 32.2029 22.1397 32.5203C22.1405 32.8378 22.0159 33.1425 21.7933 33.3675L20.7891 34.3777C20.5652 34.6015 20.2621 34.7267 19.9464 34.7258C19.6308 34.7249 19.3284 34.5979 19.1058 34.3728C18.8833 34.1477 18.7587 33.8429 18.7597 33.5254C18.7606 33.208 18.8869 32.9039 19.1107 32.6801H19.1105ZM20.8502 37.7866C20.6273 37.562 20.5021 37.2576 20.5021 36.9402C20.5021 36.6228 20.6273 36.3184 20.8502 36.0938L21.6691 35.2704C21.672 35.2675 21.6749 35.2648 21.6778 35.2619C21.6792 35.2606 21.6804 35.259 21.6818 35.2576L22.6684 34.2654C22.6699 34.2639 22.6716 34.2627 22.6731 34.2611C22.6762 34.2581 22.6789 34.2549 22.6819 34.2518L23.5 33.4287C23.7232 33.2042 24.026 33.078 24.3417 33.078C24.6574 33.078 24.9602 33.2041 25.1834 33.4286C25.4067 33.6531 25.5321 33.9575 25.5321 34.275C25.5321 34.5925 25.4067 34.8969 25.1835 35.1214L22.5336 37.7864C22.3102 38.0106 22.0075 38.1365 21.6919 38.1365C21.3763 38.1365 21.0736 38.0106 20.8502 37.7865V37.7866ZM23.6933 40.091C23.4705 39.8663 23.3454 39.562 23.3454 39.2447C23.3454 38.9275 23.4705 38.6231 23.6933 38.3985L25.7917 36.2883C26.0154 36.066 26.3175 35.9417 26.632 35.9427C26.9465 35.9436 27.2479 36.0696 27.4702 36.2933C27.6926 36.5169 27.818 36.8199 27.8189 37.1362C27.8198 37.4524 27.6962 37.7562 27.4752 37.9811L27.1994 38.2584L25.3767 40.0913C25.1532 40.3154 24.8505 40.4412 24.5349 40.4411C24.2193 40.4411 23.9166 40.3151 23.6933 40.0908V40.091ZM27.3781 42.7436C27.1427 42.7441 26.9124 42.6744 26.7165 42.5431C26.5205 42.4119 26.3678 42.225 26.2776 42.0063C26.1874 41.7876 26.1639 41.5469 26.21 41.3148C26.256 41.0826 26.3697 40.8694 26.5364 40.7023L26.5371 40.7016L28.0833 39.1468C28.3074 38.9266 28.6087 38.8041 28.922 38.8059C29.2353 38.8077 29.5352 38.9336 29.7568 39.1564C29.9784 39.3791 30.1037 39.6807 30.1055 39.9957C30.1074 40.3108 29.9856 40.6139 29.7667 40.8392L28.2199 42.3947C28.1095 42.506 27.9782 42.5941 27.8338 42.654C27.6893 42.7138 27.5344 42.7443 27.3781 42.7436ZM31.8906 41.1907C31.7631 41.3997 31.5748 41.5643 31.3513 41.6622C31.1277 41.7602 30.8797 41.7868 30.6406 41.7384L30.6506 41.7284C30.8776 41.5009 31.0575 41.2304 31.1798 40.9325C31.3021 40.6347 31.3644 40.3154 31.3632 39.9931C31.3632 39.8018 31.3412 39.6111 31.2977 39.4249L31.7098 39.7156C31.8985 39.9064 32.0187 40.1549 32.0515 40.422C32.0842 40.6891 32.0276 40.9595 31.8906 41.1907ZM40.8874 33.8839C40.7217 34.1537 40.4568 34.3467 40.1503 34.421C39.8438 34.4954 39.5205 34.445 39.2508 34.2808L38.1174 33.584L38.1159 33.5829L38.115 33.5825L33.1131 30.5073C33.0431 30.4633 32.9651 30.4337 32.8836 30.4203C32.8022 30.4068 32.7188 30.4097 32.6385 30.4288C32.5582 30.4478 32.4824 30.4828 32.4155 30.5315C32.3486 30.5802 32.292 30.6417 32.249 30.7126C32.2059 30.7834 32.1772 30.8621 32.1646 30.9441C32.1519 31.0262 32.1556 31.1099 32.1753 31.1906C32.195 31.2712 32.2304 31.3471 32.2795 31.4138C32.3286 31.4806 32.3903 31.537 32.4611 31.5796L37.4642 34.6556C37.7335 34.8213 37.9264 35.0877 38.0004 35.3964C38.0744 35.7051 38.0234 36.0306 37.8587 36.3015C37.694 36.5724 37.429 36.7663 37.122 36.8407C36.8151 36.9151 36.4913 36.8639 36.222 36.6982L31.6942 33.914C31.5527 33.8271 31.3828 33.8002 31.2216 33.8392C31.0605 33.8783 30.9214 33.9802 30.8349 34.1224C30.7484 34.2646 30.7217 34.4355 30.7606 34.5976C30.7994 34.7596 30.9007 34.8995 31.0421 34.9865L34.3788 37.0379L34.3795 37.0384C34.7952 37.294 35.0013 37.6119 34.992 37.9829C34.9813 38.4135 34.6717 38.8792 34.2399 39.1157C34.0678 39.2187 33.8707 39.2719 33.6704 39.2695C33.4701 39.2671 33.2743 39.209 33.1047 39.1018L32.4517 38.7032L30.1947 37.113C30.1059 37.0504 30.0023 37.0121 29.8943 37.0019C29.7863 36.9917 29.6775 37.01 29.5786 37.0549C29.4798 37.0999 29.3943 37.1699 29.3305 37.2581C29.2667 37.3464 29.2268 37.4498 29.2149 37.5583C29.1561 37.5513 29.0977 37.5458 29.0382 37.543C29.0963 37.2007 29.0813 36.8499 28.9942 36.5138C28.9072 36.1778 28.75 35.8642 28.5333 35.5938C28.3166 35.3234 28.0451 35.1025 27.737 34.9457C27.4289 34.7888 27.0912 34.6997 26.7462 34.6841C26.7686 34.5489 26.78 34.4121 26.7802 34.2751C26.7814 33.9528 26.7191 33.6336 26.5968 33.3357C26.4745 33.0379 26.2946 32.7674 26.0677 32.5399C25.7168 32.188 25.2679 31.9517 24.7805 31.8622C24.293 31.7727 23.7901 31.8343 23.3382 32.0388C23.251 31.6039 23.0481 31.2008 22.7511 30.8727C22.4541 30.5446 22.0742 30.3036 21.6517 30.1755C21.2293 30.0474 20.7802 30.0369 20.3523 30.1452C19.9244 30.2535 19.5338 30.4765 19.222 30.7905L19.0084 31.0053L17.9917 30.4547L22.1145 23.2742L24.5426 24.4905L22.8524 26.5085C22.733 26.6485 22.6543 26.8189 22.6246 27.0009C22.595 27.1829 22.6156 27.3697 22.6843 27.5407C22.7468 27.7002 22.8119 27.8517 22.8777 27.9909C23.0595 28.3755 23.3327 28.7092 23.6732 28.9624C24.0137 29.2156 24.411 29.3806 24.83 29.4427C25.249 29.5048 25.6767 29.4622 26.0754 29.3186C26.4741 29.175 26.8315 28.9349 27.116 28.6194L28.7878 26.7648C29.0666 26.4497 29.4473 26.2439 29.8625 26.1839C30.2777 26.1239 30.7006 26.2135 31.0563 26.4369L40.493 32.2383C40.7612 32.4049 40.9531 32.6713 41.027 32.9794C41.1009 33.2876 41.0508 33.6127 40.8876 33.8839H40.8874ZM40.4459 30.7362L31.7086 25.3642C31.1054 24.9853 30.3883 24.8333 29.6843 24.9351C28.9803 25.0368 28.3348 25.3858 27.862 25.9202L26.1902 27.7748C26.0436 27.9373 25.8595 28.061 25.6542 28.135C25.4488 28.209 25.2285 28.2309 25.0126 28.1989C24.7968 28.1669 24.5922 28.082 24.4168 27.9516C24.2413 27.8212 24.1006 27.6493 24.0069 27.4512C23.971 27.3754 23.9353 27.2941 23.8999 27.2094L27.261 23.1964C27.4791 22.9252 27.7566 22.7084 28.0718 22.563C28.3871 22.4176 28.7315 22.3474 29.0781 22.358L37.4037 22.4467L41.6849 29.903L40.4459 30.7362ZM43.4673 30.4942L38.2656 21.4345L43.3196 18.5003L48.5213 27.5599L43.4673 30.4942Z" fill="#082326"/>
</g>
<defs>
<clipPath id="clip0_4461_16070">
<rect width="40" height="40" fill="white" transform="translate(10 10)"/>
</clipPath>
</defs>
</svg>
