<svg width="29" height="29" viewBox="0 0 29 29" fill="none" xmlns="http://www.w3.org/2000/svg">
<path d="M27.3767 22.5233C27.3767 23.0033 27.27 23.4967 27.0433 23.9767C26.8167 24.4567 26.5233 24.91 26.1367 25.3367C25.4833 26.0567 24.7633 26.5767 23.95 26.91C23.15 27.2433 22.2833 27.4167 21.35 27.4167C19.99 27.4167 18.5367 27.0967 17.0033 26.4433C15.47 25.79 13.9367 24.91 12.4167 23.8033C10.8833 22.6833 9.43 21.4433 8.04333 20.07C6.67 18.6833 5.43 17.23 4.32333 15.71C3.23 14.19 2.35 12.67 1.71 11.1633C1.07 9.64333 0.75 8.19 0.75 6.80333C0.75 5.89667 0.91 5.03 1.23 4.23C1.55 3.41667 2.05667 2.67 2.76333 2.00333C3.61667 1.16333 4.55 0.75 5.53667 0.75C5.91 0.75 6.28333 0.83 6.61667 0.99C6.96333 1.15 7.27 1.39 7.51 1.73667L10.6033 6.09667C10.8433 6.43 11.0167 6.73667 11.1367 7.03C11.2567 7.31 11.3233 7.59 11.3233 7.84333C11.3233 8.16333 11.23 8.48333 11.0433 8.79C10.87 9.09667 10.6167 9.41667 10.2967 9.73667L9.28333 10.79C9.13667 10.9367 9.07 11.11 9.07 11.3233C9.07 11.43 9.08333 11.5233 9.11 11.63C9.15 11.7367 9.19 11.8167 9.21667 11.8967C9.45667 12.3367 9.87 12.91 10.4567 13.6033C11.0567 14.2967 11.6967 15.0033 12.39 15.71C13.11 16.4167 13.8033 17.07 14.51 17.67C15.2033 18.2567 15.7767 18.6567 16.23 18.8967C16.2967 18.9233 16.3767 18.9633 16.47 19.0033C16.5767 19.0433 16.6833 19.0567 16.8033 19.0567C17.03 19.0567 17.2033 18.9767 17.35 18.83L18.3633 17.83C18.6967 17.4967 19.0167 17.2433 19.3233 17.0833C19.63 16.8967 19.9367 16.8033 20.27 16.8033C20.5233 16.8033 20.79 16.8567 21.0833 16.9767C21.3767 17.0967 21.6833 17.27 22.0167 17.4967L26.43 20.63C26.7767 20.87 27.0167 21.15 27.1633 21.4833C27.2967 21.8167 27.3767 22.15 27.3767 22.5233Z" stroke="white" stroke-width="1.5" stroke-miterlimit="10"/>
</svg>
