<svg width="80" height="80" viewBox="0 0 80 80" fill="none" xmlns="http://www.w3.org/2000/svg">
<path d="M66.5625 65V55.625L59.2852 48.1544M20.8328 48.0347L13.4375 55.625V65M40 65V56.4063" stroke="#499A9A" stroke-width="2" stroke-miterlimit="2.6131" stroke-linecap="round" stroke-linejoin="round"/>
<path d="M46.25 65.7813H33.75V78.2813H46.25V65.7813Z" stroke="#499A9A" stroke-width="2" stroke-miterlimit="2.6131" stroke-linecap="round" stroke-linejoin="round"/>
<path d="M19.6875 65.7813H7.1875V78.2813H19.6875V65.7813Z" stroke="#499A9A" stroke-width="2" stroke-miterlimit="2.6131" stroke-linecap="round" stroke-linejoin="round"/>
<path d="M72.8125 65.7813H60.3125V78.2813H72.8125V65.7813Z" stroke="#499A9A" stroke-width="2" stroke-miterlimit="2.6131" stroke-linecap="round" stroke-linejoin="round"/>
<path d="M54.0864 42.7588C61.8663 34.9789 61.8663 22.3652 54.0864 14.5853C46.3065 6.8054 33.6928 6.8054 25.9129 14.5853C18.133 22.3652 18.133 34.9789 25.9129 42.7588C33.6928 50.5387 46.3065 50.5387 54.0864 42.7588Z" stroke="#499A9A" stroke-width="2" stroke-miterlimit="2.6131" stroke-linecap="round" stroke-linejoin="round"/>
<path d="M26.0541 14.726L28.147 16.819M40 8.94928V11.9091M40 45.2698V48.3948M53.9459 14.726L51.8531 16.8188M28.2636 40.4083L26.0539 42.618M59.7227 28.6719H56.7628M23.4022 28.6719H20.2773M51.7364 40.4083L53.9461 42.618" stroke="#499A9A" stroke-width="2" stroke-miterlimit="2.6131" stroke-linecap="round" stroke-linejoin="round"/>
<path d="M40 55.6251C54.8858 55.6251 66.9531 43.5577 66.9531 28.6719C66.9531 13.7861 54.8858 1.71881 40 1.71881C25.1142 1.71881 13.0469 13.7861 13.0469 28.6719C13.0469 43.5577 25.1142 55.6251 40 55.6251Z" stroke="#499A9A" stroke-width="2" stroke-miterlimit="2.6131" stroke-linecap="round" stroke-linejoin="round"/>
<path d="M40.0011 21.206V28.6719H35.1914" stroke="#499A9A" stroke-width="2" stroke-miterlimit="2.6131" stroke-linecap="round" stroke-linejoin="round"/>
</svg>
