<svg width="80" height="80" viewBox="0 0 80 80" fill="none" xmlns="http://www.w3.org/2000/svg">
<path fill-rule="evenodd" clip-rule="evenodd" d="M78.2811 11.3186V34.1262C78.2811 36.7505 71.4736 38.8778 63.0761 38.8778C54.6786 38.8778 47.8711 36.7505 47.8711 34.1262V11.3186C47.8711 8.69436 54.6786 6.56702 63.0761 6.56702C71.4736 6.56702 78.2811 8.69436 78.2811 11.3186Z" stroke="#499A9A" stroke-width="2" stroke-miterlimit="2.6131" stroke-linecap="round" stroke-linejoin="round"/>
<path d="M78.2787 26.6066C78.134 29.1981 71.3701 31.2753 63.0759 31.2753C54.7818 31.2753 48.0179 29.1981 47.873 26.6066" stroke="#499A9A" stroke-width="2" stroke-miterlimit="2.6131" stroke-linecap="round" stroke-linejoin="round"/>
<path d="M78.2787 19.0041C78.134 21.5957 71.3701 23.6727 63.0759 23.6727C54.7818 23.6727 48.0179 21.5955 47.873 19.0041" stroke="#499A9A" stroke-width="2" stroke-miterlimit="2.6131" stroke-linecap="round" stroke-linejoin="round"/>
<path d="M78.2787 11.4016C78.134 13.9931 71.3701 16.0701 63.0759 16.0701C54.7818 16.0701 48.0179 13.993 47.873 11.4016" stroke="#499A9A" stroke-width="2" stroke-miterlimit="2.6131" stroke-linecap="round" stroke-linejoin="round"/>
<path d="M52.1445 59.3703H65.8411V39.6591" stroke="#499A9A" stroke-width="2" stroke-miterlimit="22.9256" stroke-linecap="round" stroke-linejoin="round"/>
<path fill-rule="evenodd" clip-rule="evenodd" d="M32.1287 11.3186V34.1262C32.1287 36.7505 25.3213 38.8778 16.9238 38.8778C8.52625 38.8778 1.71875 36.7505 1.71875 34.1262V11.3186C1.71875 8.69436 8.52625 6.56702 16.9238 6.56702C25.3213 6.56702 32.1287 8.69436 32.1287 11.3186Z" stroke="#499A9A" stroke-width="2" stroke-miterlimit="2.6131" stroke-linecap="round" stroke-linejoin="round"/>
<path d="M32.1263 26.6066C31.9816 29.1981 25.2177 31.2753 16.9235 31.2753C8.62945 31.2753 1.86539 29.1981 1.7207 26.6066" stroke="#499A9A" stroke-width="2" stroke-miterlimit="2.6131" stroke-linecap="round" stroke-linejoin="round"/>
<path d="M32.1263 19.0041C31.9816 21.5957 25.2177 23.6727 16.9235 23.6727C8.62945 23.6727 1.86539 21.5955 1.7207 19.0041" stroke="#499A9A" stroke-width="2" stroke-miterlimit="2.6131" stroke-linecap="round" stroke-linejoin="round"/>
<path d="M32.1263 11.4016C31.9816 13.9931 25.2177 16.0701 16.9235 16.0701C8.62945 16.0701 1.86539 13.993 1.7207 11.4016" stroke="#499A9A" stroke-width="2" stroke-miterlimit="2.6131" stroke-linecap="round" stroke-linejoin="round"/>
<path d="M28.0442 59.3703H14.1602V39.6591" stroke="#499A9A" stroke-width="2" stroke-miterlimit="22.9256" stroke-linecap="round" stroke-linejoin="round"/>
<path fill-rule="evenodd" clip-rule="evenodd" d="M43.5379 49.0177C44.8973 49.4821 46.1359 50.2068 47.1945 51.1321L50.6166 49.6327L53.7416 55.0454L50.7338 57.2582C50.8676 57.9416 50.9382 58.6477 50.9382 59.3704C50.9382 60.0931 50.8676 60.7991 50.7338 61.4826L53.7416 63.6954L50.6166 69.1081L47.1945 67.6087C46.1357 68.534 44.8971 69.2587 43.5377 69.7231L43.1257 73.4329H36.8759L36.4637 69.7229C35.1043 69.2585 33.8655 68.534 32.807 67.6085L29.3848 69.1079L26.2598 63.6952L29.2679 61.4823C29.1341 60.7988 29.0634 60.0927 29.0634 59.3702C29.0634 58.6476 29.1338 57.9415 29.2677 57.2581L26.2599 55.0452L29.3849 49.6326L32.8071 51.132C33.8659 50.2066 35.1045 49.482 36.4637 49.0176L36.8757 45.3077H43.1257L43.5379 49.0177Z" stroke="#499A9A" stroke-width="2" stroke-miterlimit="2.6131" stroke-linecap="round" stroke-linejoin="round"/>
<path fill-rule="evenodd" clip-rule="evenodd" d="M40 63.2765C42.1516 63.2765 43.9062 61.5218 43.9062 59.3702C43.9062 57.2187 42.1516 55.464 40 55.464C37.8484 55.464 36.0938 57.2187 36.0938 59.3702C36.0939 61.5218 37.8486 63.2765 40 63.2765Z" stroke="#499A9A" stroke-width="2" stroke-miterlimit="2.6131" stroke-linecap="round" stroke-linejoin="round"/>
</svg>
