<svg width="80" height="80" viewBox="0 0 80 80" fill="none" xmlns="http://www.w3.org/2000/svg">
<mask id="mask0_3891_10947" style="mask-type:luminance" maskUnits="userSpaceOnUse" x="0" y="0" width="80" height="80">
<path d="M0 7.62939e-06H80V80H0V7.62939e-06Z" fill="white"/>
</mask>
<g mask="url(#mask0_3891_10947)">
<path d="M70.4687 21.0937H67.8886C66.8027 15.7448 62.0756 11.7187 56.4062 11.7187C55.3391 11.7187 54.3255 11.9073 53.343 12.1745C51.5386 6.49025 46.2817 2.34369 40 2.34369C33.7183 2.34369 28.4614 6.49025 26.657 12.1745C25.6745 11.9073 24.6609 11.7187 23.5937 11.7187C17.9244 11.7187 13.0411 15.7448 11.9552 21.0937H9.375C5.49172 21.0937 2.34375 24.2417 2.34375 28.1249C2.34375 32.0082 5.49172 35.1562 9.375 35.1562H70.4687C74.352 35.1562 77.6562 32.0082 77.6562 28.1249C77.6562 24.2417 74.352 21.0937 70.4687 21.0937Z" stroke="#499A9A" stroke-width="2" stroke-miterlimit="10"/>
<path d="M58.75 68.2812H21.25V44.5313H58.75V68.2812Z" stroke="#499A9A" stroke-width="2" stroke-miterlimit="10"/>
<path d="M58.75 68.2812L63.4375 77.6562H16.5625L21.25 68.2812" stroke="#499A9A" stroke-width="2" stroke-miterlimit="10"/>
<path d="M40 35.1562V44.5312" stroke="#499A9A" stroke-width="2" stroke-miterlimit="10"/>
</g>
</svg>
