<svg width="573" height="274" viewBox="0 0 573 274" fill="none" xmlns="http://www.w3.org/2000/svg">
<g clip-path="url(#clip0_1_136)">
<rect x="2.40417" y="2.20886" width="568.32" height="409.238" rx="13.7208" fill="white"/>
<rect x="2.40417" y="2.20886" width="568.32" height="409.238" rx="13.7208" stroke="#499A9A" stroke-width="4.37475"/>
</g>
<g clip-path="url(#clip1_1_136)">
<mask id="mask0_1_136" style="mask-type:luminance" maskUnits="userSpaceOnUse" x="159" y="98" width="255" height="82">
<path d="M414 98H159V180H414V98Z" fill="white"/>
</mask>
<g mask="url(#mask0_1_136)">
<path d="M261.471 144.459C263.057 145.258 264.788 145.72 266.558 145.818C268.353 145.818 269.737 145.369 269.737 143.785C269.737 142.987 269.346 142.223 267.498 141.19L265.48 139.998C263.428 138.752 261.176 137.438 261.176 134.203C261.356 132.494 262.196 130.925 263.514 129.834C264.832 128.743 266.524 128.219 268.223 128.373C269.959 128.374 271.684 128.658 273.331 129.215L273.052 133.045C271.686 132.46 270.22 132.151 268.736 132.135C266.752 132.135 265.925 132.877 265.925 134.133C265.925 135.39 266.794 135.851 268.223 136.762L270.632 138.311C273.174 139.951 274.446 141.108 274.446 143.502C274.446 147.299 271.267 149.568 266.831 149.568C264.903 149.574 262.989 149.235 261.178 148.567L261.471 144.459Z" fill="#231F20"/>
<path d="M288.599 137.202C288.599 133.563 287.417 131.72 285.254 131.72C282.677 131.72 281.607 134.484 281.607 137.202H288.599ZM292.335 148.256C290.412 149.113 288.334 149.56 286.23 149.57C279.664 149.57 276.809 144.818 276.809 139.269C276.809 133.119 280.01 128.373 285.205 128.373C289.598 128.373 293.367 130.968 293.367 139.346V140.312H281.564C281.564 143.817 282.958 145.929 286.749 145.929C288.666 146.053 290.564 145.483 292.101 144.322L292.335 148.256Z" fill="#231F20"/>
<path d="M296.25 132.046C296.256 130.921 296.204 129.796 296.094 128.676H301C301 129.8 301.167 130.833 301.167 131.911H301.244C301.66 130.875 302.369 129.985 303.283 129.352C304.197 128.719 305.275 128.37 306.385 128.35C307.484 128.285 308.577 128.569 309.509 129.161C310.44 129.753 311.165 130.625 311.58 131.653C312.122 130.668 312.913 129.846 313.872 129.27C314.832 128.694 315.926 128.384 317.044 128.373C321.504 128.373 322.898 131.563 322.898 136.563V149.256H317.992V136.282C317.992 133.721 317.2 132.452 315.383 132.452C313.145 132.452 312.038 134.531 312.038 136.8V149.258H307.121V136.282C307.121 133.721 306.317 132.452 304.5 132.452C302.262 132.452 301.155 134.531 301.155 136.8V149.258H296.238L296.25 132.046Z" fill="#231F20"/>
<path d="M335.275 145.931C338.123 145.931 338.876 143.539 338.876 138.799C338.876 134.689 337.928 132.059 335.197 132.059C332.466 132.059 331.384 134.968 331.384 138.955C331.384 142.942 332.377 145.976 335.275 145.976M331.378 119.355V131.71H331.467C331.912 130.692 332.653 129.833 333.593 129.247C334.532 128.662 335.626 128.377 336.729 128.43C341.133 128.43 343.789 132.35 343.789 139.057C343.789 144.765 341.693 149.627 336.62 149.627C335.463 149.698 334.314 149.395 333.339 148.763C332.365 148.13 331.616 147.202 331.201 146.112H331.066C331.075 147.177 331.022 148.242 330.91 149.301H326.311C326.452 148.139 326.508 146.967 326.477 145.796V119.31L331.378 119.355Z" fill="#231F20"/>
<path d="M360.746 148.727C359.2 149.3 357.564 149.585 355.917 149.57C349.226 149.57 346.328 144.818 346.328 139C346.328 133.182 349.338 128.373 356.196 128.373C357.656 128.417 359.1 128.701 360.469 129.215L360.2 133.125C359.142 132.534 357.964 132.196 356.755 132.137C353.019 132.137 351.391 134.652 351.391 139.033C351.391 142.862 353.223 145.773 356.967 145.773C358.189 145.722 359.382 145.379 360.447 144.773L360.746 148.727Z" fill="#231F20"/>
<path d="M371.404 146.067C374.571 146.067 375.285 142.393 375.285 138.957C375.285 135.521 374.571 131.891 371.404 131.891C368.238 131.891 367.479 135.53 367.479 138.957C367.479 142.385 368.238 146.067 371.404 146.067ZM371.404 128.385C375.564 128.385 380.326 130.564 380.326 138.955C380.326 147.565 375.531 149.57 371.404 149.57C367.277 149.57 362.418 147.571 362.418 138.955C362.418 130.564 367.247 128.385 371.404 128.385Z" fill="#231F20"/>
<path d="M383.614 132.081C383.628 130.956 383.573 129.83 383.447 128.711H387.908C387.908 129.941 388.075 131.227 388.075 132.463H388.152C388.492 131.326 389.173 130.324 390.102 129.594C391.03 128.864 392.161 128.442 393.337 128.385C393.618 128.407 393.898 128.448 394.173 128.508V133.137C393.72 133.008 393.251 132.939 392.78 132.932C390.761 132.932 388.543 134.179 388.543 138.01V149.242H383.637L383.614 132.081Z" fill="#231F20"/>
<path d="M405.402 145.931C408.133 145.931 409.081 143.266 409.081 139.191C409.081 134.439 408.322 132.046 405.479 132.046C402.636 132.046 401.588 135.191 401.588 139.068C401.588 142.944 402.704 145.964 405.402 145.964M396.682 132.26C396.704 131.089 396.651 129.918 396.525 128.754H401.12C401.233 129.814 401.285 130.879 401.277 131.944H401.399C401.82 130.856 402.572 129.93 403.547 129.298C404.522 128.667 405.671 128.362 406.828 128.428C411.891 128.428 413.987 133.303 413.987 139.01C413.987 145.751 411.342 149.625 406.95 149.625C405.846 149.682 404.751 149.4 403.809 148.816C402.867 148.232 402.123 147.374 401.676 146.355H401.586V157.868H396.68L396.682 132.26Z" fill="#231F20"/>
<path d="M196.979 143.82L160.122 145.07C160.067 145.296 160.01 145.542 159.965 145.777L198.802 147.827C198.191 146.513 197.581 145.177 196.985 143.818" fill="#007853"/>
<path d="M191.816 118.545L174.588 119.669L173.719 120.624L191.325 121.421C191.459 120.421 191.614 119.455 191.816 118.523" fill="#007853"/>
<path d="M191.078 126.981L167.908 128.026C167.662 128.398 167.418 128.769 167.184 129.15L191.593 130.273C191.339 129.164 191.167 128.038 191.08 126.903" fill="#007853"/>
<path d="M194.748 110.31L184.156 111.153C183.688 111.489 183.243 111.827 182.785 112.178L182.451 112.448L193.601 112.752C193.93 111.916 194.302 111.098 194.716 110.302" fill="#007853"/>
<path d="M193.389 135.472L163.137 136.595L162.781 137.399L195.117 139.084C194.458 137.924 193.88 136.719 193.389 135.478" fill="#007853"/>
<path d="M206.165 122.151L248.146 124.062C248.174 120.956 247.693 117.867 246.721 114.919L204.738 117.664C205.113 119.192 205.589 120.693 206.163 122.157" fill="#007853"/>
<path d="M203.424 100.876C200.025 102.031 196.724 103.463 193.555 105.157L198.235 105.302C199.743 103.582 201.491 102.091 203.424 100.876Z" fill="#007853"/>
<path d="M200.724 151.997L159.008 153.401V154.041L202.686 156.569C202.118 155.097 201.449 153.58 200.724 151.997Z" fill="#007853"/>
<path d="M243.007 107.963C242.629 107.479 242.238 107.03 241.892 106.594L204.874 109.515C204.797 109.751 204.695 109.986 204.606 110.235C204.283 111.138 204.118 112.091 204.115 113.051L246.487 114.175C245.64 111.942 244.467 109.848 243.007 107.963Z" fill="#007853"/>
<path d="M218.007 98.0349C215.647 98.149 213.361 98.8964 211.385 100.2C209.409 101.503 207.815 103.315 206.768 105.448L241.48 106.204C235.904 100.315 227.485 97.6413 218.064 98.0349" fill="#007853"/>
<path d="M213.604 138.629C213.838 139.113 214.062 139.572 214.274 140.064L243.984 141.604C245.186 139.013 246.164 136.323 246.908 133.563L211.885 134.81C212.495 136.114 213.079 137.393 213.604 138.629Z" fill="#007853"/>
<path d="M217.417 148.818L239.228 149.941C240.911 147.485 242.402 144.901 243.688 142.212L215.689 143.19C216.466 144.996 217.052 146.879 217.439 148.807" fill="#007853"/>
<path d="M210.18 131.216L246.976 133.002C247.672 130.184 248.046 127.295 248.091 124.392L207.883 126.216C208.619 127.879 209.399 129.587 210.19 131.214" fill="#007853"/>
<path d="M217.65 154.355C217.528 155.423 217.394 156.433 217.215 157.409L232.569 158.297C234.797 155.919 236.854 153.384 238.724 150.712L217.728 151.419C217.785 152.397 217.759 153.377 217.65 154.35" fill="#007853"/>
<path d="M203.769 168.643L164.088 169.957V170.035C164.334 170.361 164.613 170.664 164.879 170.968L201.509 173.223C202.372 171.787 203.121 170.285 203.747 168.729" fill="#007853"/>
<path d="M198.436 176.923L174.52 177.71C179.884 179.727 185.643 180.45 191.334 179.822C193.932 179.574 196.4 178.566 198.436 176.923Z" fill="#007853"/>
<path d="M203.983 160.398L160.061 161.88C160.115 162.116 160.195 162.352 160.264 162.587L204.626 165.17C204.659 163.555 204.441 161.944 203.979 160.396" fill="#007853"/>
<path d="M209.232 173.637L211.809 173.795C215.118 172.135 218.297 170.225 221.32 168.081L213.459 168.329C212.328 170.293 210.919 172.081 209.277 173.637" fill="#007853"/>
<path d="M214.74 165.757L223.739 166.285L224.364 165.814C226.855 163.849 229.22 161.727 231.443 159.459L216.692 159.965C216.217 161.95 215.564 163.886 214.74 165.75" fill="#007853"/>
</g>
</g>
<defs>
<clipPath id="clip0_1_136">
<rect width="573" height="274" fill="white"/>
</clipPath>
<clipPath id="clip1_1_136">
<rect width="255" height="82" fill="white" transform="translate(159 98)"/>
</clipPath>
</defs>
</svg>
