<svg width="80" height="80" viewBox="0 0 80 80" fill="none" xmlns="http://www.w3.org/2000/svg">
<path d="M14.0696 18.0036L12.0508 20.0224C11.4004 20.6728 11.2761 21.6823 11.7493 22.471L14.9018 27.7253C14.1719 29.1215 13.5607 30.5894 13.0815 32.1159L7.13891 33.6015C6.24666 33.8245 5.62073 34.6263 5.62073 35.5461V44.8687C5.62073 45.7885 6.24666 46.5903 7.13905 46.8133L13.0816 48.2989C13.5608 49.8254 14.1721 51.2933 14.902 52.6895L11.7495 57.9438C11.2763 58.7325 11.4006 59.742 12.0509 60.3924L18.6431 66.9846C19.2935 67.635 20.3031 67.7592 21.0918 67.2861L26.346 64.1336C27.7422 64.8635 29.2101 65.4747 30.7366 65.9539L32.2223 71.8965C32.4454 72.7887 33.2471 73.4148 34.1669 73.4148H43.4896C44.4094 73.4148 45.2112 72.7889 45.4342 71.8965L46.9198 65.9539C48.4462 65.4747 49.9142 64.8635 51.3104 64.1336L56.5646 67.2861C57.3533 67.7592 58.3629 67.635 59.0133 66.9846L65.6054 60.3924C66.2558 59.742 66.3801 58.7325 65.9069 57.9438L62.7544 52.6895C63.4843 51.2933 64.0955 49.8254 64.5747 48.2989L70.5173 46.8133C71.4097 46.5903 72.0357 45.7885 72.0357 44.8687V35.5461C72.0357 34.6263 71.4097 33.8245 70.5173 33.6015L64.5747 32.1159C64.0955 30.5894 63.4843 29.1215 62.7544 27.7253L65.9069 22.471C66.3801 21.6823 66.2558 20.6728 65.6054 20.0224L59.0133 13.4302C58.3629 12.7798 57.3533 12.6555 56.5646 13.1287L51.3104 16.2812C49.9142 15.5513 48.4462 14.9401 46.9198 14.4609L45.4342 8.51832C45.211 7.62593 44.4092 7 43.4895 7H34.1668C33.247 7 32.4452 7.62593 32.2222 8.51832L30.7365 14.4609C29.21 14.9401 27.7421 15.5513 26.3459 16.2812L21.0916 13.1287C20.3029 12.6555 19.2934 12.7798 18.643 13.4302L17.3962 14.677" stroke="#499A9A" stroke-width="1.5" stroke-miterlimit="10" stroke-linecap="round" stroke-linejoin="round"/>
<path d="M65.5761 43.7701C65.7299 42.6045 65.8093 41.4153 65.8093 40.2075C65.8093 38.9998 65.7299 37.8106 65.5761 36.6449" stroke="#499A9A" stroke-width="1.5" stroke-miterlimit="10" stroke-linecap="round" stroke-linejoin="round"/>
<path d="M55.2207 61.6392C57.1139 60.1889 58.8094 58.4935 60.2597 56.6002" stroke="#499A9A" stroke-width="1.5" stroke-miterlimit="10" stroke-linecap="round" stroke-linejoin="round"/>
<path d="M35.2656 66.9552C36.4314 67.109 37.6205 67.1884 38.8282 67.1884C40.036 67.1884 41.2252 67.1089 42.3909 66.9552" stroke="#499A9A" stroke-width="1.5" stroke-miterlimit="10" stroke-linecap="round" stroke-linejoin="round"/>
<path d="M17.3962 56.6002C18.8465 58.4934 20.5419 60.1889 22.4352 61.6392" stroke="#499A9A" stroke-width="1.5" stroke-miterlimit="10" stroke-linecap="round" stroke-linejoin="round"/>
<path d="M12.0803 36.6449C11.9265 37.8106 11.8471 38.9998 11.8471 40.2075C11.8471 41.4153 11.9265 42.6045 12.0803 43.7701" stroke="#499A9A" stroke-width="1.5" stroke-miterlimit="10" stroke-linecap="round" stroke-linejoin="round"/>
<path d="M22.4351 18.7756C20.542 20.2259 18.8465 21.9213 17.3962 23.8146" stroke="#499A9A" stroke-width="1.5" stroke-miterlimit="10" stroke-linecap="round" stroke-linejoin="round"/>
<path d="M42.3909 13.4596C41.2252 13.3058 40.036 13.2264 38.8282 13.2264C37.6205 13.2264 36.4313 13.3058 35.2656 13.4596" stroke="#499A9A" stroke-width="1.5" stroke-miterlimit="10" stroke-linecap="round" stroke-linejoin="round"/>
<path d="M60.2597 23.8146C58.8094 21.9215 57.114 20.2259 55.2207 18.7756" stroke="#499A9A" stroke-width="1.5" stroke-miterlimit="10" stroke-linecap="round" stroke-linejoin="round"/>
<path d="M52.1495 32.8759C52.2608 33.5737 52.3186 34.2895 52.3186 35.0187C52.3186 42.4693 46.2788 48.5092 38.8281 48.5092C31.3775 48.5092 25.3376 42.4693 25.3376 35.0187C25.3376 27.5681 31.3775 21.5282 38.8281 21.5282C43.8795 21.5282 48.2824 24.3045 50.5942 28.4145" stroke="#499A9A" stroke-width="1.5" stroke-miterlimit="10" stroke-linecap="round" stroke-linejoin="round"/>
<path d="M38.8282 48.5092C42.2669 48.5092 45.0546 42.4693 45.0546 35.0187C45.0546 27.5681 42.2669 21.5282 38.8282 21.5282C35.3894 21.5282 32.6017 27.5681 32.6017 35.0187C32.6017 42.4693 35.3894 48.5092 38.8282 48.5092Z" stroke="#499A9A" stroke-width="1.5" stroke-miterlimit="10" stroke-linecap="round" stroke-linejoin="round"/>
<path d="M27.4586 27.7546H50.1981" stroke="#499A9A" stroke-width="1.5" stroke-miterlimit="10" stroke-linecap="round" stroke-linejoin="round"/>
<path d="M27.4586 42.2828H50.1981" stroke="#499A9A" stroke-width="1.5" stroke-miterlimit="10" stroke-linecap="round" stroke-linejoin="round"/>
<path d="M41.4127 58.8864H41.9767C42.5302 58.8864 42.9789 58.4377 42.9789 57.8842V55.7378C42.9789 55.1843 42.5302 54.7356 41.9767 54.7356H40.9035V53.6624C40.9035 53.1089 40.4547 52.6602 39.9012 52.6602H37.7549C37.2013 52.6602 36.7526 53.1089 36.7526 53.6624V54.7356H35.6794C35.1259 54.7356 34.6772 55.1843 34.6772 55.7378V57.8842C34.6772 58.4377 35.1259 58.8864 35.6794 58.8864H36.7358" stroke="#499A9A" stroke-width="1.5" stroke-miterlimit="10" stroke-linecap="round" stroke-linejoin="round"/>
<path d="M38.8281 52.6603V48.5093" stroke="#499A9A" stroke-width="1.5" stroke-miterlimit="10" stroke-linecap="round" stroke-linejoin="round"/>
<path d="M34.6772 56.811H26.3754" stroke="#499A9A" stroke-width="1.5" stroke-miterlimit="10" stroke-linecap="round" stroke-linejoin="round"/>
<path d="M51.554 56.811H43.2522" stroke="#499A9A" stroke-width="1.5" stroke-miterlimit="10" stroke-linecap="round" stroke-linejoin="round"/>
<path d="M38.8281 21.5282V48.5092" stroke="#499A9A" stroke-width="1.5" stroke-miterlimit="10" stroke-linecap="round" stroke-linejoin="round"/>
<path d="M52.3186 35.0188H25.3376" stroke="#499A9A" stroke-width="1.5" stroke-miterlimit="10" stroke-linecap="round" stroke-linejoin="round"/>
</svg>
