<svg width="80" height="80" viewBox="0 0 80 80" fill="none" xmlns="http://www.w3.org/2000/svg">
<path d="M48.2797 26.3988L55.0339 33.1529L52.5955 35.5913H62.9188V25.2678L60.4805 27.7063L54.0077 21.2335" stroke="#499A9A" stroke-width="1.5" stroke-miterlimit="10" stroke-linejoin="round"/>
<path d="M36.1488 28.5148L36.1486 40.8549H32.7003L40 48.1545L47.2997 40.8549H43.8514V28.5148" stroke="#499A9A" stroke-width="1.5" stroke-miterlimit="10" stroke-linejoin="round"/>
<path d="M25.7878 21.4384L19.5198 27.7062L17.0815 25.2678V35.5912H27.4048L24.9664 33.1528L31.8996 26.2197" stroke="#499A9A" stroke-width="1.5" stroke-miterlimit="10" stroke-linejoin="round"/>
<path d="M40 21.4383C41.7179 21.4383 43.1104 20.0458 43.1104 18.3279C43.1104 16.6101 41.7179 15.2175 40 15.2175C38.2822 15.2175 36.8896 16.6101 36.8896 18.3279C36.8896 20.0458 38.2822 21.4383 40 21.4383Z" stroke="#499A9A" stroke-width="1.5" stroke-miterlimit="10" stroke-linejoin="round"/>
<path d="M74.6388 55.8827H5.36169" stroke="#499A9A" stroke-width="1.5" stroke-miterlimit="10" stroke-linejoin="round"/>
<path d="M56.851 18.3279H71.811C73.3727 18.3279 74.6386 19.5938 74.6386 21.1555V60.6897C74.6386 62.2514 73.3727 63.5173 71.811 63.5173H8.18921C6.6275 63.5173 5.36157 62.2514 5.36157 60.6897V21.1555C5.36157 19.5938 6.6275 18.3279 8.18921 18.3279H23.1492" stroke="#499A9A" stroke-width="1.5" stroke-miterlimit="10" stroke-linejoin="round"/>
<path d="M32.4686 72.0002L34.3516 63.5173H45.6491L47.532 72.0002" stroke="#499A9A" stroke-width="1.5" stroke-miterlimit="10" stroke-linejoin="round"/>
<path d="M59.2658 72.0002H20.7347" stroke="#499A9A" stroke-width="1.5" stroke-miterlimit="10" stroke-linecap="round" stroke-linejoin="round"/>
<path d="M56.8509 18.3278C56.8509 18.3278 49.3065 28.6555 40 28.6555C30.6936 28.6555 23.1492 18.3278 23.1492 18.3278C23.1492 18.3278 30.6936 8 40 8C49.3065 8 56.8509 18.3278 56.8509 18.3278Z" stroke="#499A9A" stroke-width="1.5" stroke-miterlimit="10" stroke-linejoin="round"/>
<path d="M40.0004 28.6556C45.7042 28.6556 50.328 24.0317 50.328 18.3279C50.328 12.6241 45.7042 8.00024 40.0004 8.00024C34.2966 8.00024 29.6727 12.6241 29.6727 18.3279C29.6727 24.0317 34.2966 28.6556 40.0004 28.6556Z" stroke="#499A9A" stroke-width="1.5" stroke-miterlimit="10" stroke-linejoin="round"/>
</svg>
