<svg width="80" height="80" viewBox="0 0 80 80" fill="none" xmlns="http://www.w3.org/2000/svg">
<mask id="mask0_3125_3868" style="mask-type:luminance" maskUnits="userSpaceOnUse" x="6" y="6" width="68" height="68">
<path d="M6 5.99999H74V74H6V5.99999Z" fill="white"/>
</mask>
<g mask="url(#mask0_3125_3868)">
<path d="M61.6022 32.4927V17.5457C61.6022 17.2524 61.3643 17.0145 61.0709 17.0145H56.1172C55.8238 17.0145 55.5859 17.2524 55.5859 17.5457V32.4927C55.5859 32.7861 55.3482 33.024 55.0547 33.024H53.2273C52.8068 33.024 52.553 33.4892 52.7806 33.8428L58.1473 42.1817C58.3565 42.5067 58.8317 42.5067 59.0408 42.1817L64.4075 33.8428C64.6351 33.4892 64.3813 33.024 63.9608 33.024H62.1334C61.8399 33.024 61.6022 32.7861 61.6022 32.4927Z" stroke="#499A9A" stroke-width="1.5" stroke-miterlimit="10" stroke-linecap="round" stroke-linejoin="round"/>
<path d="M42.6272 26.9472V41.8942C42.6272 42.1875 42.8651 42.4254 43.1585 42.4254H48.1121C48.4055 42.4254 48.6434 42.1875 48.6434 41.8942V26.9472C48.6434 26.6538 48.8812 26.4159 49.1746 26.4159H51.002C51.4225 26.4159 51.6763 25.9508 51.4488 25.5971L46.0821 17.2582C45.8728 16.9332 45.3977 16.9332 45.1885 17.2582L39.8218 25.5971C39.5943 25.9508 39.8481 26.4159 40.2685 26.4159H42.096C42.3894 26.4159 42.6272 26.6538 42.6272 26.9472Z" stroke="#499A9A" stroke-width="1.5" stroke-miterlimit="10" stroke-linecap="round" stroke-linejoin="round"/>
<path d="M57.0029 48.0499V53.6373C57.0029 53.9308 56.7651 54.1686 56.4716 54.1686H53.1287C52.8976 54.1686 52.6918 54.316 52.6229 54.5365C52.3837 55.3055 52.0755 56.0439 51.7063 56.7451C51.5989 56.9497 51.6399 57.2007 51.8034 57.364L54.1687 59.7281C54.3758 59.9366 54.3758 60.2726 54.1687 60.4798L49.8776 64.771C49.6703 64.9782 49.3343 64.9782 49.1258 64.771L46.7604 62.4056C46.5983 62.2436 46.3475 62.2024 46.1428 62.3087C45.4415 62.6779 44.7032 62.986 43.9343 63.2251C43.7137 63.2941 43.5662 63.5 43.5662 63.7311V67.074C43.5662 67.3675 43.3285 67.6052 43.035 67.6052H36.9655C36.6719 67.6052 36.4342 67.3675 36.4342 67.074V63.7311C36.4342 63.5 36.2869 63.2941 36.0663 63.2251C35.2973 62.986 34.5589 62.6779 33.8576 62.3087C33.6531 62.2024 33.4021 62.2436 33.2401 62.4056L30.8748 64.771C30.6662 64.9782 30.3301 64.9782 30.123 64.771L25.8318 60.4798C25.6246 60.2726 25.6246 59.9366 25.8318 59.7281L28.1972 57.364C28.3605 57.2007 28.4005 56.9497 28.2941 56.7451C27.925 56.0439 27.6168 55.3055 27.3777 54.5365C27.3087 54.316 27.1028 54.1686 26.8717 54.1686H23.5288C23.2353 54.1686 22.9976 53.9308 22.9976 53.6373V48.0499" stroke="#499A9A" stroke-width="1.5" stroke-miterlimit="10" stroke-linecap="round" stroke-linejoin="round"/>
<path d="M46.853 48.0498C47.1492 48.8441 47.3112 49.7047 47.3112 50.6025C47.3112 54.6413 44.0374 57.9138 39.9999 57.9138C35.9624 57.9138 32.6887 54.6413 32.6887 50.6025C32.6887 49.7047 32.8506 48.8441 33.1468 48.0498" stroke="#499A9A" stroke-width="1.5" stroke-miterlimit="10" stroke-linecap="round" stroke-linejoin="round"/>
<path d="M9.77328 25.2007C8.07846 27.5382 7.06921 30.395 7.03601 33.4683C6.94955 41.5075 13.4401 48.0498 21.458 48.0498H61.9035C64.4295 48.0498 66.7749 47.2025 68.6504 45.7747" stroke="#499A9A" stroke-width="1.5" stroke-miterlimit="10" stroke-linecap="round" stroke-linejoin="round"/>
<path d="M13.0685 21.9137C15.3024 20.3053 18.0131 19.3185 20.9429 19.2149C21.1169 19.2083 21.2896 19.2056 21.4622 19.2056C23.2911 19.2056 25.0375 19.5496 26.6459 20.1712C27.0948 20.3452 27.6061 20.1964 27.8877 19.806C31.1243 15.3169 36.3983 12.395 42.355 12.395C47.605 12.395 52.3252 14.6648 55.5858 18.276" stroke="#499A9A" stroke-width="1.5" stroke-miterlimit="10" stroke-linecap="round" stroke-linejoin="round"/>
<path d="M61.6024 26.2035C69.2766 26.2035 73.0094 31.1388 72.9643 37.2097C72.9508 39.0305 72.486 40.7412 71.676 42.2419" stroke="#499A9A" stroke-width="1.5" stroke-miterlimit="10" stroke-linecap="round" stroke-linejoin="round"/>
</g>
</svg>
