<svg width="375" height="375" viewBox="0 0 375 375" fill="none" xmlns="http://www.w3.org/2000/svg">
<g filter="url(#filter0_d_4080_8103)">
<circle cx="187.375" cy="187.375" r="133" fill="white"/>
<circle cx="187.375" cy="187.375" r="132.062" stroke="#499A9A" stroke-width="1.875"/>
</g>
<g clip-path="url(#clip0_4080_8103)">
<path d="M236.746 136.077C229.899 133.446 222.982 136.246 220.296 142.734C219.921 143.637 219.661 144.571 219.511 145.499C219.561 142.466 219.551 139.79 219.521 137.705V133.377C219.521 133.109 219.321 132.881 219.051 132.836C198.1 129.555 176.85 129.555 155.894 132.836C155.634 132.876 155.439 133.094 155.424 133.357C155.424 133.427 155.204 138.768 155.339 146.154C155.219 145.007 154.929 143.856 154.469 142.739C151.788 136.251 144.866 133.451 138.019 136.082C129.537 139.339 131.307 151.138 132.052 154.677C133.603 162.033 138.199 168.695 146.516 175.649C147.297 176.3 148.102 176.95 148.977 177.635C149.617 178.136 150.272 178.613 150.998 179.134C153.413 180.876 155.699 182.524 156.769 185.086C157.419 186.635 157.294 188.491 156.434 190.055C155.419 191.906 153.428 192.75 151.593 192.11C150.462 191.713 148.162 190.293 148.707 188.64C148.877 188.119 148.837 187.568 148.582 187.081C148.332 186.595 147.902 186.232 147.382 186.064C146.856 185.895 146.301 185.935 145.806 186.183C145.311 186.431 144.941 186.853 144.771 187.374C143.486 191.271 146.616 194.711 150.212 195.962C151.078 196.264 151.973 196.418 152.873 196.418C155.864 196.418 158.555 194.765 160.07 192.001C161.305 189.752 161.625 187.116 160.995 184.728C161.3 185.418 161.61 186.074 161.936 186.674C166.877 195.783 175.024 202.514 181.241 206.684C180.911 207.031 180.711 207.493 180.711 207.994V209.945C180.711 211.002 181.581 211.861 182.651 211.861H183.321V229.513L180.126 234.948H176.58C176.43 234.948 176.289 235.008 176.184 235.112L169.143 242.185C169.042 242.29 168.982 242.424 168.982 242.573V253.548H166.062C165.757 253.548 165.507 253.791 165.507 254.094V256.829C165.507 257.132 165.757 257.375 166.062 257.375H208.773C209.078 257.375 209.328 257.132 209.328 256.829V254.094C209.328 253.791 209.078 253.548 208.773 253.548H205.853V242.458C205.853 242.31 205.793 242.166 205.683 242.066L198.376 235.107C198.27 235.008 198.135 234.953 197.99 234.953H194.71L191.509 229.468V211.861H191.664C192.734 211.861 193.604 211.002 193.604 209.945V207.994C193.604 207.597 193.479 207.22 193.259 206.907C198.571 203.378 207.638 196.359 212.894 186.674C213.165 186.178 213.42 185.647 213.665 185.101C213.165 187.384 213.515 189.866 214.685 191.996C216.205 194.76 218.896 196.413 221.882 196.413C222.782 196.413 223.677 196.26 224.543 195.957C228.139 194.701 231.269 191.266 229.984 187.369C229.814 186.848 229.444 186.426 228.949 186.178C228.454 185.93 227.899 185.89 227.378 186.059C226.853 186.227 226.423 186.59 226.173 187.076C225.923 187.563 225.878 188.119 226.048 188.635C226.593 190.283 224.293 191.708 223.162 192.105C221.327 192.745 219.331 191.901 218.316 190.05C217.456 188.486 217.331 186.63 217.981 185.081C219.056 182.524 221.337 180.876 223.752 179.129C224.483 178.603 225.133 178.131 225.773 177.63C226.653 176.945 227.458 176.295 228.234 175.644C236.551 168.69 241.147 162.024 242.698 154.672C243.443 151.133 245.213 139.334 236.731 136.077H236.746ZM153.408 175.803C152.778 175.347 152.148 174.895 151.553 174.423C150.687 173.748 149.917 173.123 149.192 172.522C143.926 168.119 140.315 163.895 138.159 159.616C136.994 155.739 136.879 151.679 137.834 148.174C138.444 145.941 140.09 142.178 144.261 142.084C147.066 141.994 149.737 143.89 150.467 146.437C150.582 146.829 150.627 147.246 150.657 147.752C150.722 148.795 150.637 149.698 150.382 150.656C149.657 151.828 148.512 152.701 147.061 153.178C145.981 153.535 145.396 154.697 145.756 155.764C145.931 156.28 146.301 156.702 146.796 156.945C147.292 157.189 147.852 157.228 148.377 157.055C151.143 156.136 153.303 154.255 154.463 151.758C154.999 150.602 155.309 149.336 155.389 148.03C155.439 150.036 155.519 152.155 155.634 154.344C156.284 166.605 157.789 176.047 160.12 182.51C158.51 179.477 155.829 177.541 153.408 175.793V175.803ZM219.446 148.686C219.576 149.763 219.861 150.805 220.312 151.773C221.467 154.27 223.632 156.151 226.398 157.07C226.923 157.243 227.483 157.204 227.979 156.96C228.474 156.717 228.844 156.3 229.019 155.779C229.384 154.712 228.799 153.55 227.714 153.188C226.263 152.706 225.118 151.838 224.393 150.666C224.133 149.703 224.048 148.805 224.118 147.762C224.148 147.256 224.193 146.839 224.308 146.447C225.038 143.9 227.709 142.014 230.514 142.089C234.69 142.183 236.336 145.945 236.941 148.179C237.896 151.684 237.781 155.744 236.616 159.621C234.46 163.9 230.849 168.119 225.583 172.527C224.868 173.123 224.098 173.748 223.227 174.428C222.617 174.905 221.982 175.362 221.332 175.833C219.036 177.491 216.475 179.343 214.845 182.172C218.076 172.909 219.146 159.264 219.446 148.686Z" fill="#499A9A"/>
<path d="M248.496 105.115C253.33 109.524 254.196 116.445 254.196 116.445C254.196 116.445 247.23 116.215 242.396 111.805C237.561 107.396 236.695 100.475 236.695 100.475C236.695 100.475 243.662 100.706 248.496 105.115Z" fill="#499A9A"/>
<path d="M214.506 267.607C210.346 272.948 210.094 279.255 210.151 279.272C210.133 279.35 218.879 276.904 222.809 271.015C226.734 265.2 224.823 259.171 224.88 259.189C224.858 259.245 218.662 262.314 214.506 267.602V267.607Z" fill="#499A9A"/>
<path d="M220.633 286.101C212.957 284.795 210.089 278.989 210.094 279.041C210.185 279.067 218.413 276.695 225.502 277.526C232.66 278.397 236.867 282.845 236.867 282.893C236.968 282.915 228.395 287.433 220.637 286.097L220.633 286.101Z" fill="#499A9A"/>
<path d="M229.685 260.938C226.826 266.793 227.853 272.917 227.905 272.93C227.897 273.013 235.585 269.191 238.174 262.836C240.772 256.551 237.818 251.04 237.87 251.049C237.857 251.11 232.544 255.132 229.685 260.938Z" fill="#499A9A"/>
<path d="M239.062 277.766C231.599 277.788 227.8 272.66 227.805 272.712C227.887 272.726 235.102 269.061 241.981 268.673C248.93 268.308 253.8 271.894 253.804 271.942C253.9 271.951 246.602 277.766 239.062 277.77V277.766Z" fill="#499A9A"/>
<path d="M242.787 251.915C241.163 258.07 243.326 263.816 243.374 263.816C243.374 263.894 249.962 258.902 251.28 252.294C252.612 245.761 248.765 240.92 248.813 240.92C248.813 240.981 244.418 245.804 242.787 251.911V251.915Z" fill="#499A9A"/>
<path d="M254.926 266.606C247.803 267.899 243.225 263.577 243.238 263.624C243.317 263.624 249.474 258.858 256.023 257.3C262.637 255.755 268.002 258.392 268.015 258.436C268.102 258.427 262.127 265.322 254.93 266.606H254.926Z" fill="#499A9A"/>
<path d="M253.724 240.916C253.272 247.171 256.418 252.364 256.466 252.359C256.479 252.438 261.913 246.461 262.027 239.81C262.161 233.225 257.575 229.185 257.623 229.177C257.627 229.238 254.194 234.705 253.729 240.916H253.724Z" fill="#499A9A"/>
<path d="M268.128 253.069C261.471 255.55 256.284 252.151 256.297 252.194C256.367 252.181 261.427 246.501 267.519 243.841C273.667 241.186 279.363 242.81 279.381 242.853C279.463 242.831 274.855 250.575 268.128 253.065V253.069Z" fill="#499A9A"/>
<path d="M262.403 228.306C263.047 234.478 267.032 238.974 267.072 238.961C267.093 239.035 271.336 232.271 270.313 225.764C269.317 219.317 264.156 216.179 264.2 216.166C264.213 216.227 261.78 222.177 262.403 228.306Z" fill="#499A9A"/>
<path d="M278.557 237.612C272.5 241.194 266.861 238.791 266.883 238.831C266.948 238.809 270.873 232.397 276.373 228.728C281.925 225.054 287.778 225.629 287.8 225.668C287.874 225.633 284.68 234.008 278.557 237.607V237.612Z" fill="#499A9A"/>
<path d="M268.733 214.464C270.404 220.388 275.069 224.066 275.104 224.049C275.134 224.119 278.141 216.767 276.052 210.569C274.003 204.431 268.425 202.268 268.459 202.246C268.485 202.303 267.089 208.579 268.729 214.46L268.733 214.464Z" fill="#499A9A"/>
<path d="M286.112 220.693C280.79 225.268 274.872 223.914 274.899 223.953C274.955 223.923 277.709 216.967 282.483 212.392C287.309 207.804 293.139 207.321 293.165 207.356C293.235 207.313 291.499 216.092 286.112 220.693Z" fill="#499A9A"/>
<path d="M272.618 199.765C275.242 205.285 280.42 208.057 280.455 208.031C280.499 208.096 282.217 200.349 279.141 194.62C276.108 188.944 270.282 187.813 270.317 187.787C270.351 187.839 270.029 194.281 272.618 199.765Z" fill="#499A9A"/>
<path d="M290.682 202.773C286.23 208.218 280.208 207.944 280.238 207.974C280.286 207.935 281.831 200.623 285.743 195.26C289.703 189.876 295.329 188.348 295.364 188.378C295.425 188.326 295.194 197.288 290.682 202.769V202.773Z" fill="#499A9A"/>
<path d="M273.971 184.587C277.465 189.567 283 191.36 283.03 191.334C283.082 191.391 283.474 183.447 279.484 178.328C275.546 173.253 269.645 173.174 269.676 173.14C269.719 173.188 270.516 179.638 273.971 184.587Z" fill="#499A9A"/>
<path d="M292.16 184.309C288.718 190.481 282.77 191.29 282.809 191.317C282.848 191.269 283.139 183.786 286.055 177.775C289.014 171.734 294.248 169.205 294.288 169.231C294.34 169.17 295.658 178.093 292.16 184.309Z" fill="#499A9A"/>
<path d="M272.701 169.305C276.987 173.623 282.709 174.402 282.735 174.367C282.801 174.415 281.813 166.471 276.992 162.088C272.231 157.74 266.431 158.706 266.457 158.671C266.514 158.71 268.463 165.009 272.701 169.305Z" fill="#499A9A"/>
<path d="M290.446 165.766C288.153 172.512 282.466 174.375 282.509 174.397C282.544 174.345 281.539 166.876 283.319 160.364C285.133 153.817 289.785 150.353 289.828 150.374C289.872 150.305 292.787 158.967 290.442 165.766H290.446Z" fill="#499A9A"/>
<path d="M268.705 154.305C273.7 157.857 279.431 157.605 279.453 157.57C279.527 157.609 277.12 149.861 271.551 146.323C266.05 142.81 260.533 144.795 260.555 144.756C260.62 144.786 263.766 150.771 268.705 154.305Z" fill="#499A9A"/>
<path d="M285.43 147.598C284.433 154.745 279.19 157.618 279.242 157.631C279.268 157.574 276.936 150.305 277.427 143.463C277.954 136.581 281.827 132.276 281.879 132.289C281.918 132.215 286.47 140.39 285.425 147.598H285.43Z" fill="#499A9A"/>
<path d="M261.899 139.963C267.517 142.657 273.082 141.386 273.099 141.347C273.187 141.378 269.309 134.026 263.078 131.419C256.921 128.829 251.869 131.784 251.887 131.741C251.965 131.762 256.347 137.273 261.899 139.959V139.963Z" fill="#499A9A"/>
<path d="M277.002 130.278C277.45 137.639 272.847 141.439 272.903 141.447C272.92 141.386 269.218 134.5 268.282 127.514C267.373 120.485 270.271 115.457 270.327 115.462C270.358 115.383 276.593 122.852 277.002 130.274V130.278Z" fill="#499A9A"/>
<path d="M252.194 126.661C258.346 128.424 263.564 126.169 263.572 126.13C263.668 126.147 258.281 119.392 251.476 117.799C244.753 116.21 240.358 120.053 240.371 120.01C240.458 120.019 246.115 124.894 252.194 126.661Z" fill="#499A9A"/>
<path d="M265.064 114.269C267.105 121.638 263.336 126.269 263.402 126.269C263.41 126.208 258.297 119.892 255.782 112.959C253.289 105.977 255.003 100.375 255.069 100.375C255.091 100.292 263.058 106.83 265.064 114.269Z" fill="#499A9A"/>
<path d="M185.544 281.209L185.666 279.86C196.853 280.874 208.006 279.625 218.81 276.156C229.34 272.774 239.087 267.433 247.786 260.286C265.835 245.451 277.475 224.28 280.56 200.671C283.088 181.34 281.791 164.112 276.705 149.469C271.244 133.743 261.523 121.442 247.803 112.898L248.521 111.749C262.506 120.458 272.419 133.003 277.984 149.025C283.14 163.868 284.454 181.305 281.9 200.849C278.767 224.798 266.958 246.278 248.639 261.335C239.81 268.595 229.91 274.014 219.215 277.448C208.232 280.974 196.901 282.241 185.531 281.213L185.544 281.209Z" fill="#499A9A"/>
<path d="M126.247 105.115C121.413 109.524 120.547 116.445 120.547 116.445C120.547 116.445 127.513 116.215 132.348 111.805C137.178 107.396 138.048 100.475 138.048 100.475C138.048 100.475 131.081 100.706 126.247 105.115Z" fill="#499A9A"/>
<path d="M160.238 267.607C164.398 272.948 164.651 279.255 164.594 279.273C164.612 279.351 155.865 276.905 151.936 271.015C148.011 265.2 149.921 259.172 149.865 259.189C149.887 259.246 156.083 262.314 160.238 267.603V267.607Z" fill="#499A9A"/>
<path d="M154.111 286.102C161.786 284.796 164.654 278.989 164.65 279.042C164.558 279.068 156.33 276.696 149.242 277.527C142.084 278.397 137.876 282.846 137.876 282.894C137.776 282.916 146.348 287.434 154.106 286.097L154.111 286.102Z" fill="#499A9A"/>
<path d="M145.06 260.939C147.919 266.793 146.892 272.917 146.839 272.931C146.848 273.013 139.159 269.192 136.57 262.837C133.973 256.551 136.927 251.041 136.875 251.049C136.888 251.11 142.201 255.132 145.06 260.939Z" fill="#499A9A"/>
<path d="M135.681 277.766C143.143 277.788 146.942 272.661 146.938 272.713C146.855 272.726 139.64 269.061 132.761 268.674C125.812 268.308 120.943 271.895 120.938 271.943C120.843 271.951 128.14 277.766 135.681 277.771V277.766Z" fill="#499A9A"/>
<path d="M131.958 251.915C133.581 258.07 131.418 263.816 131.37 263.816C131.37 263.894 124.782 258.902 123.464 252.294C122.132 245.761 125.979 240.92 125.931 240.92C125.931 240.981 130.326 245.804 131.958 251.911V251.915Z" fill="#499A9A"/>
<path d="M119.816 266.606C126.939 267.899 131.517 263.577 131.504 263.624C131.426 263.624 125.269 258.858 118.72 257.3C112.106 255.755 106.741 258.392 106.728 258.436C106.64 258.427 112.615 265.322 119.812 266.606H119.816Z" fill="#499A9A"/>
<path d="M121.02 240.916C121.473 247.171 118.327 252.364 118.279 252.359C118.266 252.438 112.831 246.461 112.718 239.81C112.583 233.225 117.169 229.185 117.121 229.177C117.117 229.238 120.55 234.705 121.016 240.916H121.02Z" fill="#499A9A"/>
<path d="M106.617 253.069C113.274 255.55 118.461 252.151 118.448 252.194C118.379 252.181 113.318 246.501 107.226 243.841C101.078 241.186 95.3818 242.81 95.3644 242.853C95.2817 242.831 99.8898 250.575 106.617 253.065V253.069Z" fill="#499A9A"/>
<path d="M112.335 228.306C111.691 234.478 107.706 238.975 107.666 238.962C107.645 239.036 103.402 232.272 104.425 225.764C105.421 219.318 110.582 216.18 110.538 216.167C110.525 216.227 112.958 222.178 112.335 228.306Z" fill="#499A9A"/>
<path d="M96.1849 237.612C102.242 241.195 107.881 238.792 107.86 238.831C107.794 238.809 103.869 232.398 98.3693 228.728C92.817 225.055 86.9644 225.629 86.9427 225.668C86.8687 225.634 90.0626 234.008 96.1849 237.608V237.612Z" fill="#499A9A"/>
<path d="M106.014 214.464C104.343 220.388 99.6781 224.066 99.6433 224.049C99.6129 224.119 96.6061 216.767 98.6947 210.569C100.744 204.431 106.323 202.268 106.288 202.246C106.262 202.303 107.658 208.579 106.018 214.46L106.014 214.464Z" fill="#499A9A"/>
<path d="M88.6336 220.693C93.9553 225.268 99.8731 223.914 99.847 223.953C99.7904 223.923 97.036 216.967 92.2626 212.392C87.437 207.804 81.6062 207.321 81.5801 207.356C81.5105 207.313 83.2467 216.092 88.6336 220.693Z" fill="#499A9A"/>
<path d="M102.124 199.765C99.5001 205.285 94.322 208.057 94.2872 208.031C94.2437 208.096 92.5249 200.349 95.6013 194.62C98.6341 188.944 104.461 187.813 104.426 187.787C104.391 187.839 104.713 194.281 102.124 199.765Z" fill="#499A9A"/>
<path d="M84.0642 202.773C88.5156 208.218 94.5378 207.944 94.5074 207.974C94.4595 207.935 92.9148 200.623 89.0029 195.26C85.0389 189.88 79.4126 188.352 79.3821 188.383C79.3212 188.331 79.5518 197.293 84.0642 202.773Z" fill="#499A9A"/>
<path d="M100.77 184.587C97.2754 189.567 91.7405 191.36 91.7101 191.334C91.6579 191.391 91.2662 183.447 95.2564 178.328C99.1944 173.253 105.095 173.174 105.064 173.14C105.021 173.188 104.224 179.638 100.77 184.587Z" fill="#499A9A"/>
<path d="M82.5859 184.309C86.0278 190.481 91.9761 191.29 91.9369 191.317C91.8978 191.269 91.6062 183.786 88.6908 177.775C85.7319 171.734 80.4973 169.205 80.4581 169.231C80.4059 169.17 79.0874 178.093 82.5859 184.309Z" fill="#499A9A"/>
<path d="M102.045 169.305C97.7589 173.623 92.0369 174.402 92.0108 174.367C91.9455 174.415 92.9333 166.472 97.7545 162.088C102.515 157.74 108.315 158.706 108.289 158.671C108.233 158.711 106.283 165.009 102.045 169.305Z" fill="#499A9A"/>
<path d="M84.294 165.766C86.5872 172.513 92.2744 174.376 92.2308 174.398C92.196 174.345 93.2012 166.876 91.4215 160.364C89.607 153.818 84.9554 150.353 84.9119 150.375C84.8684 150.305 81.953 158.967 84.2984 165.766H84.294Z" fill="#499A9A"/>
<path d="M106.038 154.305C101.043 157.857 95.3125 157.605 95.2907 157.57C95.2167 157.609 97.623 149.861 103.193 146.323C108.693 142.81 114.21 144.795 114.189 144.756C114.123 144.786 110.977 150.771 106.038 154.305Z" fill="#499A9A"/>
<path d="M89.3114 147.598C90.3079 154.745 95.5513 157.618 95.499 157.631C95.4729 157.574 97.8052 150.305 97.3135 143.463C96.787 136.581 92.9143 132.276 92.8621 132.289C92.823 132.215 88.2715 140.39 89.3158 147.598H89.3114Z" fill="#499A9A"/>
<path d="M112.842 139.963C107.225 142.657 101.659 141.386 101.642 141.347C101.555 141.378 105.432 134.026 111.663 131.419C117.82 128.829 122.872 131.784 122.855 131.741C122.776 131.762 118.395 137.273 112.842 139.959V139.963Z" fill="#499A9A"/>
<path d="M97.7417 130.278C97.2935 137.639 101.897 141.439 101.841 141.447C101.823 141.386 105.526 134.5 106.462 127.514C107.371 120.485 104.473 115.457 104.417 115.462C104.386 115.383 98.1507 122.852 97.7417 130.274V130.278Z" fill="#499A9A"/>
<path d="M122.552 126.661C116.399 128.424 111.182 126.169 111.173 126.13C111.077 126.147 116.464 119.392 123.27 117.799C129.993 116.21 134.387 120.053 134.374 120.01C134.287 120.019 128.631 124.894 122.552 126.661Z" fill="#499A9A"/>
<path d="M109.681 114.269C107.64 121.638 111.408 126.269 111.343 126.269C111.334 126.208 116.447 119.892 118.962 112.959C121.456 105.977 119.737 100.375 119.676 100.375C119.654 100.292 111.687 106.83 109.681 114.269Z" fill="#499A9A"/>
<path d="M189.2 281.209L189.078 279.86C177.891 280.874 166.738 279.625 155.934 276.156C145.404 272.774 135.657 267.433 126.958 260.286C108.909 245.451 97.2693 224.28 94.1842 200.671C91.6561 181.34 92.9528 164.112 98.0395 149.469C103.5 133.743 113.221 121.442 126.941 112.898L126.223 111.749C112.238 120.458 102.326 133.003 96.7602 149.025C91.6038 163.868 90.2897 181.305 92.844 200.849C95.9769 224.798 107.786 246.278 126.106 261.335C134.934 268.595 144.834 274.014 155.529 277.448C166.512 280.974 177.843 282.241 189.213 281.213L189.2 281.209Z" fill="#499A9A"/>
<path d="M186.974 274.301L176.727 281.84L186.974 289.375L197.217 281.84L186.974 274.301Z" fill="#499A9A"/>
</g>
<defs>
<filter id="filter0_d_4080_8103" x="0" y="0" width="374.75" height="374.75" filterUnits="userSpaceOnUse" color-interpolation-filters="sRGB">
<feFlood flood-opacity="0" result="BackgroundImageFix"/>
<feColorMatrix in="SourceAlpha" type="matrix" values="0 0 0 0 0 0 0 0 0 0 0 0 0 0 0 0 0 0 127 0" result="hardAlpha"/>
<feMorphology radius="9.375" operator="dilate" in="SourceAlpha" result="effect1_dropShadow_4080_8103"/>
<feOffset/>
<feGaussianBlur stdDeviation="22.5"/>
<feComposite in2="hardAlpha" operator="out"/>
<feColorMatrix type="matrix" values="0 0 0 0 0.286275 0 0 0 0 0.603922 0 0 0 0 0.603922 0 0 0 0.38 0"/>
<feBlend mode="normal" in2="BackgroundImageFix" result="effect1_dropShadow_4080_8103"/>
<feBlend mode="normal" in="SourceGraphic" in2="effect1_dropShadow_4080_8103" result="shape"/>
</filter>
<clipPath id="clip0_4080_8103">
<rect width="216" height="189" fill="white" transform="translate(79.375 100.375)"/>
</clipPath>
</defs>
</svg>
