<svg width="80" height="80" viewBox="0 0 80 80" fill="none" xmlns="http://www.w3.org/2000/svg">
<g clip-path="url(#clip0_1047_9877)">
<path d="M73.2738 46.5896C72.7544 46.5896 72.3319 46.1672 72.3319 45.6478V39.865C72.3319 39.3456 72.7544 38.9232 73.2738 38.9232H75.0653L75.0542 38.5944C74.754 30.2323 71.4505 22.2323 65.7503 16.0683C60.0818 9.93925 52.4249 6.02104 44.1882 5.03633L43.8324 4.99345V6.72781C43.8324 7.24717 43.41 7.66964 42.8906 7.66964H37.1078C36.5884 7.66964 36.166 7.24717 36.166 6.72781V4.9998L35.8102 5.04268C27.5736 6.0274 19.9166 9.9456 14.2482 16.0715C8.54636 22.2339 5.2428 30.2323 4.94262 38.5944L4.93151 38.9232H6.86123C7.38058 38.9232 7.80306 39.3456 7.80306 39.865V45.6478C7.80306 46.1672 7.38058 46.5896 6.86123 46.5896H1.07842C0.559063 46.5896 0.136589 46.1672 0.136589 45.6478V39.865C0.136589 39.3456 0.559063 38.9232 1.07842 38.9232H3.04785L3.05738 38.6166C3.30355 31.2742 5.70657 24.243 10.0075 18.2823C14.2212 12.4423 19.9801 7.98412 26.6619 5.3921L26.5475 4.77904H7.66806V6.7294C7.66806 7.24876 7.24558 7.67123 6.72623 7.67123H0.94183C0.422474 7.67123 0 7.24876 0 6.7294V0.94183C0 0.422474 0.422474 0 0.94183 0H6.72464C7.24399 0 7.66647 0.422474 7.66647 0.94183V2.89061H36.1644V0.94183C36.1644 0.422474 36.5869 0 37.1062 0H42.889C43.4084 0 43.8309 0.422474 43.8309 0.94183V2.89061H72.3288V0.94183C72.3288 0.422474 72.7512 0 73.2706 0H79.0534C79.5728 0 79.9952 0.422474 79.9952 0.94183V6.72464C79.9952 7.24399 79.5728 7.66647 79.0534 7.66647H73.2706C72.7512 7.66647 72.3288 7.24399 72.3288 6.72464V4.77427H53.4477L53.3333 5.38733C60.0151 7.98094 65.7725 12.4376 69.9861 18.2775C74.2871 24.2382 76.6901 31.2694 76.9347 38.6119L76.9442 38.9184H79.0518C79.5712 38.9184 79.9936 39.3409 79.9936 39.8602V45.643C79.9936 46.1624 79.5712 46.5849 79.0518 46.5849H73.269L73.2738 46.5896ZM74.2156 44.7044H78.1147V40.8068H74.2156V44.7044ZM2.02025 44.7044H5.9194V40.8068H2.02025V44.7044ZM74.2156 5.7844H78.1147V1.88525H74.2156V5.7844ZM38.0512 5.7844H41.9504V1.88525H38.0512V5.7844ZM1.88525 5.7844H5.7844V1.88525H1.88525V5.7844Z" fill="#499A9A"/>
<path d="M28.2567 80C27.7373 80 27.3148 79.5775 27.3148 79.0581V72.9243L27.0321 72.8926C24.8451 72.6527 23.1965 70.8231 23.1965 68.6392V63.5695C23.1965 61.1967 25.1262 59.267 27.4991 59.267H28.5251L20.622 38.372C20.5076 38.0702 20.5552 37.7367 20.7458 37.4778L39.214 12.5312C39.2362 12.5153 39.2648 12.4931 39.2902 12.4629C39.3696 12.3676 39.4601 12.2962 39.5681 12.239L39.5936 12.2263L39.6015 12.2199C39.7508 12.1485 39.8747 12.1167 40.0002 12.1167C40.2733 12.1167 40.5275 12.2438 40.7149 12.4725C40.7371 12.4995 40.7593 12.5201 40.7784 12.5344L59.2545 37.4794C59.4466 37.7383 59.4927 38.0734 59.3783 38.3736L51.4752 59.2686H52.5012C54.8741 59.2686 56.8038 61.1983 56.8038 63.5711V68.6408C56.8038 70.8247 55.1552 72.6543 52.9682 72.8941L52.6855 72.9259V79.0597C52.6855 79.5791 52.263 80.0015 51.7437 80.0015H28.2582L28.2567 80ZM29.2001 78.1147H50.8018V72.9418H29.2001V78.1147ZM27.4991 61.1522C26.1665 61.1522 25.0817 62.237 25.0817 63.5695V68.6392C25.0817 69.9718 26.1665 71.0565 27.4991 71.0565H52.5012C53.8338 71.0565 54.9186 69.9718 54.9186 68.6392V63.5695C54.9186 62.237 53.8338 61.1522 52.5012 61.1522H27.4991ZM22.566 38.1862L30.539 59.267H49.4598L57.4327 38.1862L40.942 15.9206V33.8439L41.1532 33.9186C42.5493 34.4125 43.4879 35.7292 43.4879 37.1935C43.4879 39.1169 41.9235 40.6813 40.0002 40.6813C38.0768 40.6813 36.5124 39.1169 36.5124 37.1935C36.5124 35.7276 37.451 34.4125 38.8471 33.9186L39.0583 33.8439V15.9078L22.5676 38.1862H22.566ZM40.0002 35.5894C39.1155 35.5894 38.396 36.3089 38.396 37.1935C38.396 38.0782 39.1155 38.7977 40.0002 38.7977C40.8848 38.7977 41.6043 38.0782 41.6043 37.1935C41.6043 36.3089 40.8848 35.5894 40.0002 35.5894Z" fill="#499A9A"/>
</g>
<defs>
<clipPath id="clip0_1047_9877">
<rect width="80" height="80" fill="white"/>
</clipPath>
</defs>
</svg>



