<svg width="80" height="80" viewBox="0 0 80 80" fill="none" xmlns="http://www.w3.org/2000/svg">
<path d="M69.8151 58.9892H10.1836C7.35627 58.9892 5.05469 56.6892 5.05469 53.8603V15.1289C5.05469 12.3016 7.35627 10 10.1836 10H69.8151C72.6424 10 74.944 12.3016 74.944 15.1289V53.8619C74.944 56.6892 72.644 58.9892 69.8151 58.9892ZM10.1836 11.5884C8.23147 11.5884 6.64308 13.1768 6.64308 15.1289V53.8619C6.64308 55.814 8.23147 57.4024 10.1836 57.4024H69.8151C71.7672 57.4024 73.3556 55.814 73.3556 53.8619V15.1289C73.3556 13.1768 71.7672 11.5884 69.8151 11.5884H10.1836Z" fill="#499A9A"/>
<path d="M74.1498 50.45H5.84888C5.41049 50.45 5.05469 50.0942 5.05469 49.6558C5.05469 49.2174 5.41049 48.8616 5.84888 48.8616H74.1498C74.5882 48.8616 74.944 49.2174 74.944 49.6558C74.944 50.0942 74.5882 50.45 74.1498 50.45Z" fill="#499A9A"/>
<path d="M31.4641 70C31.0257 70 30.6699 69.6442 30.6699 69.2058V58.1951C30.6699 57.7567 31.0257 57.4009 31.4641 57.4009C31.9025 57.4009 32.2583 57.7567 32.2583 58.1951V69.2058C32.2583 69.6442 31.9025 70 31.4641 70Z" fill="#499A9A"/>
<path d="M48.5325 70C48.0941 70 47.7383 69.6442 47.7383 69.2058V58.1951C47.7383 57.7567 48.0941 57.4009 48.5325 57.4009C48.9709 57.4009 49.3267 57.7567 49.3267 58.1951V69.2058C49.3267 69.6442 48.9709 70 48.5325 70Z" fill="#499A9A"/>
<path d="M56.0487 70H23.9504C23.5121 70 23.1562 69.6442 23.1562 69.2058C23.1562 68.7674 23.5121 68.4116 23.9504 68.4116H56.0487C56.4871 68.4116 56.8429 68.7674 56.8429 69.2058C56.8429 69.6442 56.4871 70 56.0487 70Z" fill="#499A9A"/>
<path d="M35.2374 40.2303H16.9661C16.5277 40.2303 16.1719 39.8745 16.1719 39.4361C16.1719 34.4803 20.2032 30.449 25.159 30.449H27.046C32.0018 30.449 36.0331 34.4803 36.0331 39.4361C36.0316 39.8745 35.6773 40.2303 35.2374 40.2303ZM17.8016 38.6419H34.4003C34.0032 34.9346 30.855 32.0374 27.0444 32.0374H25.1574C21.3469 32.0374 18.1987 34.933 17.8016 38.6419Z" fill="#499A9A"/>
<path d="M26.1022 32.0374C22.8444 32.0374 20.1934 29.3863 20.1934 26.1285C20.1934 22.8708 22.8444 20.2197 26.1022 20.2197C29.36 20.2197 32.011 22.8708 32.011 26.1285C32.011 29.3863 29.36 32.0374 26.1022 32.0374ZM26.1022 21.8081C23.7196 21.8081 21.7818 23.746 21.7818 26.1285C21.7818 28.5111 23.7196 30.449 26.1022 30.449C28.4848 30.449 30.4226 28.5111 30.4226 26.1285C30.4226 23.746 28.4832 21.8081 26.1022 21.8081Z" fill="#499A9A"/>
<path d="M63.0325 42.5161C62.5941 42.5161 62.2383 42.1603 62.2383 41.7219V24.4878C62.2383 24.0494 62.5941 23.6936 63.0325 23.6936C63.4709 23.6936 63.8267 24.0494 63.8267 24.4878V41.7219C63.8267 42.1619 63.4709 42.5161 63.0325 42.5161Z" fill="#499A9A"/>
<path d="M56.4348 42.5159C55.9964 42.5159 55.6406 42.1601 55.6406 41.7217V30.4822C55.6406 30.0438 55.9964 29.688 56.4348 29.688C56.8732 29.688 57.229 30.0438 57.229 30.4822V41.7217C57.229 42.1616 56.8732 42.5159 56.4348 42.5159Z" fill="#499A9A"/>
<path d="M49.8333 42.5158C49.3949 42.5158 49.0391 42.16 49.0391 41.7216V28.7969C49.0391 28.3585 49.3949 28.0027 49.8333 28.0027C50.2717 28.0027 50.6275 28.3585 50.6275 28.7969V41.7216C50.6275 42.1616 50.2732 42.5158 49.8333 42.5158Z" fill="#499A9A"/>
<path d="M43.2317 42.5158C42.7933 42.5158 42.4375 42.16 42.4375 41.7216V33.7908C42.4375 33.3524 42.7933 32.9966 43.2317 32.9966C43.6701 32.9966 44.0259 33.3524 44.0259 33.7908V41.7216C44.0259 42.1616 43.6701 42.5158 43.2317 42.5158Z" fill="#499A9A"/>
<path d="M43.2327 29.3099C43.004 29.3099 42.7768 29.2114 42.6196 29.0208C42.34 28.6825 42.3877 28.1822 42.726 27.9026L49.3274 22.4544C49.5434 22.2749 49.8404 22.2241 50.1041 22.321L56.2242 24.5463L62.4666 18.1721C62.7731 17.8592 63.2766 17.8528 63.5896 18.161C63.9025 18.4675 63.9088 18.9711 63.6007 19.284L57.0009 26.0251C56.7833 26.2475 56.4545 26.3221 56.1622 26.2157L49.9881 23.9697L43.7378 29.1288C43.5901 29.2496 43.4106 29.3099 43.2327 29.3099Z" fill="#499A9A"/>
</svg>




