<svg width="80" height="80" viewBox="0 0 80 80" fill="none" xmlns="http://www.w3.org/2000/svg">
<g clip-path="url(#clip0_1047_9886)">
<path d="M18.8306 75C13.5383 75 9.23387 70.6956 9.23387 65.4032C9.23387 64.7823 9.74194 64.2742 10.3629 64.2742H13.4677V37.1774C13.4677 35.004 15.246 33.2258 17.4194 33.2258H23.0645C23.6855 33.2258 24.1936 33.7339 24.1936 34.3548C24.1936 34.9758 23.6855 35.4839 23.0645 35.4839H17.4194C16.4879 35.4839 15.7258 36.246 15.7258 37.1774V64.2742H27.8488C28.6391 64.2742 29.3871 64.5 30.0363 64.9375L32.8448 66.8145C33.127 66.998 33.4516 67.0968 33.7903 67.0968H46.1956C46.5343 67.0968 46.8589 66.998 47.1411 66.8145L49.9496 64.9375C50.5988 64.5 51.3609 64.2742 52.1371 64.2742H64.2601V37.1774C64.2601 36.246 63.498 35.4839 62.5665 35.4839H56.9214C56.3004 35.4839 55.7923 34.9758 55.7923 34.3548C55.7923 33.7339 56.3004 33.2258 56.9214 33.2258H62.5665C64.7399 33.2258 66.5182 35.004 66.5182 37.1774V64.2742H69.623C70.244 64.2742 70.752 64.7823 70.752 65.4032C70.752 70.6956 66.4476 75 61.1552 75H18.8306ZM11.6331 66.871C12.3246 70.2722 15.3448 72.7419 18.8306 72.7419H61.1694C64.6411 72.7419 67.6613 70.2722 68.3669 66.871L68.4375 66.5323H52.1512C51.8125 66.5323 51.4879 66.6311 51.2057 66.8145L48.3972 68.6915C47.748 69.129 46.9859 69.3548 46.2097 69.3548H33.8044C33.0141 69.3548 32.2661 69.129 31.6169 68.6915L28.8085 66.8145C28.5262 66.6311 28.2016 66.5323 27.8629 66.5323H11.5766L11.6472 66.871H11.6331ZM40 58.0645C39.9012 58.0645 39.8165 58.0645 39.7319 58.0363C32.5766 56.244 27.5806 49.8508 27.5806 42.4839V34.369C27.5806 33.9315 27.8206 33.5504 28.2016 33.3528L39.4919 27.7077C39.6472 27.623 39.8165 27.5948 40 27.5948C40.1835 27.5948 40.3528 27.6371 40.5081 27.7077L51.7984 33.3528C52.1794 33.5504 52.4194 33.9315 52.4194 34.369V42.4839C52.4194 49.8508 47.4234 56.244 40.2823 58.0363C40.1976 58.0645 40.0988 58.0645 40.0141 58.0645H40ZM29.8387 35.0464V42.4698C29.8387 48.6371 33.9879 54.0988 39.9294 55.7359L40 55.7641L40.0706 55.7359C46.0121 54.0847 50.1613 48.6371 50.1613 42.4698V35.0464L40 29.9657L29.8387 35.0464ZM38.5887 46.7742C38.2923 46.7742 38.0101 46.6613 37.7843 46.4496L33.5504 42.2157C33.3387 42.004 33.2258 41.7218 33.2258 41.4113C33.2258 41.1008 33.3387 40.8327 33.5504 40.6069C33.7621 40.3952 34.0444 40.2823 34.3548 40.2823C34.6653 40.2823 34.9335 40.3952 35.1593 40.6069L38.5887 44.0363L44.8407 37.7843C45.0524 37.5726 45.3347 37.4597 45.6452 37.4597C45.9556 37.4597 46.2238 37.5726 46.4496 37.7843C46.6613 37.996 46.7742 38.2782 46.7742 38.5887C46.7742 38.8992 46.6613 39.1673 46.4496 39.3931L39.3931 46.4496C39.1815 46.6613 38.8992 46.7742 38.5887 46.7742ZM10.3629 39.9153C10.0665 39.9153 9.78427 39.8024 9.57258 39.5907C6.62298 36.6976 5 32.8306 5 28.7097C5 20.2984 11.8306 13.4677 20.2419 13.4677C21.8085 13.4677 23.3609 13.7077 24.8427 14.1875L25.0686 14.2581L25.1815 14.0464C28.0464 8.47177 33.7198 5 40 5C46.2802 5 51.9536 8.47177 54.8186 14.0464L54.9315 14.2581L55.1573 14.1875C56.6391 13.7077 58.1915 13.4677 59.7581 13.4677C68.1694 13.4677 75 20.2984 75 28.7097C75 32.7742 73.4194 36.6129 70.5403 39.4919C70.3286 39.7036 70.0464 39.8165 69.7359 39.8165C69.4254 39.8165 69.1573 39.7036 68.9315 39.4919C68.494 39.0544 68.494 38.3347 68.9315 37.8972C71.3871 35.4415 72.7419 32.1815 72.7419 28.7238C72.7419 21.5685 66.9133 15.7399 59.7581 15.7399C58.0222 15.7399 56.3427 16.0786 54.7762 16.7419C52.6311 17.631 50.7681 19.0847 49.3992 20.9335C49.1875 21.2298 48.8488 21.3992 48.496 21.3992C48.2561 21.3992 48.0161 21.3286 47.8327 21.1734C47.3387 20.8065 47.2258 20.1008 47.5927 19.5927C48.8911 17.8427 50.5706 16.4032 52.5746 15.3306L52.8145 15.2036L52.6875 14.9496C50.1754 10.2218 45.3206 7.28629 40 7.28629C34.6794 7.28629 29.8105 10.2218 27.3125 14.9496L27.1855 15.2036L27.4395 15.3306C29.4436 16.4032 31.123 17.8427 32.4214 19.5927C32.7883 20.0867 32.6895 20.8065 32.1815 21.1734C31.9839 21.3145 31.7581 21.3992 31.504 21.3992C31.1371 21.3992 30.8125 21.2298 30.6008 20.9476C29.2319 19.0988 27.3831 17.6593 25.2379 16.756C23.6714 16.0927 21.9919 15.754 20.2561 15.754C13.0867 15.7258 7.25806 21.5544 7.25806 28.7097C7.25806 32.2097 8.64113 35.5121 11.1532 37.9819C11.3649 38.1936 11.4919 38.4758 11.4919 38.7722C11.4919 39.0686 11.379 39.3649 11.1673 39.5766C10.9556 39.7883 10.6734 39.9153 10.3629 39.9153Z" fill="#499A9A"/>
</g>
<defs>
<clipPath id="clip0_1047_9886">
<rect width="70" height="70" fill="white" transform="translate(5 5)"/>
</clipPath>
</defs>
</svg>





