<svg width="80" height="80" viewBox="0 0 80 80" fill="none" xmlns="http://www.w3.org/2000/svg">
<g clip-path="url(#clip0_1047_9869)">
<path d="M45.4593 0.94165H34.5388C32.9818 0.94165 31.7151 2.20837 31.7151 3.7654V9.39649C20.8779 12.3345 12.353 20.8802 9.4132 31.716H3.76711C2.21008 31.716 0.943359 32.9827 0.943359 34.5398V45.4638C0.943359 47.019 2.21008 48.2838 3.76711 48.2838H9.39617C12.3351 59.1226 20.8751 67.6654 31.7154 70.6038V76.2382C31.7154 77.7934 32.9821 79.0582 34.5391 79.0582H45.4596C46.9965 79.0582 48.2505 77.8257 48.2826 76.2988C48.2834 76.287 48.2834 76.2754 48.2834 76.2635V70.6084C53.222 69.2756 57.803 66.7717 61.6293 63.2101C62.0148 62.8518 62.0363 62.2488 61.6777 61.8637C61.319 61.4782 60.7154 61.4577 60.3313 61.8152C56.8634 65.0431 52.7351 67.3424 48.2834 68.6265V65.314C48.2834 63.757 47.0166 62.4902 45.4596 62.4902H34.5391C32.9821 62.4902 31.7154 63.757 31.7154 65.314V68.6321C21.9259 65.7946 14.2054 58.0729 11.3684 48.2837H14.6877C16.2246 48.2837 17.4787 47.0512 17.5107 45.5243C17.5115 45.5124 17.5115 45.5009 17.5115 45.489V34.5396C17.5115 32.9826 16.2448 31.7159 14.6877 31.7159H11.3877C14.2262 21.9299 21.929 14.2049 31.7152 11.3677V14.6892C31.7152 16.2443 32.982 17.5091 34.539 17.5091H45.4595C46.9963 17.5091 48.2504 16.2767 48.2824 14.7498C48.2832 14.7379 48.2832 14.7263 48.2832 14.7145V11.3752C58.0698 14.2121 65.7818 21.9306 68.6196 31.716H65.311C63.754 31.716 62.4873 32.9827 62.4873 34.5398V45.4638C62.4873 47.019 63.754 48.2838 65.311 48.2838H68.6395C68.1205 50.0873 67.4406 51.8487 66.5718 53.552C66.3329 54.0204 66.519 54.5943 66.9871 54.8332C67.456 55.0732 68.0298 54.8857 68.2687 54.4176C69.2777 52.4398 70.0443 50.3877 70.6087 48.2838H76.2313C77.7884 48.2838 79.0551 47.019 79.0551 45.4638V34.5398C79.0551 32.9827 77.7884 31.716 76.2313 31.716H70.5926C67.6534 20.8799 59.1212 12.3402 48.2832 9.40212V3.76524C48.283 2.20837 47.0163 0.94165 45.4593 0.94165ZM33.6205 65.3141C33.6205 64.8077 34.0329 64.3957 34.539 64.3957H39.047V67.5748C39.047 68.101 39.4734 68.5274 39.9996 68.5274C40.5259 68.5274 40.9523 68.101 40.9523 67.5748V64.3957H45.4595C45.9655 64.3957 46.3779 64.8076 46.3779 65.3141V76.2382C46.3779 76.7424 45.9655 77.1529 45.4595 77.1529H34.539C34.0329 77.1529 33.6205 76.7424 33.6205 76.2382V65.3141ZM15.6059 34.5398V45.4638C15.6059 45.9681 15.1935 46.3785 14.6874 46.3785H3.76711C3.26102 46.3785 2.84867 45.9681 2.84867 45.4638V34.5398C2.84867 34.0334 3.26102 33.6213 3.76711 33.6213H8.54664V36.8004C8.54664 37.3266 8.97305 37.7531 9.4993 37.7531C10.0255 37.7531 10.452 37.3266 10.452 36.8004V33.6213H14.6874C15.1935 33.6213 15.6059 34.0332 15.6059 34.5398ZM77.1496 34.5398V45.4638C77.1496 45.9681 76.7373 46.3785 76.2312 46.3785H65.3107C64.8046 46.3785 64.3923 45.9681 64.3923 45.4638V34.5398C64.3923 34.0334 64.8046 33.6213 65.3107 33.6213H69.8187V36.8004C69.8187 37.3266 70.2451 37.7531 70.7713 37.7531C71.2976 37.7531 71.724 37.3266 71.724 36.8004V33.6213H76.2312C76.7373 33.6213 77.1496 34.0332 77.1496 34.5398ZM46.3777 14.6895C46.3777 15.1937 45.9654 15.6041 45.4593 15.6041H34.5388C34.0327 15.6041 33.6204 15.1937 33.6204 14.6895V3.76524C33.6204 3.25884 34.0327 2.84681 34.5388 2.84681H39.0468V6.02446C39.0468 6.55071 39.4732 6.97712 39.9995 6.97712C40.5257 6.97712 40.9521 6.55071 40.9521 6.02446V2.84681H45.4593C45.9654 2.84681 46.3777 3.25868 46.3777 3.76524V14.6895Z" fill="#499A9A"/>
<path d="M39.9998 20.7993C29.5674 20.7993 20.7988 29.2217 20.7988 40.0059C20.7988 50.669 29.4643 59.2006 39.9998 59.2006C50.5868 59.2006 59.1999 50.5899 59.1999 40.0059C59.2001 29.3848 50.5918 20.7993 39.9998 20.7993ZM49.399 25.4999C51.1298 26.6223 52.3899 27.769 53.717 29.5074C53.6409 29.579 53.5646 29.647 53.4865 29.7096C52.8449 30.2232 52.4237 30.1349 51.5329 29.8882C49.187 29.2392 48.672 29.9593 47.476 30.299C47.2371 30.3671 46.9276 30.417 46.8121 30.2745C46.3879 29.7528 46.6409 27.9218 46.9557 27.3176C47.3785 26.4917 48.3884 25.9799 49.399 25.4999ZM31.3884 25.0048C31.4082 24.9934 31.4288 24.9829 31.4487 24.9715C31.4902 25.0174 31.5318 25.0637 31.5726 25.1101C32.8757 26.619 33.4787 27.0006 33.9177 27.2792C34.1335 27.4154 34.252 27.4906 34.4505 27.7101C35.0309 28.3446 35.4498 29.7548 34.4387 30.2637C34.4387 30.264 34.4379 30.2645 34.4371 30.2648L33.2574 30.859C31.6066 31.6873 31.163 31.9099 30.7113 32.4793C30.4948 32.7535 30.3577 33.1063 30.2127 33.4796C29.7068 34.7865 29.5088 35.0481 28.2687 34.2971C26.7243 33.3668 25.9087 32.9537 25.1376 32.9537C24.8049 32.9537 24.4798 33.0312 24.1093 33.1767C25.6312 29.6459 28.2463 26.8099 31.3884 25.0048ZM30.6163 42.9449C30.4757 42.3507 30.0559 41.9104 29.6496 41.4851C28.8562 40.6537 28.7274 40.416 29.1696 39.7848C29.4629 39.3695 30.6812 39.3837 32.0691 39.8187C33.9782 40.4163 34.674 40.4331 35.4488 40.3951C35.7898 40.3768 36.0605 40.3639 36.6523 40.4904C36.9485 40.554 37.0512 40.6334 37.0616 40.6334H37.0624C37.1018 40.7312 37.157 41.0081 37.1971 41.2124C37.407 42.2678 37.7977 44.2323 39.8459 44.716C39.9977 44.7529 40.1599 44.7801 40.3237 44.806C40.4271 44.8224 40.5663 44.8443 40.6668 44.8685C40.6526 45.1799 40.5551 45.3221 40.2552 45.7207C39.793 46.3332 39.1612 47.1724 38.8843 49.0735C38.694 49.7049 36.4298 52.1865 32.5809 55.6054C28.9429 53.8764 26.2352 51.1479 24.5166 47.677C24.981 47.0068 26.321 46.6723 27.1854 46.4332C28.7765 45.9939 31.1804 45.3299 30.6163 42.9449ZM39.9998 57.2953C38.1216 57.2953 36.2924 56.9951 34.5401 56.4095C37.4963 53.7457 40.571 50.6964 40.7634 49.3812C40.9755 47.9299 41.3826 47.3899 41.7763 46.8674C42.1402 46.3845 42.5534 45.8367 42.5734 44.8606C42.6113 43.2396 41.166 43.0104 40.622 42.924C40.5104 42.9062 40.3995 42.8898 40.2901 42.8634C39.4893 42.674 39.2771 41.9056 39.0659 40.8409C38.9654 40.3363 38.879 39.9001 38.6349 39.5585C38.303 39.0953 37.7709 38.782 37.052 38.6271C36.214 38.4481 35.7548 38.4715 35.3529 38.492C34.8446 38.5187 34.369 38.5418 32.6387 38.0004C31.247 37.5646 28.7455 37.0757 27.6105 38.6903C26.2291 40.6614 27.5577 42.0528 28.2715 42.8004C28.4516 42.989 28.724 43.2742 28.7627 43.3835C28.8632 43.8088 28.7032 44.0373 26.678 44.5967C25.6649 44.8767 24.5504 45.1867 23.712 45.8123C23.0465 43.9571 22.7045 42.0117 22.7045 40.0059C22.7045 38.5337 22.8965 37.0862 23.2574 35.6912C23.618 35.5246 23.9185 35.3728 24.1759 35.2418C25.2468 34.6993 25.2462 34.7004 27.2846 35.9284C29.3766 37.1943 30.9787 36.7739 31.9898 34.169C32.062 33.9826 32.161 33.727 32.2063 33.661C32.3879 33.4318 32.6946 33.2732 34.1124 32.5618L35.298 31.9649C37.5082 30.8487 37.3115 28.0187 35.8607 26.4273C35.4893 26.0187 35.2095 25.8412 34.9379 25.6696C34.6035 25.4576 34.1852 25.186 33.2168 24.0928C35.3524 23.1745 37.6274 22.7045 40.0004 22.7045C42.5752 22.7045 45.1024 23.286 47.4104 24.3799C46.5518 24.8703 45.7502 25.4923 45.2638 26.4424C44.8165 27.3003 44.1802 30.0573 45.3338 31.4762C45.9873 32.2781 46.9785 32.4192 47.9976 32.1315C49.4463 31.7187 49.3391 31.2587 51.0245 31.724C51.9637 31.9842 53.2505 32.3395 54.678 31.1963C54.7235 31.1599 54.7651 31.1148 54.8096 31.0768C56.4363 33.7613 57.2955 36.8229 57.2955 40.0057C57.2948 49.5393 49.5359 57.2953 39.9998 57.2953Z" fill="#499A9A"/>
</g>
<defs>
<clipPath id="clip0_1047_9869">
<rect width="80" height="80" fill="white"/>
</clipPath>
</defs>
</svg>






