<svg width="80" height="80" viewBox="0 0 80 80" fill="none" xmlns="http://www.w3.org/2000/svg">
<g clip-path="url(#clip0_3858_9030)">
<path d="M31.2123 33.418H25.5996V46.7383H31.2123" stroke="#499A9A" stroke-width="2.34375" stroke-miterlimit="10" stroke-linecap="round" stroke-linejoin="round"/>
<path d="M30.7984 40.0781H25.5996" stroke="#499A9A" stroke-width="2.34375" stroke-miterlimit="10" stroke-linecap="round" stroke-linejoin="round"/>
<path d="M37.5176 40.3832L43.1646 46.7993" stroke="#499A9A" stroke-width="2.34375" stroke-miterlimit="10" stroke-linecap="round" stroke-linejoin="round"/>
<path d="M35.8965 33.3563V46.7993" stroke="#499A9A" stroke-width="2.34375" stroke-miterlimit="10" stroke-linecap="round" stroke-linejoin="round"/>
<mask id="mask0_3858_9030" style="mask-type:luminance" maskUnits="userSpaceOnUse" x="0" y="0" width="80" height="80">
<path d="M0 7.62939e-06H80V80H0V7.62939e-06Z" fill="white"/>
</mask>
<g mask="url(#mask0_3858_9030)">
<path d="M43.1641 36.8503C43.1641 38.7798 41.4723 40.3439 39.4727 40.3439C38.481 40.3439 35.9252 40.3594 35.9252 40.3594C35.9252 40.3594 35.9093 37.823 35.9093 36.8503C35.9093 36.0514 35.9004 33.3566 35.9004 33.3566H39.4727C41.4723 33.3566 43.1641 34.9208 43.1641 36.8503Z" stroke="#499A9A" stroke-width="2.34375" stroke-miterlimit="10" stroke-linecap="round" stroke-linejoin="round"/>
<path d="M48.0039 33.3563V46.7993" stroke="#499A9A" stroke-width="2.34375" stroke-miterlimit="10" stroke-linecap="round" stroke-linejoin="round"/>
<path d="M55.615 37.1501C55.615 39.2453 53.8422 40.9437 51.747 40.9437C50.708 40.9437 48.03 40.9604 48.03 40.9604C48.03 40.9604 48.0133 38.2062 48.0133 37.1501C48.0133 36.2828 48.0039 33.3565 48.0039 33.3565H51.747C53.8422 33.3565 55.615 35.055 55.615 37.1501Z" stroke="#499A9A" stroke-width="2.34375" stroke-miterlimit="10" stroke-linecap="round" stroke-linejoin="round"/>
<path d="M47.0226 18.8316C46.331 18.6024 45.8472 17.9754 45.7527 17.2529L45.0407 11.8073C44.9241 10.9159 44.2107 10.2245 43.3171 10.1248C42.2277 10.0035 41.1213 9.93961 39.9997 9.93961C38.878 9.93961 37.7716 10.0035 36.6822 10.1248C35.7888 10.2245 35.0752 10.9159 34.9587 11.8073L34.2466 17.2529C34.1522 17.9754 33.6683 18.6024 32.9768 18.8316C30.0663 19.7963 27.4218 21.3424 25.1818 23.3352C24.6383 23.8187 23.856 23.9263 23.1844 23.6474L18.1046 21.5379C17.2743 21.1932 16.3187 21.4652 15.7857 22.1895C15.136 23.0721 14.5274 23.9984 13.9665 24.9699C13.4057 25.9412 12.9079 26.9313 12.4683 27.9354C12.1076 28.759 12.3497 29.7227 13.0635 30.2695L17.4251 33.6099C18.0022 34.052 18.2997 34.7824 18.1533 35.4945C17.8544 36.9498 17.6966 38.4565 17.6966 40.0001C17.6966 41.5437 17.8544 43.0504 18.1533 44.5055C18.2996 45.2176 18.0022 45.9482 17.4251 46.3902L13.0635 49.7307C12.3497 50.2774 12.1077 51.241 12.4683 52.0648C12.9079 53.0687 13.4058 54.059 13.9665 55.0302C14.5274 56.0018 15.136 56.928 15.7857 57.8107C16.3187 58.5349 17.2743 58.807 18.1046 58.4621L23.1844 56.3527C23.856 56.0738 24.6382 56.1816 25.1816 56.6649C27.4218 58.6576 30.0663 60.2038 32.9768 61.1685C33.6683 61.3977 34.1522 62.0248 34.2466 62.7473L34.9587 68.1929C35.0752 69.0843 35.7888 69.7759 36.6822 69.8754C37.7716 69.9966 38.878 70.0605 39.9997 70.0605C41.1213 70.0605 42.2277 69.9966 43.3171 69.8754C44.2107 69.7759 44.9241 69.0843 45.0407 68.1929L45.7527 62.7473C45.8472 62.0248 46.331 61.3977 47.0226 61.1685C49.933 60.2038 52.5777 58.6576 54.8179 56.6649C55.3611 56.1816 56.1433 56.0738 56.8151 56.3527L61.8949 58.4621C62.7251 58.807 63.6807 58.5349 64.2136 57.8107C64.8635 56.928 65.4719 56.0018 66.0329 55.0302C66.5936 54.059 67.0915 53.0687 67.5311 52.0648C67.8916 51.241 67.6497 50.2774 66.9358 49.7307L62.5743 46.3902C61.9972 45.9482 61.6999 45.2176 61.846 44.5055C62.1449 43.0504 62.3027 41.5437 62.3027 40.0001C62.3027 38.4565 62.1449 36.9498 61.846 35.4945C61.6997 34.7824 61.9972 34.052 62.5743 33.6099L66.9358 30.2695C67.6497 29.7227 67.8918 28.759 67.5311 27.9354C67.0915 26.9313 66.5938 25.9412 66.0329 24.9699C65.4719 23.9984 64.8635 23.0721 64.2136 22.1895C63.6807 21.4652 62.7251 21.1932 61.8949 21.5379L56.8151 23.6474C56.1433 23.9263 55.361 23.8187 54.8177 23.3352C53.8262 22.453 52.7551 21.6584 51.6169 20.963" stroke="#499A9A" stroke-width="2.34375" stroke-miterlimit="10" stroke-linecap="round" stroke-linejoin="round"/>
<path d="M9.14453 63.5742C16.2402 72.8473 27.4214 78.8281 39.9997 78.8281C61.4439 78.8281 78.8278 61.4442 78.8278 40C78.8278 34.0448 77.487 28.4027 75.0911 23.3591" stroke="#499A9A" stroke-width="2.34375" stroke-miterlimit="10" stroke-linecap="round" stroke-linejoin="round"/>
<path d="M70.5078 15.9788C63.3977 6.96096 52.3748 1.1719 40 1.1719C18.5558 1.1719 1.17188 18.5558 1.17188 40C1.17188 45.9553 2.51266 51.5974 4.90859 56.6411" stroke="#499A9A" stroke-width="2.34375" stroke-miterlimit="10" stroke-linecap="round" stroke-linejoin="round"/>
<path d="M9.49219 71.8945L8.10547 62.1875L16.4258 64.9609" stroke="#499A9A" stroke-width="2.34375" stroke-miterlimit="10" stroke-linecap="round" stroke-linejoin="round"/>
<path d="M70.5078 8.10547L71.8945 17.8125L63.5742 15.0391" stroke="#499A9A" stroke-width="2.34375" stroke-miterlimit="10" stroke-linecap="round" stroke-linejoin="round"/>
</g>
</g>
<defs>
<clipPath id="clip0_3858_9030">
<rect width="80" height="80" fill="white"/>
</clipPath>
</defs>
</svg>
