<svg width="80" height="80" viewBox="0 0 80 80" fill="none" xmlns="http://www.w3.org/2000/svg">
<path d="M34.9903 21.2134H24.9707V26.2232" stroke="#499A9A" stroke-width="2" stroke-miterlimit="10"/>
<path d="M60.0391 66.3014V33.7378" stroke="#499A9A" stroke-width="2" stroke-miterlimit="10"/>
<path d="M41.2525 26.2231H19.9609V66.3014" stroke="#499A9A" stroke-width="2" stroke-miterlimit="10"/>
<path d="M55.0293 66.3014V31.2329" stroke="#499A9A" stroke-width="2" stroke-miterlimit="10"/>
<path d="M50.0196 66.3013V71.3111C50.0196 72.0027 49.4588 72.5635 48.7672 72.5635H31.2329C30.5413 72.5635 29.9805 72.0027 29.9805 71.3111V66.3013" stroke="#499A9A" stroke-width="2" stroke-miterlimit="10"/>
<path d="M60.0383 58.7866L67.5529 66.3013V77.5733C67.5529 78.265 66.9922 78.8258 66.3005 78.8258H13.6978C13.0061 78.8258 12.4453 78.265 12.4453 77.5733V66.3013L19.96 58.7866" stroke="#499A9A" stroke-width="2" stroke-miterlimit="10"/>
<path d="M12.4453 66.3013H67.5529" stroke="#499A9A" stroke-width="2" stroke-miterlimit="10"/>
<path d="M23.7188 61.2915H43.7579" stroke="#499A9A" stroke-width="2" stroke-miterlimit="10"/>
<path d="M23.7188 56.2817H51.2726" stroke="#499A9A" stroke-width="2" stroke-miterlimit="10"/>
<path d="M23.7188 51.272H51.2726" stroke="#499A9A" stroke-width="2" stroke-miterlimit="10"/>
<path d="M23.7188 46.2622H51.2726" stroke="#499A9A" stroke-width="2" stroke-miterlimit="10"/>
<path d="M31.2324 41.2524H51.2716" stroke="#499A9A" stroke-width="2" stroke-miterlimit="10"/>
<path d="M23.7188 33.7378H26.2236" stroke="#499A9A" stroke-width="2" stroke-miterlimit="10"/>
<path d="M28.7285 33.7378H31.2334" stroke="#499A9A" stroke-width="2" stroke-miterlimit="10"/>
<path d="M52.5254 31.233C60.8259 31.233 67.5548 24.5042 67.5548 16.2037C67.5548 7.90319 60.8259 1.17432 52.5254 1.17432C44.225 1.17432 37.4961 7.90319 37.4961 16.2037C37.4961 24.5042 44.225 31.233 52.5254 31.233Z" stroke="#499A9A" stroke-width="2" stroke-miterlimit="10"/>
<path d="M55.0293 26.2232V13.6988H60.0391L52.5244 6.18408L45.0098 13.6988H50.0196V26.2232" stroke="#499A9A" stroke-width="2" stroke-miterlimit="10"/>
</svg>
