<svg width="80" height="80" viewBox="0 0 80 80" fill="none" xmlns="http://www.w3.org/2000/svg">
<g clip-path="url(#clip0_3858_9105)">
<path d="M78.2812 15.4692H1.71875" stroke="#499A9A" stroke-width="2" stroke-miterlimit="10" stroke-linejoin="round"/>
<path d="M35.4855 69.8205L49.2729 62.168L41.6204 75.9553C40.411 78.1342 37.6643 78.9202 35.4854 77.7108C33.3065 76.5014 32.5205 73.7547 33.7299 71.5758C34.1522 70.8153 34.7782 70.2159 35.4855 69.8205Z" stroke="#499A9A" stroke-width="2" stroke-miterlimit="10" stroke-linecap="round" stroke-linejoin="round"/>
<path d="M9.13984 64.5841H1.71875V1.71924H78.2812V64.5841H70.907" stroke="#499A9A" stroke-width="2" stroke-miterlimit="10" stroke-linecap="round" stroke-linejoin="round"/>
<circle cx="10.4688" cy="8.59424" r="1.71875" fill="#499A9A"/>
<circle cx="18.5938" cy="8.59424" r="1.71875" fill="#499A9A"/>
<circle cx="26.7188" cy="8.59424" r="1.71875" fill="#499A9A"/>
<path d="M69.5312 8.59424H40" stroke="#499A9A" stroke-width="2" stroke-miterlimit="10" stroke-linecap="round" stroke-linejoin="round"/>
<path d="M40 46.8755V51.2299" stroke="#499A9A" stroke-width="2" stroke-miterlimit="10" stroke-linecap="round" stroke-linejoin="round"/>
<path d="M22.6543 54.0605L25.7391 57.1454" stroke="#499A9A" stroke-width="2" stroke-miterlimit="10" stroke-linecap="round" stroke-linejoin="round"/>
<path d="M57.3462 54.0605L54.2812 57.1257" stroke="#499A9A" stroke-width="2" stroke-miterlimit="10" stroke-linecap="round" stroke-linejoin="round"/>
<path d="M60.2166 71.4067H64.5312C64.5312 57.8585 53.5483 46.8755 40 46.8755C26.4517 46.8755 15.4688 57.8585 15.4688 71.4067H19.823" stroke="#499A9A" stroke-width="2" stroke-miterlimit="10" stroke-linecap="round" stroke-linejoin="round"/>
<path d="M40 40.0005C22.6548 40.0005 8.59375 54.0616 8.59375 71.4067C8.59375 73.7683 8.85625 76.0681 9.35031 78.2808H70.6495C71.1436 76.0683 71.4061 73.7683 71.4061 71.4067C71.4062 54.0616 57.3452 40.0005 40 40.0005Z" stroke="#499A9A" stroke-width="2" stroke-miterlimit="10" stroke-linecap="round" stroke-linejoin="round"/>
<path d="M10.4688 24.6826H33.7177" stroke="#499A9A" stroke-width="2" stroke-miterlimit="10" stroke-linecap="round" stroke-linejoin="round"/>
<path d="M10.4688 34.0571H27.9825" stroke="#499A9A" stroke-width="2" stroke-miterlimit="10" stroke-linecap="round" stroke-linejoin="round"/>
<path d="M69.5321 24.6826H46.2832" stroke="#499A9A" stroke-width="2" stroke-miterlimit="10" stroke-linecap="round" stroke-linejoin="round"/>
<path d="M69.5313 34.0571H52.0176" stroke="#499A9A" stroke-width="2" stroke-miterlimit="10" stroke-linecap="round" stroke-linejoin="round"/>
</g>
<defs>
<clipPath id="clip0_3858_9105">
<rect width="80" height="80" fill="white"/>
</clipPath>
</defs>
</svg>
