<svg width="80" height="80" viewBox="0 0 80 80" fill="none" xmlns="http://www.w3.org/2000/svg">
<g clip-path="url(#clip0_3858_9134)">
<path d="M20.5869 55.0595V78.3508C20.1606 78.3508 19.7345 78.2506 19.342 78.0503L2.74516 69.589C1.78234 69.0986 1.17188 68.0828 1.17188 66.9715V46.9358C1.17188 46.3755 1.32703 45.8397 1.60453 45.3823L20.5869 55.0595Z" stroke="#499A9A" stroke-width="2" stroke-miterlimit="10" stroke-linecap="round" stroke-linejoin="round"/>
<path d="M32.8852 72.416L40.0005 68.7896V45.1626L20.5879 55.0598V78.3504C21.013 78.3504 21.4402 78.2503 21.8315 78.0499L27.9068 74.9535" stroke="#499A9A" stroke-width="2" stroke-miterlimit="10" stroke-linecap="round" stroke-linejoin="round"/>
<path d="M39.9998 45.1624L20.5871 55.0596L1.60352 45.3816C1.86617 44.9507 2.23852 44.5879 2.69211 44.346L20.5873 34.7285L39.9998 45.1624Z" stroke="#499A9A" stroke-width="2" stroke-miterlimit="10" stroke-linecap="round" stroke-linejoin="round"/>
<path d="M59.4141 55.0595V78.3508C59.8403 78.3508 60.2664 78.2506 60.6589 78.0503L77.2558 69.5892C78.2186 69.0987 78.8291 68.0829 78.8291 66.9717V46.9358C78.8291 46.3755 78.6739 45.8397 78.3966 45.3823L59.4141 55.0595Z" stroke="#499A9A" stroke-width="2" stroke-miterlimit="10" stroke-linecap="round" stroke-linejoin="round"/>
<path d="M59.4127 55.0598V78.3504C58.9875 78.3504 58.5603 78.2503 58.1691 78.0499L40 68.7896V45.1626L59.4127 55.0598Z" stroke="#499A9A" stroke-width="2" stroke-miterlimit="10" stroke-linecap="round" stroke-linejoin="round"/>
<path d="M49.3906 40.1152L40 45.1626L59.4127 55.0598L78.3962 45.3818C78.1336 44.9509 77.7613 44.588 77.3077 44.3462L69.4358 40.1155" stroke="#499A9A" stroke-width="2" stroke-miterlimit="10" stroke-linecap="round" stroke-linejoin="round"/>
<path d="M39.9991 21.605V45.1623L20.5864 34.7284L20.5859 13.482C20.5859 12.9217 20.7411 12.3859 21.0184 11.9287L39.9991 21.605Z" stroke="#499A9A" stroke-width="2" stroke-miterlimit="10" stroke-linecap="round" stroke-linejoin="round"/>
<path d="M40 45.1623V21.605L58.9797 11.9287C59.257 12.3861 59.4122 12.9218 59.4122 13.482L59.4123 17.7626" stroke="#499A9A" stroke-width="2" stroke-miterlimit="10" stroke-linecap="round" stroke-linejoin="round"/>
<path d="M58.9798 11.929L40.0002 21.6054L21.0195 11.929C21.2823 11.4973 21.6537 11.1353 22.1072 10.8924L38.7016 1.97761C38.7061 1.97573 38.7098 1.97292 38.7144 1.97104C39.5256 1.54011 40.4883 1.54214 41.2978 1.97761L57.8922 10.8924C58.3456 11.1354 58.718 11.4973 58.9798 11.929Z" stroke="#499A9A" stroke-width="2" stroke-miterlimit="10" stroke-linecap="round" stroke-linejoin="round"/>
<path d="M67.8124 27.0546C65.7323 24.7792 62.7396 23.3521 59.4137 23.3521C53.1305 23.3521 48.0371 28.4455 48.0371 34.7286C48.0371 41.0117 53.1305 46.1052 59.4137 46.1052C65.6968 46.1052 70.7902 41.0117 70.7902 34.7286C70.7902 33.7633 70.6701 32.8261 70.4437 31.9311" stroke="#499A9A" stroke-width="2" stroke-miterlimit="10" stroke-linecap="round" stroke-linejoin="round"/>
<path d="M54.0762 35.2077L57.8663 38.7196L64.5474 31.6958" stroke="#499A9A" stroke-width="2" stroke-miterlimit="10" stroke-linecap="round" stroke-linejoin="round"/>
</g>
<defs>
<clipPath id="clip0_3858_9134">
<rect width="80" height="80" fill="white"/>
</clipPath>
</defs>
</svg>
