<svg width="80" height="80" viewBox="0 0 80 80" fill="none" xmlns="http://www.w3.org/2000/svg">
<g clip-path="url(#clip0_4080_8043)">
<path d="M3.07812 28.6535C12.4242 32.2061 10.384 27.9532 17.1445 24.0499C21.2168 21.6988 26.0224 24.0566 26.0224 28.1015C26.0224 30.5397 24.7705 32.0722 23.9765 33.4475C22.3607 36.2463 23.0118 39.4172 26.9743 40.2766C31.8769 41.3397 31.6088 46.9211 27.324 49.3948C24.0774 51.2692 23.4271 55.1904 26.1094 57.5502C28.7507 59.8738 32.7493 63.1443 31.8663 69.478" stroke="#499A9A" stroke-width="2" stroke-miterlimit="22.9256" stroke-linecap="round" stroke-linejoin="round"/>
<path d="M43.8191 69.3965C41.2359 70.0049 38.5911 70.3122 35.9374 70.3122C16.9526 70.3122 1.5625 54.922 1.5625 35.9374C1.5625 16.9528 16.9528 1.5625 35.9374 1.5625C54.922 1.5625 70.3122 16.9528 70.3122 35.9374C70.3122 38.5119 70.023 41.0784 69.4499 43.5884" stroke="#499A9A" stroke-width="2" stroke-miterlimit="22.9256" stroke-linecap="round" stroke-linejoin="round"/>
<path d="M67.8492 25.4744C63.8642 27.2935 62.0438 23.9474 59.9472 26.0441C57.3471 28.6441 53.9505 28.2894 52.9129 24.4783C52.4897 22.9241 52.0975 21.2263 50.1932 20.7162C47.4221 19.9737 45.566 18.4073 44.9266 15.4106C43.9518 10.8428 39.6288 10.1206 35.1601 11.9253C30.6914 13.7299 24.1602 11.4956 23.1289 4.79248" stroke="#499A9A" stroke-width="2" stroke-miterlimit="22.9256" stroke-linecap="round" stroke-linejoin="round"/>
<path d="M58.1259 76.0479C68.0243 76.0479 76.0486 68.0236 76.0486 58.1251C76.0486 48.2267 68.0243 40.2024 58.1259 40.2024C48.2274 40.2024 40.2031 48.2267 40.2031 58.1251C40.2031 68.0236 48.2274 76.0479 58.1259 76.0479Z" stroke="#499A9A" stroke-width="2" stroke-miterlimit="22.9256" stroke-linecap="round" stroke-linejoin="round"/>
<path d="M60.5954 68.5851C66.3754 67.2202 69.9545 61.4283 68.5897 55.6484C67.2249 49.8684 61.433 46.2892 55.653 47.654C49.8731 49.0188 46.2939 54.8108 47.6587 60.5908C49.0235 66.3707 54.8155 69.9499 60.5954 68.5851Z" stroke="#499A9A" stroke-width="2" stroke-miterlimit="22.9256" stroke-linecap="round" stroke-linejoin="round"/>
<path fill-rule="evenodd" clip-rule="evenodd" d="M58.1236 61.7097C60.0979 61.7097 61.7081 60.0994 61.7081 58.1252C61.7081 56.1508 60.0978 54.5405 58.1236 54.5405C56.1494 54.5405 54.5391 56.1508 54.5391 58.1252C54.5389 60.0996 56.1492 61.7097 58.1236 61.7097Z" stroke="#499A9A" stroke-width="2" stroke-miterlimit="22.9256" stroke-linecap="round" stroke-linejoin="round"/>
<path d="M58.125 37.8127V46.7741" stroke="#499A9A" stroke-width="2" stroke-miterlimit="22.9256" stroke-linecap="round" stroke-linejoin="round"/>
<path d="M37.8125 58.125H46.7739" stroke="#499A9A" stroke-width="2" stroke-miterlimit="22.9256" stroke-linecap="round" stroke-linejoin="round"/>
<path d="M58.125 78.4374V69.4761" stroke="#499A9A" stroke-width="2" stroke-miterlimit="22.9256" stroke-linecap="round" stroke-linejoin="round"/>
<path d="M78.4379 58.125H69.4766" stroke="#499A9A" stroke-width="2" stroke-miterlimit="22.9256" stroke-linecap="round" stroke-linejoin="round"/>
</g>
<defs>
<clipPath id="clip0_4080_8043">
<rect width="80" height="80" fill="white"/>
</clipPath>
</defs>
</svg>
