<svg width="80" height="80" viewBox="0 0 80 80" fill="none" xmlns="http://www.w3.org/2000/svg">
<path d="M7.51172 78.2812H72.4852" stroke="#499A9A" stroke-width="2" stroke-miterlimit="10" stroke-linecap="round" stroke-linejoin="round"/>
<path d="M19.9734 65.3088H10.2148V78.2812H19.9734V65.3088Z" stroke="#499A9A" stroke-width="2" stroke-miterlimit="10" stroke-linecap="round" stroke-linejoin="round"/>
<path d="M36.5789 57.5281H26.8203V78.2812H36.5789V57.5281Z" stroke="#499A9A" stroke-width="2" stroke-miterlimit="10" stroke-linecap="round" stroke-linejoin="round"/>
<path d="M53.1805 62.1965H43.4219V78.2812H53.1805V62.1965Z" stroke="#499A9A" stroke-width="2" stroke-miterlimit="10" stroke-linecap="round" stroke-linejoin="round"/>
<path d="M69.7859 51.3037H60.0273V78.2814H69.7859V51.3037Z" stroke="#499A9A" stroke-width="2" stroke-miterlimit="10" stroke-linecap="round" stroke-linejoin="round"/>
<path d="M15.0938 56.101L31.698 44.0624L48.302 54.4159L67.6108 34.666" stroke="#499A9A" stroke-width="2" stroke-miterlimit="10" stroke-linecap="round" stroke-linejoin="round"/>
<path d="M63.5586 33.4753L68.9153 33.1079L69.2827 38.4657" stroke="#499A9A" stroke-width="2" stroke-miterlimit="10" stroke-linecap="round" stroke-linejoin="round"/>
<path d="M53.0866 37.1672H26.9113C24.3648 37.1672 22.3008 35.1029 22.3008 32.5567V14.1078C22.3008 11.5614 24.365 9.49731 26.9113 9.49731H53.0864C55.6328 9.49731 57.6969 11.5615 57.6969 14.1078V32.5567C57.697 35.1029 55.6328 37.1672 53.0866 37.1672Z" stroke="#499A9A" stroke-width="2" stroke-miterlimit="10" stroke-linecap="round" stroke-linejoin="round"/>
<path d="M31.4062 8.27625V6.32984C31.4062 3.78328 33.4703 1.71875 36.0162 1.71875H43.9822C46.5283 1.71875 48.5922 3.78313 48.5922 6.32984V8.27625" stroke="#499A9A" stroke-width="2" stroke-miterlimit="10" stroke-linecap="round" stroke-linejoin="round"/>
<path d="M57.697 18.0178C57.697 21.8219 54.6139 24.9056 50.8108 24.9056H29.187C25.3839 24.9056 22.3008 21.8219 22.3008 18.0178" stroke="#499A9A" stroke-width="2" stroke-miterlimit="10" stroke-linecap="round" stroke-linejoin="round"/>
<path d="M33.8555 22.8164V27.4478" stroke="#499A9A" stroke-width="2" stroke-miterlimit="10" stroke-linecap="round" stroke-linejoin="round"/>
<path d="M46.1445 22.8164V27.4478" stroke="#499A9A" stroke-width="2" stroke-miterlimit="10" stroke-linecap="round" stroke-linejoin="round"/>
</svg>
