<svg width="30" height="30" viewBox="0 0 30 30" fill="none" xmlns="http://www.w3.org/2000/svg">
<g clip-path="url(#clip0_4080_18999)">
<path d="M29.5775 14.8787C29.5775 6.66109 22.957 0.000244141 14.7887 0.000244141C6.62043 0.000244141 0 6.66109 0 14.8787C0 22.3065 5.40676 28.4616 12.4777 29.5777V19.1802H8.72339V14.8777H12.4777V11.6005C12.4777 7.8718 14.6852 5.81123 18.064 5.81123C19.6808 5.81123 21.3746 6.10208 21.3746 6.10208V9.76377H19.5083C17.6715 9.76377 17.0998 10.9114 17.0998 12.0886V14.8787H21.2011L20.5455 19.1793H17.0998V29.5777C24.1707 28.4616 29.5775 22.3065 29.5775 14.8787Z" fill="#499A9A"/>
</g>
<defs>
<clipPath id="clip0_4080_18999">
<rect width="29.5775" height="29.5775" fill="white"/>
</clipPath>
</defs>
</svg>
