<svg xmlns="http://www.w3.org/2000/svg" id="Encryption" enable-background="new 0 0 32 32" height="512" viewBox="0 0 32 32" width="512"><path d="m29.9229 20.4092c-.2852-.9209-1.1416-1.4385-2.0957-1.2627l-7.559 1.4267c-.0841-.6263-.4681-1.2452-1.277-1.5156l-5.1387-1.7119c-.8135-.2715-1.707-.1826-2.4492.25l-5.3955 3.1217v-1.2145c0-.2764-.2236-.5-.5-.5h-2.998c-.2764 0-.5.2236-.5.5v8.9932c0 .2764.2236.5.5.5h2.998c.2764 0 .5-.2236.5-.5v-.499h10.5752c.0693 0 .1377-.0146.2012-.042l12.1221-5.3203c.8837-.3887 1.3017-1.3037 1.0166-2.2256zm-24.9151 7.5869h-1.998v-7.9932h1.998zm23.4961-6.2773-12.0254 5.2783h-10.4707v-5.1251l5.8965-3.4111c.4941-.2861 1.0898-.3486 1.6318-.166l5.1387 1.7119c.5674.1895.6738.6826.5928 1.0469s-.3789.7695-.9805.6953l-4.9697-.583c-.2813-.0273-.5225.165-.5557.4385-.0313.2744.165.5234.4385.5557 0 0 4.9697.583 4.9697.583.8451.0929 1.6212-.3403 1.9571-1.1259l7.8856-1.4883c.542-.1064.8525.2461.9551.5752.1016.33.0411.7929-.4638 1.0146z" fill="#499a9a"/><path d="m25 14.5c1.1025 0 2-.8975 2-2s-.8975-2-2-2-2 .8975-2 2 .8975 2 2 2zm0-3c.5518 0 1 .4482 1 1s-.4482 1-1 1-1-.4482-1-1 .4482-1 1-1z" fill="#499a9a"/><path d="m5.1465 14.8535c.0937.0938.2207.1465.3535.1465h2.042c.1406 0 .2744-.0586.3691-.1621l.5703-.623.6738.6465c.0928.0888.2169.1386.3458.1386h1.916c.126 0 .2471-.0469.3389-.1328l.7227-.667.6182.6455c.0946.0986.2245.1543.3612.1543h1.542c0 .2764.2236.5.5.5h1.2373c1.1094 2.1367 3.3359 3.5 5.7627 3.5 3.584 0 6.5-2.916 6.5-6.5s-2.916-6.5-6.5-6.5c-2.4268 0-4.6533 1.3633-5.7627 3.5h-.2373v-2.3613l.7018-1.1688c.0964.0195.1961.0301.2982.0301.8271 0 1.5-.6729 1.5-1.5s-.6729-1.5-1.5-1.5-1.5.6729-1.5 1.5c0 .3616.1339.6893.3478.9486l-.7765 1.2936c-.0469.0781-.0713.167-.0713.2578v2.5c-.2764 0-.5.2236-.5.5h-2v-4.0921c.5807-.2071 1-.7569 1-1.4079 0-.8271-.6729-1.5-1.5-1.5s-1.5.6729-1.5 1.5c0 .651.4193 1.2008 1 1.4079v4.0921h-2v-1.0921c.5807-.2071 1-.7569 1-1.4079 0-.8271-.6729-1.5-1.5-1.5s-1.5.6729-1.5 1.5c0 .651.4193 1.2008 1 1.4079v1.0921h-2v-3.5c0-.0771-.0186-.1543-.0527-.2236l-.369-.738c.2598-.2699.4217-.635.4217-1.0384 0-.8271-.6729-1.5-1.5-1.5s-1.5.6729-1.5 1.5.6729 1.5 1.5 1.5c.0623 0 .1215-.011.1818-.0184l.3182.6366v3.3818h-.5c-.1328 0-.2598.0527-.3535.1465l-2 2c-.1953.1953-.1953.5117 0 .707zm12.3535-10.8535c.2754 0 .5.2246.5.5s-.2246.5-.5.5-.5-.2246-.5-.5.2246-.5.5-.5zm-5 0c.2754 0 .5.2246.5.5s-.2246.5-.5.5-.5-.2246-.5-.5.2246-.5.5-.5zm-3 3c.2754 0 .5.2246.5.5s-.2246.5-.5.5-.5-.2246-.5-.5.2246-.5.5-.5zm-4.5-2.5c0-.2754.2246-.5.5-.5s.5.2246.5.5-.2246.5-.5.5-.5-.2246-.5-.5zm12.0498 6c.1953 0 .373-.1143.4551-.292.8896-1.9492 2.8506-3.208 4.9951-3.208 3.0322 0 5.5 2.4678 5.5 5.5s-2.4678 5.5-5.5 5.5c-2.1445 0-4.1055-1.2588-4.9951-3.208-.082-.1777-.2598-.292-.4551-.292h-1.0498v-4zm-11.3428.5h9.293v.5h-8.5c-.2764 0-.5.2236-.5.5s.2236.5.5.5h8.5v1.5h-1.3281l-.8105-.8457c-.1895-.1963-.501-.208-.7002-.0215l-.9395.8672h-1.5196l-.8984-.8613c-.0967-.0928-.2344-.1465-.3623-.1387-.1338.0049-.2607.0635-.3525.1621l-.7666.8379h-1.6153l-1.5-1.5z" fill="#499a9a"/></svg>