<svg xmlns="http://www.w3.org/2000/svg" id="Layer_1" enable-background="new 0 0 512 512" height="512" viewBox="0 0 512 512" width="512"><circle cx="251.57" cy="462" r="10" fill="#499a9a"/><path d="m504.699 95.066c-13.924-32.06-46.163-55.066-82.699-55.066h-116.57c-5.52 0-10 4.49-10 10s4.48 10 10 10h116.57c37.657 0 70 32.495 70 70v46c0 37.821-32.292 70-70 70h-76v-65c0-5.523-4.477-10-10-10h-160c-5.523 0-10 4.477-10 10v65h-76c-12.15 0-23.94 2.38-35.03 7.08-32.869 13.889-54.97 47.28-54.97 82.92v46c0 12.15 2.38 23.94 7.07 35.03 13.923 32.876 47.257 54.97 82.93 54.97h116.57c5.51 0 10-4.49 10-10s-4.49-10-10-10c0 0-116.501 0-116.57 0-38.07 0-70-31.964-70-70 0 0 0-45.947 0-46 0-37.19 33-70 70-70h76v65c0 5.523 4.477 10 10 10h160c5.523 0 10-4.477 10-10v-65h76c48.739 0 90-41.345 90-90 0 0 0-45.985 0-46 0-12.316-2.612-24.139-7.301-34.934zm-238.699 95.934v23.82l-5.528-2.764c-1.408-.704-2.94-1.056-4.472-1.056s-3.064.352-4.472 1.056l-5.528 2.764v-23.82zm60 130h-140v-130h40v40c0 3.466 1.794 6.685 4.743 8.506 2.948 1.822 6.63 1.987 9.729.438l15.528-7.764 15.528 7.764c1.411.706 2.943 1.056 4.472 1.056 1.829 0 3.652-.501 5.258-1.494 2.948-1.822 4.743-5.041 4.743-8.506v-40h40v130z" fill="#499a9a"/><circle cx="260.43" cy="50" r="10" fill="#499a9a"/><path d="m50 100c24.146 0 44.348-17.205 48.994-40h116.436c5.51 0 10-4.49 10-10s-4.49-10-10-10h-116.436c-4.646-22.795-24.848-40-48.994-40-27.57 0-50 22.43-50 50s22.43 50 50 50zm0-80c16.542 0 30 13.458 30 30s-13.458 30-30 30-30-13.458-30-30 13.458-30 30-30z" fill="#499a9a"/><path d="m462 412c-27.57 0-50 22.43-50 50s22.43 50 50 50 50-22.43 50-50-22.43-50-50-50zm0 80c-16.542 0-30-13.458-30-30s13.458-30 30-30 30 13.458 30 30-13.458 30-30 30z" fill="#499a9a"/><path d="m388.385 454-40-30c-4.418-3.313-10.687-2.418-14 2s-2.418 10.687 2 14l16 12h-55.815c-5.51 0-10 4.49-10 10s4.49 10 10 10h55.815l-16 12c-4.418 3.313-5.313 9.582-2 14 1.965 2.62 4.967 4.001 8.008 4 2.087 0 4.193-.651 5.992-2l40-30c2.518-1.889 4-4.853 4-8s-1.482-6.111-4-8z" fill="#499a9a"/></svg>