<svg xmlns="http://www.w3.org/2000/svg" height="512" viewBox="0 0 64 64" width="512"><g id="server-computer-cloud-smartphone-laptop"><path d="m39 26v-1a7 7 0 0 0 -14 0v1a3.009 3.009 0 0 0 -3 3v12a3.009 3.009 0 0 0 3 3h14a3.009 3.009 0 0 0 3-3v-12a3.009 3.009 0 0 0 -3-3zm-12-1a5 5 0 0 1 10 0v1h-2v-1a3 3 0 0 0 -6 0v1h-2zm6 0v1h-2v-1a1 1 0 0 1 2 0zm7 16a1 1 0 0 1 -1 1h-14a1 1 0 0 1 -1-1v-5h16zm0-7h-16v-5a1 1 0 0 1 1-1h14a1 1 0 0 1 1 1z" fill="#499a9a"/><path d="m19 44h-14a3.009 3.009 0 0 0 -3 3v8a3.009 3.009 0 0 0 3 3h4v2h-2v2h10v-2h-2v-2h4a3.009 3.009 0 0 0 3-3v-8a3.009 3.009 0 0 0 -3-3zm-6 16h-2v-2h2zm7-5a1 1 0 0 1 -1 1h-14a1 1 0 0 1 -1-1v-1h16zm0-3h-16v-5a1 1 0 0 1 1-1h14a1 1 0 0 1 1 1z" fill="#499a9a"/><path d="m61 56v-7a3.009 3.009 0 0 0 -3-3h-12a3.009 3.009 0 0 0 -3 3v7a1 1 0 0 0 -1 1v2a3.009 3.009 0 0 0 3 3h14a3.009 3.009 0 0 0 3-3v-2a1 1 0 0 0 -1-1zm-16-7a1 1 0 0 1 1-1h12a1 1 0 0 1 1 1v7h-14zm15 10a1 1 0 0 1 -1 1h-14a1 1 0 0 1 -1-1v-1h16z" fill="#499a9a"/><path d="m59 6h-1v-1a3.009 3.009 0 0 0 -3-3h-8a3.009 3.009 0 0 0 -3 3v12a3.009 3.009 0 0 0 3 3h12a3.009 3.009 0 0 0 3-3v-8a3.009 3.009 0 0 0 -3-3zm-6.82 12h-5.18a1 1 0 0 1 -1-1v-12a1 1 0 0 1 1-1h8a1 1 0 0 1 1 1v1h-1a3.009 3.009 0 0 0 -3 3v8a3 3 0 0 0 .18 1zm7.82-1a1 1 0 0 1 -1 1h-4a1 1 0 0 1 -1-1v-8a1 1 0 0 1 1-1h4a1 1 0 0 1 1 1z" fill="#499a9a"/><path d="m23.92 8.08a4.985 4.985 0 0 0 -6.3-3.88 5.916 5.916 0 0 0 -4.62-2.2 6.014 6.014 0 0 0 -5.67 4.04 6 6 0 0 0 .67 11.96h15a5 5 0 0 0 .92-9.92zm-.92 7.92h-15a4 4 0 0 1 -.05-8 .808.808 0 0 0 .15.01 1 1 0 0 0 .98-.8 3.99 3.99 0 0 1 7.33-1.28.981.981 0 0 0 1.29.38 2.977 2.977 0 0 1 4.3 2.69 1 1 0 0 0 1 1 3 3 0 0 1 0 6z" fill="#499a9a"/><path d="m26 30h2v2h-2z" fill="#499a9a"/><path d="m31 30h2v2h-2z" fill="#499a9a"/><path d="m36 30h2v2h-2z" fill="#499a9a"/><path d="m26 38h2v2h-2z" fill="#499a9a"/><path d="m31 38h2v2h-2z" fill="#499a9a"/><path d="m36 38h2v2h-2z" fill="#499a9a"/><path d="m53 29v-7h-2v6h-7v2h8a1 1 0 0 0 1-1z" fill="#499a9a"/><path d="m51 44h2v-9a1 1 0 0 0 -1-1h-8v2h7z" fill="#499a9a"/><path d="m20 28h-7v-8h-2v9a1 1 0 0 0 1 1h8z" fill="#499a9a"/><path d="m11 35v7h2v-6h7v-2h-8a1 1 0 0 0 -1 1z" fill="#499a9a"/></g></svg>