<svg xmlns="http://www.w3.org/2000/svg" id="Layer_2" viewBox="0 0 96 96" data-name="Layer 2"><g fill="none" stroke="#499a9a" stroke-linecap="round" stroke-width="2"><path d="m83 16a5.05 5.05 0 0 1 5 5.05v40.95h-80v-40.95a5.05 5.05 0 0 1 5-5.05" stroke-miterlimit="10" fill="#ffffff"/><path d="m61 86h-26l2-14h22z" stroke-miterlimit="10" fill="#ffffff"/><path d="m61 86h-26a6 6 0 0 0 -6 6h38a6 6 0 0 0 -6-6z" stroke-miterlimit="10" fill="#ffffff"/><path d="m88 62v5a5 5 0 0 1 -5 5h-69.95a5 5 0 0 1 -5.05-5v-5z" stroke-miterlimit="10" fill="#ffffff"/><path d="m16 52v-42" stroke-miterlimit="10" fill="#ffffff"/><path d="m16 10a5.86 5.86 0 0 1 .81-3 5.75 5.75 0 0 1 1-1.24 6 6 0 0 1 4.19-1.76" stroke-miterlimit="10" fill="#ffffff"/><path d="m16 52v-42a5.86 5.86 0 0 1 .81-3 5.75 5.75 0 0 1 1-1.24 6 6 0 0 1 4.19-1.76v6" stroke-miterlimit="10" fill="#ffffff"/><g stroke-linejoin="round"><path d="m74 58h-52a6 6 0 0 1 0-12v-36h58v42" fill="#ffffff"/><path d="m80 52-6 6v-6z" fill="#ffffff"/><path d="m28.8 19h8v6h-8z" fill="#ffffff"/><path d="m46.8 19h8v6h-8z" fill="#ffffff"/><path d="m64.8 19h8v6h-8z" fill="#ffffff"/><path d="m28.8 31h8v6h-8z" fill="#ffffff"/><path d="m46.8 31h8v6h-8z" fill="#ffffff"/><path d="m64.8 31h8v6h-8z" fill="#ffffff"/><path d="m28.8 43h8v6h-8z" fill="#ffffff"/><path d="m46.8 43h8v6h-8z" fill="#ffffff"/><path d="m64.8 43h8v6h-8z" fill="#ffffff"/><path d="m64.8 22.01h-10" fill="#ffffff"/><path d="m46.8 22.01h-10" fill="#ffffff"/><path d="m68.8 31.01v-5.63" fill="#ffffff"/><path d="m46.8 34.01h-10" fill="#ffffff"/><path d="m64.8 34.01h-10" fill="#ffffff"/><path d="m32.8 43.01v-6" fill="#ffffff"/><path d="m64.8 46.01h-10" fill="#ffffff"/><path d="m46.8 46.01h-9.65" fill="#ffffff"/></g></g></svg>