<?xml version="1.0" encoding="UTF-8"?>
<svg id="Layer_2" xmlns="http://www.w3.org/2000/svg" viewBox="0 0 101 101">
  <defs>
    <style>
      .cls-1 {
        fill: teal;
      }
    </style>
  </defs>
  <g id="Layer_1-2" data-name="Layer_1">
    <g>
      <path class="cls-1" d="M35.55.4c1.03.4,1.76,1.01,2.16,1.85l-1.48.54c-.41-.6-.94-1-1.58-1.2-.64-.2-1.42-.14-2.32.19-1.1.4-1.86,1.09-2.27,2.04s-.35,2.17.19,3.63c.44,1.2,1.11,2.06,2,2.58.89.52,1.94.56,3.15.11,1.12-.41,1.82-1.11,2.11-2.11.16-.53.19-1.16.09-1.89l1.48-.54c.27,1.13.17,2.19-.3,3.19-.56,1.2-1.6,2.08-3.1,2.64-1.3.48-2.52.52-3.67.12-1.51-.53-2.64-1.78-3.38-3.77-.56-1.51-.58-2.91-.07-4.2.55-1.4,1.66-2.4,3.32-3.01,1.42-.52,2.64-.58,3.67-.18Z"/>
      <path class="cls-1" d="M47.17,1.52c.84.6,1.34,1.56,1.48,2.87.14,1.28-.08,2.37-.67,3.27-.59.91-1.59,1.44-3.02,1.59-1.19.13-2.17-.14-2.95-.8-.78-.66-1.24-1.61-1.37-2.85-.14-1.33.11-2.43.76-3.3.65-.87,1.6-1.37,2.84-1.5,1.11-.12,2.09.12,2.93.71ZM46.84,6.88c.28-.71.38-1.47.29-2.29-.08-.74-.28-1.33-.58-1.76-.49-.68-1.23-.97-2.23-.86-.89.1-1.5.48-1.83,1.14-.34.66-.46,1.43-.36,2.31.09.84.37,1.52.84,2.04s1.13.73,2.01.63c.96-.1,1.59-.51,1.87-1.22Z"/>
      <path class="cls-1" d="M51.08.64l1.38.14-.12,1.12c.46-.42.92-.71,1.4-.87.48-.16,1-.21,1.56-.15,1.23.12,2.02.6,2.37,1.43.19.45.25,1.08.17,1.88l-.52,5.08-1.48-.15.51-4.99c.05-.48.01-.88-.12-1.19-.21-.52-.65-.81-1.33-.88-.34-.03-.63-.03-.86.01-.41.07-.78.25-1.12.54-.27.24-.45.49-.56.76-.1.27-.18.67-.23,1.18l-.42,4.15-1.45-.15.81-7.92Z"/>
      <path class="cls-1" d="M61.93,0l1.43.38-.58,2.15,1.34.36-.28,1.06-1.34-.36-1.35,5.02c-.07.27-.02.47.15.62.1.08.27.16.53.22.07.02.14.04.22.05.08.02.17.04.28.06l-.27,1.02c-.17,0-.35-.01-.53-.04-.18-.03-.37-.07-.58-.12-.66-.17-1.06-.45-1.22-.82-.15-.37-.16-.8-.03-1.3l1.37-5.09-1.14-.3.28-1.06,1.14.3.58-2.15Z"/>
      <path class="cls-1" d="M69.31,8.29c.32.1.58.07.77-.08.11-.08.21-.22.3-.43.19-.42.16-.79-.08-1.12s-.66-.63-1.26-.9c-.7-.31-1.27-.36-1.71-.15-.25.12-.48.35-.7.71l-1.24-.55c.43-.88,1.03-1.37,1.79-1.44.77-.08,1.55.06,2.36.42.93.42,1.62.92,2.05,1.5.43.58.49,1.22.18,1.91l-1.89,4.18c-.06.13-.07.24-.05.34s.12.19.31.28c.06.03.13.05.2.08.08.03.16.05.25.08l-.41.9c-.23-.04-.4-.07-.52-.11-.12-.03-.27-.09-.45-.18-.46-.2-.72-.5-.8-.89-.04-.21-.01-.46.07-.77-.42.2-.94.31-1.55.33s-1.23-.12-1.84-.39c-.74-.33-1.24-.8-1.52-1.42s-.28-1.23,0-1.85c.3-.67.77-1.09,1.39-1.26.63-.17,1.33-.13,2.11.12l2.23.7ZM65.02,10.34c.19.33.48.58.86.75.47.21.97.31,1.5.31.89,0,1.5-.37,1.84-1.13l.44-.98c-.21.02-.45,0-.74-.04-.29-.05-.56-.12-.82-.2l-.85-.26c-.51-.16-.91-.23-1.21-.21-.51.03-.86.28-1.07.74-.16.35-.14.69.05,1.02Z"/>
      <path class="cls-1" d="M80.02,11.75c.24.71.1,1.53-.42,2.47l-1.15-.82c.22-.45.3-.89.24-1.34-.06-.44-.37-.86-.92-1.26-.76-.54-1.54-.59-2.35-.15-.53.29-1.02.75-1.49,1.4-.47.65-.71,1.3-.73,1.96-.02.66.29,1.21.93,1.67.49.35.98.49,1.47.42.49-.07.96-.3,1.41-.71l1.15.82c-.75.76-1.53,1.15-2.35,1.17-.81.02-1.63-.26-2.45-.85-.92-.66-1.43-1.49-1.54-2.51s.18-1.98.85-2.9c.82-1.13,1.76-1.8,2.82-2,1.06-.2,2.05.03,2.98.7.79.57,1.31,1.21,1.56,1.92Z"/>
      <path class="cls-1" d="M84.51,12.22l1.06,1.02-1.55,1.59.99.96-.76.78-1-.96-3.63,3.73c-.19.2-.25.4-.17.61.04.12.16.27.35.45.05.05.11.1.17.15.06.05.13.12.22.18l-.74.76c-.15-.08-.3-.18-.44-.29-.14-.11-.29-.24-.44-.39-.49-.47-.71-.91-.66-1.31.05-.4.25-.78.61-1.15l3.69-3.78-.84-.82.76-.78.84.82,1.55-1.59Z"/>
      <path class="cls-1" d="M93.58,21.89l-5.94,3.26c-.7.38-1.2.84-1.5,1.38-.46.8-.42,1.7.13,2.7.66,1.19,1.49,1.8,2.48,1.81.54,0,1.15-.18,1.85-.56l5.94-3.26.79,1.43-5.4,2.96c-1.18.65-2.19.97-3.01.98-1.51,0-2.75-.87-3.72-2.62s-1.05-3.26-.24-4.53c.45-.69,1.26-1.36,2.44-2.01l5.39-2.96.79,1.43Z"/>
      <path class="cls-1" d="M90.82,35.7c-.42.16-.72.37-.9.62-.32.47-.36,1.14-.12,2.01.14.52.38.95.69,1.28.32.34.7.45,1.13.33.33-.09.54-.32.62-.68.05-.23.06-.66.03-1.3l-.05-1.18c-.03-.76,0-1.33.11-1.72.18-.7.58-1.13,1.2-1.3.73-.2,1.4-.08,2.01.37.61.44,1.05,1.15,1.31,2.11.35,1.26.26,2.25-.27,3-.33.47-.75.76-1.26.89l-.37-1.32c.28-.11.52-.29.71-.55.25-.42.27-1.02.05-1.81-.15-.53-.35-.9-.61-1.12s-.55-.29-.85-.2c-.34.09-.55.35-.66.76-.06.24-.08.58-.06,1.01l.05.98c.05,1.07.02,1.8-.09,2.2-.18.64-.63,1.05-1.34,1.25-.69.19-1.36.07-2.01-.35-.66-.43-1.14-1.21-1.46-2.37-.34-1.24-.33-2.19.05-2.85.38-.66.95-1.11,1.7-1.36l.37,1.35Z"/>
      <path class="cls-1" d="M91.67,43.35l.2,1.68-1.62.19-.2-1.68,1.62-.19Z"/>
      <path class="cls-1" d="M99.2,61.93c-.87.69-1.76,1-2.7.93l.27-1.54c.73-.05,1.34-.3,1.84-.76.5-.45.83-1.15,1-2.09.2-1.15,0-2.14-.63-2.98-.62-.84-1.71-1.39-3.25-1.66-1.26-.22-2.35-.08-3.25.42-.9.5-1.46,1.38-1.69,2.65-.21,1.17.05,2.13.77,2.88.38.4.91.74,1.59,1.03l-.27,1.54c-1.11-.34-1.99-.96-2.62-1.87-.76-1.09-1-2.42-.72-4,.24-1.36.82-2.43,1.74-3.22,1.22-1.04,2.88-1.37,4.98-1,1.59.28,2.82.96,3.68,2.05.93,1.18,1.25,2.64.94,4.37-.26,1.48-.83,2.56-1.69,3.25Z"/>
      <path class="cls-1" d="M92.38,71.33c-.94.42-2.02.37-3.24-.17-1.18-.52-2.01-1.26-2.5-2.22-.49-.96-.45-2.09.14-3.39.49-1.09,1.21-1.8,2.18-2.14.97-.34,2.02-.25,3.17.26,1.23.54,2.05,1.32,2.48,2.31.43,1,.38,2.06-.12,3.2-.46,1.02-1.15,1.74-2.1,2.16ZM87.89,68.35c.47.6,1.08,1.07,1.84,1.4.68.3,1.29.43,1.82.38.84-.08,1.47-.57,1.87-1.48.36-.81.34-1.53-.07-2.15-.41-.62-1.02-1.11-1.83-1.47-.78-.34-1.51-.45-2.19-.31-.68.14-1.2.61-1.56,1.41-.39.88-.36,1.62.11,2.22Z"/>
      <path class="cls-1" d="M91.15,75.17l-.82,1.11-.92-.67c.14.61.15,1.15.04,1.64-.11.49-.33.96-.66,1.41-.73.99-1.54,1.43-2.43,1.31-.49-.06-1.06-.33-1.71-.81l-4.14-3.01.88-1.19,4.07,2.96c.39.29.76.45,1.09.5.56.08,1.03-.15,1.44-.69.2-.28.35-.53.42-.74.15-.39.18-.8.09-1.23-.07-.35-.2-.64-.38-.86-.18-.22-.49-.49-.91-.8l-3.38-2.46.86-1.17,6.45,4.7Z"/>
      <path class="cls-1" d="M86.22,84.81l-1.05,1.03-1.57-1.58-.99.97-.77-.78.99-.97-3.67-3.69c-.2-.2-.4-.26-.61-.18-.12.04-.27.15-.46.34-.05.05-.1.1-.16.16-.06.06-.12.13-.19.21l-.75-.75c.09-.15.19-.29.3-.43.12-.14.25-.29.4-.43.48-.48.93-.69,1.32-.63s.78.27,1.14.63l3.72,3.75.84-.82.77.78-.84.82,1.57,1.58Z"/>
      <path class="cls-1" d="M75.32,86.96c-.25.23-.36.46-.32.7.02.13.09.29.22.47.27.37.6.54,1.01.5.41-.04.88-.25,1.42-.63.62-.44.95-.91.99-1.4.02-.27-.06-.59-.26-.96l1.11-.79c.55.81.67,1.57.35,2.27-.32.7-.84,1.3-1.55,1.82-.83.59-1.61.93-2.34,1.01-.72.08-1.3-.19-1.75-.8l-2.68-3.73c-.08-.11-.17-.19-.27-.22-.1-.03-.23,0-.39.13-.05.04-.11.08-.17.14-.06.05-.12.11-.19.18l-.58-.8c.15-.18.27-.31.36-.39.09-.08.22-.18.38-.3.41-.29.8-.37,1.18-.24.2.07.41.22.64.45.03-.46.2-.96.5-1.5.3-.54.72-1,1.27-1.39.65-.47,1.32-.67,2-.6.68.07,1.21.38,1.61.92.43.6.56,1.21.39,1.83s-.56,1.21-1.17,1.76l-1.73,1.57ZM75.7,82.24c-.38,0-.74.12-1.09.36-.42.3-.76.68-1.02,1.13-.45.76-.43,1.48.05,2.15l.63.88c.08-.19.22-.39.41-.61s.38-.42.59-.6l.66-.6c.39-.36.66-.67.79-.94.23-.45.19-.88-.11-1.3-.23-.31-.53-.47-.91-.48Z"/>
      <path class="cls-1" d="M66.93,94.43c-.74-.15-1.38-.68-1.93-1.61l1.3-.58c.28.41.63.7,1.04.88.41.17.93.12,1.55-.16.85-.38,1.29-1.03,1.31-1.95.02-.6-.14-1.26-.46-1.98-.33-.73-.77-1.27-1.33-1.61-.56-.35-1.2-.36-1.92-.04-.55.25-.92.6-1.11,1.05-.18.45-.22.98-.1,1.57l-1.3.58c-.28-1.03-.23-1.9.16-2.61.39-.71,1.05-1.27,1.97-1.68,1.04-.46,2.02-.48,2.95-.06.93.42,1.63,1.15,2.09,2.19.57,1.28.68,2.42.32,3.43-.36,1.01-1.06,1.75-2.11,2.21-.89.4-1.71.52-2.45.37Z"/>
      <path class="cls-1" d="M64.25,98.06l-1.42.39-.6-2.14-1.34.37-.29-1.05,1.34-.37-1.4-5c-.07-.27-.22-.42-.45-.45-.12-.02-.31,0-.57.07-.07.02-.14.04-.22.06-.08.02-.17.06-.27.09l-.28-1.02c.15-.09.31-.17.48-.23.17-.07.36-.13.56-.19.66-.18,1.15-.15,1.47.09.32.24.55.61.69,1.1l1.42,5.08,1.13-.31.29,1.05-1.13.31.6,2.14Z"/>
      <path class="cls-1" d="M51.3,100.96l.17-6.75c.02-.79-.13-1.46-.44-1.99-.46-.8-1.26-1.22-2.4-1.25-1.37-.03-2.31.37-2.82,1.22-.28.46-.43,1.08-.44,1.87l-.17,6.75-1.64-.04.15-6.13c.03-1.34.26-2.37.67-3.08.76-1.3,2.14-1.92,4.15-1.87s3.36.74,4.05,2.08c.38.73.55,1.77.51,3.11l-.15,6.13-1.64-.04Z"/>
      <path class="cls-1" d="M40.68,91.62c.07-.44.04-.8-.09-1.08-.25-.51-.81-.88-1.68-1.11-.52-.14-1.01-.15-1.46-.05-.45.1-.74.37-.85.81-.09.33,0,.62.28.88.18.16.55.39,1.11.68l1.05.55c.67.35,1.15.67,1.44.96.51.51.69,1.07.53,1.69-.19.73-.64,1.24-1.33,1.54-.69.3-1.52.32-2.49.07-1.26-.33-2.09-.91-2.47-1.74-.24-.52-.28-1.03-.14-1.53l1.33.35c-.05.3,0,.59.13.89.23.43.75.74,1.55.95.53.14.96.15,1.29.04.32-.11.53-.33.61-.63.09-.34-.02-.65-.33-.95-.18-.17-.46-.36-.84-.56l-.88-.45c-.95-.49-1.58-.89-1.87-1.19-.46-.47-.6-1.07-.41-1.78.18-.69.62-1.2,1.32-1.55.7-.35,1.63-.37,2.79-.07,1.25.33,2.07.82,2.45,1.48.38.66.49,1.37.32,2.15l-1.36-.36Z"/>
      <path class="cls-1" d="M33.64,88.51l-1.56-.67.65-1.49,1.56.67-.64,1.49Z"/>
      <path class="cls-1" d="M13.73,85.6c-.16-1.09.03-2.02.56-2.79l1.2,1.01c-.32.65-.41,1.31-.27,1.96.14.66.57,1.29,1.31,1.92.89.76,1.86,1.08,2.9.97,1.04-.11,2.07-.76,3.09-1.95.83-.97,1.26-1.97,1.28-3,.02-1.03-.46-1.96-1.45-2.79-.91-.77-1.87-1.03-2.89-.79-.54.12-1.1.41-1.69.85l-1.2-1.01c.86-.79,1.84-1.22,2.94-1.3,1.33-.1,2.61.36,3.83,1.4,1.06.89,1.69,1.93,1.91,3.13.28,1.57-.26,3.17-1.64,4.78-1.05,1.23-2.26,1.93-3.64,2.12-1.49.21-2.92-.26-4.26-1.4-1.15-.97-1.81-2-1.97-3.1Z"/>
      <path class="cls-1" d="M9,75c.11-1.02.7-1.92,1.78-2.7,1.05-.75,2.11-1.09,3.19-1.03,1.08.06,2.04.67,2.88,1.83.7.97.95,1.95.76,2.95s-.8,1.87-1.82,2.6c-1.09.78-2.18,1.11-3.25.97-1.08-.14-1.98-.71-2.71-1.72-.65-.9-.93-1.87-.82-2.89ZM13.85,72.63c-.76.1-1.47.39-2.14.87-.61.43-1.02.89-1.25,1.37-.36.76-.24,1.55.35,2.36.52.72,1.16,1.06,1.9,1.03.75-.04,1.48-.31,2.2-.83.69-.49,1.15-1.07,1.37-1.73.22-.66.08-1.34-.44-2.05-.57-.78-1.23-1.12-1.98-1.02Z"/>
      <path class="cls-1" d="M6.29,72.01l-.55-1.27,1.04-.45c-.59-.19-1.08-.45-1.45-.79-.37-.34-.67-.76-.89-1.28-.49-1.12-.46-2.04.09-2.75.3-.39.82-.74,1.56-1.07l4.7-2.04.59,1.35-4.62,2.01c-.45.19-.78.42-.99.68-.35.43-.39.96-.12,1.58.14.32.28.56.43.74.26.32.6.55,1.02.7.34.12.65.15.94.11.29-.05.67-.17,1.15-.38l3.84-1.67.58,1.33-7.33,3.18Z"/>
      <path class="cls-1" d="M.41,62.91l-.37-1.42,2.16-.55-.34-1.34,1.06-.27.34,1.34,5.06-1.29c.27-.07.43-.21.47-.44.02-.12,0-.31-.06-.57-.02-.07-.04-.14-.06-.22-.02-.08-.05-.17-.09-.27l1.03-.26c.09.15.16.31.22.48.06.17.12.36.17.56.17.66.13,1.14-.12,1.46-.25.31-.62.53-1.12.66l-5.13,1.31.29,1.13-1.06.27-.29-1.13-2.16.55Z"/>
      <path class="cls-1" d="M4.05,52.46c-.07-.33-.22-.54-.45-.63-.12-.05-.3-.07-.52-.05-.46.04-.77.25-.94.62-.17.37-.23.88-.17,1.54.07.76.31,1.27.71,1.56.22.16.55.24.96.26l.12,1.35c-.98.06-1.7-.22-2.14-.85-.45-.63-.71-1.38-.79-2.25-.09-1.01,0-1.85.31-2.52.3-.66.82-1.02,1.58-1.09l4.59-.42c.14-.01.25-.05.33-.12.08-.07.11-.2.09-.4,0-.06-.02-.14-.03-.22-.01-.08-.03-.16-.06-.25l.99-.09c.08.22.13.39.16.5.03.12.05.28.07.48.05.5-.08.88-.39,1.13-.16.13-.4.24-.71.32.38.26.73.66,1.05,1.19s.5,1.12.56,1.79c.07.8-.09,1.47-.49,2.02-.4.55-.94.85-1.61.91-.74.07-1.33-.13-1.79-.59s-.76-1.09-.93-1.89l-.48-2.28ZM7.95,55.17c.2-.33.27-.7.23-1.12-.05-.51-.2-.99-.46-1.45-.44-.77-1.07-1.12-1.89-1.04l-1.08.1c.12.17.23.39.32.66s.17.54.22.81l.19.87c.11.52.25.9.41,1.15.27.42.67.61,1.18.57.39-.04.68-.22.87-.54Z"/>
      <path class="cls-1" d="M1.8,41.5c.5-.56,1.29-.85,2.37-.85l-.15,1.4c-.5.03-.93.18-1.29.45-.36.27-.57.74-.64,1.42-.1.92.24,1.62,1.03,2.11.51.31,1.16.52,1.95.6.8.09,1.49-.02,2.07-.33.58-.31.92-.85,1-1.63.07-.6-.05-1.09-.35-1.48-.3-.39-.74-.68-1.31-.88l.15-1.4c1.04.27,1.76.76,2.18,1.45.42.69.57,1.54.46,2.54-.12,1.12-.6,1.98-1.43,2.57-.83.59-1.82.82-2.96.7-1.39-.15-2.44-.63-3.14-1.45s-.98-1.79-.86-2.93c.11-.97.41-1.73.91-2.29Z"/>
      <path class="cls-1" d="M0,37.33l.37-1.42,2.16.56.35-1.34,1.06.28-.35,1.34,5.05,1.32c.27.07.48.02.62-.16.08-.1.16-.27.22-.53.02-.07.04-.14.05-.22.02-.08.04-.17.05-.28l1.03.27c0,.17-.01.35-.04.53-.03.18-.07.37-.12.57-.17.66-.45,1.06-.82,1.21-.37.15-.81.17-1.3.04l-5.12-1.34-.3,1.13-1.06-.28.3-1.13-2.16-.56Z"/>
      <path class="cls-1" d="M4.01,24.73l5.76,3.56c.68.42,1.33.63,1.94.63.93.01,1.7-.47,2.3-1.43.72-1.16.85-2.17.37-3.04-.26-.47-.72-.91-1.4-1.33l-5.76-3.56.86-1.39,5.24,3.23c1.15.71,1.92,1.42,2.33,2.13.74,1.31.59,2.81-.48,4.51-1.06,1.7-2.34,2.51-3.85,2.42-.83-.05-1.81-.42-2.96-1.13l-5.24-3.23.86-1.39Z"/>
      <path class="cls-1" d="M17.46,20.35c.35.29.68.44.99.47.57.05,1.17-.25,1.81-.89.38-.38.64-.79.78-1.23.14-.44.05-.82-.27-1.14-.24-.24-.54-.31-.9-.21-.23.07-.61.27-1.15.61l-1.01.63c-.64.4-1.16.65-1.56.75-.7.18-1.28.05-1.73-.4-.53-.53-.76-1.17-.67-1.92.09-.75.49-1.47,1.2-2.17.93-.92,1.84-1.33,2.75-1.24.57.06,1.04.28,1.4.65l-.98.97c-.23-.19-.51-.31-.83-.34-.49-.01-1.02.27-1.61.85-.39.39-.62.75-.68,1.09-.06.34.02.62.24.84.25.25.58.31.99.2.24-.06.54-.21.91-.44l.84-.53c.91-.57,1.57-.91,1.97-1,.64-.16,1.23.02,1.75.54.5.5.73,1.14.68,1.92-.05.78-.5,1.59-1.35,2.43-.92.91-1.75,1.36-2.52,1.36-.76,0-1.44-.27-2.03-.81l.99-.99Z"/>
      <path class="cls-1" d="M23.72,15.85l1.36-1,.97,1.3-1.36,1-.97-1.3Z"/>
    </g>
  </g>
</svg>