<svg width="100" height="100" viewBox="0 0 100 100" fill="none" xmlns="http://www.w3.org/2000/svg">
<path d="M89.9907 61.8141C88.7944 60.6821 87.2342 60.0559 85.5951 60.0055C85.555 60.002 85.5135 60.0003 85.4705 60.001C85.4253 60.0005 85.382 60.0027 85.3397 60.0068C84.9252 60.0216 84.5235 60.0731 84.1305 60.1589C84.1305 57.5564 84.1305 54.9541 84.1305 52.3517C84.1305 51.6249 84.1057 50.9239 83.696 50.2804C83.6306 50.1778 83.5601 50.083 83.4856 49.9933C83.9255 49.4382 84.1303 48.7281 84.1303 47.9843C84.1303 46.342 84.1303 44.6997 84.1303 43.0574C84.1303 41.9804 84.1303 40.9034 84.1303 39.8263C85.3629 40.0897 86.6445 40.0199 87.851 39.5374C89.3243 38.9482 90.5934 37.8445 91.3029 36.413C92.8292 33.3338 91.7285 29.4949 88.7235 27.7724C87.298 26.9554 85.6811 26.7477 84.1303 27.0722C84.1303 24.4661 84.1303 21.8599 84.1303 19.2538C84.1303 18.5353 84.1072 17.8434 83.7101 17.2034C83.1308 16.2696 82.1447 15.8621 81.0824 15.8621C79.4401 15.8621 77.7979 15.8621 76.1556 15.8621C75.0773 15.8621 73.9991 15.8621 72.9208 15.8621C73.2014 14.5239 73.0789 13.1454 72.5057 11.8403C71.8586 10.367 70.6242 9.1627 69.1499 8.52648C66.0695 7.1972 62.3196 8.46073 60.7598 11.4642C60.0373 12.8553 59.8617 14.3856 60.1712 15.8621C57.5649 15.8621 54.9587 15.8621 52.3526 15.8621C51.6242 15.8621 50.9219 15.8871 50.2775 16.299C50.1761 16.3639 50.082 16.4344 49.9929 16.5085C49.438 16.0666 48.7318 15.8623 47.9843 15.8623C46.3421 15.8623 44.6998 15.8623 43.0574 15.8623C41.9791 15.8623 40.9008 15.8623 39.8225 15.8623C40.1031 14.5241 39.9807 13.1456 39.4073 11.8405C38.7602 10.3672 37.5258 9.16288 36.0515 8.52667C32.9711 7.19738 29.2212 8.46092 27.6615 11.4644C26.939 12.8557 26.7635 14.3858 27.073 15.8623C24.4667 15.8623 21.8604 15.8623 19.2544 15.8623C18.5358 15.8623 17.8442 15.8854 17.2041 16.2825C16.2705 16.8619 15.863 17.848 15.863 18.9104V23.8375V28.4791C15.863 29.3198 16.7263 29.689 17.4171 29.3709C19.6939 28.3228 22.4898 29.4452 23.4271 31.765C24.2765 33.8674 23.3725 36.3015 21.4024 37.3867C20.1882 38.0555 18.6769 38.1044 17.4171 37.5245C16.7263 37.2066 15.863 37.5756 15.863 38.4163V47.6413C15.863 48.3597 15.8862 49.0517 16.2833 49.6916C16.3518 49.802 16.4264 49.9044 16.5057 50.0004C16.0599 50.5575 15.8565 51.2672 15.8565 52.0155V56.9424V60.1735C14.624 59.9101 13.3423 59.9799 12.1359 60.4624C10.6626 61.0516 9.3935 62.1551 8.68397 63.5868C7.15766 66.666 8.25836 70.505 11.2634 72.2275C12.6889 73.0444 14.3058 73.2521 15.8565 72.9276V80.7462C15.8565 81.4647 15.8797 82.1566 16.2768 82.7966C16.8561 83.7304 17.8422 84.1379 18.9045 84.1379H23.8312H27.0661C26.7855 85.4759 26.9079 86.8546 27.4813 88.1596C28.1285 89.633 29.3629 90.8373 30.8371 91.4735C33.9175 92.8028 37.6674 91.5393 39.2271 88.5358C39.9496 87.1447 40.1253 85.6144 39.8157 84.1379H47.6343C48.3529 84.1379 49.0444 84.1147 49.6845 83.7176C49.7982 83.6471 49.9038 83.5704 50.002 83.4883C50.5578 83.9297 51.2645 84.1309 52.0091 84.1309H56.9358H60.1668C59.9034 85.3636 59.9734 86.6451 60.4557 87.8516C61.0448 89.325 62.1483 90.5941 63.5798 91.3037C66.6589 92.8298 70.4979 91.7293 72.2201 88.7242C73.0371 87.2988 73.2449 85.6817 72.9204 84.1309H80.7388C81.4574 84.1309 82.1492 84.1077 82.789 83.7106C83.7227 83.1312 84.1301 82.1452 84.1301 81.0828C84.1301 79.4405 84.1301 77.7982 84.1301 76.1557C84.1301 75.074 84.1301 73.9922 84.1301 72.9105C86.8014 73.4432 89.5982 72.3575 91.0836 69.9062C92.6408 67.3361 92.1723 63.8785 89.9907 61.8141ZM51.0962 18.3532C51.3162 17.8928 51.7774 17.9278 52.2074 17.9278H57.2432H61.5773C62.4181 17.9278 62.7869 17.0645 62.4691 16.3737C61.4506 14.1602 62.4528 11.6057 64.5634 10.5033C66.592 9.44367 69.1946 10.2666 70.3656 12.191C71.1307 13.4482 71.2407 15.0301 70.6223 16.3737C70.3043 17.0645 70.6735 17.9278 71.5141 17.9278H80.4867C80.8118 17.9278 81.2853 17.8613 81.5748 17.9684C82.0882 18.1582 82.0643 18.6455 82.0643 19.1086V24.1444V28.4786C82.0643 29.3193 82.9276 29.6884 83.6184 29.3704C85.8952 28.3223 88.6915 29.4447 89.6286 31.7647C90.478 33.867 89.574 36.3011 87.6037 37.3863C86.3895 38.0551 84.8782 38.1038 83.6184 37.5241C82.9276 37.2061 82.0643 37.5752 82.0643 38.4159V47.419C82.0643 47.7428 82.1323 48.1903 82.0145 48.4953C81.8512 48.918 81.4674 48.9634 81.0844 48.9669H81.0822C81.0085 48.9669 80.9346 48.9669 80.8607 48.9669C79.2927 48.9669 77.7249 48.9669 76.1569 48.9669C76.0375 48.9669 75.9182 48.9669 75.7987 48.9669C74.3715 48.9669 72.9441 48.9669 71.5169 48.9669H71.5139C70.6714 48.9669 70.3062 49.83 70.6221 50.521C70.7946 50.8987 70.9146 51.3058 70.9752 51.7188L70.9796 51.7453C70.9829 51.7686 70.9848 51.792 70.9877 51.8153C71.0024 51.9329 71.0131 52.0507 71.0179 52.1681C71.022 52.2726 71.022 52.3769 71.0205 52.4813C71.0198 52.5236 71.0192 52.5656 71.0174 52.6078C71.0163 52.6304 71.0148 52.6528 71.0133 52.6754C71.0015 52.7993 70.9655 53.0859 70.9813 53.017L70.9811 53.0197L70.9783 53.0351C70.9657 53.0998 70.9459 53.2063 70.9342 53.2653C70.927 53.2987 70.9187 53.3318 70.9107 53.365C70.8963 53.4263 70.8816 53.4874 70.8651 53.548C70.8575 53.5759 70.8488 53.6037 70.8409 53.6317C70.825 53.6871 70.8083 53.7425 70.7905 53.7973C70.7649 53.8754 70.734 53.9512 70.704 54.0273C70.6833 54.0807 70.6644 54.1349 70.6416 54.1872C70.5988 54.2844 70.5505 54.3787 70.5006 54.472C70.4856 54.5004 70.4723 54.5296 70.4568 54.5576C70.4034 54.6524 70.3447 54.7439 70.2845 54.8345C70.2667 54.8611 70.2508 54.8889 70.2325 54.9152C70.176 54.9964 70.1147 55.0736 70.053 55.1506C70.0256 55.1849 70 55.2205 69.9717 55.2538C69.9176 55.3177 69.8593 55.3777 69.8017 55.4385C69.7607 55.4814 69.7215 55.5259 69.6789 55.5674C69.6289 55.6163 69.5755 55.6615 69.5233 55.708C69.4692 55.7559 69.4164 55.8052 69.3601 55.8508C69.3105 55.8909 69.2583 55.9274 69.207 55.9656C69.1455 56.0113 69.0849 56.058 69.0214 56.1006C68.9614 56.1408 68.8988 56.1769 68.8367 56.2143C68.778 56.2499 68.7202 56.2871 68.66 56.3201C68.6071 56.349 68.5537 56.3769 68.5 56.4033L68.4778 56.4146C67.1445 57.06 65.631 56.9485 64.4038 56.274L64.3795 56.261C64.3317 56.2343 64.2851 56.2062 64.2382 56.1778C64.2204 56.1671 64.2023 56.1569 64.1845 56.146C64.1478 56.123 64.1117 56.0988 64.0756 56.0747C64.0491 56.0571 64.0221 56.0402 63.9959 56.0221C63.9685 56.0032 63.942 55.9828 63.915 55.9634C63.8813 55.9389 63.8472 55.915 63.8143 55.8895C63.795 55.8748 63.7767 55.8591 63.7576 55.8441C63.7179 55.8126 63.6781 55.7813 63.6394 55.7487L63.602 55.7155C63.5581 55.6776 63.5144 55.6394 63.472 55.5996L63.4479 55.5761C63.4018 55.5324 63.3562 55.4883 63.3118 55.4425L63.296 55.4257C63.2497 55.3773 63.204 55.3284 63.1595 55.2779L63.1349 55.2486C63.0942 55.2016 63.0538 55.1542 63.0151 55.1054C62.9762 55.0565 62.9386 55.0062 62.9017 54.9554L62.8791 54.9254C62.7454 54.7389 62.6245 54.5405 62.5185 54.3309C62.4483 54.1922 62.397 54.0786 62.3504 53.9514L62.35 53.9503C62.3439 53.9334 62.338 53.9154 62.3318 53.898C62.3031 53.8119 62.2735 53.7119 62.2357 53.5772C62.1846 53.3954 62.1522 53.214 62.1151 53.0303L62.107 52.9831C62.1205 53.0455 62.0842 52.7697 62.0761 52.6558C62.074 52.6152 62.0737 52.5747 62.0726 52.5343C62.0711 52.4843 62.0692 52.4343 62.0692 52.3843C62.0694 52.3274 62.0718 52.2707 62.074 52.2141C62.0753 52.1809 62.0755 52.1477 62.0775 52.1148C62.082 52.0411 62.0888 51.9677 62.0968 51.8946L62.1013 51.8457C62.1552 51.3895 62.2763 50.9424 62.4693 50.5212C62.7858 49.8302 62.4193 48.9671 61.5775 48.9671H61.5745C58.1902 48.9671 54.8055 48.9671 51.4212 48.9671H51.3864C51.2666 48.9671 51.1469 48.9671 51.0271 48.9671C51.0271 45.9358 51.0271 42.9046 51.0271 39.8734V39.8252C51.1158 39.8443 51.2047 39.8608 51.294 39.8763C51.319 39.8808 51.344 39.8856 51.369 39.8899C51.4231 39.8987 51.4773 39.9062 51.5318 39.9137C51.602 39.9237 51.6722 39.9332 51.7425 39.941L51.7837 39.945C52.7112 40.0423 53.6526 39.9488 54.5599 39.6118C54.6216 39.5889 54.6822 39.5639 54.7431 39.5392L54.7498 39.5368L54.7561 39.5342C54.8253 39.5061 54.8939 39.4768 54.962 39.4466C54.9963 39.4316 55.0304 39.4164 55.0644 39.4009C55.1082 39.3807 55.1515 39.3598 55.1948 39.3385C55.2484 39.3125 55.3015 39.2861 55.3545 39.2588C55.3821 39.2446 55.4093 39.2297 55.4367 39.2151C55.5014 39.1805 55.5654 39.1451 55.629 39.1086C55.6477 39.0979 55.6662 39.0868 55.6849 39.0756C55.7542 39.0347 55.8229 38.9929 55.8907 38.9495L55.9342 38.9214C56.0042 38.8758 56.0735 38.8293 56.1418 38.7812L56.1809 38.7534C56.2492 38.7047 56.3166 38.6548 56.3831 38.6035L56.4226 38.5728C56.4876 38.5219 56.5519 38.4698 56.615 38.4165L56.6571 38.3805C56.7185 38.3278 56.7789 38.274 56.8384 38.219L56.8817 38.1783C56.9399 38.1236 56.9969 38.0679 57.0528 38.0112L57.096 37.967C57.151 37.9101 57.2049 37.8525 57.2579 37.7936L57.3003 37.7458C57.3521 37.6869 57.4029 37.6273 57.4525 37.5665C57.4664 37.5495 57.4803 37.5323 57.4942 37.515C57.5425 37.4545 57.5899 37.3932 57.6361 37.3309C57.65 37.3122 57.6638 37.2933 57.6776 37.2743C57.7218 37.2131 57.765 37.1511 57.807 37.0883C57.8218 37.0663 57.8365 37.0442 57.8509 37.0218C57.8896 36.9623 57.9272 36.9022 57.9639 36.8412C57.9809 36.8131 57.9978 36.7847 58.0143 36.7562C58.0456 36.7023 58.0759 36.6479 58.1056 36.5928C58.1165 36.5727 58.1283 36.5532 58.1391 36.533C58.1491 36.5138 58.158 36.4943 58.1678 36.475C58.1785 36.4541 58.1902 36.4337 58.2006 36.4128C58.2121 36.3897 58.2219 36.3661 58.2332 36.343C58.265 36.2774 58.2958 36.2117 58.3252 36.1454C58.3328 36.128 58.3404 36.1105 58.3478 36.0929C58.8929 34.8363 59.0129 33.4685 58.756 32.1801L58.7482 32.1442C58.7306 32.0588 58.7123 31.9734 58.6914 31.8888C58.6819 31.8502 58.671 31.8123 58.6608 31.7739C58.6455 31.7158 58.6306 31.6576 58.6138 31.5998C58.5921 31.5257 58.5682 31.4524 58.544 31.379C58.5367 31.3572 58.5304 31.3351 58.523 31.3135C58.2217 30.4315 57.7361 29.6125 57.0832 28.9235L57.0717 28.9116C57.0041 28.8407 56.9351 28.771 56.8639 28.7029L56.8156 28.6584C56.7556 28.6021 56.6952 28.5464 56.6328 28.4923C56.6078 28.4704 56.5815 28.4497 56.5561 28.4284C56.5011 28.3823 56.4461 28.336 56.3894 28.2915C56.3581 28.2669 56.3257 28.2435 56.2939 28.2196C56.2409 28.1796 56.1879 28.1395 56.1335 28.1009C56.099 28.0767 56.0635 28.0535 56.0285 28.0296C55.974 27.9928 55.9197 27.9559 55.864 27.9205C55.8301 27.899 55.7951 27.8789 55.7608 27.8579C55.7142 27.8296 55.6684 27.8003 55.6208 27.7729L55.5858 27.7542L55.5591 27.7385C55.5225 27.7179 55.4851 27.7007 55.4482 27.681C55.3712 27.6399 55.2941 27.5986 55.2161 27.561C55.1732 27.5403 55.1296 27.5219 55.0865 27.5023C55.007 27.4662 54.9278 27.4299 54.8474 27.3971C54.8026 27.379 54.7574 27.3632 54.7124 27.346C54.6324 27.3156 54.5523 27.2849 54.4714 27.2578C54.4314 27.2445 54.391 27.2332 54.351 27.2208C54.2627 27.1932 54.1745 27.1658 54.0854 27.1423C54.0628 27.1363 54.0402 27.1317 54.0176 27.126C53.0386 26.8774 52.0202 26.8657 51.0276 27.0741C51.0276 24.5515 51.0276 22.0287 51.0276 19.506C51.0276 19.4221 51.0276 19.338 51.0276 19.2541C51.0276 19.0617 51.026 18.8713 51.0169 18.6829C51.0278 18.5622 51.0506 18.4486 51.0962 18.3532ZM17.9287 47.7861C17.9287 46.1075 17.9287 44.4289 17.9287 42.7503C17.9287 41.7757 17.9287 40.8011 17.9287 39.8265C19.1614 40.0899 20.4429 40.0201 21.6493 39.5376C23.1226 38.9484 24.3917 37.8447 25.1012 36.4132C26.6273 33.334 25.5266 29.4949 22.5216 27.7725C21.0961 26.9556 19.4792 26.7479 17.9285 27.0724C17.9285 24.5502 17.9285 22.0279 17.9285 19.5057C17.9285 19.1806 17.862 18.707 17.969 18.4173C18.1589 17.9041 18.6462 17.9278 19.1092 17.9278H24.145H28.4791C29.3199 17.9278 29.6887 17.0645 29.3708 16.3737C28.3524 14.1602 29.3545 11.6057 31.4652 10.5033C33.4936 9.44367 36.0961 10.2666 37.2674 12.191C38.0325 13.4482 38.1427 15.0301 37.5241 16.3737C37.2061 17.0645 37.5752 17.9278 38.4159 17.9278H47.3887C47.7165 17.9278 48.1889 17.8532 48.4982 17.9795C48.9183 18.1508 48.9585 18.5246 48.9611 18.9048V18.9102V19.1086V23.8371V24.1444V28.4788C48.9611 28.5277 48.9648 28.5743 48.9702 28.6197L48.9759 28.6564C48.9811 28.6903 48.9876 28.7231 48.9957 28.7547L49.0046 28.7883C49.0154 28.8247 49.0276 28.8599 49.0418 28.8936L49.0465 28.9059C49.0633 28.9442 49.0826 28.9805 49.1039 29.015L49.117 29.0346C49.1341 29.0605 49.152 29.0855 49.1711 29.109L49.1961 29.1387L49.2269 29.1722C49.4874 29.465 49.8647 29.5413 50.2357 29.4606C50.332 29.4421 50.4278 29.4128 50.5205 29.3702C50.5535 29.355 50.587 29.3419 50.6204 29.3276C51.9083 28.8049 53.3302 28.9114 54.4916 29.5237C55.2467 29.9277 55.8921 30.5419 56.3155 31.3214C56.3933 31.4659 56.4644 31.6161 56.527 31.7723L56.5411 31.8099C56.5787 31.9062 56.6122 32.003 56.6426 32.1006C56.6524 32.1325 56.6632 32.1642 56.6722 32.196C56.7024 32.3009 56.7278 32.4064 56.7498 32.512C56.7554 32.5381 56.7615 32.5644 56.7665 32.5905C56.788 32.7043 56.8045 32.8183 56.8169 32.9326C56.8191 32.9523 56.8217 32.9721 56.8236 32.9917C56.8349 33.1108 56.841 33.2301 56.8426 33.3492L56.8434 33.3946C56.8437 33.5146 56.8389 33.6344 56.8297 33.7537L56.826 33.8015C56.816 33.9157 56.8008 34.0295 56.7821 34.1423C56.778 34.1663 56.7741 34.1902 56.7697 34.2143C56.7511 34.3154 56.7285 34.4156 56.7034 34.5153C56.6934 34.5544 56.683 34.5934 56.6721 34.6323C56.6491 34.7137 56.6233 34.794 56.5961 34.8741C56.2624 35.8372 55.6049 36.6879 54.7072 37.2592L54.6625 37.2867C54.5786 37.3387 54.4927 37.388 54.4047 37.435C53.7528 37.7727 53.0227 37.9369 52.2939 37.9242L52.2491 37.9232C52.198 37.9218 52.1469 37.9186 52.0959 37.9155C52.0481 37.9123 52.0002 37.9094 51.9526 37.9045L51.9031 37.8992C51.5092 37.8562 51.121 37.7634 50.7526 37.6225C50.6744 37.5919 50.597 37.5593 50.5205 37.5241C50.26 37.4041 49.9747 37.3822 49.7206 37.4463C49.2985 37.5489 48.9611 37.8868 48.9611 38.4159V48.6061V48.9669C45.92 48.9669 42.8788 48.9669 39.8377 48.9669H39.816C39.9035 48.5503 39.9529 48.1301 39.9605 47.7089C39.9616 47.6574 39.9598 47.6059 39.9598 47.5544C39.9594 47.4918 39.9599 47.429 39.9577 47.3664C39.9253 46.2387 39.6075 45.124 38.9689 44.1328L38.9378 44.0874C38.2431 43.0083 37.2202 42.1385 36.0437 41.6311C35.5422 41.4147 35.0228 41.2682 34.4981 41.1858C34.3713 41.1628 34.2435 41.143 34.1144 41.1265C34.0735 41.1191 34.032 41.113 33.9898 41.1095C32.6461 40.9969 31.3216 41.3129 30.1843 41.9685L30.1802 41.9709C30.1191 42.0063 30.0581 42.0419 29.998 42.0793C29.0282 42.6684 28.2048 43.5103 27.6547 44.5697C27.2276 45.3922 26.9844 46.2748 26.9133 47.1981C26.87 47.7606 26.9218 48.3258 27.0231 48.8798C27.0285 48.9091 27.0365 48.9378 27.0424 48.9671C24.5302 48.9671 22.0179 48.9671 19.5057 48.9671L19.4964 48.9672C19.4137 48.9672 19.3309 48.9672 19.2479 48.9672C19.0581 48.9672 18.8703 48.9695 18.6847 48.9791C18.5869 48.9708 18.4956 48.955 18.418 48.9263C17.9048 48.7363 17.9287 48.249 17.9287 47.7861ZM48.9196 81.5823C48.7298 82.0957 48.2425 82.0718 47.7796 82.0718C46.1011 82.0718 44.4226 82.0718 42.744 82.0718C41.2992 82.0718 39.8546 82.0718 38.4098 82.0718C37.5689 82.0718 37.2 82.9351 37.518 83.626C38.5364 85.8393 37.5343 88.394 35.4236 89.4963C33.3951 90.556 30.7925 89.7331 29.6212 87.8087C28.8561 86.5516 28.7459 84.9695 29.3645 83.626C29.6827 82.9351 29.3134 82.0718 28.4728 82.0718C25.4818 82.0718 22.4911 82.0718 19.5 82.0718C19.1749 82.0718 18.7015 82.1383 18.4119 82.0313C17.8985 81.8414 17.9224 81.3541 17.9224 80.8911C17.9224 79.2125 17.9224 77.5339 17.9224 75.8553C17.9224 74.4106 17.9224 72.9657 17.9224 71.521C17.9224 70.6804 17.0591 70.3112 16.3681 70.6292C14.0913 71.6774 11.2952 70.5548 10.3581 68.235C9.5087 66.1326 10.4127 63.6985 12.383 62.6133C13.5972 61.9445 15.1085 61.8956 16.3683 62.4755C17.0591 62.7934 17.9225 62.4244 17.9225 61.5837C17.9225 58.5927 17.9225 55.6016 17.9225 52.6106C17.9225 52.2855 17.8561 51.812 17.9631 51.5223C18.1528 51.0089 18.6402 51.0328 19.1032 51.0328H24.1389H28.4729C28.5031 51.0328 28.5331 51.0298 28.5633 51.0266C28.8754 51.0024 29.1156 50.8557 29.2712 50.644C29.4914 50.394 29.6011 50.0556 29.4688 49.7253C29.0234 48.6122 28.8267 47.5439 29.1349 46.4057C29.1515 46.3459 29.1677 46.2861 29.1869 46.227L29.1984 46.1925C29.2249 46.1129 29.254 46.034 29.2849 45.9558C29.2971 45.9243 29.311 45.8936 29.324 45.8625C29.3838 45.7208 29.4512 45.5823 29.5257 45.4472C29.5401 45.4213 29.5529 45.3946 29.5681 45.3689C29.5946 45.3231 29.6238 45.2791 29.652 45.2342C29.6985 45.1614 29.7455 45.089 29.7963 45.0192C29.8102 44.9997 29.824 44.9805 29.8383 44.9612C30.1552 44.5391 30.5475 44.1728 30.9883 43.8818C31.0312 43.8542 31.0755 43.8288 31.1194 43.8029C31.1533 43.782 31.1874 43.7616 31.2218 43.7416C31.938 43.3423 32.7577 43.1493 33.603 43.1585C34.6 43.2024 35.5755 43.5758 36.3452 44.2261C37.6398 45.37 38.2533 47.247 37.7145 48.9682C37.7061 48.9945 37.6961 49.0202 37.6874 49.0463C37.6676 49.1054 37.6482 49.1647 37.6256 49.2234C37.5926 49.3093 37.5569 49.3943 37.518 49.4786C37.4722 49.5779 37.4424 49.6809 37.4244 49.7842C37.3902 49.9407 37.387 50.1076 37.4204 50.2743V50.2745L37.4352 50.255C37.5341 50.6853 37.8767 51.0328 38.4098 51.0328H38.4162H48.5358H48.9602V60.1772C47.6083 59.8938 46.2167 60.0224 44.8978 60.6076C44.8096 60.6467 44.7224 60.6882 44.6361 60.7315C44.6015 60.7489 44.5679 60.768 44.5337 60.7862C44.4824 60.8132 44.4307 60.8397 44.3801 60.8682C44.3414 60.8901 44.3036 60.9138 44.2653 60.9364C44.2203 60.9631 44.1749 60.9892 44.1305 61.017C44.0925 61.0408 44.0555 61.0664 44.0181 61.091C43.9743 61.1199 43.9301 61.1481 43.8869 61.1781C43.8523 61.2022 43.8188 61.2275 43.7847 61.2524C43.7399 61.285 43.6945 61.317 43.6504 61.3507C43.6202 61.3739 43.591 61.3981 43.5613 61.4216C43.5141 61.4591 43.4669 61.4961 43.4208 61.5348C43.3959 61.5556 43.372 61.5774 43.3476 61.5985C43.2976 61.6417 43.2476 61.6848 43.1991 61.7297C43.1794 61.7478 43.1605 61.7665 43.1411 61.7849C43.0885 61.8343 43.0363 61.8841 42.9853 61.9353L42.9433 61.979C42.8881 62.0355 42.8336 62.0925 42.7805 62.1508L42.7529 62.1821C42.696 62.2457 42.6399 62.3098 42.5857 62.3753L42.5695 62.3955C42.5121 62.4651 42.456 62.5359 42.4017 62.608L42.3927 62.6204C42.3365 62.695 42.2821 62.7706 42.2293 62.8472L42.2228 62.8571C42.1699 62.9345 42.1187 63.0128 42.0691 63.0925L42.0611 63.1058C42.013 63.1836 41.9665 63.2623 41.9219 63.342L41.9078 63.3679C41.8665 63.4423 41.8267 63.5175 41.7885 63.5935C41.7798 63.6111 41.7715 63.6287 41.763 63.6463C41.7394 63.6944 41.715 63.7422 41.6928 63.7909C41.6844 63.8093 41.6772 63.828 41.6691 63.8465L41.6568 63.8726C41.6465 63.8961 41.6376 63.92 41.6274 63.9437C41.6015 64.0043 41.5759 64.065 41.552 64.1262C41.5335 64.1734 41.5164 64.2208 41.499 64.2682C41.4833 64.3117 41.467 64.3551 41.4522 64.3986C41.4261 64.4744 41.4022 64.5505 41.379 64.6268L41.3672 64.6655C40.7893 66.6125 41.1462 68.6889 42.286 70.311C42.3006 70.332 42.3152 70.3527 42.3301 70.3736C42.3603 70.4157 42.391 70.4574 42.4223 70.4988C42.4673 70.559 42.5136 70.6185 42.561 70.6772L42.569 70.687C43.0414 71.2723 43.6206 71.7833 44.2999 72.1839C44.3359 72.2052 44.3729 72.2232 44.409 72.2436C44.4281 72.2551 44.4463 72.2669 44.4666 72.2777C44.4842 72.2877 44.5018 72.2952 44.5194 72.304C45.4369 72.7979 46.4298 73.0459 47.4311 73.0652C47.9413 73.0787 48.4531 73.0322 48.9605 72.927V80.494C48.9605 80.511 48.9613 80.5299 48.9616 80.5477V80.739C48.9616 80.9287 48.9639 81.1163 48.9735 81.3017C48.9652 81.4045 48.9496 81.501 48.9196 81.5823ZM89.9225 67.1037C89.5673 70.043 86.3091 71.8607 83.619 70.6222C82.9281 70.3042 82.0649 70.6733 82.0649 71.514V80.4871C82.0649 80.8122 82.1314 81.2858 82.0243 81.5754C81.8347 82.0889 81.3472 82.065 80.8842 82.065C79.2056 82.065 77.5271 82.065 75.8485 82.065C74.4037 82.065 72.9591 82.065 71.5145 82.065C70.6738 82.065 70.3045 82.9283 70.6227 83.6191C71.6708 85.896 70.5484 88.6921 68.2287 89.6295C66.1264 90.4789 63.6924 89.5747 62.6072 87.6046C61.9385 86.3903 61.8896 84.8789 62.4693 83.6191C62.7873 82.9283 62.4182 82.065 61.5775 82.065C58.5866 82.065 55.5956 82.065 52.6049 82.065C52.2798 82.065 51.8063 82.1315 51.5166 82.0244C51.0034 81.8346 51.0271 81.3473 51.0271 80.8842C51.0271 79.2056 51.0271 77.527 51.0271 75.8484C51.0271 74.4035 51.0271 72.9589 51.0271 71.5142C51.0271 70.6735 50.1638 70.3044 49.4728 70.6224C47.4965 71.532 45.2865 70.798 44.071 69.2381C44.0523 69.2135 44.0325 69.1898 44.0144 69.1647C43.9888 69.1305 43.9645 69.0951 43.9399 69.0601C43.4306 68.3172 43.1502 67.4413 43.1446 66.5432C43.145 66.4575 43.1468 66.3723 43.152 66.2878L43.1526 66.2772C43.282 64.2293 44.8072 62.6202 46.6621 62.1884C46.6939 62.1812 46.7258 62.1744 46.7578 62.1679C46.7921 62.1607 46.8266 62.1544 46.861 62.1481C47.4883 62.036 48.1425 62.0555 48.7798 62.2262C48.7992 62.2316 48.8187 62.2364 48.8379 62.242C48.8883 62.2562 48.9385 62.272 48.9885 62.2881C49.0315 62.3022 49.0744 62.317 49.1174 62.3324C49.1533 62.3451 49.1893 62.3579 49.225 62.3716C49.3074 62.4038 49.3897 62.4376 49.4715 62.4753C50.077 62.7539 50.8147 62.5048 50.9878 61.8732C51.013 61.7824 51.0267 61.6835 51.0267 61.5767C51.0267 58.1915 51.0267 54.8065 51.0267 51.4213C51.0267 51.2917 51.0267 51.162 51.0267 51.0324H60.1173H60.1527H60.1666C60.068 51.4934 60.0156 51.9611 60.0143 52.4291V52.43C60.0141 52.5413 60.0167 52.6525 60.0223 52.7638L60.0228 52.7721C60.0284 52.8806 60.0367 52.9892 60.048 53.0975L60.0503 53.1151C60.0616 53.2201 60.0751 53.325 60.0917 53.4296L60.0969 53.4585C60.1134 53.5595 60.1321 53.66 60.154 53.7604L60.1629 53.7978C60.1845 53.8953 60.2082 53.9923 60.2349 54.089L60.2482 54.1338C60.2751 54.2281 60.3036 54.3222 60.3353 54.4159L60.352 54.4626C60.3779 54.5372 60.4033 54.612 60.4323 54.6861C60.9446 55.9943 61.8492 57.1336 63.0349 57.8874L63.0436 57.8927C63.1216 57.9422 63.2007 57.99 63.281 58.0361L63.3216 58.0587C63.3733 58.0878 63.4244 58.1174 63.477 58.145C63.494 58.1539 63.5112 58.1615 63.5283 58.1702L63.5538 58.1841C63.5818 58.1984 63.6103 58.2106 63.6385 58.2243C63.7046 58.2567 63.7709 58.2891 63.8376 58.3191C63.8769 58.3367 63.9167 58.3528 63.9563 58.3697C64.0222 58.3976 64.088 58.4258 64.1543 58.4514C64.1902 58.4653 64.2265 58.4777 64.2626 58.4908C64.3343 58.5171 64.4062 58.5432 64.4784 58.5667C64.5047 58.5753 64.531 58.5827 64.5575 58.5908C64.6407 58.6168 64.7238 58.6419 64.8073 58.6645L64.8418 58.6731C65.6784 58.8929 66.5385 58.9403 67.3734 58.8301C69.5446 58.548 71.5521 57.215 72.4939 55.0851C72.5079 55.0534 72.5196 55.0214 72.5331 54.9895L72.5459 54.9617C72.5596 54.9299 72.5709 54.8976 72.5841 54.8656C72.6059 54.811 72.6285 54.7565 72.6489 54.7017C73.0352 53.6815 73.1454 52.6247 73.0126 51.5832L73.01 51.5599C72.9978 51.4665 72.9828 51.3734 72.9667 51.2802C72.9621 51.253 72.9584 51.2257 72.9534 51.1985C72.943 51.143 72.9306 51.0876 72.9191 51.0322H80.4875H80.7131C80.9197 51.0322 81.124 51.03 81.3263 51.0191C81.4454 51.0307 81.557 51.0533 81.6487 51.0983C82.0956 51.318 82.0651 51.7795 82.0651 52.2063V57.2421V61.5763C82.0651 62.417 82.9283 62.7861 83.6192 62.4681C84.2033 62.1994 84.8308 62.0769 85.4707 62.0664C88.1281 62.1008 90.2448 64.4357 89.9225 67.1037Z" fill="#008080"/>
</svg>







