<svg xmlns="http://www.w3.org/2000/svg" enable-background="new 0 0 512 512" viewBox="0 0 512 512"><g id="_x30_5_3d_Modeling"><g><path d="m77.232 292.641 58.586 29.837c3.167 1.618 7.079.372 8.711-2.83 1.619-3.187.354-7.087-2.833-8.708l-55.05-28.036v-168.31l162.905 84.687v49.884c0 3.576 2.898 6.475 6.475 6.475 3.576 0 6.475-2.898 6.475-6.475v-49.888c16.728-8.698-60.322 31.365 162.854-84.677v168.304l-55.05 28.036c-3.187 1.621-4.451 5.521-2.833 8.708 1.622 3.188 5.528 4.456 8.711 2.83l58.586-29.837c2.17-1.105 3.536-3.333 3.536-5.769v-182.949c0-2.145-1.144-4.449-3.453-5.684-.93-.497-175.26-91.122-175.861-91.432-1.872-.976-4.097-.976-5.969 0l-175.81 91.395c-.013.007-.023.019-.036.026-.118.062-.248.091-.364.162-1.937 1.174-3.116 3.273-3.116 5.534v182.949c0 2.434 1.366 4.663 3.536 5.768zm178.773-272.793 161.759 84.091c-16.6 8.631 59.915-31.152-161.755 84.103l-161.768-84.1z" fill="#499a9a"/><path d="m357.582 418.498c9.424 0 17.087-7.666 17.087-17.087v-28.301c0-9.421-7.663-17.087-17.087-17.087h-9.985c-1.335-3.913-2.919-7.737-4.735-11.442l7.056-7.056c3.227-3.227 5.008-7.517 5.008-12.084 0-4.565-1.781-8.855-5.008-12.082l-20.011-20.011c-6.46-6.457-17.714-6.452-24.164 0l-7.056 7.059c-3.708-1.818-7.532-3.402-11.442-4.732v-9.99c0-9.421-7.663-17.087-17.087-17.087h-28.302c-9.424 0-17.087 7.666-17.087 17.087v9.99c-3.915 1.33-7.739 2.914-11.442 4.732l-7.061-7.059c-6.454-6.454-17.709-6.46-24.164 0l-20.011 20.011c-6.662 6.664-6.662 17.505 0 24.164l7.061 7.061c-1.821 3.7-3.404 7.524-4.735 11.44h-9.99c-9.424 0-17.087 7.666-17.087 17.087v28.302c0 9.421 7.663 17.087 17.087 17.087h9.99c1.33 3.915 2.914 7.739 4.735 11.44l-7.061 7.061c-6.662 6.659-6.662 17.499 0 24.164l20.011 20.013c6.454 6.454 17.709 6.452 24.164-.003l7.061-7.059c3.703 1.818 7.527 3.402 11.442 4.735v9.988c0 9.421 7.663 17.087 17.087 17.087h28.302c9.424 0 17.087-7.666 17.087-17.087v-9.988c3.915-1.335 7.739-2.916 11.442-4.735l7.056 7.059c6.449 6.447 17.704 6.457 24.164 0l20.011-20.008c3.227-3.23 5.008-7.519 5.008-12.084 0-4.568-1.781-8.857-5.008-12.082l-7.056-7.059c1.816-3.705 3.399-7.529 4.735-11.442h9.985zm-14.745-12.949c-2.893 0-5.433 1.92-6.227 4.702-1.76 6.186-4.234 12.16-7.35 17.755-1.406 2.529-.961 5.681 1.082 7.727l10.42 10.425c.784.782 1.214 1.818 1.214 2.924 0 1.103-.43 2.142-1.214 2.926l-20.011 20.011c-1.573 1.568-4.289 1.558-5.853 0l-10.42-10.423c-2.044-2.051-5.215-2.489-7.729-1.077-5.584 3.111-11.558 5.582-17.75 7.345-2.787.792-4.704 3.333-4.704 6.227v14.748c0 2.281-1.856 4.138-4.138 4.138h-28.302c-2.281 0-4.138-1.856-4.138-4.138v-14.749c0-2.893-1.922-5.435-4.704-6.227-6.186-1.76-12.16-4.231-17.75-7.345-2.565-1.426-5.713-.943-7.729 1.077l-10.425 10.423c-1.573 1.568-4.29 1.558-5.853 0l-20.011-20.011c-1.614-1.614-1.614-4.239 0-5.853l10.425-10.425c2.049-2.046 2.489-5.203 1.077-7.729-3.116-5.59-5.584-11.561-7.345-17.747-.789-2.782-3.333-4.704-6.227-4.704h-14.75c-2.281 0-4.138-1.856-4.138-4.138v-28.301c0-2.281 1.856-4.138 4.138-4.138h14.75c2.893 0 5.438-1.922 6.227-4.704 1.76-6.186 4.229-12.158 7.345-17.747 1.411-2.527.971-5.683-1.077-7.729l-10.425-10.425c-1.614-1.614-1.614-4.239 0-5.853l20.011-20.008c1.563-1.563 4.279-1.571 5.853-.003l10.425 10.423c2.044 2.049 5.21 2.484 7.729 1.077 5.595-3.113 11.563-5.584 17.75-7.34 2.782-.792 4.704-3.336 4.704-6.229v-14.75c0-2.281 1.856-4.138 4.138-4.138h28.302c2.281 0 4.138 1.856 4.138 4.138v14.75c0 2.893 1.922 5.438 4.704 6.227 6.181 1.758 12.155 4.229 17.755 7.345 2.519 1.401 5.681.969 7.724-1.08l10.42-10.423c1.563-1.558 4.279-1.568 5.853 0l20.011 20.013c.784.781 1.214 1.821 1.214 2.924 0 1.105-.43 2.142-1.214 2.926l-10.42 10.423c-2.044 2.046-2.489 5.197-1.082 7.727 3.116 5.595 5.59 11.568 7.35 17.755.794 2.782 3.334 4.702 6.227 4.702h14.745c2.281 0 4.138 1.856 4.138 4.138v28.302c0 2.281-1.856 4.138-4.138 4.138h-14.745z" fill="#499a9a"/><path d="m256.005 329.491c-31.853 0-57.767 25.914-57.767 57.769s25.914 57.769 57.767 57.769c31.858 0 57.772-25.914 57.772-57.769s-25.914-57.769-57.772-57.769zm0 102.589c-24.71 0-44.817-20.107-44.817-44.82s20.107-44.82 44.817-44.82c24.715 0 44.822 20.107 44.822 44.82s-20.107 44.82-44.822 44.82z" fill="#499a9a"/></g></g><g id="Layer_1"/></svg>