<svg xmlns="http://www.w3.org/2000/svg" xmlns:xodm="http://www.corel.com/coreldraw/odm/2003" clip-rule="evenodd" fill-rule="evenodd" height="512" image-rendering="optimizeQuality" shape-rendering="geometricPrecision" text-rendering="geometricPrecision" viewBox="0 0 512 512" width="512"><g id="Layer_x0020_1"><g id="_1437252462496"><g><g><g id="_197260296"><path d="m330.99 283.78c-2.86 0-5.4-2.05-5.91-4.97-2.61-15.01-15.56-25.91-30.78-25.91l-76.6.01c-15.22 0-28.17 10.89-30.78 25.9-.57 3.27-3.68 5.45-6.94 4.88-3.27-.57-5.45-3.67-4.88-6.94 3.61-20.77 21.53-35.84 42.6-35.84h76.6c21.07 0 38.99 15.07 42.6 35.84.57 3.27-1.61 6.38-4.88 6.94-.34.06-.69.09-1.03.09z" fill="#499a9a"/></g><g id="_197263152"><path d="m256 230.07c-22.39 0-40.61-18.22-40.61-40.61s18.22-40.61 40.61-40.61 40.61 18.22 40.61 40.61-18.22 40.61-40.61 40.61zm0-69.22c-15.77 0-28.61 12.84-28.61 28.61s12.84 28.61 28.61 28.61 28.61-12.83 28.61-28.61c0-15.77-12.84-28.61-28.61-28.61z" fill="#499a9a"/></g><g id="_197260872"><path d="m293.09 406.42c-.23 0-.47-.01-.7-.04-3.29-.38-5.65-3.36-5.27-6.65l5.65-48.76c.28-2.37 1.94-4.35 4.22-5.05 20.49-6.21 39.63-17.28 55.34-31.99 1.75-1.63 4.3-2.08 6.49-1.13l54.52 23.58 29.94-51.85-47.65-35.41c-1.92-1.42-2.81-3.84-2.27-6.17 2.42-10.41 3.64-21.17 3.64-31.98 0-10.79-1.22-21.56-3.64-31.98-.54-2.32.35-4.75 2.27-6.17l47.65-35.4-29.94-51.86-54.52 23.59c-2.19.94-4.74.5-6.48-1.13-15.73-14.72-34.87-25.78-55.35-31.99-2.28-.69-3.94-2.68-4.22-5.05l-6.84-58.98h-59.87l-6.83 58.98c-.28 2.37-1.94 4.35-4.22 5.05-20.49 6.21-39.62 17.27-55.34 31.99-1.75 1.63-4.29 2.07-6.49 1.13l-54.52-23.58-29.94 51.85 47.65 35.4c1.92 1.43 2.81 3.85 2.27 6.17-2.42 10.42-3.65 21.18-3.65 31.98 0 10.81 1.23 21.57 3.65 31.99.54 2.32-.35 4.75-2.27 6.17l-47.65 35.4 29.94 51.85 54.52-23.58c2.19-.95 4.74-.5 6.48 1.13 15.73 14.72 34.87 25.78 55.35 31.99 2.29.69 3.94 2.68 4.22 5.05l5.65 48.76c.39 3.29-1.97 6.27-5.27 6.65-3.29.38-6.27-1.98-6.65-5.27l-5.21-44.9c-19.56-6.51-37.87-17.1-53.36-30.86l-55.88 24.17c-2.79 1.21-6.05.13-7.57-2.51l-35.28-61.11c-1.53-2.64-.83-6 1.61-7.81l48.84-36.28c-2.07-10.1-3.12-20.45-3.12-30.84 0-10.38 1.05-20.73 3.12-30.83l-48.84-36.28c-2.44-1.82-3.14-5.18-1.62-7.82l35.29-61.1c1.52-2.64 4.78-3.72 7.57-2.51l55.88 24.16c15.49-13.75 33.8-24.34 53.36-30.85l7.01-60.43c.35-3.02 2.91-5.31 5.96-5.31h70.56c3.04 0 5.61 2.29 5.96 5.31l7.01 60.43c19.56 6.51 37.87 17.09 53.36 30.85l55.88-24.16c2.79-1.21 6.05-.13 7.57 2.51l35.28 61.1c1.53 2.64.83 6-1.62 7.82l-48.82 36.28c2.06 10.1 3.11 20.45 3.11 30.84 0 10.38-1.05 20.74-3.11 30.82l48.83 36.29c2.44 1.81 3.14 5.18 1.62 7.81l-35.29 61.11c-1.52 2.64-4.78 3.72-7.57 2.51l-55.88-24.17c-15.49 13.76-33.8 24.35-53.36 30.86l-5.21 44.91c-.35 3.05-2.95 5.3-5.95 5.3z" fill="#499a9a"/></g><g id="_197259384"><path d="m256 317.41c-58.69 0-106.43-47.75-106.43-106.43 0-58.69 47.74-106.44 106.43-106.44s106.44 47.75 106.44 106.44c0 58.68-47.75 106.43-106.44 106.43zm0-200.87c-52.07 0-94.44 42.36-94.44 94.44 0 52.07 42.37 94.43 94.44 94.43s94.44-42.36 94.44-94.43c0-52.08-42.37-94.44-94.44-94.44z" fill="#499a9a"/></g></g><g id="_197264376"><path d="m311.56 512c-1.24 0-2.48-.39-3.54-1.16l-52.02-37.95-52.02 37.95c-2.11 1.54-4.96 1.54-7.06.01-2.11-1.53-2.99-4.24-2.18-6.72l20.02-61.2-52.17-37.75c-2.11-1.52-2.99-4.24-2.19-6.71s3.11-4.15 5.71-4.15h.01l64.39.12 19.78-61.27c.8-2.48 3.11-4.16 5.71-4.16 2.61 0 4.91 1.68 5.71 4.16l19.78 61.27 64.39-.12h.02c2.59 0 4.9 1.68 5.7 4.15.81 2.48-.08 5.19-2.19 6.71l-52.16 37.75 20.01 61.2c.81 2.48-.07 5.19-2.18 6.72-1.05.76-2.29 1.15-3.52 1.15zm-55.56-52.53c1.24 0 2.48.38 3.54 1.15l40.54 29.57-15.6-47.69c-.81-2.48.07-5.2 2.18-6.73l40.66-29.41-50.18.09c-.01 0-.01 0-.02 0-2.6 0-4.91-1.68-5.71-4.15l-15.41-47.76-15.41 47.76c-.8 2.47-3.11 4.15-5.71 4.15-.01 0-.01 0-.02 0l-50.18-.09 40.66 29.41c2.11 1.53 2.99 4.25 2.18 6.73l-15.6 47.69 40.54-29.57c1.06-.77 2.3-1.15 3.54-1.15z" fill="#499a9a"/></g></g></g></g></svg>