<svg xmlns="http://www.w3.org/2000/svg" xmlns:svg="http://www.w3.org/2000/svg" version="1.1" id="svg4737" xml:space="preserve" width="682.66669" height="682.66669" viewBox="0 0 682.66669 682.66669"><defs id="defs4741" fill="#499a9a"><clipPath clipPathUnits="userSpaceOnUse" id="clipPath4751" fill="#499a9a"><path d="M 0,512 H 512 V 0 H 0 Z" id="path4749" fill="#499a9a"/></clipPath></defs><g id="g4743" transform="matrix(1.3333333,0,0,-1.3333333,0,682.66667)"><g id="g4745"><g id="g4747" clip-path="url(#clipPath4751)"><g id="g4753" transform="translate(251.393,285.9569)"><path d="m 0,0 c 1.502,0.229 3.041,0.348 4.607,0.348 16.737,0 30.305,-13.568 30.305,-30.305 0,-16.737 -13.568,-30.305 -30.305,-30.305 -16.737,0 -30.305,13.568 -30.305,30.305 0,1.577 0.121,3.127 0.353,4.639 M 121.699,-51.635 V -8.279 H 89.107 C 86.743,1 82.89,9.683 77.818,17.504 L 100.322,40.008 72.136,68.194 49.082,45.14 c -7.049,4.188 -14.736,7.414 -22.884,9.49 V 87.222 H -13.663 V 55.403 C -23.046,53.402 -31.869,49.893 -39.868,45.14 L -62.922,68.194 -91.108,40.008 -68.605,17.504 C -73.676,9.683 -77.529,1 -79.893,-8.279 h -32.592 v -43.356 h 32.592 c 2.364,-9.279 6.217,-17.962 11.288,-25.783 l -22.503,-22.504 28.186,-28.186 23.054,23.055 c 7.999,-4.754 16.822,-8.263 26.205,-10.264 v -31.819 h 39.861 v 32.592 c 8.148,2.076 15.835,5.302 22.884,9.491 l 23.054,-23.055 28.186,28.186 -22.504,22.504 c 5.072,7.821 8.925,16.504 11.289,25.783 z" style="fill:none;stroke:#499a9a;stroke-width:15;stroke-linecap:round;stroke-linejoin:round;stroke-miterlimit:10;stroke-dasharray:none;stroke-opacity:1" id="path4755"/></g><g id="g4757" transform="translate(443.8903,428.7378)"><path d="m 0,0 c -8.368,0 -15.152,6.784 -15.152,15.152 0,8.369 6.784,15.153 15.152,15.153 8.368,0 15.152,-6.784 15.152,-15.153 C 15.152,6.784 8.368,0 0,0 Z M 42.851,30.305 C 38.278,43.199 28.046,53.43 15.152,58.003 V 75.762 H -15.152 V 58.003 C -28.046,53.43 -38.278,43.199 -42.851,30.305 H -60.61 V 0 h 17.759 c 4.573,-12.894 14.805,-23.126 27.699,-27.699 v -17.758 h 30.304 v 17.758 C 28.046,-23.126 38.278,-12.894 42.851,0 H 60.61 v 30.305 z" style="fill:none;stroke:#499a9a;stroke-width:15;stroke-linecap:round;stroke-linejoin:round;stroke-miterlimit:10;stroke-dasharray:none;stroke-opacity:1" id="path4759"/></g><g id="g4761" transform="translate(443.8903,52.9573)"><path d="m 0,0 c -8.368,0 -15.152,6.784 -15.152,15.152 0,8.369 6.784,15.153 15.152,15.153 8.368,0 15.152,-6.784 15.152,-15.153 C 15.152,6.784 8.368,0 0,0 Z m -41.99,32.543 c -0.306,-0.737 -0.593,-1.483 -0.861,-2.238 H -60.61 V 0 h 17.759 c 4.573,-12.894 14.805,-23.126 27.699,-27.699 v -17.758 h 30.304 v 17.758 C 28.046,-23.126 38.278,-12.894 42.851,0 H 60.61 V 30.305 H 42.851 C 38.278,43.199 28.046,53.43 15.152,58.003 V 75.762 H -15.152 V 58.003 c -0.719,-0.255 -1.43,-0.527 -2.132,-0.817" style="fill:none;stroke:#499a9a;stroke-width:15;stroke-linecap:round;stroke-linejoin:round;stroke-miterlimit:10;stroke-dasharray:none;stroke-opacity:1" id="path4763"/></g><g id="g4765" transform="translate(68.1098,428.7378)"><path d="m 0,0 c -8.368,0 -15.152,6.784 -15.152,15.152 0,8.369 6.784,15.153 15.152,15.153 8.368,0 15.152,-6.784 15.152,-15.153 C 15.152,6.784 8.368,0 0,0 Z m -41.99,32.543 c -0.306,-0.737 -0.593,-1.483 -0.861,-2.238 H -60.61 V 0 h 17.759 c 4.573,-12.894 14.805,-23.126 27.699,-27.699 v -17.758 h 30.304 v 17.758 C 28.046,-23.126 38.278,-12.894 42.851,0 H 60.61 V 30.305 H 42.851 C 38.278,43.199 28.046,53.43 15.152,58.003 V 75.762 H -15.152 V 58.003 c -0.719,-0.254 -1.43,-0.527 -2.132,-0.817" style="fill:none;stroke:#499a9a;stroke-width:15;stroke-linecap:round;stroke-linejoin:round;stroke-miterlimit:10;stroke-dasharray:none;stroke-opacity:1" id="path4767"/></g><g id="g4769" transform="translate(68.1098,52.9573)"><path d="m 0,0 c -8.368,0 -15.152,6.784 -15.152,15.152 0,8.369 6.784,15.153 15.152,15.153 8.368,0 15.152,-6.784 15.152,-15.153 C 15.152,6.784 8.368,0 0,0 Z M 42.851,30.305 C 38.278,43.199 28.046,53.43 15.152,58.003 V 75.762 H -15.152 V 58.003 C -28.046,53.43 -38.278,43.199 -42.851,30.305 H -60.61 V 0 h 17.759 c 4.573,-12.894 14.805,-23.126 27.699,-27.699 v -17.758 h 30.304 v 17.758 C 28.046,-23.126 38.278,-12.894 42.851,0 H 60.61 v 30.305 z" style="fill:none;stroke:#499a9a;stroke-width:15;stroke-linecap:round;stroke-linejoin:round;stroke-miterlimit:10;stroke-dasharray:none;stroke-opacity:1" id="path4771"/></g><g id="g4773" transform="translate(152.9634,359.0366)"><path d="M 0,0 -34.346,34.346" style="fill:none;stroke:#499a9a;stroke-width:15;stroke-linecap:round;stroke-linejoin:round;stroke-miterlimit:10;stroke-dasharray:none;stroke-opacity:1" id="path4775"/></g><g id="g4777" transform="translate(152.9634,383.2805)"><path d="M 0,0 V -24.244" style="fill:none;stroke:#499a9a;stroke-width:15;stroke-linecap:round;stroke-linejoin:round;stroke-miterlimit:10;stroke-dasharray:none;stroke-opacity:1" id="path4779"/></g><g id="g4781" transform="translate(128.7195,359.0366)"><path d="M 0,0 H 24.244" style="fill:none;stroke:#499a9a;stroke-width:15;stroke-linecap:round;stroke-linejoin:round;stroke-miterlimit:10;stroke-dasharray:none;stroke-opacity:1" id="path4783"/></g><g id="g4785" transform="translate(359.0366,359.0366)"><path d="M 0,0 34.346,34.346" style="fill:none;stroke:#499a9a;stroke-width:15;stroke-linecap:round;stroke-linejoin:round;stroke-miterlimit:10;stroke-dasharray:none;stroke-opacity:1" id="path4787"/></g><g id="g4789" transform="translate(359.0366,383.2805)"><path d="M 0,0 V -24.244" style="fill:none;stroke:#499a9a;stroke-width:15;stroke-linecap:round;stroke-linejoin:round;stroke-miterlimit:10;stroke-dasharray:none;stroke-opacity:1" id="path4791"/></g><g id="g4793" transform="translate(383.2805,359.0366)"><path d="M 0,0 H -24.244" style="fill:none;stroke:#499a9a;stroke-width:15;stroke-linecap:round;stroke-linejoin:round;stroke-miterlimit:10;stroke-dasharray:none;stroke-opacity:1" id="path4795"/></g><g id="g4797" transform="translate(152.9634,154.9837)"><path d="M 0,0 -34.346,-34.346" style="fill:none;stroke:#499a9a;stroke-width:15;stroke-linecap:round;stroke-linejoin:round;stroke-miterlimit:10;stroke-dasharray:none;stroke-opacity:1" id="path4799"/></g><g id="g4801" transform="translate(152.9634,130.7398)"><path d="M 0,0 V 24.244" style="fill:none;stroke:#499a9a;stroke-width:15;stroke-linecap:round;stroke-linejoin:round;stroke-miterlimit:10;stroke-dasharray:none;stroke-opacity:1" id="path4803"/></g><g id="g4805" transform="translate(128.7195,154.9837)"><path d="M 0,0 H 24.244" style="fill:none;stroke:#499a9a;stroke-width:15;stroke-linecap:round;stroke-linejoin:round;stroke-miterlimit:10;stroke-dasharray:none;stroke-opacity:1" id="path4807"/></g><g id="g4809" transform="translate(359.0366,154.9837)"><path d="M 0,0 34.346,-34.346" style="fill:none;stroke:#499a9a;stroke-width:15;stroke-linecap:round;stroke-linejoin:round;stroke-miterlimit:10;stroke-dasharray:none;stroke-opacity:1" id="path4811"/></g><g id="g4813" transform="translate(359.0366,130.7398)"><path d="M 0,0 V 24.244" style="fill:none;stroke:#499a9a;stroke-width:15;stroke-linecap:round;stroke-linejoin:round;stroke-miterlimit:10;stroke-dasharray:none;stroke-opacity:1" id="path4815"/></g><g id="g4817" transform="translate(383.2805,154.9837)"><path d="M 0,0 H -24.244" style="fill:none;stroke:#499a9a;stroke-width:15;stroke-linecap:round;stroke-linejoin:round;stroke-miterlimit:10;stroke-dasharray:none;stroke-opacity:1" id="path4819"/></g></g></g></g></svg>