<svg xmlns="http://www.w3.org/2000/svg" xmlns:xlink="http://www.w3.org/1999/xlink" version="1.1" id="Capa_1" x="0px" y="0px" viewBox="0 0 512 512" style="enable-background:new 0 0 512 512;" xml:space="preserve">
<g>
	<g>
		<path style="fill:none;stroke:#499a9a;stroke-width:15;stroke-linecap:round;stroke-linejoin:round;stroke-miterlimit:10;" d="&#10;&#9;&#9;&#9;M302.23,32.088c21.903,3.482,42.947,13.663,59.828,30.544c42.537,42.535,42.537,111.498,0,154.033s-111.502,42.535-154.039,0&#10;&#9;&#9;&#9;s-42.537-111.498,0-154.033c16.705-16.705,37.487-26.849,59.143-30.433"/>
		<path style="fill:none;stroke:#499a9a;stroke-width:15;stroke-linecap:round;stroke-linejoin:round;stroke-miterlimit:10;" d="&#10;&#9;&#9;&#9;M285.038,221.549c-21.877,0-42.445-8.519-57.915-23.988c-31.934-31.933-31.934-83.892,0-115.825&#10;&#9;&#9;&#9;c15.47-15.469,36.037-23.988,57.915-23.988c21.877,0,42.445,8.52,57.915,23.988c31.934,31.933,31.934,83.892,0,115.825&#10;&#9;&#9;&#9;C327.483,213.03,306.916,221.549,285.038,221.549z"/>
		<path style="fill:none;stroke:#499a9a;stroke-width:15;stroke-linecap:round;stroke-linejoin:round;stroke-miterlimit:10;" d="&#10;&#9;&#9;&#9;M500.36,341.713l-13.249,13.249c-5.52,5.52-14.469,5.52-19.989,0l-86.295-86.291c-5.52-5.52-5.52-14.47,0-19.989l13.249-13.249&#10;&#9;&#9;&#9;c5.52-5.52,14.469-5.52,19.989,0l86.295,86.291C505.88,327.243,505.88,336.193,500.36,341.713z"/>
		
			<line style="fill:none;stroke:#499a9a;stroke-width:15;stroke-linecap:round;stroke-linejoin:round;stroke-miterlimit:10;" x1="362.058" y1="216.664" x2="387.451" y2="242.056"/>
	</g>
	<g>
		<path style="fill:none;stroke:#499a9a;stroke-width:15;stroke-linecap:round;stroke-linejoin:round;stroke-miterlimit:10;" d="&#10;&#9;&#9;&#9;M171.622,479.912H21.365c-7.658,0-13.865-6.208-13.865-13.865V315.789c0-7.658,6.208-13.865,13.865-13.865h164.122v164.122&#10;&#9;&#9;&#9;C185.488,473.704,179.28,479.912,171.622,479.912z"/>
		
			<line style="fill:none;stroke:#499a9a;stroke-width:15;stroke-linecap:round;stroke-linejoin:round;stroke-miterlimit:10;" x1="77.37" y1="452.895" x2="34.518" y2="452.895"/>
		
			<rect x="77.37" y="301.924" style="fill:none;stroke:#499a9a;stroke-width:15;stroke-linecap:round;stroke-linejoin:round;stroke-miterlimit:10;" width="38.248" height="53.778"/>
	</g>
	<g>
		<path style="fill:none;stroke:#499a9a;stroke-width:15;stroke-linecap:round;stroke-linejoin:round;stroke-miterlimit:10;" d="&#10;&#9;&#9;&#9;M363.475,443.926v22.121c0,7.658-6.208,13.865-13.865,13.865H199.353c-7.658,0-13.865-6.208-13.865-13.865V301.924H349.61&#10;&#9;&#9;&#9;c7.658,0,13.865,6.208,13.865,13.865v84.797"/>
		
			<line style="fill:none;stroke:#499a9a;stroke-width:15;stroke-linecap:round;stroke-linejoin:round;stroke-miterlimit:10;" x1="255.357" y1="452.895" x2="212.506" y2="452.895"/>
		
			<rect x="255.357" y="301.924" style="fill:none;stroke:#499a9a;stroke-width:15;stroke-linecap:round;stroke-linejoin:round;stroke-miterlimit:10;" width="38.248" height="53.778"/>
	</g>
	<g>
		<path style="fill:none;stroke:#499a9a;stroke-width:15;stroke-linecap:round;stroke-linejoin:round;stroke-miterlimit:10;" d="&#10;&#9;&#9;&#9;M274.48,248.057v40c0,7.66-6.21,13.87-13.86,13.87H110.36c-7.66,0-13.87-6.21-13.87-13.87v-150.26c0-7.65,6.21-13.86,13.87-13.86&#10;&#9;&#9;&#9;h66.89"/>
		
			<line style="fill:none;stroke:#499a9a;stroke-width:15;stroke-linecap:round;stroke-linejoin:round;stroke-miterlimit:10;" x1="166.363" y1="274.907" x2="123.512" y2="274.907"/>
	</g>
	<g>
		
			<circle style="fill:none;stroke:#499a9a;stroke-width:15;stroke-linecap:round;stroke-linejoin:round;stroke-miterlimit:10;" cx="285.038" cy="142.282" r="24.289"/>
		
			<ellipse style="fill:none;stroke:#499a9a;stroke-width:15;stroke-linecap:round;stroke-linejoin:round;stroke-miterlimit:10;" cx="285.038" cy="142.282" rx="54.622" ry="24.289"/>
	</g>
</g>
<g>
</g>
<g>
</g>
<g>
</g>
<g>
</g>
<g>
</g>
<g>
</g>
<g>
</g>
<g>
</g>
<g>
</g>
<g>
</g>
<g>
</g>
<g>
</g>
<g>
</g>
<g>
</g>
<g>
</g>
</svg>