<svg xmlns="http://www.w3.org/2000/svg" id="Layer_1" enable-background="new 0 0 512 512" viewBox="0 0 512 512"><path d="m415.332 243.565c0-87.871-71.476-159.36-159.332-159.36s-159.333 71.489-159.333 159.36c0 87.856 71.476 159.333 159.333 159.333 87.856 0 159.332-71.477 159.332-159.333zm-215.261 104.849c17.968-4.59 36.812-6.969 55.929-6.969s37.961 2.378 55.928 6.969c-15.296 26.142-35.137 40.536-55.928 40.536s-40.632-14.394-55.929-40.536zm-15.66-97.875c.215 2.186.527 4.357.942 6.495.471 2.422 2.187 4.415 4.512 5.241l11.24 3.992c.007.015.013.03.019.046l-5.12 10.752c-1.063 2.233-.865 4.864.523 6.912 5.059 7.463 11.454 13.87 19.006 19.042 2.051 1.406 4.694 1.61 6.939.543l10.775-5.13c.02.008.039.016.058.023l3.984 11.24c.83 2.344 2.847 4.069 5.293 4.526 4.44.83 8.955 1.251 13.419 1.251 4.452 0 8.973-.42 13.438-1.249 2.452-.455 4.475-2.186 5.304-4.538l3.961-11.237c.023-.01.047-.02.07-.029l10.743 5.138c2.243 1.074 4.886.869 6.939-.53 7.532-5.138 13.93-11.547 19.016-19.05 1.388-2.048 1.587-4.679.523-6.912l-5.12-10.752c.007-.016.013-.03.02-.046l11.24-3.992c2.326-.826 4.041-2.819 4.512-5.241.415-2.138.727-4.308.942-6.495h9.472c-.833 31.428-7.298 60.99-18.535 85.196-20.039-5.422-41.13-8.239-62.526-8.239s-42.487 2.817-62.526 8.239c-11.237-24.206-17.701-53.768-18.534-85.196zm30.693-32.832-4.723-9.921c2.859-3.654 6.154-6.953 9.849-9.857l9.901 4.736c1.927.922 4.171.909 6.089-.035 1.515-.745 3.107-1.406 4.87-2.019 2-.696 3.575-2.261 4.283-4.258l3.671-10.358c4.635-.554 9.271-.554 13.935.002l3.647 10.346c.705 2 2.282 3.571 4.285 4.268 1.763.613 3.357 1.274 4.873 2.02 1.917.943 4.161.956 6.088.034l9.907-4.738c3.682 2.889 6.975 6.189 9.843 9.858l-4.724 9.922c-.91 1.912-.903 4.134.02 6.04.77 1.588 1.459 3.24 2.049 4.91.701 1.985 2.259 3.546 4.242 4.25l10.356 3.679c.281 2.3.423 4.637.423 6.98 0 2.331-.142 4.657-.423 6.953l-10.356 3.679c-1.983.704-3.541 2.265-4.241 4.249-.591 1.67-1.28 3.322-2.05 4.913-.923 1.906-.931 4.127-.02 6.038l4.724 9.922c-2.868 3.67-6.162 6.969-9.843 9.858l-9.907-4.738c-1.927-.922-4.171-.909-6.088.034-1.511.744-3.104 1.404-4.873 2.019-2.003.698-3.58 2.268-4.285 4.268l-3.646 10.347c-4.67.556-9.295.556-13.936.002l-3.671-10.359c-.707-1.995-2.283-3.562-4.283-4.258-1.731-.602-3.35-1.265-4.948-2.027-1.898-.906-4.103-.905-6-.002l-9.906 4.717c-3.696-2.905-6.994-6.204-9.854-9.861l4.723-9.921c.91-1.911.903-4.133-.02-6.038-.771-1.592-1.459-3.244-2.047-4.91-.701-1.986-2.259-3.548-4.243-4.252l-10.357-3.679c-.281-2.295-.423-4.622-.423-6.953 0-2.343.142-4.679.423-6.98l10.357-3.679c1.984-.704 3.543-2.267 4.243-4.253.588-1.666 1.276-3.317 2.047-4.907.922-1.908.93-4.129.019-6.041zm109.259 137.083c.452-.782.896-1.575 1.338-2.37 6.186 2.03 12.237 4.341 18.135 6.914-11.662 8.87-24.696 16.021-38.727 21.071 6.979-7.012 13.45-15.579 19.254-25.615zm31.238-5.422c-7.617-3.615-15.501-6.793-23.597-9.533 11.567-25.686 18.184-56.625 19.01-89.297h50.199c-1.845 38.871-19.026 73.788-45.612 98.83zm45.612-112.777h-50.199c-.826-32.679-7.442-63.624-19.008-89.314 8.097-2.74 15.98-5.921 23.592-9.539 26.588 25.048 43.771 59.973 45.615 98.853zm-57.376-108.816c-5.895 2.574-11.945 4.887-18.133 6.918-.443-.798-.888-1.592-1.341-2.376-5.804-10.037-12.275-18.604-19.254-25.617 14.032 5.051 27.066 12.203 38.728 21.075zm-87.837-29.622c20.793 0 40.635 14.396 55.932 40.544-17.952 4.584-36.797 6.96-55.932 6.96-19.122 0-37.953-2.372-55.894-6.95 14.966-25.459 35.012-40.554 55.894-40.554zm-69.75 36.524c-6.171-2.027-12.206-4.334-18.086-6.902 11.643-8.857 24.654-16.001 38.659-21.051-7.587 7.602-14.511 16.991-20.573 27.953zm-29.846 3.061c7.606 3.615 15.483 6.794 23.575 9.533-3.796 8.482-7.138 17.685-9.936 27.565-1.05 3.706 1.103 7.561 4.809 8.611s7.561-1.103 8.611-4.809c2.783-9.828 6.167-18.942 10.027-27.256 20.017 5.412 41.102 8.223 62.511 8.223 21.416 0 42.507-2.814 62.528-8.228 11.236 24.21 17.699 53.778 18.532 85.213h-9.469c-.215-2.198-.528-4.377-.944-6.522-.471-2.422-2.186-4.415-4.512-5.241l-11.24-3.992c-.006-.016-.013-.03-.019-.046l5.119-10.752c1.063-2.233.865-4.863-.523-6.911-5.084-7.502-11.482-13.912-19.016-19.052-2.054-1.401-4.698-1.604-6.939-.53l-10.743 5.139c-.023-.01-.047-.019-.07-.029l-3.961-11.237c-.829-2.352-2.851-4.082-5.303-4.538-8.934-1.66-18.003-1.655-26.86.002-2.445.457-4.46 2.181-5.291 4.526l-3.986 11.244c-.025.011-.052.021-.078.032l-10.742-5.139c-2.247-1.076-4.896-.87-6.951.538-7.553 5.175-13.948 11.582-19.005 19.044-1.388 2.048-1.587 4.678-.523 6.911l5.119 10.752c-.006.016-.013.031-.019.046l-11.24 3.992c-2.325.826-4.041 2.819-4.512 5.241-.417 2.145-.73 4.324-.945 6.522h-9.462c.318-11.999 1.447-23.791 3.39-35.138.649-3.797-1.902-7.401-5.698-8.051-3.779-.638-7.401 1.9-8.051 5.698-2.074 12.117-3.272 24.699-3.594 37.491h-50.205c1.843-38.879 19.027-73.805 45.616-98.852zm-45.617 112.801h50.2c.826 32.672 7.443 63.611 19.011 89.297-8.096 2.739-15.98 5.918-23.597 9.533-26.587-25.043-43.769-59.96-45.614-98.83zm57.378 108.795c5.898-2.572 11.949-4.884 18.136-6.914.442.795.885 1.587 1.337 2.369 5.804 10.036 12.276 18.603 19.255 25.616-14.032-5.051-27.066-12.201-38.728-21.071zm317.801-173.444h-15.1c-12.224-45.574-39.149-86.715-76.262-116.325-39.732-31.699-87.661-48.454-138.604-48.454-50.944 0-98.872 16.754-138.604 48.453-37.112 29.61-64.038 70.752-76.262 116.325h-15.099c-14.08 0-25.535 11.455-25.535 25.535v66.997c0 14.08 11.455 25.535 25.535 25.535h47.589c3.852 0 6.974-3.122 6.974-6.974v-104.118c0-3.852-3.122-6.974-6.974-6.974h-18.027c25.529-89.251 106.697-150.83 200.403-150.83 93.707 0 174.875 61.579 200.403 150.83h-18.027c-3.852 0-6.974 3.122-6.974 6.974v104.119c0 3.852 3.122 6.974 6.974 6.974h17.231c-20.934 68.976-77.628 123.469-147.506 141.524-5.098-10.808-16.096-18.307-28.817-18.307h-50.446c-17.559 0-31.843 14.285-31.843 31.843 0 17.574 14.285 31.872 31.843 31.872h50.446c17.53 0 31.795-14.25 31.843-31.784 37.567-9.593 72.041-28.923 100.023-56.161 28.113-27.367 48.428-61.497 58.992-98.987h15.823c14.08 0 25.534-11.455 25.534-25.535v-66.997c.001-14.08-11.453-25.535-25.533-25.535zm-419.317 104.118h-40.614c-6.388 0-11.587-5.198-11.587-11.587v-66.997c0-6.388 5.198-11.586 11.587-11.586h20.485c.011 0 .022.002.033.002.008 0 .015-.002.023-.002h20.074v90.17zm212.636 186.932h-50.446c-9.867 0-17.895-8.04-17.895-17.924 0-9.867 8.028-17.895 17.895-17.895h50.446c9.868 0 17.897 8.028 17.897 17.895-.001 9.884-8.029 17.924-17.897 17.924zm218.267-198.518c0 6.388-5.197 11.587-11.586 11.587h-40.616v-90.17h40.616c6.388 0 11.586 5.198 11.586 11.586zm-241.552 1.881c20.258 0 36.738-16.481 36.738-36.738 0-20.273-16.481-36.766-36.738-36.766s-36.738 16.493-36.738 36.766c0 20.258 16.481 36.738 36.738 36.738zm0-59.556c12.566 0 22.79 10.237 22.79 22.818 0 12.566-10.224 22.79-22.79 22.79s-22.79-10.224-22.79-22.79c.001-12.582 10.224-22.818 22.79-22.818z" fill="#499a9a"/></svg>