<svg xmlns="http://www.w3.org/2000/svg" id="Layer_1" enable-background="new 0 0 512 512" viewBox="0 0 512 512"><path d="m237.399 158.74c0 4.414-3.578 7.992-7.992 7.992h-33.268c-4.414 0-7.992-3.578-7.992-7.992s3.578-7.992 7.992-7.992h33.268c4.414 0 7.992 3.578 7.992 7.992zm-102.465 33.636v-145.664c0-4.414 3.578-7.992 7.992-7.992h139.696c4.414 0 7.992 3.578 7.992 7.992v145.664c0 4.414-3.578 7.992-7.992 7.992h-139.696c-4.415 0-7.992-3.578-7.992-7.992zm69.197-94.842h17.285v-42.83h-17.285zm-53.214 86.85h123.712v-129.68h-37.23v50.823c0 4.414-3.578 7.992-7.992 7.992h-33.268c-4.414 0-7.992-3.578-7.992-7.992v-50.823h-37.23zm168.565 95.818h-111.66c-4.414 0-7.992 3.578-7.992 7.992s3.578 7.992 7.992 7.992h111.66c4.414 0 7.992-3.578 7.992-7.992s-3.578-7.992-7.992-7.992zm-134.053-13.539c-3.533-2.647-8.542-1.929-11.188 1.602l-17.555 23.421-8.541-7.366c-3.342-2.884-8.387-2.512-11.272.831-2.883 3.342-2.51 8.388.832 11.271l15.022 12.958c1.458 1.258 3.313 1.94 5.22 1.94.287 0 .574-.016.862-.047 2.202-.238 4.206-1.38 5.534-3.152l22.688-30.271c2.647-3.53 1.93-8.538-1.602-11.187zm134.053-34.695h-111.66c-4.414 0-7.992 3.578-7.992 7.992s3.578 7.992 7.992 7.992h111.66c4.414 0 7.992-3.578 7.992-7.992s-3.578-7.992-7.992-7.992zm-134.05-13.537c-3.53-2.649-8.54-1.933-11.189 1.597l-17.56 23.406-8.544-7.353c-3.344-2.879-8.39-2.501-11.271.844-2.879 3.346-2.501 8.391.845 11.27l15.022 12.928c1.457 1.254 3.309 1.935 5.213 1.935.288 0 .576-.016.864-.047 2.2-.239 4.201-1.379 5.53-3.149l22.688-30.242c2.647-3.531 1.932-8.54-1.598-11.189zm301.597-51.063v25.319c0 3.735-2.587 6.971-6.229 7.795l-16.497 3.731c-.165.412-.334.821-.507 1.228l9.017 14.3c1.99 3.156 1.531 7.269-1.104 9.909l-17.879 17.908c-2.64 2.643-6.761 3.104-9.921 1.112l-14.318-9.035c-.41.175-.822.347-1.233.514l-3.734 16.511c-.823 3.642-4.06 6.229-7.795 6.229h-4.654v10.725c.156-.002.313-.013.468-.013h.028c9.488 0 17.476 2.975 23.105 8.603l20.991 20.991c1.499 1.498 2.341 3.531 2.341 5.651s-.842 4.152-2.341 5.651l-136.018 136.017c-11.87 11.871-25.763 18.462-42.473 20.151l-3.261.338c-.236.024-.473.039-.71.042l-146.6 2.089-22.209 34.685c-1.305 2.038-3.463 3.375-5.869 3.635-.288.031-.576.047-.862.047-2.107 0-4.144-.834-5.651-2.341l-65.802-65.802c-2.65-2.65-3.103-6.787-1.087-9.948l39.493-61.927c1.324-2.08 2.599-4.128 3.844-6.127 7.43-11.935 14.615-23.476 26.219-30.88v-325.984c0-4.414 3.578-7.992 7.992-7.992h232.401c2.12 0 4.152.842 5.651 2.341l68.009 68.009c1.499 1.499 2.341 3.531 2.341 5.651v20.694h4.654c3.734 0 6.97 2.585 7.794 6.227l3.733 16.484c.414.168.828.34 1.24.517l14.32-9.014c3.157-1.987 7.27-1.527 9.909 1.112l17.879 17.879c2.64 2.64 3.1 6.756 1.109 9.914l-9.022 14.31c.174.411.345.825.511 1.24l16.49 3.707c3.646.82 6.237 4.058 6.237 7.797zm-142.864-98.859h40.724l-40.724-40.723zm43.751 230.874-89.74 89.712c-.186.186-.382.362-.585.53-.077.063-.159.118-.238.178-.127.097-.252.196-.385.285-.097.065-.199.121-.298.181-.122.074-.241.152-.367.219-.094.051-.192.092-.288.139-.137.067-.272.136-.413.195-.073.031-.15.054-.224.082-.533.204-1.093.351-1.674.438-.107.016-.214.037-.322.049-.116.012-.235.015-.353.022-.146.009-.291.021-.438.022-.023 0-.046.003-.069.003h-104.191c-4.414 0-7.992-3.578-7.992-7.992s3.578-7.992 7.992-7.992h100.204c2.168-3.423 3.351-7.4 3.351-11.5 0-11.957-9.728-21.684-21.684-21.684h-142.949c-24.492 0-31.882 11.869-44.123 31.532-1.273 2.045-2.576 4.138-3.934 6.27l-36.045 56.522 54.24 54.239 19.17-29.938c1.447-2.26 3.932-3.643 6.616-3.681l150.543-2.145 2.927-.303c13.095-1.325 23.511-6.266 32.798-15.553l130.367-130.366-15.341-15.34c-3.24-3.24-8.203-3.921-11.802-3.921-.006 0-.012 0-.018 0-8.813.003-18.985 4.033-24.735 9.797zm8.275-36.494h-4.654c-3.735 0-6.971-2.587-7.795-6.229l-3.735-16.511c-.412-.167-.823-.338-1.233-.515l-14.318 9.036c-3.159 1.993-7.279 1.532-9.921-1.112l-17.879-17.908c-2.636-2.64-3.094-6.753-1.105-9.909l9.017-14.301c-.173-.406-.342-.816-.507-1.227l-16.497-3.731c-3.643-.824-6.229-4.06-6.229-7.795v-25.319c0-3.739 2.592-6.977 6.239-7.797l16.49-3.707c.166-.415.337-.829.511-1.24l-9.023-14.31c-1.991-3.158-1.531-7.273 1.109-9.914l17.879-17.879c2.638-2.639 6.752-3.1 9.909-1.112l14.32 9.015c.412-.177.826-.349 1.241-.518l3.733-16.484c.824-3.641 4.061-6.226 7.794-6.226h4.654v-12.703h-60.018c-4.414 0-7.992-3.578-7.992-7.992v-60.017h-216.417v311.426c4.599-1.044 9.715-1.624 15.489-1.624h142.948c18.527 0 33.974 13.446 37.093 31.091l69.313-69.29c5.118-5.131 12.074-9.193 19.583-11.698v-13.5zm74.855-89.126-14.526-3.265c-2.764-.621-4.992-2.659-5.857-5.356-.827-2.577-1.861-5.089-3.074-7.466-1.281-2.511-1.145-5.51.359-7.894l7.94-12.592-8.855-8.855-12.622 7.946c-2.393 1.506-5.406 1.636-7.919.34-2.422-1.248-4.914-2.286-7.407-3.086-2.693-.864-4.73-3.087-5.354-5.845l-3.286-14.51h-12.522l-3.286 14.51c-.625 2.758-2.661 4.981-5.354 5.845-2.491.799-4.984 1.837-7.408 3.087-2.515 1.295-5.524 1.166-7.918-.341l-12.622-7.946-8.855 8.855 7.94 12.592c1.503 2.384 1.639 5.384.359 7.894-1.213 2.377-2.247 4.889-3.074 7.466-.865 2.697-3.094 4.735-5.857 5.356l-14.526 3.265v12.538l14.535 3.287c2.76.624 4.983 2.66 5.847 5.354.831 2.592 1.86 5.084 3.058 7.408 1.297 2.516 1.167 5.53-.343 7.925l-7.943 12.597 8.857 8.871 12.616-7.962c2.394-1.512 5.409-1.642 7.926-.345 2.422 1.247 4.915 2.286 7.409 3.087 2.693.864 4.729 3.088 5.354 5.847l3.288 14.536h12.518l3.287-14.536c.624-2.759 2.66-4.983 5.354-5.847 2.495-.8 4.988-1.839 7.408-3.087 2.517-1.297 5.533-1.165 7.927.345l12.616 7.962 8.857-8.871-7.942-12.597c-1.51-2.395-1.64-5.409-.343-7.925 1.198-2.323 2.227-4.816 3.058-7.408.864-2.694 3.087-4.73 5.847-5.354l14.535-3.287v-12.538zm-31.317 6.279c0 19.585-15.946 35.518-35.546 35.518-19.601 0-35.547-15.933-35.547-35.518 0-19.6 15.946-35.546 35.547-35.546 19.6 0 35.546 15.945 35.546 35.546zm-15.984 0c0-10.787-8.776-19.562-19.562-19.562-10.787 0-19.563 8.776-19.563 19.562 0 10.771 8.776 19.534 19.563 19.534 10.786 0 19.562-8.763 19.562-19.534z" fill="#499a9a"/></svg>