<svg xmlns="http://www.w3.org/2000/svg" id="Layer_1" viewBox="0 0 512 512" data-name="Layer 1"><path d="m371.356 166.396c-9.802 0-19.319 1.243-28.403 3.576-3.295-10.338-7.87-20.204-13.709-29.43l7.747-7.746c4.654-4.654 5.085-12.07.952-17.312-3.616-4.481-7.379-8.684-11.204-12.508-4.204-4.173-8.306-7.836-12.489-11.159-5.168-4.183-12.615-3.79-17.321.917l-7.764 7.763c-12.446-7.879-26.043-13.512-40.464-16.759v-10.97c0-6.628-4.968-12.179-11.551-12.911-11.136-1.248-22.427-1.248-33.557 0-6.588.733-11.557 6.285-11.557 12.912v10.97c-14.457 3.252-28.073 8.894-40.464 16.759l-7.795-7.795c-4.722-4.66-12.155-5.042-17.239-.925-4.324 3.437-8.549 7.21-12.558 11.219-3.809 3.809-7.572 8.011-11.233 12.55-4.111 5.214-3.667 12.644 1.001 17.251l7.746 7.746c-7.907 12.484-13.541 26.115-16.751 40.509h-10.961c-6.624 0-12.174 4.954-12.911 11.523-1.247 11.13-1.247 22.43 0 33.591.737 6.569 6.288 11.522 12.911 11.522h10.967c3.209 14.383 8.848 28.007 16.756 40.498l-7.725 7.725c-4.719 4.658-5.153 12.09-.999 17.3 3.575 4.46 7.343 8.677 11.199 12.534 4.008 4.008 8.233 7.781 12.507 11.177 5.134 4.156 12.567 3.779 17.331-.924l7.738-7.765c12.414 7.877 26.016 13.514 40.48 16.769v10.97c0 6.611 4.968 12.15 11.552 12.883 5.567.624 11.173.936 16.78.936s11.215-.312 16.784-.936c6.584-.74 11.549-6.278 11.549-12.883v-10.969c6.49-1.458 12.912-3.449 19.178-5.937 2.165 4.622 4.634 9.117 7.425 13.446 6.301 9.76 12.843 15.366 18.1 19.871 8.133 6.972 12.614 10.812 12.614 26.362v16.3c0 11.36 7.876 20.91 18.454 23.489v41.509c0 18.179 16.035 32.968 35.745 32.968h22.309c19.709 0 35.745-14.789 35.745-32.968v-41.509c10.577-2.579 18.454-12.128 18.454-23.489v-16.3c0-15.551 4.48-19.391 12.614-26.362 5.257-4.505 11.799-10.111 18.103-19.875 11.894-18.45 18.181-39.837 18.181-61.848 0-63.006-51.259-114.265-114.264-114.265zm-126.419 155.098c-6.028 1.293-10.239 6.509-10.239 12.686v10.855c-9.512 1.001-19.143 1.002-28.659 0v-10.855c0-6.177-4.21-11.393-10.213-12.681-13.381-2.921-25.961-8.132-37.392-15.488-5.145-3.31-11.789-2.61-16.201 1.74l-7.671 7.698c-3.67-2.958-7.26-6.187-10.68-9.605-3.286-3.287-6.508-6.871-9.579-10.652l7.681-7.681c4.333-4.334 5.054-10.991 1.735-16.214-7.385-11.514-12.587-24.092-15.475-37.438-1.344-5.99-6.555-10.175-12.671-10.175h-10.887c-.998-9.517-.998-19.139 0-28.629h10.887c6.126 0 11.338-4.202 12.682-10.253 2.89-13.331 8.092-25.909 15.459-37.382 3.332-5.182 2.62-11.84-1.732-16.192l-7.69-7.689c3.117-3.815 6.339-7.392 9.589-10.642 3.407-3.407 6.983-6.624 10.681-9.606l7.679 7.678c4.338 4.339 10.984 5.072 16.196 1.76 11.425-7.354 24.005-12.565 37.364-15.482 6.028-1.293 10.238-6.509 10.238-12.686v-10.884c9.511-1.002 19.142-1.003 28.659 0v10.884c0 6.177 4.21 11.393 10.213 12.681 13.345 2.914 25.926 8.126 37.391 15.488 5.173 3.327 11.832 2.604 16.193-1.76l7.68-7.679c3.586 2.891 7.092 6.045 10.68 9.606 3.262 3.262 6.499 6.856 9.59 10.641l-7.69 7.69c-4.389 4.389-5.088 11.067-1.734 16.191 5.385 8.381 9.601 17.399 12.612 26.868-10.355 4.077-19.974 9.626-28.602 16.387-8.53-36.845-41.7-64.106-80.677-64.106-45.656 0-82.8 37.145-82.8 82.801s37.144 82.801 82.8 82.801c12.927 0 25.443-2.956 36.817-8.617.279 11.117 2.158 22.047 5.559 32.492-5.821 2.312-11.785 4.14-17.794 5.448zm13.003-54.493c-11.191 7.312-24.119 11.166-37.585 11.166-37.935 0-68.797-30.862-68.797-68.797s30.862-68.797 68.797-68.797c35.146 0 64.621 26.662 68.401 61.235-16.625 17.416-27.81 40.065-30.816 65.192zm146.327 162.225v26.106h-65.792v-26.106zm-32.91-128.693c-6.643 0-12.047-5.404-12.047-12.047s5.404-12.047 12.047-12.047 12.076 5.404 12.076 12.047-5.417 12.047-12.076 12.047zm11.168 188.476h-22.309c-11.988 0-21.742-8.507-21.742-18.964v-.708h65.792v.708c0 10.457-9.753 18.964-21.742 18.964zm73.147-154.091c-5.196 8.048-10.408 12.515-15.448 16.835-9.002 7.715-17.504 15.002-17.504 36.994v16.3c0 5.611-4.565 10.176-10.176 10.176h-34.186v-101.647c10.989-3.064 19.077-13.148 19.077-25.089 0-14.364-11.699-26.051-26.079-26.051s-26.05 11.687-26.05 26.051c0 11.938 8.076 22.021 19.049 25.087v101.649h-34.158c-5.611 0-10.176-4.564-10.176-10.176v-16.3c0-21.992-8.502-29.279-17.504-36.994-5.04-4.32-10.251-8.787-15.445-16.831-10.434-16.184-15.948-34.946-15.948-54.26 0-55.284 44.964-100.261 100.233-100.261s100.261 44.977 100.261 100.261c0 19.314-5.515 38.077-15.945 54.256zm-77.314-111.09v22.507c0 3.867-3.135 7.002-7.001 7.002s-7.001-3.135-7.001-7.002v-22.507c0-3.867 3.135-7.002 7.001-7.002s7.001 3.135 7.001 7.002zm55.076 28.844c1.933 3.349.784 7.631-2.565 9.563l-19.502 11.254c-1.103.636-2.306.938-3.493.938-2.42 0-4.774-1.257-6.071-3.504-1.933-3.349-.784-7.631 2.565-9.563l19.502-11.254c3.35-1.932 7.63-.784 9.564 2.565zm0 71.656c-1.296 2.247-3.651 3.504-6.071 3.504-1.188 0-2.391-.303-3.493-.938l-19.502-11.253c-3.35-1.933-4.498-6.214-2.565-9.563s6.215-4.497 9.563-2.565l19.502 11.253c3.35 1.933 4.498 6.214 2.565 9.563zm-92.495-53.404c-1.297 2.247-3.651 3.504-6.071 3.504-1.188 0-2.391-.303-3.493-.938l-19.502-11.254c-3.349-1.933-4.498-6.215-2.565-9.563 1.934-3.35 6.215-4.497 9.564-2.565l19.502 11.254c3.349 1.933 4.498 6.215 2.565 9.563zm0 35.153c1.933 3.35.784 7.631-2.565 9.563l-19.502 11.253c-1.102.636-2.305.938-3.493.938-2.42 0-4.774-1.257-6.071-3.504-1.933-3.35-.784-7.631 2.565-9.563l19.502-11.253c3.349-1.932 7.63-.784 9.563 2.565zm-82.611-122.89c2.735 2.733 2.737 7.166.003 9.901l-42.435 42.463c-1.367 1.368-3.16 2.053-4.953 2.053s-3.581-.683-4.948-2.048l-23.613-23.584c-2.736-2.732-2.739-7.166-.006-9.902 2.734-2.734 7.167-2.738 9.902-.006l18.66 18.638 37.487-37.512c2.733-2.734 7.167-2.735 9.902-.003zm28.819 200.892-15.789 26.532c-1.309 2.201-3.636 3.423-6.023 3.423-1.218 0-2.451-.318-3.574-.986-3.323-1.978-4.414-6.274-2.436-9.597l8.058-13.541c-15.488 3.93-31.453 5.925-47.594 5.925-106.646 0-193.408-86.776-193.408-193.438s86.761-193.409 193.407-193.409c41.621 0 81.276 13.026 114.679 37.669 27.854 20.549 49.335 47.589 62.857 78.907l6.227-15.05c1.478-3.572 5.573-5.271 9.146-3.793 3.573 1.479 5.271 5.573 3.793 9.146l-12.983 31.38c-.014.033-.034.062-.048.095-.112.259-.239.51-.381.754-.031.053-.059.108-.091.16-.157.254-.332.496-.521.729-.049.06-.099.116-.149.174-.175.202-.361.395-.559.577-.03.027-.057.057-.087.083-.227.201-.471.384-.725.555-.053.036-.107.068-.161.103-.223.141-.454.271-.696.388-.044.021-.087.045-.131.066-.241.11-.489.211-.748.296-.033.011-.067.017-.1.027-.065.02-.131.035-.196.053-.241.067-.481.121-.723.161-.073.012-.144.026-.217.036-.301.041-.602.065-.901.066-.012 0-.024.003-.036.003-.105 0-.211-.011-.317-.015-.103-.005-.207-.006-.309-.015-.123-.011-.245-.032-.368-.049-.1-.015-.202-.025-.301-.044-.116-.022-.232-.053-.347-.082-.106-.025-.212-.048-.316-.078-.103-.03-.205-.069-.308-.104-.115-.04-.231-.077-.343-.123-.02-.008-.04-.013-.059-.021l-31.379-12.954c-3.574-1.476-5.275-5.569-3.8-9.144 1.476-3.573 5.569-5.277 9.144-3.8l16.497 6.81c-27.992-65.777-92.461-108.962-165.04-108.962-98.924 0-179.405 80.48-179.405 179.404s80.481 179.434 179.405 179.434c14.127 0 28.104-1.647 41.699-4.891l-10.475-6.245c-3.321-1.979-4.409-6.277-2.429-9.599 1.98-3.321 6.276-4.409 9.6-2.429l26.533 15.817c3.319 1.979 4.408 6.273 2.431 9.594z" fill="#499a9a"/></svg>