<svg width="32" height="32" viewBox="0 0 32 32" fill="none" xmlns="http://www.w3.org/2000/svg">
<path d="M29.2927 24.4403C29.2927 24.9203 29.186 25.4137 28.9593 25.8937C28.7327 26.3737 28.4393 26.827 28.0527 27.2537C27.3993 27.9737 26.6793 28.4937 25.866 28.827C25.066 29.1603 24.1993 29.3337 23.266 29.3337C21.906 29.3337 20.4527 29.0137 18.9193 28.3603C17.386 27.707 15.8527 26.827 14.3327 25.7203C12.7993 24.6003 11.346 23.3603 9.95935 21.987C8.58602 20.6003 7.34602 19.147 6.23935 17.627C5.14602 16.107 4.26602 14.587 3.62602 13.0803C2.98602 11.5603 2.66602 10.107 2.66602 8.72033C2.66602 7.81366 2.82602 6.94699 3.14602 6.14699C3.46602 5.33366 3.97268 4.58699 4.67935 3.92033C5.53268 3.08033 6.46602 2.66699 7.45268 2.66699C7.82602 2.66699 8.19935 2.74699 8.53268 2.90699C8.87935 3.06699 9.18602 3.30699 9.42602 3.65366L12.5193 8.01366C12.7593 8.34699 12.9327 8.65366 13.0527 8.94699C13.1727 9.22699 13.2393 9.50699 13.2393 9.76033C13.2393 10.0803 13.146 10.4003 12.9593 10.707C12.786 11.0137 12.5327 11.3337 12.2127 11.6537L11.1993 12.707C11.0527 12.8537 10.986 13.027 10.986 13.2403C10.986 13.347 10.9993 13.4403 11.026 13.547C11.066 13.6537 11.106 13.7337 11.1327 13.8137C11.3727 14.2537 11.786 14.827 12.3727 15.5203C12.9727 16.2137 13.6127 16.9203 14.306 17.627C15.026 18.3337 15.7193 18.987 16.426 19.587C17.1193 20.1737 17.6927 20.5737 18.146 20.8137C18.2127 20.8403 18.2927 20.8803 18.386 20.9203C18.4927 20.9603 18.5993 20.9737 18.7193 20.9737C18.946 20.9737 19.1193 20.8937 19.266 20.747L20.2793 19.747C20.6127 19.4137 20.9327 19.1603 21.2393 19.0003C21.546 18.8137 21.8527 18.7203 22.186 18.7203C22.4393 18.7203 22.706 18.7737 22.9993 18.8937C23.2927 19.0137 23.5993 19.187 23.9327 19.4137L28.346 22.547C28.6927 22.787 28.9327 23.067 29.0793 23.4003C29.2127 23.7337 29.2927 24.067 29.2927 24.4403Z" stroke="white" stroke-width="1.5" stroke-miterlimit="10"/>
</svg>

