<svg width="80" height="80" viewBox="0 0 80 80" fill="none" xmlns="http://www.w3.org/2000/svg">
<path d="M47.4923 24.7329C46.6591 27.7898 43.8511 30.0551 40.5392 30.0551H34.9934L25.9873 37.4056V30.0551H17.5175C13.5547 30.0551 10.3125 26.8129 10.3125 22.8503V14.9556C10.3125 10.9928 13.5547 7.75073 17.5173 7.75073H34.6959" stroke="#499A9A" stroke-width="2" stroke-miterlimit="2.6131" stroke-linecap="round" stroke-linejoin="round"/>
<path d="M48.627 12.8708H48.628" stroke="#499A9A" stroke-width="2" stroke-miterlimit="22.9256" stroke-linecap="round" stroke-linejoin="round"/>
<path d="M55.6582 12.8708H55.6595" stroke="#499A9A" stroke-width="2" stroke-miterlimit="22.9256" stroke-linecap="round" stroke-linejoin="round"/>
<path d="M62.6914 12.8708H62.6927" stroke="#499A9A" stroke-width="2" stroke-miterlimit="22.9256" stroke-linecap="round" stroke-linejoin="round"/>
<path d="M25.0806 54.6353C26.7247 50.6662 24.8399 46.1158 20.8708 44.4717C16.9018 42.8277 12.3514 44.7124 10.7073 48.6815C9.06326 52.6506 10.948 57.201 14.9171 58.845C18.8862 60.4891 23.4365 58.6043 25.0806 54.6353Z" stroke="#499A9A" stroke-width="2" stroke-miterlimit="2.6131" stroke-linecap="round" stroke-linejoin="round"/>
<path d="M60.7528 49.2498C62.2152 45.2102 60.126 40.7501 56.0864 39.2877C52.0469 37.8254 47.5868 39.9146 46.1244 43.9541C44.662 47.9936 46.7512 52.4538 50.7908 53.9161C54.8303 55.3785 59.2905 53.2893 60.7528 49.2498Z" stroke="#499A9A" stroke-width="2" stroke-miterlimit="2.6131" stroke-linecap="round" stroke-linejoin="round"/>
<path d="M67.2697 70.4687V68.7895C67.2697 60.8667 61.0461 54.384 53.4395 54.384C45.833 54.384 39.6094 60.8664 39.6094 68.7895V70.4687" stroke="#499A9A" stroke-width="2" stroke-miterlimit="2.6131" stroke-linecap="round" stroke-linejoin="round"/>
<path fill-rule="evenodd" clip-rule="evenodd" d="M60.2627 24.0233H68.7326C72.6954 24.0233 75.9374 20.7811 75.9374 16.8184V8.92359C75.9374 4.96094 72.6954 1.71875 68.7326 1.71875H42.5857C38.6254 1.71875 35.3809 4.96328 35.3809 8.92359V16.8183C35.3809 20.7798 38.623 24.0231 42.5857 24.0231H51.2566L60.2627 31.3736V24.0233Z" stroke="#499A9A" stroke-width="2" stroke-miterlimit="2.6131" stroke-linecap="round" stroke-linejoin="round"/>
<path d="M32.4258 71.25H75.1561V78.2812H31.7227" stroke="#499A9A" stroke-width="2" stroke-miterlimit="2.6131" stroke-linecap="round" stroke-linejoin="round"/>
<path fill-rule="evenodd" clip-rule="evenodd" d="M4.0625 73.843V78.2812H31.7228V73.843C31.7228 65.9202 25.4992 59.4375 17.8927 59.4375C10.2861 59.4375 4.0625 65.9198 4.0625 73.843Z" stroke="#499A9A" stroke-width="2" stroke-miterlimit="2.6131" stroke-linecap="round" stroke-linejoin="round"/>
</svg>
