<svg width="772" height="703" viewBox="0 0 772 703" fill="none" xmlns="http://www.w3.org/2000/svg">
<g clip-path="url(#clip0_3814_39639)">
<path d="M730.874 654.411H42.437C29.9065 654.411 19.75 664.546 19.75 677.051V698.997C19.75 700.698 21.1326 702.078 22.8377 702.078H750.471C752.176 702.078 753.558 700.698 753.558 698.997V677.051C753.558 664.546 743.399 654.411 730.871 654.411H730.874Z" fill="url(#paint0_linear_3814_39639)"/>
<path d="M380.419 21.6112L32.9633 208.013C30.1479 209.522 28.3926 212.455 28.3926 215.642V243.788C28.3926 248.573 32.2786 252.451 37.074 252.451H736.236C741.031 252.451 744.917 248.573 744.917 243.788V215.642C744.917 212.453 743.162 209.522 740.347 208.013L392.894 21.6112C389 19.5218 384.313 19.5218 380.419 21.6112Z" fill="#499A9A" fill-opacity="0.2"/>
<g filter="url(#filter0_i_3814_39639)">
<path d="M236.325 165.818C235.976 165.434 235.471 165.033 234.808 164.615C234.146 164.162 233.361 163.743 232.455 163.36C231.583 162.976 230.607 162.662 229.526 162.418C228.48 162.174 227.4 162.052 226.284 162.052C223.809 162.052 221.978 162.506 220.793 163.412C219.642 164.319 219.067 165.574 219.067 167.177C219.067 168.084 219.241 168.833 219.59 169.426C219.974 169.984 220.549 170.49 221.316 170.943C222.083 171.361 223.042 171.745 224.192 172.093C225.343 172.407 226.685 172.756 228.219 173.139C230.102 173.592 231.792 174.098 233.292 174.656C234.826 175.214 236.116 175.893 237.162 176.695C238.208 177.497 239.009 178.491 239.567 179.676C240.16 180.827 240.456 182.239 240.456 183.912C240.456 185.795 240.09 187.416 239.358 188.776C238.661 190.135 237.685 191.251 236.429 192.123C235.209 192.959 233.78 193.587 232.141 194.005C230.503 194.389 228.742 194.581 226.859 194.581C224.035 194.581 221.298 194.162 218.649 193.326C216.034 192.454 213.663 191.199 211.536 189.56L214.203 184.54C214.657 184.993 215.302 185.499 216.138 186.056C217.01 186.614 218.004 187.137 219.119 187.625C220.27 188.078 221.508 188.479 222.832 188.828C224.157 189.142 225.534 189.299 226.964 189.299C229.265 189.299 231.043 188.898 232.298 188.096C233.553 187.294 234.181 186.109 234.181 184.54C234.181 183.598 233.937 182.814 233.449 182.186C232.995 181.559 232.333 181.018 231.461 180.565C230.59 180.077 229.526 179.641 228.271 179.258C227.016 178.874 225.587 178.473 223.983 178.055C222.135 177.567 220.514 177.061 219.119 176.538C217.76 175.981 216.627 175.318 215.72 174.551C214.814 173.784 214.116 172.895 213.628 171.884C213.175 170.838 212.948 169.583 212.948 168.119C212.948 166.306 213.297 164.702 213.994 163.307C214.692 161.878 215.633 160.693 216.818 159.751C218.039 158.775 219.468 158.043 221.107 157.555C222.745 157.067 224.523 156.823 226.441 156.823C228.951 156.823 231.27 157.224 233.396 158.026C235.523 158.827 237.388 159.821 238.992 161.006L236.325 165.818ZM257.993 194.738C255.866 194.738 253.931 194.371 252.188 193.639C250.445 192.872 248.945 191.844 247.69 190.554C246.47 189.264 245.511 187.765 244.814 186.056C244.152 184.348 243.82 182.535 243.82 180.618C243.82 178.7 244.152 176.887 244.814 175.179C245.511 173.436 246.47 171.919 247.69 170.629C248.945 169.304 250.445 168.276 252.188 167.543C253.931 166.776 255.883 166.393 258.045 166.393C260.172 166.393 262.089 166.776 263.798 167.543C265.541 168.31 267.023 169.339 268.243 170.629C269.463 171.884 270.387 173.366 271.014 175.074C271.677 176.748 272.008 178.508 272.008 180.356C272.008 180.774 271.991 181.175 271.956 181.559C271.921 181.908 271.886 182.204 271.851 182.448H249.939C250.044 183.668 250.323 184.766 250.776 185.743C251.264 186.719 251.874 187.573 252.606 188.305C253.373 189.002 254.227 189.543 255.169 189.926C256.145 190.31 257.156 190.502 258.202 190.502C258.969 190.502 259.718 190.414 260.451 190.24C261.218 190.031 261.915 189.752 262.542 189.403C263.17 189.02 263.728 188.567 264.216 188.044C264.704 187.521 265.088 186.945 265.366 186.318L270.282 187.73C269.341 189.787 267.772 191.478 265.576 192.803C263.414 194.093 260.886 194.738 257.993 194.738ZM266.308 178.473C266.203 177.323 265.907 176.26 265.419 175.283C264.966 174.307 264.373 173.488 263.641 172.825C262.909 172.128 262.054 171.588 261.078 171.204C260.102 170.821 259.073 170.629 257.993 170.629C256.912 170.629 255.883 170.821 254.907 171.204C253.966 171.588 253.129 172.128 252.397 172.825C251.665 173.488 251.072 174.307 250.619 175.283C250.166 176.26 249.887 177.323 249.782 178.473H266.308ZM292.076 171.832C289.844 171.902 287.857 172.424 286.114 173.401C284.405 174.342 283.185 175.702 282.453 177.48V194.215H276.7V166.864H282.035V172.982C282.976 171.1 284.196 169.6 285.695 168.485C287.229 167.334 288.868 166.707 290.611 166.602C290.96 166.602 291.239 166.602 291.448 166.602C291.692 166.602 291.901 166.62 292.076 166.654V171.832ZM303.948 194.215L293.489 166.864H299.398L307.243 189.351L315.139 166.864H320.578L310.119 194.215H303.948ZM324.656 194.215V166.864H330.408V194.215H324.656ZM324.656 162.366V156.038H330.408V162.366H324.656ZM335.543 180.513C335.543 178.595 335.874 176.782 336.537 175.074C337.199 173.366 338.141 171.867 339.361 170.577C340.616 169.287 342.115 168.276 343.858 167.543C345.602 166.776 347.554 166.393 349.716 166.393C352.54 166.393 354.963 167.021 356.985 168.276C359.042 169.496 360.576 171.134 361.587 173.191L355.991 174.97C355.329 173.819 354.44 172.93 353.324 172.302C352.208 171.64 350.971 171.309 349.611 171.309C348.46 171.309 347.38 171.535 346.369 171.989C345.392 172.442 344.538 173.087 343.806 173.924C343.074 174.726 342.499 175.684 342.08 176.8C341.662 177.916 341.453 179.153 341.453 180.513C341.453 181.838 341.662 183.075 342.08 184.226C342.533 185.342 343.126 186.318 343.858 187.155C344.625 187.991 345.497 188.654 346.473 189.142C347.484 189.595 348.548 189.822 349.663 189.822C350.36 189.822 351.058 189.735 351.755 189.56C352.452 189.351 353.08 189.072 353.638 188.723C354.23 188.375 354.736 187.974 355.154 187.521C355.608 187.067 355.939 186.579 356.148 186.056L361.796 187.73C360.889 189.787 359.373 191.478 357.246 192.803C355.119 194.093 352.609 194.738 349.716 194.738C347.589 194.738 345.654 194.354 343.911 193.587C342.167 192.82 340.668 191.792 339.413 190.502C338.193 189.177 337.234 187.66 336.537 185.952C335.874 184.243 335.543 182.43 335.543 180.513ZM378.673 194.738C376.546 194.738 374.611 194.371 372.868 193.639C371.124 192.872 369.625 191.844 368.37 190.554C367.15 189.264 366.191 187.765 365.494 186.056C364.831 184.348 364.5 182.535 364.5 180.618C364.5 178.7 364.831 176.887 365.494 175.179C366.191 173.436 367.15 171.919 368.37 170.629C369.625 169.304 371.124 168.276 372.868 167.543C374.611 166.776 376.563 166.393 378.725 166.393C380.852 166.393 382.769 166.776 384.477 167.543C386.221 168.31 387.702 169.339 388.923 170.629C390.143 171.884 391.067 173.366 391.694 175.074C392.357 176.748 392.688 178.508 392.688 180.356C392.688 180.774 392.671 181.175 392.636 181.559C392.601 181.908 392.566 182.204 392.531 182.448H370.619C370.724 183.668 371.002 184.766 371.456 185.743C371.944 186.719 372.554 187.573 373.286 188.305C374.053 189.002 374.907 189.543 375.849 189.926C376.825 190.31 377.836 190.502 378.882 190.502C379.649 190.502 380.398 190.414 381.13 190.24C381.897 190.031 382.595 189.752 383.222 189.403C383.85 189.02 384.408 188.567 384.896 188.044C385.384 187.521 385.767 186.945 386.046 186.318L390.962 187.73C390.021 189.787 388.452 191.478 386.256 192.803C384.094 194.093 381.566 194.738 378.673 194.738ZM386.988 178.473C386.883 177.323 386.587 176.26 386.099 175.283C385.645 174.307 385.053 173.488 384.321 172.825C383.588 172.128 382.734 171.588 381.758 171.204C380.782 170.821 379.753 170.629 378.673 170.629C377.592 170.629 376.563 170.821 375.587 171.204C374.646 171.588 373.809 172.128 373.077 172.825C372.345 173.488 371.752 174.307 371.299 175.283C370.846 176.26 370.567 177.323 370.462 178.473H386.988ZM411.033 194.215V157.084H426.618C428.291 157.084 429.825 157.433 431.22 158.13C432.649 158.827 433.869 159.751 434.88 160.902C435.892 162.018 436.676 163.307 437.234 164.772C437.826 166.201 438.123 167.666 438.123 169.165C438.123 170.734 437.844 172.25 437.286 173.714C436.763 175.144 436.014 176.434 435.037 177.584C434.061 178.7 432.876 179.606 431.481 180.304C430.122 180.966 428.605 181.297 426.931 181.297H416.891V194.215H411.033ZM416.891 176.12H426.565C427.402 176.12 428.152 175.946 428.814 175.597C429.511 175.248 430.104 174.76 430.592 174.133C431.08 173.505 431.464 172.773 431.743 171.936C432.022 171.1 432.161 170.176 432.161 169.165C432.161 168.119 432.004 167.177 431.69 166.341C431.377 165.504 430.941 164.789 430.383 164.197C429.825 163.569 429.18 163.098 428.448 162.785C427.751 162.436 427.019 162.262 426.252 162.262H416.891V176.12ZM442.884 194.215V166.864H448.637V194.215H442.884ZM442.884 162.366V156.038H448.637V162.366H442.884ZM455.602 156.038H461.355V186.318C461.355 187.329 461.616 188.131 462.139 188.723C462.662 189.281 463.394 189.56 464.336 189.56C464.719 189.56 465.155 189.49 465.643 189.351C466.166 189.212 466.654 189.055 467.107 188.88L467.944 193.378C467.107 193.761 466.114 194.058 464.963 194.267C463.813 194.511 462.784 194.633 461.878 194.633C459.89 194.633 458.339 194.093 457.223 193.012C456.142 191.931 455.602 190.397 455.602 188.41V156.038ZM471.332 156.038H477.084V186.318C477.084 187.329 477.346 188.131 477.869 188.723C478.392 189.281 479.124 189.56 480.065 189.56C480.449 189.56 480.885 189.49 481.373 189.351C481.896 189.212 482.384 189.055 482.837 188.88L483.674 193.378C482.837 193.761 481.843 194.058 480.693 194.267C479.542 194.511 478.514 194.633 477.607 194.633C475.62 194.633 474.069 194.093 472.953 193.012C471.872 191.931 471.332 190.397 471.332 188.41V156.038ZM494.278 194.738C492.954 194.738 491.716 194.528 490.565 194.11C489.45 193.657 488.474 193.047 487.637 192.28C486.835 191.513 486.19 190.606 485.702 189.56C485.249 188.514 485.022 187.381 485.022 186.161C485.022 184.871 485.301 183.703 485.859 182.657C486.417 181.611 487.201 180.705 488.212 179.938C489.258 179.171 490.478 178.578 491.873 178.16C493.302 177.741 494.871 177.532 496.579 177.532C497.869 177.532 499.142 177.654 500.397 177.898C501.652 178.107 502.785 178.404 503.796 178.787V176.905C503.796 174.882 503.221 173.314 502.071 172.198C500.92 171.047 499.264 170.472 497.102 170.472C495.638 170.472 494.191 170.751 492.762 171.309C491.367 171.832 489.92 172.599 488.421 173.61L486.643 169.949C490.164 167.578 493.825 166.393 497.625 166.393C501.391 166.393 504.319 167.352 506.411 169.269C508.503 171.187 509.549 173.941 509.549 177.532V187.416C509.549 188.636 510.054 189.264 511.066 189.299V194.215C510.508 194.319 510.02 194.389 509.601 194.424C509.218 194.459 508.834 194.476 508.451 194.476C507.335 194.476 506.463 194.197 505.836 193.639C505.243 193.082 504.877 192.367 504.738 191.495L504.581 189.769C503.361 191.373 501.844 192.611 500.031 193.482C498.253 194.319 496.335 194.738 494.278 194.738ZM495.847 190.502C497.242 190.502 498.549 190.258 499.77 189.769C501.025 189.246 502.001 188.532 502.698 187.625C503.43 186.998 503.796 186.335 503.796 185.638V182.03C502.82 181.646 501.774 181.35 500.659 181.141C499.578 180.931 498.514 180.827 497.468 180.827C495.412 180.827 493.721 181.28 492.396 182.186C491.106 183.058 490.461 184.226 490.461 185.69C490.461 187.05 490.966 188.201 491.977 189.142C492.988 190.048 494.278 190.502 495.847 190.502ZM531.903 171.832C529.672 171.902 527.685 172.424 525.941 173.401C524.233 174.342 523.013 175.702 522.281 177.48V194.215H516.528V166.864H521.862V172.982C522.804 171.1 524.024 169.6 525.523 168.485C527.057 167.334 528.696 166.707 530.439 166.602C530.788 166.602 531.066 166.602 531.276 166.602C531.52 166.602 531.729 166.62 531.903 166.654V171.832ZM546.024 194.738C543.828 194.738 541.632 194.389 539.435 193.692C537.274 192.959 535.408 191.931 533.839 190.606L536.14 186.945C537.779 188.131 539.4 189.037 541.004 189.665C542.608 190.258 544.246 190.554 545.92 190.554C547.628 190.554 548.97 190.223 549.947 189.56C550.958 188.898 551.463 187.956 551.463 186.736C551.463 185.586 550.905 184.749 549.79 184.226C548.674 183.703 546.931 183.128 544.56 182.5C542.852 182.047 541.388 181.611 540.167 181.193C538.947 180.774 537.953 180.286 537.186 179.729C536.419 179.171 535.862 178.526 535.513 177.794C535.164 177.061 534.99 176.172 534.99 175.126C534.99 173.732 535.251 172.494 535.774 171.413C536.332 170.333 537.082 169.426 538.023 168.694C538.999 167.927 540.132 167.352 541.422 166.968C542.712 166.585 544.107 166.393 545.606 166.393C547.663 166.393 549.581 166.707 551.359 167.334C553.137 167.962 554.723 168.868 556.118 170.054L553.66 173.505C551.115 171.483 548.413 170.472 545.554 170.472C544.089 170.472 542.852 170.786 541.841 171.413C540.865 172.006 540.376 172.965 540.376 174.29C540.376 174.848 540.481 175.318 540.69 175.702C540.899 176.085 541.231 176.416 541.684 176.695C542.172 176.974 542.782 177.236 543.514 177.48C544.281 177.689 545.223 177.933 546.338 178.212C548.186 178.665 549.772 179.118 551.097 179.572C552.457 180.025 553.573 180.565 554.444 181.193C555.316 181.786 555.961 182.5 556.379 183.337C556.797 184.139 557.007 185.115 557.007 186.266C557.007 188.88 556.013 190.955 554.026 192.489C552.073 193.988 549.406 194.738 546.024 194.738Z" fill="#499A9A"/>
</g>
<g filter="url(#filter1_d_3814_39639)">
<path d="M386.655 38.8959L726.709 221.327V234.28H46.604V221.327L386.655 38.8959ZM386.655 20.0442C384.511 20.0442 382.365 20.5665 380.416 21.6112L32.9633 208.013C30.1479 209.522 28.3926 212.455 28.3926 215.642V243.788C28.3926 248.573 32.2786 252.451 37.074 252.451H736.236C741.031 252.451 744.917 248.573 744.917 243.788V215.642C744.917 212.453 743.162 209.522 740.347 208.013L392.894 21.6112C390.945 20.5665 388.802 20.0442 386.655 20.0442Z" fill="url(#paint1_linear_3814_39639)"/>
</g>
<path d="M184.675 614.251H73.2148L79.5435 305.587H178.346L184.675 614.251Z" fill="url(#paint2_linear_3814_39639)"/>
<g style="mix-blend-mode:multiply">
<path d="M184.675 614.597H73.2148L79.5435 305.933H178.346L184.675 614.597Z" fill="url(#paint3_linear_3814_39639)"/>
</g>
<path d="M124.932 577.526C124.741 577.7 124.54 577.953 124.331 578.284C124.104 578.615 123.895 579.007 123.703 579.461C123.512 579.896 123.355 580.384 123.233 580.925C123.111 581.448 123.05 581.988 123.05 582.546C123.05 583.784 123.276 584.699 123.73 585.292C124.183 585.867 124.81 586.154 125.612 586.154C126.065 586.154 126.44 586.067 126.737 585.893C127.016 585.701 127.268 585.414 127.495 585.03C127.704 584.647 127.896 584.167 128.07 583.592C128.227 583.017 128.401 582.346 128.593 581.579C128.82 580.637 129.073 579.792 129.351 579.042C129.63 578.275 129.97 577.63 130.371 577.107C130.772 576.584 131.269 576.183 131.862 575.904C132.437 575.608 133.143 575.46 133.98 575.46C134.921 575.46 135.732 575.643 136.411 576.009C137.091 576.358 137.649 576.846 138.085 577.473C138.503 578.083 138.817 578.798 139.026 579.617C139.218 580.437 139.314 581.317 139.314 582.258C139.314 583.67 139.105 585.039 138.686 586.364C138.251 587.671 137.623 588.856 136.804 589.92L134.293 588.586C134.52 588.36 134.773 588.037 135.052 587.619C135.331 587.183 135.592 586.686 135.836 586.128C136.063 585.553 136.263 584.934 136.438 584.272C136.594 583.609 136.673 582.921 136.673 582.206C136.673 581.056 136.472 580.167 136.072 579.539C135.671 578.911 135.078 578.598 134.293 578.598C133.823 578.598 133.431 578.72 133.117 578.964C132.803 579.19 132.533 579.522 132.306 579.957C132.062 580.393 131.844 580.925 131.652 581.552C131.461 582.18 131.26 582.895 131.051 583.697C130.807 584.62 130.554 585.431 130.293 586.128C130.014 586.808 129.683 587.375 129.299 587.828C128.916 588.281 128.471 588.63 127.966 588.874C127.443 589.1 126.815 589.214 126.083 589.214C125.176 589.214 124.375 589.039 123.677 588.691C122.963 588.342 122.37 587.872 121.899 587.279C121.411 586.669 121.045 585.954 120.801 585.135C120.557 584.315 120.435 583.426 120.435 582.468C120.435 581.212 120.635 580.053 121.036 578.99C121.437 577.927 121.934 576.994 122.527 576.192L124.932 577.526ZM139.392 566.744C139.392 567.825 139.201 568.801 138.817 569.673C138.434 570.527 137.919 571.259 137.274 571.869C136.629 572.479 135.88 572.95 135.026 573.281C134.154 573.612 133.248 573.778 132.306 573.778C131.365 573.778 130.467 573.612 129.613 573.281C128.741 572.95 127.983 572.479 127.338 571.869C126.693 571.241 126.179 570.501 125.795 569.646C125.412 568.775 125.22 567.807 125.22 566.744C125.22 565.681 125.412 564.722 125.795 563.868C126.179 562.996 126.693 562.255 127.338 561.645C127.983 561.018 128.741 560.538 129.613 560.207C130.467 559.876 131.365 559.71 132.306 559.71C133.248 559.71 134.154 559.876 135.026 560.207C135.88 560.538 136.629 561.018 137.274 561.645C137.919 562.255 138.434 562.996 138.817 563.868C139.201 564.722 139.392 565.681 139.392 566.744ZM132.332 570.823C132.995 570.823 133.605 570.718 134.163 570.509C134.721 570.3 135.209 570.012 135.627 569.646C136.028 569.28 136.35 568.853 136.594 568.365C136.821 567.86 136.934 567.319 136.934 566.744C136.934 566.169 136.821 565.637 136.594 565.149C136.35 564.643 136.019 564.208 135.601 563.842C135.182 563.475 134.694 563.188 134.137 562.979C133.579 562.769 132.969 562.665 132.306 562.665C131.661 562.665 131.06 562.769 130.502 562.979C129.927 563.188 129.43 563.475 129.012 563.842C128.593 564.208 128.271 564.643 128.044 565.149C127.8 565.637 127.678 566.169 127.678 566.744C127.678 567.302 127.8 567.833 128.044 568.339C128.288 568.827 128.619 569.254 129.038 569.62C129.456 569.986 129.953 570.283 130.528 570.509C131.086 570.718 131.687 570.823 132.332 570.823ZM120.043 557.133L120.043 554.257L135.182 554.257C135.688 554.257 136.089 554.126 136.385 553.864C136.664 553.603 136.804 553.237 136.804 552.766C136.804 552.574 136.769 552.356 136.699 552.112C136.629 551.851 136.551 551.607 136.464 551.38L138.712 550.962C138.904 551.38 139.052 551.877 139.157 552.452C139.279 553.028 139.34 553.542 139.34 553.995C139.34 554.989 139.07 555.764 138.529 556.322C137.989 556.863 137.222 557.133 136.228 557.133L120.043 557.133ZM139.392 545.084C139.392 546.514 138.93 547.595 138.006 548.327C137.065 549.059 135.671 549.425 133.823 549.425L125.455 549.425L125.455 546.549L133.248 546.549C135.705 546.549 136.934 545.677 136.934 543.934C136.934 543.114 136.682 542.339 136.176 541.607C135.671 540.874 134.938 540.308 133.98 539.907L125.455 539.907L125.455 537.031L135.732 537.031C136.063 537.031 136.298 536.978 136.438 536.874C136.577 536.752 136.655 536.543 136.673 536.246L139.131 536.246C139.183 536.543 139.218 536.787 139.235 536.978C139.253 537.17 139.262 537.353 139.262 537.527C139.262 538.05 139.122 538.495 138.843 538.861C138.547 539.227 138.172 539.419 137.719 539.436L136.359 539.489C137.353 540.099 138.111 540.892 138.634 541.868C139.14 542.844 139.392 543.916 139.392 545.084ZM138.425 525.751C138.599 526.117 138.8 526.623 139.026 527.268C139.235 527.913 139.34 528.601 139.34 529.333C139.34 529.787 139.279 530.214 139.157 530.615C139.035 531.015 138.852 531.373 138.608 531.687C138.364 531.983 138.05 532.218 137.667 532.393C137.266 532.567 136.786 532.654 136.228 532.654L127.678 532.654L127.678 534.458L125.455 534.458L125.455 532.654L120.958 532.654L120.958 529.778L125.455 529.778L125.455 526.797L127.678 526.797L127.678 529.778L135.313 529.778C135.801 529.743 136.159 529.595 136.385 529.333C136.594 529.054 136.699 528.714 136.699 528.314C136.699 527.913 136.629 527.529 136.49 527.163C136.35 526.797 136.237 526.527 136.15 526.352L138.425 525.751ZM139.131 523.759L125.455 523.759L125.455 520.883L139.131 520.883L139.131 523.759ZM123.207 523.759L120.043 523.759L120.043 520.883L123.207 520.883L123.207 523.759ZM139.392 511.281C139.392 512.362 139.201 513.338 138.817 514.21C138.434 515.064 137.919 515.796 137.274 516.406C136.629 517.016 135.88 517.487 135.026 517.818C134.154 518.15 133.248 518.315 132.306 518.315C131.365 518.315 130.467 518.15 129.613 517.818C128.741 517.487 127.983 517.016 127.338 516.406C126.693 515.779 126.179 515.038 125.795 514.184C125.412 513.312 125.22 512.345 125.22 511.281C125.22 510.218 125.412 509.259 125.795 508.405C126.179 507.533 126.693 506.792 127.338 506.182C127.983 505.555 128.741 505.075 129.613 504.744C130.467 504.413 131.365 504.247 132.306 504.247C133.248 504.247 134.154 504.413 135.026 504.744C135.88 505.075 136.629 505.555 137.274 506.182C137.919 506.792 138.434 507.533 138.817 508.405C139.201 509.259 139.392 510.218 139.392 511.281ZM132.332 515.36C132.995 515.36 133.605 515.256 134.163 515.047C134.721 514.837 135.209 514.55 135.627 514.184C136.028 513.818 136.35 513.391 136.594 512.902C136.821 512.397 136.934 511.857 136.934 511.281C136.934 510.706 136.821 510.174 136.594 509.686C136.35 509.181 136.019 508.745 135.601 508.379C135.182 508.013 134.694 507.725 134.137 507.516C133.579 507.307 132.969 507.202 132.306 507.202C131.661 507.202 131.06 507.307 130.502 507.516C129.927 507.725 129.43 508.013 129.012 508.379C128.593 508.745 128.271 509.181 128.044 509.686C127.8 510.174 127.678 510.706 127.678 511.281C127.678 511.839 127.8 512.371 128.044 512.876C128.288 513.364 128.619 513.791 129.038 514.158C129.456 514.524 129.953 514.82 130.528 515.047C131.086 515.256 131.687 515.36 132.332 515.36ZM139.131 489.433L139.131 492.309L131.469 492.309C130.179 492.309 129.247 492.518 128.672 492.937C128.079 493.338 127.783 493.939 127.783 494.741C127.783 495.159 127.861 495.578 128.018 495.996C128.175 496.414 128.401 496.807 128.698 497.173C128.977 497.539 129.317 497.87 129.718 498.166C130.101 498.445 130.528 498.663 130.999 498.82L139.131 498.82L139.131 501.696L125.455 501.696L125.455 499.082L128.201 499.082C127.277 498.559 126.554 497.8 126.031 496.807C125.49 495.813 125.22 494.715 125.22 493.512C125.22 492.693 125.368 492.022 125.665 491.499C125.961 490.976 126.371 490.566 126.894 490.27C127.399 489.956 127.992 489.738 128.672 489.616C129.334 489.494 130.04 489.433 130.79 489.433L139.131 489.433ZM120.566 474.62L120.566 472.057L139.131 464.736L139.131 467.821L134.084 469.782L134.084 476.947L139.131 478.882L139.131 481.994L120.566 474.62ZM131.914 470.358L123.939 473.339L131.914 476.424L131.914 470.358ZM127.939 455.118C127.974 456.234 128.236 457.228 128.724 458.099C129.195 458.954 129.874 459.564 130.763 459.93L139.131 459.93L139.131 462.806L125.455 462.806L125.455 460.139L128.515 460.139C127.573 459.668 126.824 459.058 126.266 458.309C125.691 457.542 125.377 456.722 125.325 455.851C125.325 455.676 125.325 455.537 125.325 455.432C125.325 455.31 125.333 455.206 125.351 455.118L127.939 455.118ZM132.28 454.605C131.321 454.605 130.415 454.439 129.561 454.108C128.706 453.776 127.957 453.306 127.312 452.696C126.667 452.068 126.161 451.319 125.795 450.447C125.412 449.575 125.22 448.599 125.22 447.518C125.22 446.106 125.534 444.895 126.161 443.884C126.771 442.855 127.591 442.088 128.619 441.583L129.508 444.381C128.933 444.712 128.489 445.156 128.175 445.714C127.844 446.272 127.678 446.891 127.678 447.571C127.678 448.146 127.791 448.686 128.018 449.192C128.245 449.68 128.567 450.107 128.985 450.473C129.386 450.839 129.866 451.127 130.424 451.336C130.981 451.545 131.6 451.65 132.28 451.65C132.942 451.65 133.561 451.545 134.137 451.336C134.694 451.109 135.182 450.813 135.601 450.447C136.019 450.063 136.35 449.628 136.594 449.14C136.821 448.634 136.934 448.102 136.934 447.545C136.934 447.196 136.891 446.847 136.804 446.499C136.699 446.15 136.56 445.836 136.385 445.557C136.211 445.261 136.011 445.008 135.784 444.799C135.557 444.572 135.313 444.407 135.052 444.302L135.888 441.478C136.917 441.931 137.762 442.69 138.425 443.753C139.07 444.816 139.392 446.071 139.392 447.518C139.392 448.582 139.201 449.549 138.817 450.421C138.434 451.292 137.919 452.042 137.274 452.67C136.612 453.28 135.854 453.759 134.999 454.108C134.145 454.439 133.239 454.605 132.28 454.605ZM139.131 426.846L139.131 429.722L131.469 429.722C130.214 429.722 129.29 429.949 128.698 430.402C128.088 430.838 127.783 431.474 127.783 432.311C127.783 432.712 127.861 433.113 128.018 433.514C128.175 433.915 128.401 434.298 128.698 434.664C128.977 435.013 129.317 435.327 129.718 435.605C130.101 435.884 130.528 436.094 130.999 436.233L139.131 436.233L139.131 439.109L120.043 439.109L120.043 436.233L128.201 436.233C127.26 435.71 126.527 435.004 126.004 434.115C125.482 433.209 125.22 432.224 125.22 431.16C125.22 430.306 125.377 429.609 125.691 429.068C125.987 428.511 126.388 428.066 126.894 427.735C127.399 427.404 127.992 427.177 128.672 427.055C129.334 426.916 130.04 426.846 130.79 426.846L139.131 426.846ZM139.131 423.507L125.455 423.507L125.455 420.631L139.131 420.631L139.131 423.507ZM123.207 423.507L120.043 423.507L120.043 420.631L123.207 420.631L123.207 423.507ZM138.425 409.565C138.599 409.931 138.8 410.437 139.026 411.082C139.235 411.727 139.34 412.415 139.34 413.148C139.34 413.601 139.279 414.028 139.157 414.429C139.035 414.83 138.852 415.187 138.608 415.501C138.364 415.797 138.05 416.033 137.667 416.207C137.266 416.381 136.786 416.468 136.228 416.468L127.678 416.468L127.678 418.273L125.455 418.273L125.455 416.468L120.958 416.468L120.958 413.592L125.455 413.592L125.455 410.611L127.678 410.611L127.678 413.592L135.313 413.592C135.801 413.557 136.159 413.409 136.385 413.148C136.594 412.869 136.699 412.529 136.699 412.128C136.699 411.727 136.629 411.343 136.49 410.977C136.35 410.611 136.237 410.341 136.15 410.167L138.425 409.565ZM139.392 401.708C139.392 402.771 139.209 403.739 138.843 404.61C138.46 405.482 137.945 406.232 137.3 406.859C136.655 407.469 135.906 407.949 135.052 408.297C134.198 408.629 133.291 408.794 132.332 408.794C131.374 408.794 130.467 408.629 129.613 408.297C128.741 407.949 127.983 407.469 127.338 406.859C126.676 406.232 126.161 405.482 125.795 404.61C125.412 403.739 125.22 402.763 125.22 401.682C125.22 400.619 125.412 399.66 125.795 398.806C126.179 397.934 126.693 397.193 127.338 396.583C127.966 395.973 128.706 395.511 129.561 395.197C130.397 394.866 131.278 394.7 132.202 394.7C132.411 394.7 132.611 394.709 132.803 394.726C132.977 394.744 133.125 394.761 133.248 394.779L133.248 405.735C133.858 405.683 134.407 405.543 134.895 405.316C135.383 405.072 135.81 404.767 136.176 404.401C136.525 404.018 136.795 403.591 136.987 403.12C137.178 402.632 137.274 402.126 137.274 401.603C137.274 401.22 137.231 400.845 137.144 400.479C137.039 400.096 136.9 399.747 136.725 399.433C136.533 399.119 136.307 398.84 136.045 398.596C135.784 398.352 135.496 398.161 135.182 398.021L135.888 395.563C136.917 396.034 137.762 396.818 138.425 397.917C139.07 398.997 139.392 400.261 139.392 401.708ZM131.26 397.55C130.685 397.603 130.153 397.751 129.665 397.995C129.177 398.222 128.767 398.518 128.436 398.884C128.088 399.25 127.817 399.677 127.626 400.165C127.434 400.653 127.338 401.168 127.338 401.708C127.338 402.248 127.434 402.763 127.626 403.251C127.817 403.721 128.088 404.14 128.436 404.506C128.767 404.872 129.177 405.168 129.665 405.395C130.153 405.622 130.685 405.761 131.26 405.813L131.26 397.55ZM132.28 393.243C131.321 393.243 130.415 393.078 129.561 392.746C128.706 392.415 127.957 391.944 127.312 391.334C126.667 390.707 126.161 389.957 125.795 389.086C125.412 388.214 125.22 387.238 125.22 386.157C125.22 384.745 125.534 383.533 126.161 382.522C126.771 381.494 127.591 380.727 128.619 380.221L129.508 383.019C128.933 383.35 128.489 383.795 128.175 384.353C127.844 384.911 127.678 385.529 127.678 386.209C127.678 386.785 127.791 387.325 128.018 387.83C128.245 388.319 128.567 388.746 128.985 389.112C129.386 389.478 129.866 389.765 130.424 389.975C130.981 390.184 131.6 390.288 132.28 390.288C132.942 390.288 133.561 390.184 134.137 389.975C134.694 389.748 135.182 389.452 135.601 389.086C136.019 388.702 136.35 388.266 136.594 387.778C136.821 387.273 136.934 386.741 136.934 386.183C136.934 385.835 136.891 385.486 136.804 385.137C136.699 384.789 136.56 384.475 136.385 384.196C136.211 383.9 136.011 383.647 135.784 383.438C135.557 383.211 135.313 383.045 135.052 382.941L135.888 380.117C136.917 380.57 137.762 381.328 138.425 382.392C139.07 383.455 139.392 384.71 139.392 386.157C139.392 387.22 139.201 388.188 138.817 389.059C138.434 389.931 137.919 390.681 137.274 391.308C136.612 391.918 135.854 392.398 134.999 392.746C134.145 393.078 133.239 393.243 132.28 393.243ZM138.425 370.139C138.599 370.505 138.8 371.01 139.026 371.655C139.235 372.3 139.34 372.989 139.34 373.721C139.34 374.174 139.279 374.601 139.157 375.002C139.035 375.403 138.852 375.761 138.608 376.074C138.364 376.371 138.05 376.606 137.667 376.78C137.266 376.955 136.786 377.042 136.228 377.042L127.678 377.042L127.678 378.846L125.455 378.846L125.455 377.042L120.958 377.042L120.958 374.166L125.455 374.166L125.455 371.185L127.678 371.185L127.678 374.166L135.313 374.166C135.801 374.131 136.159 373.983 136.385 373.721C136.594 373.442 136.699 373.102 136.699 372.701C136.699 372.3 136.629 371.917 136.49 371.551C136.35 371.185 136.237 370.915 136.15 370.74L138.425 370.139ZM139.392 363.937C139.392 365.366 138.93 366.447 138.006 367.179C137.065 367.911 135.671 368.277 133.823 368.277L125.455 368.277L125.455 365.401L133.248 365.401C135.705 365.401 136.934 364.529 136.934 362.786C136.934 361.967 136.682 361.191 136.176 360.459C135.671 359.727 134.938 359.16 133.98 358.759L125.455 358.759L125.455 355.883L135.732 355.883C136.063 355.883 136.298 355.831 136.438 355.726C136.577 355.604 136.655 355.395 136.673 355.099L139.131 355.099C139.183 355.395 139.218 355.639 139.235 355.831C139.253 356.023 139.262 356.206 139.262 356.38C139.262 356.903 139.122 357.347 138.843 357.714C138.547 358.08 138.172 358.271 137.719 358.289L136.359 358.341C137.353 358.951 138.111 359.744 138.634 360.721C139.14 361.697 139.392 362.769 139.392 363.937ZM127.939 344.525C127.974 345.641 128.236 346.634 128.724 347.506C129.195 348.36 129.874 348.97 130.763 349.336L139.131 349.336L139.131 352.213L125.455 352.213L125.455 349.546L128.515 349.546C127.573 349.075 126.824 348.465 126.266 347.715C125.691 346.948 125.377 346.129 125.325 345.257C125.325 345.083 125.325 344.943 125.325 344.839C125.325 344.717 125.333 344.612 125.351 344.525L127.939 344.525ZM139.392 336.925C139.392 337.988 139.209 338.956 138.843 339.827C138.46 340.699 137.945 341.449 137.3 342.076C136.655 342.686 135.906 343.166 135.052 343.514C134.198 343.845 133.291 344.011 132.332 344.011C131.374 344.011 130.467 343.845 129.613 343.514C128.741 343.166 127.983 342.686 127.338 342.076C126.676 341.449 126.161 340.699 125.795 339.827C125.412 338.956 125.22 337.98 125.22 336.899C125.22 335.835 125.412 334.877 125.795 334.023C126.179 333.151 126.693 332.41 127.338 331.8C127.966 331.19 128.706 330.728 129.561 330.414C130.397 330.083 131.278 329.917 132.202 329.917C132.411 329.917 132.611 329.926 132.803 329.943C132.977 329.961 133.125 329.978 133.248 329.996L133.248 340.952C133.858 340.899 134.407 340.76 134.895 340.533C135.383 340.289 135.81 339.984 136.176 339.618C136.525 339.235 136.795 338.808 136.987 338.337C137.178 337.849 137.274 337.343 137.274 336.82C137.274 336.437 137.231 336.062 137.144 335.696C137.039 335.312 136.9 334.964 136.725 334.65C136.533 334.336 136.307 334.057 136.045 333.813C135.784 333.569 135.496 333.378 135.182 333.238L135.888 330.78C136.917 331.251 137.762 332.035 138.425 333.133C139.07 334.214 139.392 335.478 139.392 336.925ZM131.26 332.767C130.685 332.82 130.153 332.968 129.665 333.212C129.177 333.439 128.767 333.735 128.436 334.101C128.088 334.467 127.817 334.894 127.626 335.382C127.434 335.87 127.338 336.385 127.338 336.925C127.338 337.465 127.434 337.98 127.626 338.468C127.817 338.938 128.088 339.357 128.436 339.723C128.767 340.089 129.177 340.385 129.665 340.612C130.153 340.838 130.685 340.978 131.26 341.03L131.26 332.767Z" fill="white"/>
<path d="M128.78 293.003C112.143 292.952 81.6098 292.859 73.2148 292.859C73.3097 298.196 73.6208 303.244 79.5223 305.933H178.037C183.939 303.244 184.252 298.196 184.345 292.859C175.95 292.859 145.417 292.95 128.78 293.003Z" fill="url(#paint4_linear_3814_39639)"/>
<g style="mix-blend-mode:multiply">
<path d="M128.944 293.002C112.257 292.952 81.6346 292.859 73.2148 292.859C73.31 298.157 73.622 303.166 79.5409 305.836H178.346C184.265 303.166 184.58 298.157 184.672 292.859C176.253 292.859 145.63 292.949 128.944 293.002Z" fill="url(#paint5_linear_3814_39639)"/>
</g>
<path d="M52.9507 268.22C54.1766 276.196 62.3442 288.082 73.2009 294.167H184.36C195.216 288.082 203.386 276.199 204.61 268.22C205.074 265.195 205.264 262.13 205.264 259.066V252.33H52.2969V259.066C52.2969 262.13 52.4867 265.195 52.9507 268.22Z" fill="url(#paint6_linear_3814_39639)"/>
<g style="mix-blend-mode:multiply">
<path d="M52.9507 268.22C54.1766 276.196 62.3442 288.082 73.2009 294.167H184.36C195.216 288.082 203.386 276.199 204.61 268.22C205.074 265.195 205.264 262.13 205.264 259.066V252.33H52.2969V259.066C52.2969 262.13 52.4867 265.195 52.9507 268.22Z" fill="url(#paint7_linear_3814_39639)"/>
</g>
<path d="M204.255 639.154C203.026 631.499 194.836 620.089 183.95 614.248H72.49C61.6039 620.089 53.4115 631.496 52.1849 639.154C51.7196 642.059 51.5293 645 51.5293 647.942V654.408H204.911V647.942C204.911 645 204.721 642.059 204.255 639.154Z" fill="url(#paint8_linear_3814_39639)"/>
<g style="mix-blend-mode:multiply">
<path d="M204.255 639.154C203.026 631.499 194.836 620.089 183.95 614.248H72.49C61.6039 620.089 53.4115 631.496 52.1849 639.154C51.7196 642.059 51.5293 645 51.5293 647.942V654.408H204.911V647.942C204.911 645 204.721 642.059 204.255 639.154Z" fill="url(#paint9_linear_3814_39639)"/>
</g>
<path d="M727.999 235V222.011L726.117 221V232.492H385.616H46.5938V235H387.501H727.999Z" fill="#499A9A"/>
<path d="M30.2748 246.289V218.143C30.2748 214.954 32.0301 212.023 34.8455 210.514L382.298 24.1121C384.247 23.0674 386.391 22.5451 388.537 22.5451C390.684 22.5451 392.828 23.0674 394.776 24.1121L742.229 210.514C742.874 210.859 743.458 211.289 743.984 211.772C743.197 210.205 741.954 208.873 740.349 208.013L392.894 21.6112C390.945 20.5665 388.802 20.0442 386.655 20.0442C384.508 20.0442 382.365 20.5665 380.416 21.6112L32.9633 208.013C30.1479 209.522 28.3926 212.455 28.3926 215.642V243.788C28.3926 246.302 29.4711 248.56 31.1868 250.143C30.6079 248.982 30.2721 247.676 30.2721 246.291L30.2748 246.289Z" fill="#499A9A"/>
<g filter="url(#filter2_d_3814_39639)">
<path d="M386.654 234.281H33.5442C30.6997 234.281 28.3945 236.581 28.3945 239.419V243.788C28.3945 248.574 32.2806 252.452 37.076 252.452H736.238C741.033 252.452 744.919 248.574 744.919 243.788V239.419C744.919 236.581 742.614 234.281 739.77 234.281H386.657H386.654Z" fill="url(#paint10_linear_3814_39639)"/>
</g>
<path d="M529.083 614.311H417.623L423.952 305.648H522.755L529.083 614.311Z" fill="url(#paint11_linear_3814_39639)"/>
<g style="mix-blend-mode:multiply">
<path d="M528.523 614.597H417.062L423.391 305.933H522.194L528.523 614.597Z" fill="url(#paint12_linear_3814_39639)"/>
</g>
<path d="M473.563 525.949C472.448 525.949 471.341 525.749 470.242 525.348C469.127 524.947 468.133 524.363 467.262 523.596C466.372 522.812 465.658 521.862 465.117 520.746C464.577 519.63 464.307 518.366 464.307 516.954C464.307 515.264 464.682 513.817 465.431 512.614C466.181 511.411 467.157 510.505 468.36 509.894L469.902 512.195C469.345 512.457 468.874 512.771 468.49 513.137C468.107 513.503 467.802 513.904 467.575 514.34C467.349 514.775 467.192 515.229 467.105 515.699C467 516.17 466.948 516.623 466.948 517.059C466.948 518.035 467.148 518.889 467.549 519.622C467.933 520.354 468.447 520.973 469.092 521.478C469.737 521.966 470.46 522.341 471.262 522.602C472.064 522.847 472.866 522.969 473.668 522.969C474.574 522.969 475.437 522.82 476.256 522.524C477.076 522.228 477.799 521.818 478.427 521.295C479.054 520.755 479.56 520.118 479.943 519.386C480.309 518.654 480.492 517.852 480.492 516.981C480.492 516.527 480.44 516.065 480.336 515.595C480.214 515.107 480.031 514.645 479.786 514.209C479.525 513.756 479.203 513.346 478.819 512.98C478.435 512.596 477.974 512.283 477.433 512.039L478.819 509.607C479.516 509.903 480.135 510.322 480.676 510.862C481.198 511.402 481.643 512.012 482.009 512.692C482.375 513.372 482.654 514.096 482.846 514.863C483.038 515.612 483.133 516.353 483.133 517.085C483.133 518.393 482.855 519.587 482.297 520.668C481.739 521.748 481.015 522.681 480.126 523.465C479.22 524.25 478.2 524.86 477.067 525.296C475.917 525.732 474.749 525.949 473.563 525.949ZM483.238 501.119C483.238 502.2 483.046 503.176 482.663 504.048C482.279 504.902 481.765 505.634 481.12 506.244C480.475 506.854 479.725 507.325 478.871 507.656C478 507.988 477.093 508.153 476.152 508.153C475.211 508.153 474.313 507.988 473.459 507.656C472.587 507.325 471.829 506.854 471.184 506.244C470.539 505.617 470.025 504.876 469.641 504.022C469.257 503.15 469.066 502.183 469.066 501.119C469.066 500.056 469.257 499.097 469.641 498.243C470.025 497.371 470.539 496.631 471.184 496.02C471.829 495.393 472.587 494.913 473.459 494.582C474.313 494.251 475.211 494.085 476.152 494.085C477.093 494.085 478 494.251 478.871 494.582C479.725 494.913 480.475 495.393 481.12 496.02C481.765 496.631 482.279 497.371 482.663 498.243C483.046 499.097 483.238 500.056 483.238 501.119ZM476.178 505.198C476.84 505.198 477.451 505.094 478.008 504.885C478.566 504.675 479.054 504.388 479.473 504.022C479.874 503.656 480.196 503.229 480.44 502.74C480.667 502.235 480.78 501.695 480.78 501.119C480.78 500.544 480.667 500.012 480.44 499.524C480.196 499.019 479.865 498.583 479.447 498.217C479.028 497.851 478.54 497.563 477.982 497.354C477.424 497.145 476.814 497.04 476.152 497.04C475.507 497.04 474.905 497.145 474.348 497.354C473.772 497.563 473.276 497.851 472.857 498.217C472.439 498.583 472.116 499.019 471.89 499.524C471.646 500.012 471.524 500.544 471.524 501.119C471.524 501.677 471.646 502.209 471.89 502.714C472.134 503.202 472.465 503.63 472.883 503.996C473.302 504.362 473.799 504.658 474.374 504.885C474.932 505.094 475.533 505.198 476.178 505.198ZM482.977 479.271L482.977 482.147L475.315 482.147C474.025 482.147 473.093 482.356 472.517 482.775C471.925 483.176 471.628 483.777 471.628 484.579C471.628 484.997 471.707 485.416 471.864 485.834C472.02 486.252 472.247 486.645 472.543 487.011C472.822 487.377 473.162 487.708 473.563 488.004C473.947 488.283 474.374 488.501 474.844 488.658L482.977 488.658L482.977 491.534L469.301 491.534L469.301 488.92L472.047 488.92C471.123 488.397 470.399 487.638 469.876 486.645C469.336 485.651 469.066 484.553 469.066 483.35C469.066 482.531 469.214 481.86 469.51 481.337C469.807 480.814 470.216 480.404 470.739 480.108C471.245 479.794 471.837 479.576 472.517 479.454C473.18 479.332 473.886 479.271 474.635 479.271L482.977 479.271ZM483.238 470.964C483.238 472.062 483.064 473.161 482.715 474.259C482.349 475.34 481.835 476.272 481.172 477.057L479.342 475.906C479.935 475.087 480.388 474.276 480.702 473.474C480.998 472.672 481.146 471.853 481.146 471.016C481.146 470.162 480.981 469.491 480.649 469.003C480.318 468.498 479.847 468.245 479.237 468.245C478.662 468.245 478.244 468.524 477.982 469.081C477.721 469.639 477.433 470.511 477.119 471.696C476.893 472.55 476.675 473.283 476.466 473.893C476.256 474.503 476.012 475 475.734 475.383C475.455 475.767 475.132 476.046 474.766 476.22C474.4 476.394 473.955 476.481 473.432 476.481C472.735 476.481 472.116 476.351 471.576 476.089C471.036 475.81 470.582 475.435 470.216 474.965C469.833 474.477 469.545 473.91 469.353 473.265C469.162 472.62 469.066 471.923 469.066 471.173C469.066 470.145 469.223 469.186 469.536 468.297C469.85 467.408 470.303 466.615 470.896 465.918L472.622 467.147C471.611 468.419 471.105 469.77 471.105 471.199C471.105 471.932 471.262 472.55 471.576 473.056C471.872 473.544 472.352 473.788 473.014 473.788C473.293 473.788 473.528 473.736 473.72 473.631C473.912 473.527 474.077 473.361 474.217 473.134C474.356 472.89 474.487 472.585 474.609 472.219C474.714 471.836 474.836 471.365 474.975 470.807C475.202 469.883 475.428 469.09 475.655 468.428C475.882 467.748 476.152 467.19 476.466 466.754C476.762 466.318 477.119 465.996 477.538 465.787C477.939 465.578 478.427 465.473 479.002 465.473C480.309 465.473 481.347 465.97 482.114 466.963C482.863 467.94 483.238 469.273 483.238 470.964ZM483.238 458.751C483.238 460.18 482.776 461.261 481.852 461.993C480.911 462.725 479.516 463.091 477.668 463.091L469.301 463.091L469.301 460.215L477.093 460.215C479.551 460.215 480.78 459.343 480.78 457.6C480.78 456.781 480.527 456.005 480.022 455.273C479.516 454.541 478.784 453.974 477.825 453.573L469.301 453.573L469.301 450.697L479.577 450.697C479.909 450.697 480.144 450.645 480.283 450.54C480.423 450.418 480.501 450.209 480.519 449.912L482.977 449.912C483.029 450.209 483.064 450.453 483.081 450.645C483.099 450.836 483.107 451.019 483.107 451.194C483.107 451.717 482.968 452.161 482.689 452.527C482.393 452.893 482.018 453.085 481.565 453.102L480.205 453.155C481.198 453.765 481.957 454.558 482.48 455.534C482.985 456.51 483.238 457.583 483.238 458.751ZM463.888 447L463.888 444.124L479.028 444.124C479.534 444.124 479.935 443.993 480.231 443.732C480.51 443.47 480.649 443.104 480.649 442.633C480.649 442.442 480.615 442.224 480.545 441.98C480.475 441.718 480.397 441.474 480.309 441.248L482.558 440.829C482.75 441.248 482.898 441.744 483.003 442.32C483.125 442.895 483.186 443.409 483.186 443.862C483.186 444.856 482.916 445.632 482.375 446.19C481.835 446.73 481.068 447 480.074 447L463.888 447ZM482.271 431.552C482.445 431.918 482.645 432.424 482.872 433.069C483.081 433.714 483.186 434.402 483.186 435.135C483.186 435.588 483.125 436.015 483.003 436.416C482.881 436.817 482.698 437.174 482.454 437.488C482.21 437.784 481.896 438.02 481.512 438.194C481.111 438.368 480.632 438.455 480.074 438.455L471.524 438.455L471.524 440.26L469.301 440.26L469.301 438.455L464.804 438.455L464.804 435.579L469.301 435.579L469.301 432.598L471.524 432.598L471.524 435.579L479.159 435.579C479.647 435.544 480.004 435.396 480.231 435.135C480.44 434.856 480.545 434.516 480.545 434.115C480.545 433.714 480.475 433.33 480.336 432.964C480.196 432.598 480.083 432.328 479.996 432.154L482.271 431.552ZM482.977 429.56L469.301 429.56L469.301 426.684L482.977 426.684L482.977 429.56ZM467.052 429.56L463.888 429.56L463.888 426.684L467.052 426.684L467.052 429.56ZM482.977 410.964L482.977 413.84L475.315 413.84C474.025 413.84 473.093 414.049 472.517 414.468C471.925 414.869 471.628 415.47 471.628 416.272C471.628 416.69 471.707 417.109 471.864 417.527C472.02 417.945 472.247 418.338 472.543 418.704C472.822 419.07 473.162 419.401 473.563 419.697C473.947 419.976 474.374 420.194 474.844 420.351L482.977 420.351L482.977 423.227L469.301 423.227L469.301 420.613L472.047 420.613C471.123 420.09 470.399 419.331 469.876 418.338C469.336 417.344 469.066 416.246 469.066 415.043C469.066 414.224 469.214 413.553 469.51 413.03C469.807 412.507 470.216 412.097 470.739 411.801C471.245 411.487 471.837 411.269 472.517 411.147C473.18 411.025 473.886 410.964 474.635 410.964L482.977 410.964ZM483.107 402.213C483.107 403.137 482.924 403.982 482.558 404.749C482.175 405.516 481.66 406.178 481.015 406.736C480.37 407.277 479.63 407.704 478.793 408.018C477.956 408.314 477.076 408.462 476.152 408.462C475.176 408.462 474.261 408.305 473.406 407.991C472.535 407.678 471.785 407.242 471.158 406.684C470.513 406.126 470.007 405.464 469.641 404.697C469.257 403.912 469.066 403.049 469.066 402.108C469.066 401.01 469.327 400.051 469.85 399.232C470.373 398.395 471.053 397.706 471.89 397.166L469.301 397.166L469.301 394.63L482.584 394.63C483.578 394.63 484.458 394.813 485.225 395.179C485.992 395.545 486.637 396.059 487.16 396.722C487.701 397.367 488.11 398.134 488.389 399.023C488.668 399.912 488.808 400.87 488.808 401.899C488.808 403.415 488.546 404.679 488.023 405.69C487.518 406.684 486.803 407.521 485.879 408.201L484.362 406.579C485.095 406.056 485.652 405.385 486.036 404.566C486.419 403.729 486.611 402.84 486.611 401.899C486.611 401.306 486.533 400.748 486.376 400.225C486.219 399.685 485.975 399.214 485.644 398.813C485.312 398.412 484.894 398.099 484.389 397.872C483.883 397.628 483.282 397.506 482.584 397.506L480.492 397.506C481.329 397.994 481.974 398.665 482.427 399.519C482.881 400.374 483.107 401.271 483.107 402.213ZM480.78 401.271C480.78 400.836 480.71 400.417 480.571 400.016C480.414 399.615 480.214 399.249 479.97 398.918C479.708 398.569 479.42 398.273 479.107 398.029C478.775 397.785 478.427 397.611 478.061 397.506L474.478 397.506C474.043 397.68 473.65 397.907 473.302 398.186C472.936 398.465 472.622 398.787 472.36 399.153C472.099 399.502 471.898 399.877 471.759 400.278C471.602 400.679 471.524 401.08 471.524 401.481C471.524 402.108 471.663 402.675 471.942 403.18C472.204 403.668 472.561 404.087 473.014 404.435C473.45 404.784 473.947 405.054 474.505 405.246C475.062 405.438 475.638 405.533 476.23 405.533C476.858 405.533 477.451 405.429 478.008 405.22C478.549 404.993 479.028 404.688 479.447 404.305C479.847 403.921 480.17 403.476 480.414 402.971C480.658 402.448 480.78 401.881 480.78 401.271Z" fill="white"/>
<path d="M473.188 293.064C456.551 293.013 426.018 292.92 417.623 292.92C417.718 298.257 418.029 303.304 423.93 305.994H522.445C528.347 303.304 528.66 298.257 528.753 292.92C520.358 292.92 489.825 293.011 473.188 293.064Z" fill="url(#paint13_linear_3814_39639)"/>
<g style="mix-blend-mode:multiply">
<path d="M473.352 293.063C456.666 293.012 426.043 292.92 417.623 292.92C417.718 298.217 418.03 303.227 423.949 305.897H522.755C528.673 303.227 528.988 298.217 529.081 292.92C520.661 292.92 490.038 293.01 473.352 293.063Z" fill="url(#paint14_linear_3814_39639)"/>
</g>
<path d="M397.357 268.281C398.583 276.256 406.75 288.143 417.607 294.227H528.766C539.623 288.143 547.793 276.259 549.016 268.281C549.48 265.255 549.67 262.191 549.67 259.126V252.39H396.703V259.126C396.703 262.191 396.893 265.255 397.357 268.281Z" fill="url(#paint15_linear_3814_39639)"/>
<g style="mix-blend-mode:multiply">
<path d="M397.357 268.281C398.583 276.256 406.75 288.143 417.607 294.227H528.766C539.623 288.143 547.793 276.259 549.016 268.281C549.48 265.255 549.67 262.191 549.67 259.126V252.39H396.703V259.126C396.703 262.191 396.893 265.255 397.357 268.281Z" fill="url(#paint16_linear_3814_39639)"/>
</g>
<path d="M548.662 639.216C547.432 631.56 539.243 620.15 528.356 614.31H416.896C406.01 620.15 397.818 631.557 396.591 639.216C396.126 642.12 395.936 645.062 395.936 648.003V654.469H549.317V648.003C549.317 645.062 549.127 642.12 548.662 639.216Z" fill="url(#paint17_linear_3814_39639)"/>
<g style="mix-blend-mode:multiply">
<path d="M548.662 639.216C547.432 631.56 539.243 620.15 528.356 614.31H416.896C406.01 620.15 397.818 631.557 396.591 639.216C396.126 642.12 395.936 645.062 395.936 648.003V654.469H549.317V648.003C549.317 645.062 549.127 642.12 548.662 639.216Z" fill="url(#paint18_linear_3814_39639)"/>
</g>
<path d="M701.378 614.312H589.918L596.247 305.648H695.049L701.378 614.312Z" fill="url(#paint19_linear_3814_39639)"/>
<g style="mix-blend-mode:multiply">
<path d="M701.101 614.597H589.641L595.969 305.933H694.772L701.101 614.597Z" fill="url(#paint20_linear_3814_39639)"/>
</g>
<path d="M646.143 591.309C645.028 591.309 643.921 591.108 642.822 590.708C641.707 590.307 640.713 589.723 639.842 588.956C638.953 588.171 638.238 587.221 637.697 586.105C637.157 584.99 636.887 583.726 636.887 582.314C636.887 580.623 637.262 579.176 638.011 577.973C638.761 576.771 639.737 575.864 640.94 575.254L642.483 577.555C641.925 577.817 641.454 578.13 641.071 578.496C640.687 578.862 640.382 579.263 640.155 579.699C639.929 580.135 639.772 580.588 639.685 581.059C639.58 581.53 639.528 581.983 639.528 582.419C639.528 583.395 639.728 584.249 640.129 584.981C640.513 585.713 641.027 586.332 641.672 586.838C642.317 587.326 643.04 587.701 643.842 587.962C644.644 588.206 645.446 588.328 646.248 588.328C647.154 588.328 648.017 588.18 648.837 587.884C649.656 587.587 650.379 587.178 651.007 586.655C651.634 586.114 652.14 585.478 652.523 584.746C652.89 584.014 653.073 583.212 653.073 582.34C653.073 581.887 653.02 581.425 652.916 580.954C652.794 580.466 652.611 580.004 652.367 579.568C652.105 579.115 651.783 578.706 651.399 578.339C651.016 577.956 650.554 577.642 650.013 577.398L651.399 574.966C652.096 575.263 652.715 575.681 653.256 576.221C653.779 576.762 654.223 577.372 654.589 578.052C654.955 578.732 655.234 579.455 655.426 580.222C655.618 580.972 655.714 581.713 655.714 582.445C655.714 583.752 655.435 584.946 654.877 586.027C654.319 587.108 653.596 588.04 652.706 588.825C651.8 589.609 650.78 590.219 649.647 590.655C648.497 591.091 647.329 591.309 646.143 591.309ZM655.818 568.414C655.818 569.843 655.356 570.924 654.432 571.656C653.491 572.388 652.096 572.754 650.249 572.754L641.881 572.754L641.881 569.878L649.673 569.878C652.131 569.878 653.36 569.006 653.36 567.263C653.36 566.444 653.107 565.668 652.602 564.936C652.096 564.204 651.364 563.637 650.405 563.236L641.881 563.236L641.881 560.36L652.157 560.36C652.489 560.36 652.724 560.308 652.863 560.203C653.003 560.081 653.081 559.872 653.099 559.576L655.557 559.576C655.609 559.872 655.644 560.116 655.661 560.308C655.679 560.5 655.687 560.683 655.687 560.857C655.687 561.38 655.548 561.824 655.269 562.191C654.973 562.557 654.598 562.748 654.145 562.766L652.785 562.818C653.779 563.428 654.537 564.221 655.06 565.198C655.565 566.174 655.818 567.246 655.818 568.414ZM655.818 551.721C655.818 552.82 655.644 553.918 655.295 555.016C654.929 556.097 654.415 557.03 653.752 557.814L651.922 556.663C652.515 555.844 652.968 555.034 653.282 554.232C653.578 553.43 653.726 552.611 653.726 551.774C653.726 550.92 653.561 550.248 653.229 549.76C652.898 549.255 652.428 549.002 651.817 549.002C651.242 549.002 650.824 549.281 650.562 549.839C650.301 550.397 650.013 551.268 649.699 552.454C649.473 553.308 649.255 554.04 649.046 554.65C648.837 555.26 648.593 555.757 648.314 556.141C648.035 556.524 647.712 556.803 647.346 556.977C646.98 557.152 646.536 557.239 646.013 557.239C645.315 557.239 644.696 557.108 644.156 556.847C643.616 556.568 643.162 556.193 642.796 555.722C642.413 555.234 642.125 554.667 641.933 554.023C641.742 553.378 641.646 552.68 641.646 551.931C641.646 550.902 641.803 549.943 642.116 549.054C642.43 548.165 642.883 547.372 643.476 546.675L645.202 547.904C644.191 549.176 643.685 550.527 643.685 551.957C643.685 552.689 643.842 553.308 644.156 553.813C644.452 554.301 644.932 554.545 645.594 554.545C645.873 554.545 646.108 554.493 646.3 554.389C646.492 554.284 646.658 554.118 646.797 553.892C646.936 553.648 647.067 553.343 647.189 552.977C647.294 552.593 647.416 552.122 647.555 551.565C647.782 550.641 648.009 549.848 648.235 549.185C648.462 548.505 648.732 547.947 649.046 547.512C649.342 547.076 649.699 546.753 650.118 546.544C650.519 546.335 651.007 546.23 651.582 546.23C652.89 546.23 653.927 546.727 654.694 547.721C655.443 548.697 655.818 550.031 655.818 551.721ZM654.851 536.109C655.025 536.475 655.225 536.98 655.452 537.625C655.661 538.27 655.766 538.959 655.766 539.691C655.766 540.144 655.705 540.571 655.583 540.972C655.461 541.373 655.278 541.73 655.034 542.044C654.79 542.341 654.476 542.576 654.092 542.75C653.691 542.925 653.212 543.012 652.654 543.012L644.104 543.012L644.104 544.816L641.881 544.816L641.881 543.012L637.384 543.012L637.384 540.135L641.881 540.135L641.881 537.154L644.104 537.154L644.104 540.135L651.739 540.135C652.227 540.101 652.584 539.952 652.811 539.691C653.02 539.412 653.125 539.072 653.125 538.671C653.125 538.27 653.055 537.887 652.916 537.521C652.776 537.154 652.663 536.884 652.576 536.71L654.851 536.109ZM655.818 528.304C655.818 529.384 655.626 530.361 655.243 531.232C654.859 532.086 654.345 532.818 653.7 533.429C653.055 534.039 652.306 534.509 651.451 534.841C650.58 535.172 649.673 535.337 648.732 535.337C647.791 535.337 646.893 535.172 646.039 534.841C645.167 534.509 644.409 534.039 643.764 533.429C643.119 532.801 642.605 532.06 642.221 531.206C641.838 530.334 641.646 529.367 641.646 528.304C641.646 527.24 641.838 526.281 642.221 525.427C642.605 524.556 643.119 523.815 643.764 523.205C644.409 522.577 645.167 522.098 646.039 521.767C646.893 521.435 647.791 521.27 648.732 521.27C649.673 521.27 650.58 521.435 651.451 521.767C652.306 522.098 653.055 522.577 653.7 523.205C654.345 523.815 654.859 524.556 655.243 525.427C655.626 526.281 655.818 527.24 655.818 528.304ZM648.758 532.383C649.421 532.383 650.031 532.278 650.588 532.069C651.146 531.86 651.634 531.572 652.053 531.206C652.454 530.84 652.776 530.413 653.02 529.925C653.247 529.419 653.36 528.879 653.36 528.304C653.36 527.728 653.247 527.197 653.02 526.709C652.776 526.203 652.445 525.767 652.027 525.401C651.608 525.035 651.12 524.747 650.562 524.538C650.005 524.329 649.394 524.224 648.732 524.224C648.087 524.224 647.486 524.329 646.928 524.538C646.352 524.747 645.856 525.035 645.437 525.401C645.019 525.767 644.696 526.203 644.47 526.709C644.226 527.197 644.104 527.728 644.104 528.304C644.104 528.861 644.226 529.393 644.47 529.899C644.714 530.387 645.045 530.814 645.463 531.18C645.882 531.546 646.379 531.842 646.954 532.069C647.512 532.278 648.113 532.383 648.758 532.383ZM655.557 497.8L655.557 500.676L647.895 500.676C646.623 500.676 645.69 500.886 645.097 501.304C644.505 501.722 644.208 502.332 644.208 503.134C644.208 503.954 644.513 504.703 645.124 505.383C645.716 506.045 646.492 506.525 647.451 506.821L655.557 506.821L655.557 509.698L647.895 509.698C646.605 509.698 645.673 509.907 645.097 510.325C644.505 510.743 644.208 511.345 644.208 512.129C644.208 512.949 644.505 513.698 645.097 514.378C645.69 515.058 646.466 515.546 647.425 515.842L655.557 515.842L655.557 518.719L641.881 518.719L641.881 516.104L644.627 516.104C643.668 515.563 642.936 514.857 642.43 513.986C641.907 513.097 641.646 512.086 641.646 510.953C641.646 509.82 641.942 508.93 642.535 508.286C643.128 507.623 643.868 507.213 644.757 507.057C643.746 506.481 642.979 505.758 642.456 504.886C641.916 504.015 641.646 503.021 641.646 501.905C641.646 501.103 641.803 500.441 642.116 499.918C642.413 499.378 642.814 498.951 643.319 498.637C643.825 498.323 644.418 498.105 645.097 497.983C645.76 497.861 646.466 497.8 647.215 497.8L655.557 497.8ZM655.818 488.288C655.818 489.352 655.635 490.319 655.269 491.191C654.886 492.063 654.371 492.812 653.726 493.44C653.081 494.05 652.332 494.529 651.478 494.878C650.623 495.209 649.717 495.375 648.758 495.375C647.799 495.375 646.893 495.209 646.039 494.878C645.167 494.529 644.409 494.05 643.764 493.44C643.101 492.812 642.587 492.063 642.221 491.191C641.838 490.319 641.646 489.343 641.646 488.262C641.646 487.199 641.838 486.24 642.221 485.386C642.605 484.514 643.119 483.774 643.764 483.163C644.391 482.553 645.132 482.091 645.986 481.778C646.823 481.446 647.703 481.281 648.627 481.281C648.837 481.281 649.037 481.29 649.229 481.307C649.403 481.324 649.551 481.342 649.673 481.359L649.673 492.315C650.283 492.263 650.833 492.124 651.321 491.897C651.809 491.653 652.236 491.348 652.602 490.982C652.951 490.598 653.221 490.171 653.412 489.7C653.604 489.212 653.7 488.707 653.7 488.184C653.7 487.8 653.657 487.426 653.569 487.06C653.465 486.676 653.325 486.327 653.151 486.014C652.959 485.7 652.733 485.421 652.471 485.177C652.21 484.933 651.922 484.741 651.608 484.602L652.314 482.144C653.343 482.614 654.188 483.399 654.851 484.497C655.496 485.578 655.818 486.842 655.818 488.288ZM647.686 484.131C647.111 484.183 646.579 484.331 646.091 484.575C645.603 484.802 645.193 485.098 644.862 485.464C644.513 485.831 644.243 486.258 644.051 486.746C643.86 487.234 643.764 487.748 643.764 488.288C643.764 488.829 643.86 489.343 644.051 489.831C644.243 490.302 644.513 490.72 644.862 491.086C645.193 491.452 645.603 491.749 646.091 491.975C646.579 492.202 647.111 492.341 647.686 492.394L647.686 484.131ZM644.365 471.247C644.4 472.363 644.662 473.356 645.15 474.228C645.62 475.082 646.3 475.692 647.189 476.058L655.557 476.058L655.557 478.935L641.881 478.935L641.881 476.267L644.94 476.267C643.999 475.797 643.25 475.187 642.692 474.437C642.116 473.67 641.803 472.851 641.75 471.979C641.75 471.805 641.75 471.665 641.75 471.561C641.75 471.439 641.759 471.334 641.777 471.247L644.365 471.247ZM652.968 450.232L655.557 450.232L655.557 462.966L636.991 462.966L636.991 450.468L639.58 450.468L639.58 460.038L644.862 460.038L644.862 451.749L647.294 451.749L647.294 460.038L652.968 460.038L652.968 450.232ZM641.881 446.061L646.562 442.714L647.006 442.478L646.562 442.243L641.881 438.922L641.881 435.915L648.732 440.909L655.557 435.863L655.557 438.87L650.902 442.243L650.484 442.478L650.902 442.714L655.557 446.087L655.557 449.094L648.732 444.047L641.881 449.042L641.881 446.061ZM648.706 435.392C647.747 435.392 646.841 435.227 645.986 434.895C645.132 434.564 644.383 434.094 643.738 433.483C643.093 432.856 642.587 432.106 642.221 431.235C641.838 430.363 641.646 429.387 641.646 428.306C641.646 426.894 641.96 425.683 642.587 424.671C643.197 423.643 644.017 422.876 645.045 422.37L645.934 425.168C645.359 425.499 644.914 425.944 644.601 426.502C644.269 427.06 644.104 427.678 644.104 428.358C644.104 428.934 644.217 429.474 644.444 429.98C644.67 430.468 644.993 430.895 645.411 431.261C645.812 431.627 646.291 431.914 646.849 432.124C647.407 432.333 648.026 432.437 648.706 432.437C649.368 432.437 649.987 432.333 650.562 432.124C651.12 431.897 651.608 431.601 652.027 431.235C652.445 430.851 652.776 430.415 653.02 429.927C653.247 429.422 653.36 428.89 653.36 428.332C653.36 427.984 653.317 427.635 653.229 427.286C653.125 426.938 652.985 426.624 652.811 426.345C652.637 426.049 652.436 425.796 652.21 425.587C651.983 425.36 651.739 425.194 651.478 425.09L652.314 422.266C653.343 422.719 654.188 423.477 654.851 424.541C655.496 425.604 655.818 426.859 655.818 428.306C655.818 429.369 655.626 430.337 655.243 431.208C654.859 432.08 654.345 432.83 653.7 433.457C653.038 434.067 652.279 434.547 651.425 434.895C650.571 435.227 649.665 435.392 648.706 435.392ZM655.818 413.828C655.818 414.891 655.635 415.858 655.269 416.73C654.885 417.602 654.371 418.351 653.726 418.979C653.081 419.589 652.332 420.068 651.478 420.417C650.623 420.748 649.717 420.914 648.758 420.914C647.799 420.914 646.893 420.748 646.039 420.417C645.167 420.068 644.409 419.589 643.764 418.979C643.101 418.351 642.587 417.602 642.221 416.73C641.838 415.858 641.646 414.882 641.646 413.801C641.646 412.738 641.838 411.779 642.221 410.925C642.605 410.053 643.119 409.313 643.764 408.702C644.391 408.092 645.132 407.63 645.986 407.317C646.823 406.985 647.703 406.82 648.627 406.82C648.837 406.82 649.037 406.829 649.229 406.846C649.403 406.863 649.551 406.881 649.673 406.898L649.673 417.854C650.283 417.802 650.833 417.663 651.321 417.436C651.809 417.192 652.236 416.887 652.602 416.521C652.951 416.137 653.221 415.71 653.412 415.24C653.604 414.751 653.7 414.246 653.7 413.723C653.7 413.339 653.657 412.965 653.569 412.599C653.465 412.215 653.325 411.866 653.151 411.553C652.959 411.239 652.733 410.96 652.471 410.716C652.21 410.472 651.922 410.28 651.608 410.141L652.314 407.683C653.343 408.153 654.188 408.938 654.851 410.036C655.496 411.117 655.818 412.381 655.818 413.828ZM647.686 409.67C647.111 409.722 646.579 409.87 646.091 410.114C645.603 410.341 645.193 410.637 644.862 411.004C644.513 411.37 644.243 411.797 644.051 412.285C643.86 412.773 643.764 413.287 643.764 413.828C643.764 414.368 643.86 414.882 644.051 415.37C644.243 415.841 644.513 416.259 644.862 416.625C645.193 416.991 645.603 417.288 646.091 417.514C646.579 417.741 647.111 417.88 647.686 417.933L647.686 409.67ZM636.468 404.447L636.468 401.571L651.608 401.571C652.114 401.571 652.515 401.44 652.811 401.179C653.09 400.917 653.229 400.551 653.229 400.081C653.229 399.889 653.195 399.671 653.125 399.427C653.055 399.166 652.977 398.922 652.89 398.695L655.138 398.277C655.33 398.695 655.478 399.192 655.583 399.767C655.705 400.342 655.766 400.856 655.766 401.31C655.766 402.303 655.496 403.079 654.955 403.637C654.415 404.177 653.648 404.447 652.654 404.447L636.468 404.447ZM636.468 396.583L636.468 393.706L651.608 393.706C652.114 393.706 652.515 393.576 652.811 393.314C653.09 393.053 653.229 392.687 653.229 392.216C653.229 392.024 653.195 391.806 653.125 391.562C653.055 391.301 652.977 391.057 652.89 390.83L655.138 390.412C655.33 390.83 655.478 391.327 655.583 391.902C655.705 392.477 655.766 392.992 655.766 393.445C655.766 394.438 655.496 395.214 654.955 395.772C654.415 396.312 653.648 396.583 652.654 396.583L636.468 396.583ZM655.818 382.547C655.818 383.61 655.635 384.578 655.269 385.449C654.885 386.321 654.371 387.07 653.726 387.698C653.081 388.308 652.332 388.787 651.478 389.136C650.623 389.467 649.717 389.633 648.758 389.633C647.799 389.633 646.893 389.467 646.039 389.136C645.167 388.787 644.409 388.308 643.764 387.698C643.101 387.07 642.587 386.321 642.221 385.449C641.838 384.578 641.646 383.601 641.646 382.521C641.646 381.457 641.838 380.499 642.221 379.644C642.605 378.773 643.119 378.032 643.764 377.422C644.391 376.812 645.132 376.35 645.986 376.036C646.823 375.705 647.703 375.539 648.627 375.539C648.837 375.539 649.037 375.548 649.229 375.565C649.403 375.583 649.551 375.6 649.673 375.618L649.673 386.574C650.283 386.521 650.833 386.382 651.321 386.155C651.809 385.911 652.236 385.606 652.602 385.24C652.951 384.857 653.221 384.429 653.412 383.959C653.604 383.471 653.7 382.965 653.7 382.442C653.7 382.059 653.657 381.684 653.569 381.318C653.465 380.934 653.325 380.586 653.151 380.272C652.959 379.958 652.733 379.679 652.471 379.435C652.21 379.191 651.922 378.999 651.608 378.86L652.314 376.402C653.343 376.873 654.188 377.657 654.851 378.755C655.496 379.836 655.818 381.1 655.818 382.547ZM647.686 378.389C647.111 378.442 646.579 378.59 646.091 378.834C645.603 379.06 645.193 379.357 644.862 379.723C644.513 380.089 644.243 380.516 644.051 381.004C643.86 381.492 643.764 382.006 643.764 382.547C643.764 383.087 643.86 383.601 644.051 384.09C644.243 384.56 644.513 384.979 644.862 385.345C645.193 385.711 645.603 386.007 646.091 386.234C646.579 386.46 647.111 386.6 647.686 386.652L647.686 378.389ZM655.557 360.929L655.557 363.806L647.895 363.806C646.605 363.806 645.673 364.015 645.097 364.433C644.505 364.834 644.208 365.436 644.208 366.237C644.208 366.656 644.287 367.074 644.444 367.493C644.601 367.911 644.827 368.303 645.124 368.669C645.402 369.035 645.742 369.367 646.143 369.663C646.527 369.942 646.954 370.16 647.425 370.317L655.557 370.317L655.557 373.193L641.881 373.193L641.881 370.578L644.627 370.578C643.703 370.055 642.979 369.297 642.456 368.303C641.916 367.31 641.646 366.211 641.646 365.009C641.646 364.189 641.794 363.518 642.09 362.995C642.387 362.472 642.796 362.062 643.319 361.766C643.825 361.452 644.418 361.234 645.097 361.112C645.76 360.99 646.466 360.929 647.215 360.929L655.557 360.929ZM648.706 358.48C647.747 358.48 646.841 358.314 645.986 357.983C645.132 357.652 644.383 357.181 643.738 356.571C643.093 355.943 642.587 355.194 642.221 354.322C641.838 353.451 641.646 352.474 641.646 351.394C641.646 349.982 641.96 348.77 642.587 347.759C643.197 346.731 644.017 345.964 645.045 345.458L645.934 348.256C645.359 348.587 644.914 349.032 644.601 349.589C644.269 350.147 644.104 350.766 644.104 351.446C644.104 352.021 644.217 352.562 644.444 353.067C644.67 353.555 644.993 353.982 645.411 354.348C645.812 354.715 646.291 355.002 646.849 355.211C647.407 355.421 648.026 355.525 648.706 355.525C649.368 355.525 649.987 355.421 650.562 355.211C651.12 354.985 651.608 354.688 652.027 354.322C652.445 353.939 652.776 353.503 653.02 353.015C653.247 352.509 653.36 351.978 653.36 351.42C653.36 351.071 653.317 350.723 653.229 350.374C653.125 350.025 652.985 349.711 652.811 349.433C652.637 349.136 652.436 348.883 652.21 348.674C651.983 348.448 651.739 348.282 651.478 348.177L652.314 345.353C653.343 345.807 654.188 346.565 654.851 347.628C655.496 348.692 655.818 349.947 655.818 351.394C655.818 352.457 655.626 353.425 655.243 354.296C654.859 355.168 654.345 355.917 653.7 356.545C653.038 357.155 652.279 357.634 651.425 357.983C650.571 358.314 649.665 358.48 648.706 358.48ZM655.818 336.915C655.818 337.979 655.635 338.946 655.269 339.818C654.885 340.689 654.371 341.439 653.726 342.066C653.081 342.676 652.332 343.156 651.478 343.505C650.623 343.836 649.717 344.001 648.758 344.001C647.799 344.001 646.893 343.836 646.039 343.505C645.167 343.156 644.409 342.676 643.764 342.066C643.101 341.439 642.587 340.689 642.221 339.818C641.838 338.946 641.646 337.97 641.646 336.889C641.646 335.826 641.838 334.867 642.221 334.013C642.605 333.141 643.119 332.4 643.764 331.79C644.391 331.18 645.132 330.718 645.986 330.404C646.823 330.073 647.703 329.907 648.627 329.907C648.837 329.907 649.037 329.916 649.229 329.934C649.403 329.951 649.551 329.968 649.673 329.986L649.673 340.942C650.283 340.89 650.833 340.75 651.321 340.524C651.809 340.28 652.236 339.975 652.602 339.608C652.951 339.225 653.221 338.798 653.412 338.327C653.604 337.839 653.7 337.334 653.7 336.811C653.7 336.427 653.657 336.052 653.569 335.686C653.465 335.303 653.325 334.954 653.151 334.64C652.959 334.327 652.733 334.048 652.471 333.804C652.21 333.56 651.922 333.368 651.608 333.228L652.314 330.77C653.343 331.241 654.188 332.025 654.851 333.124C655.496 334.204 655.818 335.468 655.818 336.915ZM647.686 332.758C647.111 332.81 646.579 332.958 646.091 333.202C645.603 333.429 645.193 333.725 644.862 334.091C644.513 334.457 644.243 334.884 644.051 335.372C643.86 335.861 643.764 336.375 643.764 336.915C643.764 337.456 643.86 337.97 644.051 338.458C644.243 338.929 644.513 339.347 644.862 339.713C645.193 340.079 645.603 340.375 646.091 340.602C646.579 340.829 647.111 340.968 647.686 341.02L647.686 332.758Z" fill="white"/>
<path d="M645.483 293.064C628.846 293.013 598.313 292.92 589.918 292.92C590.013 298.257 590.324 303.305 596.225 305.994H694.74C700.642 303.305 700.955 298.257 701.048 292.92C692.653 292.92 662.12 293.011 645.483 293.064Z" fill="url(#paint21_linear_3814_39639)"/>
<g style="mix-blend-mode:multiply">
<path d="M645.647 293.063C628.961 293.013 598.338 292.92 589.918 292.92C590.013 298.218 590.325 303.227 596.244 305.897H695.049C700.968 303.227 701.283 298.218 701.376 292.92C692.956 292.92 662.333 293.01 645.647 293.063Z" fill="url(#paint22_linear_3814_39639)"/>
</g>
<path d="M569.652 268.281C570.878 276.257 579.045 288.143 589.902 294.228H701.061C711.917 288.143 720.088 276.259 721.311 268.281C721.775 265.255 721.965 262.191 721.965 259.127V252.391H568.998V259.127C568.998 262.191 569.188 265.255 569.652 268.281Z" fill="url(#paint23_linear_3814_39639)"/>
<g style="mix-blend-mode:multiply">
<path d="M569.652 268.281C570.878 276.257 579.045 288.143 589.902 294.228H701.061C711.917 288.143 720.088 276.259 721.311 268.281C721.775 265.255 721.965 262.191 721.965 259.127V252.391H568.998V259.127C568.998 262.191 569.188 265.255 569.652 268.281Z" fill="url(#paint24_linear_3814_39639)"/>
</g>
<path d="M720.955 639.216C719.725 631.56 711.536 620.15 700.649 614.31H589.189C578.303 620.15 570.111 631.557 568.884 639.216C568.419 642.12 568.229 645.062 568.229 648.003V654.469H721.61V648.003C721.61 645.062 721.42 642.12 720.955 639.216Z" fill="url(#paint25_linear_3814_39639)"/>
<g style="mix-blend-mode:multiply">
<path d="M720.955 639.216C719.725 631.56 711.536 620.15 700.649 614.31H589.189C578.303 620.15 570.111 631.557 568.884 639.216C568.419 642.12 568.229 645.062 568.229 648.003V654.469H721.61V648.003C721.61 645.062 721.42 642.12 720.955 639.216Z" fill="url(#paint26_linear_3814_39639)"/>
</g>
<path d="M356.788 614.311H245.328L251.657 305.648H350.46L356.788 614.311Z" fill="url(#paint27_linear_3814_39639)"/>
<g style="mix-blend-mode:multiply">
<path d="M357.253 614.311H245.793L252.122 305.648H350.924L357.253 614.311Z" fill="url(#paint28_linear_3814_39639)"/>
</g>
<path d="M310.398 587.03L291.833 587.03L291.833 579.238C291.833 578.401 292.008 577.634 292.356 576.937C292.705 576.222 293.167 575.612 293.742 575.106C294.3 574.601 294.945 574.209 295.677 573.93C296.392 573.633 297.124 573.485 297.873 573.485C298.658 573.485 299.416 573.625 300.148 573.904C300.863 574.165 301.508 574.54 302.083 575.028C302.641 575.516 303.094 576.109 303.443 576.806C303.774 577.486 303.94 578.244 303.94 579.081L303.94 584.101L310.398 584.101L310.398 587.03ZM301.351 584.101L301.351 579.264C301.351 578.846 301.264 578.471 301.09 578.14C300.915 577.791 300.671 577.495 300.358 577.25C300.044 577.006 299.678 576.815 299.259 576.675C298.841 576.536 298.379 576.466 297.873 576.466C297.351 576.466 296.88 576.544 296.461 576.701C296.043 576.858 295.686 577.076 295.389 577.355C295.076 577.634 294.84 577.956 294.683 578.323C294.509 578.671 294.422 579.037 294.422 579.421L294.422 584.101L301.351 584.101ZM299.207 563.417C299.242 564.533 299.503 565.526 299.991 566.398C300.462 567.252 301.142 567.862 302.031 568.228L310.398 568.228L310.398 571.104L296.723 571.104L296.723 568.437L299.782 568.437C298.841 567.967 298.091 567.357 297.534 566.607C296.958 565.84 296.645 565.021 296.592 564.149C296.592 563.975 296.592 563.835 296.592 563.731C296.592 563.609 296.601 563.504 296.618 563.417L299.207 563.417ZM310.66 555.869C310.66 556.95 310.468 557.926 310.085 558.798C309.701 559.652 309.187 560.384 308.542 560.994C307.897 561.604 307.147 562.075 306.293 562.406C305.422 562.737 304.515 562.903 303.574 562.903C302.632 562.903 301.735 562.737 300.881 562.406C300.009 562.075 299.251 561.604 298.606 560.994C297.961 560.367 297.446 559.626 297.063 558.772C296.679 557.9 296.488 556.932 296.488 555.869C296.488 554.806 296.679 553.847 297.063 552.993C297.446 552.121 297.961 551.38 298.606 550.77C299.251 550.143 300.009 549.663 300.881 549.332C301.735 549.001 302.632 548.835 303.574 548.835C304.515 548.835 305.422 549.001 306.293 549.332C307.147 549.663 307.897 550.143 308.542 550.77C309.187 551.38 309.701 552.121 310.085 552.993C310.468 553.847 310.66 554.806 310.66 555.869ZM303.6 559.948C304.262 559.948 304.872 559.844 305.43 559.634C305.988 559.425 306.476 559.138 306.895 558.772C307.296 558.405 307.618 557.978 307.862 557.49C308.089 556.985 308.202 556.444 308.202 555.869C308.202 555.294 308.089 554.762 307.862 554.274C307.618 553.768 307.287 553.333 306.868 552.967C306.45 552.601 305.962 552.313 305.404 552.104C304.846 551.895 304.236 551.79 303.574 551.79C302.929 551.79 302.327 551.895 301.77 552.104C301.194 552.313 300.697 552.601 300.279 552.967C299.861 553.333 299.538 553.768 299.312 554.274C299.068 554.762 298.946 555.294 298.946 555.869C298.946 556.427 299.068 556.959 299.312 557.464C299.556 557.952 299.887 558.379 300.305 558.745C300.724 559.111 301.22 559.408 301.796 559.634C302.354 559.844 302.955 559.948 303.6 559.948ZM315.393 547.722C315.393 548.35 315.297 548.943 315.105 549.5C314.913 550.058 314.617 550.564 314.216 551.017L312.281 549.736C312.49 549.509 312.638 549.248 312.726 548.951C312.83 548.655 312.883 548.359 312.883 548.062C312.883 547.557 312.691 547.112 312.307 546.729C311.941 546.328 311.471 546.127 310.895 546.127L296.723 546.127L296.723 543.251L310.686 543.251C311.383 543.251 312.02 543.373 312.595 543.617C313.17 543.844 313.667 544.166 314.085 544.584C314.504 544.985 314.826 545.456 315.053 545.996C315.279 546.537 315.393 547.112 315.393 547.722ZM294.474 546.127L291.31 546.127L291.31 543.251L294.474 543.251L294.474 546.127ZM310.66 533.601C310.66 534.664 310.477 535.632 310.111 536.503C309.727 537.375 309.213 538.125 308.568 538.752C307.923 539.362 307.173 539.842 306.319 540.19C305.465 540.522 304.559 540.687 303.6 540.687C302.641 540.687 301.735 540.522 300.881 540.19C300.009 539.842 299.251 539.362 298.606 538.752C297.943 538.125 297.429 537.375 297.063 536.503C296.679 535.632 296.488 534.656 296.488 533.575C296.488 532.512 296.679 531.553 297.063 530.699C297.446 529.827 297.961 529.086 298.606 528.476C299.233 527.866 299.974 527.404 300.828 527.09C301.665 526.759 302.545 526.593 303.469 526.593C303.678 526.593 303.879 526.602 304.071 526.619C304.245 526.637 304.393 526.654 304.515 526.672L304.515 537.628C305.125 537.576 305.674 537.436 306.162 537.209C306.651 536.965 307.078 536.66 307.444 536.294C307.792 535.911 308.063 535.484 308.254 535.013C308.446 534.525 308.542 534.019 308.542 533.496C308.542 533.113 308.498 532.738 308.411 532.372C308.307 531.989 308.167 531.64 307.993 531.326C307.801 531.012 307.574 530.733 307.313 530.489C307.051 530.245 306.764 530.054 306.45 529.914L307.156 527.456C308.185 527.927 309.03 528.711 309.692 529.81C310.337 530.89 310.66 532.154 310.66 533.601ZM302.528 529.443C301.953 529.496 301.421 529.644 300.933 529.888C300.445 530.115 300.035 530.411 299.704 530.777C299.355 531.143 299.085 531.57 298.893 532.058C298.701 532.546 298.606 533.061 298.606 533.601C298.606 534.141 298.701 534.656 298.893 535.144C299.085 535.614 299.355 536.033 299.704 536.399C300.035 536.765 300.445 537.061 300.933 537.288C301.421 537.515 301.953 537.654 302.528 537.706L302.528 529.443ZM303.548 525.136C302.589 525.136 301.682 524.971 300.828 524.639C299.974 524.308 299.224 523.837 298.579 523.227C297.934 522.6 297.429 521.85 297.063 520.979C296.679 520.107 296.488 519.131 296.488 518.05C296.488 516.638 296.801 515.427 297.429 514.415C298.039 513.387 298.858 512.62 299.887 512.114L300.776 514.912C300.201 515.243 299.756 515.688 299.442 516.246C299.111 516.804 298.946 517.422 298.946 518.102C298.946 518.678 299.059 519.218 299.285 519.724C299.512 520.212 299.835 520.639 300.253 521.005C300.654 521.371 301.133 521.658 301.691 521.868C302.249 522.077 302.868 522.181 303.548 522.181C304.21 522.181 304.829 522.077 305.404 521.868C305.962 521.641 306.45 521.345 306.868 520.979C307.287 520.595 307.618 520.159 307.862 519.671C308.089 519.166 308.202 518.634 308.202 518.076C308.202 517.728 308.158 517.379 308.071 517.03C307.967 516.682 307.827 516.368 307.653 516.089C307.479 515.793 307.278 515.54 307.051 515.331C306.825 515.104 306.581 514.938 306.319 514.834L307.156 512.01C308.185 512.463 309.03 513.221 309.692 514.285C310.337 515.348 310.66 516.603 310.66 518.05C310.66 519.113 310.468 520.081 310.085 520.952C309.701 521.824 309.187 522.574 308.542 523.201C307.879 523.811 307.121 524.291 306.267 524.639C305.413 524.971 304.506 525.136 303.548 525.136ZM309.692 502.032C309.867 502.398 310.067 502.903 310.294 503.548C310.503 504.193 310.608 504.882 310.608 505.614C310.608 506.067 310.547 506.494 310.425 506.895C310.303 507.296 310.12 507.654 309.875 507.967C309.631 508.264 309.318 508.499 308.934 508.673C308.533 508.848 308.054 508.935 307.496 508.935L298.946 508.935L298.946 510.739L296.723 510.739L296.723 508.935L292.225 508.935L292.225 506.059L296.723 506.059L296.723 503.078L298.946 503.078L298.946 506.059L306.581 506.059C307.069 506.024 307.426 505.876 307.653 505.614C307.862 505.335 307.967 504.995 307.967 504.594C307.967 504.193 307.897 503.81 307.757 503.444C307.618 503.078 307.505 502.808 307.418 502.633L309.692 502.032ZM310.398 477.603L297.037 477.603L307.156 483.12L307.156 484.741L297.037 490.285L310.398 490.285L310.398 493.213L291.833 493.213L291.833 490.075L303.182 483.931L291.833 477.786L291.833 474.648L310.398 474.648L310.398 477.603ZM310.66 467.32C310.66 467.983 310.555 468.602 310.346 469.177C310.12 469.735 309.814 470.223 309.431 470.641C309.047 471.042 308.594 471.365 308.071 471.609C307.548 471.835 306.982 471.949 306.372 471.949C305.727 471.949 305.143 471.809 304.62 471.53C304.097 471.251 303.643 470.859 303.26 470.354C302.876 469.831 302.58 469.22 302.371 468.523C302.162 467.808 302.057 467.024 302.057 466.17C302.057 465.525 302.118 464.889 302.24 464.261C302.345 463.633 302.493 463.067 302.685 462.561L301.743 462.561C300.732 462.561 299.948 462.849 299.39 463.424C298.815 464 298.527 464.828 298.527 465.908C298.527 466.641 298.667 467.364 298.946 468.079C299.207 468.776 299.591 469.499 300.096 470.249L298.266 471.138C297.08 469.377 296.488 467.547 296.488 465.647C296.488 463.764 296.967 462.3 297.926 461.254C298.885 460.208 300.262 459.685 302.057 459.685L306.999 459.685C307.609 459.685 307.923 459.432 307.941 458.927L310.398 458.927C310.451 459.206 310.486 459.45 310.503 459.659C310.52 459.851 310.529 460.042 310.529 460.234C310.529 460.792 310.39 461.228 310.111 461.542C309.832 461.838 309.475 462.021 309.039 462.091L308.176 462.169C308.978 462.779 309.597 463.538 310.032 464.444C310.451 465.333 310.66 466.292 310.66 467.32ZM308.542 466.536C308.542 465.839 308.42 465.185 308.176 464.575C307.914 463.947 307.557 463.459 307.104 463.111C306.79 462.744 306.459 462.561 306.11 462.561L304.306 462.561C304.114 463.05 303.966 463.572 303.861 464.13C303.757 464.671 303.705 465.202 303.705 465.725C303.705 466.754 303.931 467.599 304.384 468.262C304.82 468.907 305.404 469.229 306.136 469.229C306.816 469.229 307.391 468.976 307.862 468.471C308.315 467.965 308.542 467.32 308.542 466.536ZM310.398 443.932L310.398 446.808L302.737 446.808C301.447 446.808 300.514 447.018 299.939 447.436C299.346 447.837 299.05 448.438 299.05 449.24C299.05 449.659 299.129 450.077 299.285 450.495C299.442 450.914 299.669 451.306 299.965 451.672C300.244 452.038 300.584 452.369 300.985 452.666C301.369 452.944 301.796 453.162 302.266 453.319L310.398 453.319L310.398 456.196L296.723 456.196L296.723 453.581L299.469 453.581C298.545 453.058 297.821 452.299 297.298 451.306C296.758 450.312 296.488 449.214 296.488 448.011C296.488 447.192 296.636 446.521 296.932 445.998C297.228 445.475 297.638 445.065 298.161 444.769C298.667 444.455 299.259 444.237 299.939 444.115C300.602 443.993 301.308 443.932 302.057 443.932L310.398 443.932ZM310.66 436.959C310.66 437.621 310.555 438.24 310.346 438.815C310.12 439.373 309.814 439.861 309.431 440.28C309.047 440.681 308.594 441.003 308.071 441.247C307.548 441.474 306.982 441.587 306.372 441.587C305.727 441.587 305.143 441.448 304.62 441.169C304.097 440.89 303.643 440.498 303.26 439.992C302.876 439.469 302.58 438.859 302.371 438.162C302.162 437.447 302.057 436.663 302.057 435.808C302.057 435.163 302.118 434.527 302.24 433.9C302.345 433.272 302.493 432.705 302.685 432.2L301.743 432.2C300.732 432.2 299.948 432.488 299.39 433.063C298.815 433.638 298.527 434.466 298.527 435.547C298.527 436.279 298.667 437.002 298.946 437.717C299.207 438.414 299.591 439.138 300.096 439.887L298.266 440.777C297.08 439.016 296.488 437.186 296.488 435.285C296.488 433.403 296.967 431.938 297.926 430.893C298.885 429.847 300.262 429.324 302.057 429.324L306.999 429.324C307.609 429.324 307.923 429.071 307.941 428.565L310.398 428.565C310.451 428.844 310.486 429.088 310.503 429.297C310.52 429.489 310.529 429.681 310.529 429.873C310.529 430.431 310.39 430.866 310.111 431.18C309.832 431.476 309.475 431.66 309.039 431.729L308.176 431.808C308.978 432.418 309.597 433.176 310.032 434.083C310.451 434.972 310.66 435.93 310.66 436.959ZM308.542 436.174C308.542 435.477 308.42 434.823 308.176 434.213C307.914 433.586 307.557 433.098 307.104 432.749C306.79 432.383 306.459 432.2 306.11 432.2L304.306 432.2C304.114 432.688 303.966 433.211 303.861 433.769C303.757 434.309 303.705 434.841 303.705 435.364C303.705 436.392 303.931 437.238 304.384 437.9C304.82 438.545 305.404 438.868 306.136 438.868C306.816 438.868 307.391 438.615 307.862 438.109C308.315 437.604 308.542 436.959 308.542 436.174ZM310.529 420.421C310.529 421.345 310.346 422.191 309.98 422.958C309.597 423.725 309.082 424.387 308.437 424.945C307.792 425.485 307.051 425.913 306.215 426.226C305.378 426.523 304.498 426.671 303.574 426.671C302.598 426.671 301.682 426.514 300.828 426.2C299.957 425.886 299.207 425.451 298.579 424.893C297.934 424.335 297.429 423.672 297.063 422.905C296.679 422.121 296.488 421.258 296.488 420.317C296.488 419.219 296.749 418.26 297.272 417.441C297.795 416.604 298.475 415.915 299.312 415.375L296.723 415.375L296.723 412.838L310.006 412.838C311 412.838 311.88 413.021 312.647 413.388C313.414 413.754 314.059 414.268 314.582 414.93C315.123 415.575 315.532 416.342 315.811 417.231C316.09 418.12 316.229 419.079 316.229 420.108C316.229 421.624 315.968 422.888 315.445 423.899C314.939 424.893 314.225 425.729 313.301 426.409L311.784 424.788C312.516 424.265 313.074 423.594 313.458 422.775C313.841 421.938 314.033 421.049 314.033 420.108C314.033 419.515 313.955 418.957 313.798 418.434C313.641 417.894 313.397 417.423 313.066 417.022C312.734 416.621 312.316 416.307 311.81 416.081C311.305 415.837 310.703 415.715 310.006 415.715L307.914 415.715C308.751 416.203 309.396 416.874 309.849 417.728C310.303 418.582 310.529 419.48 310.529 420.421ZM308.202 419.48C308.202 419.044 308.132 418.626 307.993 418.225C307.836 417.824 307.635 417.458 307.391 417.127C307.13 416.778 306.842 416.482 306.529 416.238C306.197 415.994 305.849 415.819 305.483 415.715L301.9 415.715C301.464 415.889 301.072 416.116 300.724 416.395C300.358 416.673 300.044 416.996 299.782 417.362C299.521 417.711 299.32 418.085 299.181 418.486C299.024 418.887 298.946 419.288 298.946 419.689C298.946 420.317 299.085 420.883 299.364 421.389C299.625 421.877 299.983 422.295 300.436 422.644C300.872 422.993 301.369 423.263 301.926 423.455C302.484 423.646 303.06 423.742 303.652 423.742C304.28 423.742 304.872 423.638 305.43 423.428C305.971 423.202 306.45 422.897 306.868 422.513C307.269 422.13 307.592 421.685 307.836 421.18C308.08 420.657 308.202 420.09 308.202 419.48ZM310.66 403.192C310.66 404.256 310.477 405.223 310.111 406.095C309.727 406.966 309.213 407.716 308.568 408.343C307.923 408.954 307.173 409.433 306.319 409.782C305.465 410.113 304.559 410.278 303.6 410.278C302.641 410.278 301.735 410.113 300.88 409.782C300.009 409.433 299.251 408.954 298.606 408.343C297.943 407.716 297.429 406.966 297.063 406.095C296.679 405.223 296.488 404.247 296.488 403.166C296.488 402.103 296.679 401.144 297.063 400.29C297.446 399.418 297.961 398.677 298.606 398.067C299.233 397.457 299.974 396.995 300.828 396.681C301.665 396.35 302.545 396.185 303.469 396.185C303.678 396.185 303.879 396.193 304.071 396.211C304.245 396.228 304.393 396.246 304.515 396.263L304.515 407.219C305.125 407.167 305.674 407.027 306.162 406.801C306.651 406.557 307.078 406.252 307.444 405.885C307.792 405.502 308.063 405.075 308.254 404.604C308.446 404.116 308.542 403.611 308.542 403.088C308.542 402.704 308.498 402.329 308.411 401.963C308.307 401.58 308.167 401.231 307.993 400.917C307.801 400.604 307.574 400.325 307.313 400.081C307.051 399.837 306.764 399.645 306.45 399.505L307.156 397.047C308.185 397.518 309.03 398.303 309.692 399.401C310.337 400.482 310.66 401.745 310.66 403.192ZM302.528 399.035C301.953 399.087 301.421 399.235 300.933 399.479C300.445 399.706 300.035 400.002 299.704 400.368C299.355 400.734 299.085 401.161 298.893 401.649C298.701 402.138 298.606 402.652 298.606 403.192C298.606 403.733 298.701 404.247 298.893 404.735C299.085 405.206 299.355 405.624 299.704 405.99C300.035 406.356 300.445 406.652 300.933 406.879C301.421 407.106 301.953 407.245 302.528 407.297L302.528 399.035ZM310.398 372.92L310.398 375.796L302.737 375.796C301.464 375.796 300.532 376.005 299.939 376.424C299.346 376.842 299.05 377.452 299.05 378.254C299.05 379.073 299.355 379.823 299.965 380.503C300.558 381.165 301.334 381.645 302.292 381.941L310.398 381.941L310.398 384.817L302.737 384.817C301.447 384.817 300.514 385.026 299.939 385.445C299.346 385.863 299.05 386.465 299.05 387.249C299.05 388.068 299.346 388.818 299.939 389.498C300.532 390.178 301.308 390.666 302.266 390.962L310.398 390.962L310.398 393.838L296.723 393.838L296.723 391.224L299.468 391.224C298.51 390.683 297.778 389.977 297.272 389.106C296.749 388.216 296.488 387.205 296.488 386.072C296.488 384.939 296.784 384.05 297.377 383.405C297.969 382.743 298.71 382.333 299.599 382.176C298.588 381.601 297.821 380.878 297.298 380.006C296.758 379.134 296.488 378.141 296.488 377.025C296.488 376.223 296.644 375.561 296.958 375.038C297.255 374.497 297.656 374.07 298.161 373.757C298.667 373.443 299.259 373.225 299.939 373.103C300.602 372.981 301.308 372.92 302.057 372.92L310.398 372.92ZM310.66 363.408C310.66 364.472 310.477 365.439 310.111 366.311C309.727 367.182 309.213 367.932 308.568 368.559C307.923 369.17 307.173 369.649 306.319 369.998C305.465 370.329 304.559 370.494 303.6 370.494C302.641 370.494 301.735 370.329 300.88 369.998C300.009 369.649 299.251 369.17 298.606 368.559C297.943 367.932 297.429 367.182 297.063 366.311C296.679 365.439 296.488 364.463 296.488 363.382C296.488 362.319 296.679 361.36 297.063 360.506C297.446 359.634 297.961 358.893 298.606 358.283C299.233 357.673 299.974 357.211 300.828 356.897C301.665 356.566 302.545 356.4 303.469 356.4C303.678 356.4 303.879 356.409 304.071 356.427C304.245 356.444 304.393 356.461 304.515 356.479L304.515 367.435C305.125 367.383 305.674 367.243 306.162 367.017C306.651 366.773 307.078 366.468 307.444 366.101C307.792 365.718 308.063 365.291 308.254 364.82C308.446 364.332 308.542 363.827 308.542 363.304C308.542 362.92 308.498 362.545 308.411 362.179C308.307 361.796 308.167 361.447 307.993 361.133C307.801 360.82 307.574 360.541 307.313 360.297C307.051 360.053 306.764 359.861 306.45 359.721L307.156 357.263C308.185 357.734 309.03 358.518 309.692 359.617C310.337 360.697 310.66 361.961 310.66 363.408ZM302.528 359.251C301.953 359.303 301.421 359.451 300.933 359.695C300.445 359.922 300.035 360.218 299.704 360.584C299.355 360.95 299.085 361.377 298.893 361.865C298.701 362.354 298.606 362.868 298.606 363.408C298.606 363.949 298.701 364.463 298.893 364.951C299.085 365.422 299.355 365.84 299.704 366.206C300.035 366.572 300.445 366.868 300.933 367.095C301.421 367.322 301.953 367.461 302.528 367.513L302.528 359.251ZM310.398 341.791L310.398 344.667L302.737 344.667C301.447 344.667 300.514 344.876 299.939 345.295C299.346 345.696 299.05 346.297 299.05 347.099C299.05 347.517 299.129 347.936 299.285 348.354C299.442 348.772 299.669 349.165 299.965 349.531C300.244 349.897 300.584 350.228 300.985 350.524C301.369 350.803 301.796 351.021 302.266 351.178L310.398 351.178L310.398 354.054L296.723 354.054L296.723 351.439L299.468 351.439C298.545 350.917 297.821 350.158 297.298 349.165C296.758 348.171 296.488 347.073 296.488 345.87C296.488 345.051 296.636 344.379 296.932 343.857C297.228 343.334 297.638 342.924 298.161 342.628C298.667 342.314 299.259 342.096 299.939 341.974C300.602 341.852 301.308 341.791 302.057 341.791L310.398 341.791ZM309.692 330.971C309.867 331.337 310.067 331.842 310.294 332.487C310.503 333.132 310.608 333.821 310.608 334.553C310.608 335.006 310.547 335.433 310.425 335.834C310.303 336.235 310.12 336.593 309.875 336.906C309.631 337.203 309.318 337.438 308.934 337.612C308.533 337.787 308.054 337.874 307.496 337.874L298.946 337.874L298.946 339.678L296.723 339.678L296.723 337.874L292.225 337.874L292.225 334.998L296.723 334.998L296.723 332.017L298.946 332.017L298.946 334.998L306.581 334.998C307.069 334.963 307.426 334.815 307.653 334.553C307.862 334.274 307.967 333.934 307.967 333.533C307.967 333.132 307.897 332.749 307.757 332.383C307.618 332.017 307.505 331.747 307.418 331.572L309.692 330.971Z" fill="white"/>
<path d="M300.893 293.064C284.256 293.013 253.723 292.92 245.328 292.92C245.423 298.257 245.734 303.304 251.636 305.994H350.15C356.052 303.304 356.366 298.257 356.458 292.92C348.063 292.92 317.53 293.011 300.893 293.064Z" fill="url(#paint29_linear_3814_39639)"/>
<g style="mix-blend-mode:multiply">
<path d="M301.057 293.063C284.371 293.012 253.748 292.92 245.328 292.92C245.423 298.217 245.735 303.227 251.654 305.897H350.46C356.379 303.227 356.693 298.217 356.786 292.92C348.366 292.92 317.743 293.01 301.057 293.063Z" fill="url(#paint30_linear_3814_39639)"/>
</g>
<path d="M225.064 268.281C226.29 276.256 234.457 288.143 245.314 294.227H356.473C367.33 288.143 375.5 276.259 376.723 268.281C377.187 265.255 377.377 262.191 377.377 259.126V252.39H224.41V259.126C224.41 262.191 224.6 265.255 225.064 268.281Z" fill="url(#paint31_linear_3814_39639)"/>
<g style="mix-blend-mode:multiply">
<path d="M225.064 268.281C226.29 276.256 234.457 288.143 245.314 294.227H356.473C367.33 288.143 375.5 276.259 376.723 268.281C377.187 265.255 377.377 262.191 377.377 259.126V252.39H224.41V259.126C224.41 262.191 224.6 265.255 225.064 268.281Z" fill="url(#paint32_linear_3814_39639)"/>
</g>
<path d="M376.367 639.216C375.137 631.56 366.948 620.15 356.062 614.31H244.601C233.715 620.15 225.523 631.557 224.296 639.216C223.831 642.12 223.641 645.062 223.641 648.003V654.469H377.022V648.003C377.022 645.062 376.832 642.12 376.367 639.216Z" fill="url(#paint33_linear_3814_39639)"/>
<g style="mix-blend-mode:multiply">
<path d="M376.367 639.216C375.137 631.56 366.948 620.15 356.062 614.31H244.601C233.715 620.15 225.523 631.557 224.296 639.216C223.831 642.12 223.641 645.062 223.641 648.003V654.469H377.022V648.003C377.022 645.062 376.832 642.12 376.367 639.216Z" fill="url(#paint34_linear_3814_39639)"/>
</g>
</g>
<defs>
<filter id="filter0_i_3814_39639" x="211.537" y="156.038" width="348.469" height="41.6992" filterUnits="userSpaceOnUse" color-interpolation-filters="sRGB">
<feFlood flood-opacity="0" result="BackgroundImageFix"/>
<feBlend mode="normal" in="SourceGraphic" in2="BackgroundImageFix" result="shape"/>
<feColorMatrix in="SourceAlpha" type="matrix" values="0 0 0 0 0 0 0 0 0 0 0 0 0 0 0 0 0 0 127 0" result="hardAlpha"/>
<feOffset dx="3" dy="3"/>
<feGaussianBlur stdDeviation="2"/>
<feComposite in2="hardAlpha" operator="arithmetic" k2="-1" k3="1"/>
<feColorMatrix type="matrix" values="0 0 0 0 0 0 0 0 0 0 0 0 0 0 0 0 0 0 0.36 0"/>
<feBlend mode="normal" in2="shape" result="effect1_innerShadow_3814_39639"/>
</filter>
<filter id="filter1_d_3814_39639" x="23.1629" y="20.0442" width="726.985" height="242.866" filterUnits="userSpaceOnUse" color-interpolation-filters="sRGB">
<feFlood flood-opacity="0" result="BackgroundImageFix"/>
<feColorMatrix in="SourceAlpha" type="matrix" values="0 0 0 0 0 0 0 0 0 0 0 0 0 0 0 0 0 0 127 0" result="hardAlpha"/>
<feOffset dy="5.22963"/>
<feGaussianBlur stdDeviation="2.61482"/>
<feComposite in2="hardAlpha" operator="out"/>
<feColorMatrix type="matrix" values="0 0 0 0 0 0 0 0 0 0 0 0 0 0 0 0 0 0 0.25 0"/>
<feBlend mode="normal" in2="BackgroundImageFix" result="effect1_dropShadow_3814_39639"/>
<feBlend mode="normal" in="SourceGraphic" in2="effect1_dropShadow_3814_39639" result="shape"/>
</filter>
<filter id="filter2_d_3814_39639" x="14.013" y="214.669" width="745.288" height="46.9341" filterUnits="userSpaceOnUse" color-interpolation-filters="sRGB">
<feFlood flood-opacity="0" result="BackgroundImageFix"/>
<feColorMatrix in="SourceAlpha" type="matrix" values="0 0 0 0 0 0 0 0 0 0 0 0 0 0 0 0 0 0 127 0" result="hardAlpha"/>
<feOffset dy="-5.22963"/>
<feGaussianBlur stdDeviation="7.19074"/>
<feComposite in2="hardAlpha" operator="out"/>
<feColorMatrix type="matrix" values="0 0 0 0 0 0 0 0 0 0 0 0 0 0 0 0 0 0 0.25 0"/>
<feBlend mode="normal" in2="BackgroundImageFix" result="effect1_dropShadow_3814_39639"/>
<feBlend mode="normal" in="SourceGraphic" in2="effect1_dropShadow_3814_39639" result="shape"/>
</filter>
<linearGradient id="paint0_linear_3814_39639" x1="386.654" y1="654.411" x2="386.654" y2="702.078" gradientUnits="userSpaceOnUse">
<stop stop-color="#499A9A" stop-opacity="0"/>
<stop offset="1" stop-color="#193434"/>
</linearGradient>
<linearGradient id="paint1_linear_3814_39639" x1="386.655" y1="20.0442" x2="386.655" y2="252.451" gradientUnits="userSpaceOnUse">
<stop stop-color="#082326"/>
<stop offset="1" stop-color="#1D818C"/>
</linearGradient>
<linearGradient id="paint2_linear_3814_39639" x1="128.945" y1="305.587" x2="128.945" y2="614.251" gradientUnits="userSpaceOnUse">
<stop stop-color="#008080"/>
<stop offset="1" stop-color="#499A9A"/>
</linearGradient>
<linearGradient id="paint3_linear_3814_39639" x1="128.945" y1="305.933" x2="128.945" y2="614.597" gradientUnits="userSpaceOnUse">
<stop stop-color="#16808B"/>
<stop offset="0.0865385" stop-color="#008080" stop-opacity="0"/>
<stop offset="0.865385" stop-color="#008080" stop-opacity="0"/>
<stop offset="1" stop-color="#16808B"/>
</linearGradient>
<linearGradient id="paint4_linear_3814_39639" x1="128.78" y1="292.859" x2="128.78" y2="305.933" gradientUnits="userSpaceOnUse">
<stop stop-color="#1D818C"/>
<stop offset="1" stop-color="#082326"/>
</linearGradient>
<linearGradient id="paint5_linear_3814_39639" x1="128.944" y1="305.836" x2="128.944" y2="292.859" gradientUnits="userSpaceOnUse">
<stop offset="0.760075" stop-color="#499A9A" stop-opacity="0"/>
<stop offset="1" stop-color="#1D818C"/>
</linearGradient>
<linearGradient id="paint6_linear_3814_39639" x1="128.78" y1="252.33" x2="128.78" y2="294.167" gradientUnits="userSpaceOnUse">
<stop stop-color="#1D818C"/>
<stop offset="1" stop-color="#082326"/>
</linearGradient>
<linearGradient id="paint7_linear_3814_39639" x1="128.78" y1="294.167" x2="128.78" y2="252.33" gradientUnits="userSpaceOnUse">
<stop offset="0.760075" stop-color="#499A9A" stop-opacity="0"/>
<stop offset="1" stop-color="#1D818C"/>
</linearGradient>
<linearGradient id="paint8_linear_3814_39639" x1="128.22" y1="614.248" x2="128.22" y2="654.408" gradientUnits="userSpaceOnUse">
<stop stop-color="#1D818C"/>
<stop offset="1" stop-color="#082326"/>
</linearGradient>
<linearGradient id="paint9_linear_3814_39639" x1="128.22" y1="614.248" x2="128.22" y2="654.408" gradientUnits="userSpaceOnUse">
<stop offset="0.760075" stop-color="#499A9A" stop-opacity="0"/>
<stop offset="1" stop-color="#1D818C"/>
</linearGradient>
<linearGradient id="paint10_linear_3814_39639" x1="386.657" y1="234.281" x2="386.657" y2="252.452" gradientUnits="userSpaceOnUse">
<stop stop-color="#1D818C"/>
<stop offset="1" stop-color="#082326"/>
</linearGradient>
<linearGradient id="paint11_linear_3814_39639" x1="473.353" y1="305.648" x2="473.353" y2="614.311" gradientUnits="userSpaceOnUse">
<stop stop-color="#008080"/>
<stop offset="1" stop-color="#499A9A"/>
</linearGradient>
<linearGradient id="paint12_linear_3814_39639" x1="472.793" y1="305.933" x2="472.793" y2="614.597" gradientUnits="userSpaceOnUse">
<stop stop-color="#16808B"/>
<stop offset="0.0865385" stop-color="#008080" stop-opacity="0"/>
<stop offset="0.865385" stop-color="#008080" stop-opacity="0"/>
<stop offset="1" stop-color="#16808B"/>
</linearGradient>
<linearGradient id="paint13_linear_3814_39639" x1="473.188" y1="292.92" x2="473.188" y2="305.994" gradientUnits="userSpaceOnUse">
<stop stop-color="#1D818C"/>
<stop offset="1" stop-color="#082326"/>
</linearGradient>
<linearGradient id="paint14_linear_3814_39639" x1="473.352" y1="305.897" x2="473.352" y2="292.92" gradientUnits="userSpaceOnUse">
<stop offset="0.760075" stop-color="#499A9A" stop-opacity="0"/>
<stop offset="1" stop-color="#1D818C"/>
</linearGradient>
<linearGradient id="paint15_linear_3814_39639" x1="473.186" y1="252.39" x2="473.186" y2="294.227" gradientUnits="userSpaceOnUse">
<stop stop-color="#1D818C"/>
<stop offset="1" stop-color="#082326"/>
</linearGradient>
<linearGradient id="paint16_linear_3814_39639" x1="473.186" y1="294.227" x2="473.186" y2="252.39" gradientUnits="userSpaceOnUse">
<stop offset="0.760075" stop-color="#499A9A" stop-opacity="0"/>
<stop offset="1" stop-color="#1D818C"/>
</linearGradient>
<linearGradient id="paint17_linear_3814_39639" x1="472.626" y1="614.31" x2="472.626" y2="654.469" gradientUnits="userSpaceOnUse">
<stop stop-color="#1D818C"/>
<stop offset="1" stop-color="#082326"/>
</linearGradient>
<linearGradient id="paint18_linear_3814_39639" x1="472.626" y1="614.31" x2="472.626" y2="654.469" gradientUnits="userSpaceOnUse">
<stop offset="0.760075" stop-color="#499A9A" stop-opacity="0"/>
<stop offset="1" stop-color="#1D818C"/>
</linearGradient>
<linearGradient id="paint19_linear_3814_39639" x1="645.648" y1="305.648" x2="645.648" y2="614.312" gradientUnits="userSpaceOnUse">
<stop stop-color="#008080"/>
<stop offset="1" stop-color="#499A9A"/>
</linearGradient>
<linearGradient id="paint20_linear_3814_39639" x1="645.371" y1="305.933" x2="645.371" y2="614.597" gradientUnits="userSpaceOnUse">
<stop stop-color="#16808B"/>
<stop offset="0.0865385" stop-color="#008080" stop-opacity="0"/>
<stop offset="0.865385" stop-color="#008080" stop-opacity="0"/>
<stop offset="1" stop-color="#16808B"/>
</linearGradient>
<linearGradient id="paint21_linear_3814_39639" x1="645.483" y1="292.92" x2="645.483" y2="305.994" gradientUnits="userSpaceOnUse">
<stop stop-color="#1D818C"/>
<stop offset="1" stop-color="#082326"/>
</linearGradient>
<linearGradient id="paint22_linear_3814_39639" x1="645.647" y1="305.897" x2="645.647" y2="292.92" gradientUnits="userSpaceOnUse">
<stop offset="0.760075" stop-color="#499A9A" stop-opacity="0"/>
<stop offset="1" stop-color="#1D818C"/>
</linearGradient>
<linearGradient id="paint23_linear_3814_39639" x1="645.481" y1="252.391" x2="645.481" y2="294.228" gradientUnits="userSpaceOnUse">
<stop stop-color="#1D818C"/>
<stop offset="1" stop-color="#082326"/>
</linearGradient>
<linearGradient id="paint24_linear_3814_39639" x1="645.481" y1="294.228" x2="645.481" y2="252.391" gradientUnits="userSpaceOnUse">
<stop offset="0.760075" stop-color="#499A9A" stop-opacity="0"/>
<stop offset="1" stop-color="#1D818C"/>
</linearGradient>
<linearGradient id="paint25_linear_3814_39639" x1="644.919" y1="614.31" x2="644.919" y2="654.469" gradientUnits="userSpaceOnUse">
<stop stop-color="#1D818C"/>
<stop offset="1" stop-color="#082326"/>
</linearGradient>
<linearGradient id="paint26_linear_3814_39639" x1="644.919" y1="614.31" x2="644.919" y2="654.469" gradientUnits="userSpaceOnUse">
<stop offset="0.760075" stop-color="#499A9A" stop-opacity="0"/>
<stop offset="1" stop-color="#1D818C"/>
</linearGradient>
<linearGradient id="paint27_linear_3814_39639" x1="301.058" y1="305.648" x2="301.058" y2="614.311" gradientUnits="userSpaceOnUse">
<stop stop-color="#008080"/>
<stop offset="1" stop-color="#499A9A"/>
</linearGradient>
<linearGradient id="paint28_linear_3814_39639" x1="301.523" y1="305.648" x2="301.523" y2="614.311" gradientUnits="userSpaceOnUse">
<stop stop-color="#16808B"/>
<stop offset="0.0865385" stop-color="#008080" stop-opacity="0"/>
<stop offset="0.865385" stop-color="#008080" stop-opacity="0"/>
<stop offset="1" stop-color="#16808B"/>
</linearGradient>
<linearGradient id="paint29_linear_3814_39639" x1="300.893" y1="292.92" x2="300.893" y2="305.994" gradientUnits="userSpaceOnUse">
<stop stop-color="#1D818C"/>
<stop offset="1" stop-color="#082326"/>
</linearGradient>
<linearGradient id="paint30_linear_3814_39639" x1="301.057" y1="305.897" x2="301.057" y2="292.92" gradientUnits="userSpaceOnUse">
<stop offset="0.760075" stop-color="#499A9A" stop-opacity="0"/>
<stop offset="1" stop-color="#1D818C"/>
</linearGradient>
<linearGradient id="paint31_linear_3814_39639" x1="300.894" y1="252.39" x2="300.894" y2="294.227" gradientUnits="userSpaceOnUse">
<stop stop-color="#1D818C"/>
<stop offset="1" stop-color="#082326"/>
</linearGradient>
<linearGradient id="paint32_linear_3814_39639" x1="300.894" y1="294.227" x2="300.894" y2="252.39" gradientUnits="userSpaceOnUse">
<stop offset="0.760075" stop-color="#499A9A" stop-opacity="0"/>
<stop offset="1" stop-color="#1D818C"/>
</linearGradient>
<linearGradient id="paint33_linear_3814_39639" x1="300.331" y1="614.31" x2="300.331" y2="654.469" gradientUnits="userSpaceOnUse">
<stop stop-color="#1D818C"/>
<stop offset="1" stop-color="#082326"/>
</linearGradient>
<linearGradient id="paint34_linear_3814_39639" x1="300.331" y1="614.31" x2="300.331" y2="654.469" gradientUnits="userSpaceOnUse">
<stop offset="0.760075" stop-color="#499A9A" stop-opacity="0"/>
<stop offset="1" stop-color="#1D818C"/>
</linearGradient>
<clipPath id="clip0_3814_39639">
<rect width="771.371" height="702.078" fill="white"/>
</clipPath>
</defs>
</svg>
