<svg width="80" height="80" viewBox="0 0 80 80" fill="none" xmlns="http://www.w3.org/2000/svg">
<path d="M36.4801 69.1727H6.70445C5.86133 69.1727 5.17773 68.4891 5.17773 67.646V7.45445C5.17773 6.61133 5.86133 5.92773 6.70445 5.92773H17.0941" stroke="#499A9A" stroke-width="2" stroke-miterlimit="10" stroke-linecap="round" stroke-linejoin="round"/>
<path d="M42.3125 5.92773H52.6247C53.4678 5.92773 54.1514 6.61133 54.1514 7.45445V36.5238" stroke="#499A9A" stroke-width="2" stroke-miterlimit="10" stroke-linecap="round" stroke-linejoin="round"/>
<path d="M21.8226 1.71875H37.5076C39.8613 1.71875 41.7696 3.62688 41.7696 5.98078C41.7696 8.33453 39.8615 10.2428 37.5076 10.2428H21.8226C19.4688 10.2428 17.5605 8.33469 17.5605 5.98078C17.5605 3.62688 19.4688 1.71875 21.8226 1.71875Z" stroke="#499A9A" stroke-width="2" stroke-miterlimit="10" stroke-linecap="round" stroke-linejoin="round"/>
<path d="M13.0938 31.2263H16.402" stroke="#499A9A" stroke-width="2" stroke-miterlimit="10" stroke-linecap="round" stroke-linejoin="round"/>
<path d="M13.0938 19.7407H16.402" stroke="#499A9A" stroke-width="2" stroke-miterlimit="10" stroke-linecap="round" stroke-linejoin="round"/>
<path d="M24.6445 19.7407H46.237" stroke="#499A9A" stroke-width="2" stroke-miterlimit="10" stroke-linecap="round" stroke-linejoin="round"/>
<path d="M24.6445 31.2263H46.237" stroke="#499A9A" stroke-width="2" stroke-miterlimit="10" stroke-linecap="round" stroke-linejoin="round"/>
<path d="M13.0938 42.7119H16.402" stroke="#499A9A" stroke-width="2" stroke-miterlimit="10" stroke-linecap="round" stroke-linejoin="round"/>
<path d="M24.6445 42.7119H39.4416" stroke="#499A9A" stroke-width="2" stroke-miterlimit="10" stroke-linecap="round" stroke-linejoin="round"/>
<path d="M74.8225 61.9295V53.2909H71.5197C71.0855 51.5392 70.3939 49.8892 69.4863 48.3839L71.8223 46.0478L65.7139 39.9394L63.3778 42.2755C61.8725 41.3678 60.2225 40.6762 58.4708 40.242V36.9392H49.8322V40.242C48.0863 40.6411 46.4305 41.3678 44.9252 42.2755L42.5891 39.9394L36.4806 46.0478L38.8167 48.3839C37.9091 49.8892 37.2175 51.5392 36.7833 53.2909H33.4805V61.9295H36.7833C37.2175 63.6812 37.9091 65.3312 38.8167 66.8366L36.4806 69.1726L42.5891 75.2811L44.9252 72.945C46.4305 73.8526 48.0805 74.5442 49.8322 74.9784V78.2812H58.4708V74.9784C60.2225 74.5442 61.8725 73.8526 63.3778 72.945L65.7139 75.2811L71.8223 69.1726L69.4863 66.8366C70.3939 65.3312 71.0855 63.6812 71.5197 61.9295H74.8225Z" stroke="#499A9A" stroke-width="2" stroke-miterlimit="10" stroke-linecap="round" stroke-linejoin="round"/>
<path d="M54.152 67.3287C59.5194 67.3287 63.8705 62.9776 63.8705 57.6103C63.8705 52.2429 59.5194 47.8918 54.152 47.8918C48.7847 47.8918 44.4336 52.2429 44.4336 57.6103C44.4336 62.9776 48.7847 67.3287 54.152 67.3287Z" stroke="#499A9A" stroke-width="2" stroke-miterlimit="10" stroke-linecap="round" stroke-linejoin="round"/>
</svg>
