<svg xmlns="http://www.w3.org/2000/svg" id="Layer_1" viewBox="0 0 512 512" data-name="Layer 1"><path d="m462.238 92.3a6.926 6.926 0 0 0 -5.238-2.109c-12.057.391-23.937 1.211-35.429 2.431a85.765 85.765 0 0 0 -171.5 2.157c0 29.181 8.962 40.542 18.069 50.742a274.635 274.635 0 0 0 -46.494 40.127l-106.1.257a21.257 21.257 0 0 0 -17.687 9.151l-46 64.655a21.774 21.774 0 0 0 16.124 34.335l85.44 6.376q-2.823 7.678-5.423 15.618a7 7 0 0 0 1.779 7.19l81.554 79.191a7 7 0 0 0 7.054 1.631q7.954-2.6 15.631-5.464l6.285 84.2a21.528 21.528 0 0 0 12.458 18.091 21.847 21.847 0 0 0 9.3 2.1 21.616 21.616 0 0 0 12.574-4.07l64.652-46a21.253 21.253 0 0 0 9.151-17.686l.26-106.107a277.747 277.747 0 0 0 32.361-36.651c37.483-50.914 58.733-116.484 63.157-194.887a7 7 0 0 0 -1.978-5.278zm-126.387-69.3a71.86 71.86 0 0 1 71.778 71.779c0 23.2-6.346 31.168-14.38 41.251-9.26 11.619-19.681 24.7-20.885 60.247h-12.885v-59.043h9.18a23.18 23.18 0 1 0 -23.18-23.18v9.846h-11.241v-9.843a23.18 23.18 0 1 0 -23.179 23.18h9.179v59.043h-18.081c-1.29-35.274-12.384-47.621-22.24-58.59-8.5-9.463-15.846-17.635-15.846-42.908a71.861 71.861 0 0 1 71.78-71.782zm-15.613 100.234h-9.179a9.18 9.18 0 1 1 9.179-9.18zm14 14.663h11.241v58.38h-11.241zm25.241-14.663v-9.18a9.18 9.18 0 1 1 9.18 9.18zm-290.459 156.851a7.775 7.775 0 0 1 -5.759-12.259l46-64.653a7.4 7.4 0 0 1 6.314-3.268l93.872-.228q-30.42 37.331-50.75 87.1zm169.012 109.33-75.353-73.17a400.313 400.313 0 0 1 15.384-38.977c23.932 3.325 47.812 15.491 66.167 33.847 17.865 17.864 29.3 39.382 33.281 62.5a382.006 382.006 0 0 1 -39.479 15.8zm116.408 45.777a7.4 7.4 0 0 1 -3.267 6.314l-64.653 46a7.774 7.774 0 0 1 -12.258-5.759l-6.606-88.5q49.606-20.463 87.013-51.642zm-63.909-68.007c-5.057-24.434-17.51-47.078-36.4-65.969-19.352-19.352-44.312-32.547-69.711-37.1 23.24-45.71 54.28-81.83 92.742-107.816 6.32 8.968 11.119 21.346 11.119 46.974a7 7 0 0 0 7 7h83.968a7 7 0 0 0 7-7c0-36 9.124-47.449 17.948-58.522 7.231-9.074 14.668-18.408 16.817-37.979 9.341-1.036 18.949-1.812 28.733-2.282-8.92 124.196-62.389 212.281-159.216 262.694zm-207.68 40.464a7 7 0 0 1 -4.951-11.949l46.1-46.1a7 7 0 0 1 9.9 9.9l-46.1 46.1a6.975 6.975 0 0 1 -4.949 2.049zm84.73-14.461-88.941 88.942a7 7 0 0 1 -9.9-9.9l88.942-88.941a7 7 0 0 1 9.9 9.9zm35.458 23.788a7 7 0 0 1 0 9.9l-46.1 46.1a7 7 0 0 1 -9.9-9.9l46.1-46.1a7 7 0 0 1 9.9 0zm161.494-196.789h-57.367a14.264 14.264 0 0 0 -14.247 14.248v12.9a14.25 14.25 0 0 0 8.087 12.827 34.865 34.865 0 0 0 69.687 0 14.252 14.252 0 0 0 8.087-12.828v-12.9a14.263 14.263 0 0 0 -14.247-14.247zm-57.614 14.248a.271.271 0 0 1 .247-.248h57.367a.271.271 0 0 1 .247.248v12.9a.272.272 0 0 1 -.247.248h-57.367a.272.272 0 0 1 -.247-.248zm28.932 45.372a20.894 20.894 0 0 1 -20.688-18.222h41.374a20.893 20.893 0 0 1 -20.686 18.222z" fill="#499a9a"/></svg>