<svg xmlns="http://www.w3.org/2000/svg" id="Layer_1" viewBox="0 0 64 64" data-name="Layer 1"><path d="m14.158 31.028a12.159 12.159 0 1 0 -12.158-12.158 12.172 12.172 0 0 0 12.158 12.158zm0-22.317a10.159 10.159 0 1 1 -10.158 10.159 10.171 10.171 0 0 1 10.158-10.159z" fill="#499a9a"/><path d="m19.4 33.632a1 1 0 1 0 -1.863.728 14.117 14.117 0 0 0 13.223 9.047 14.291 14.291 0 0 0 11.519-5.892 1 1 0 1 0 -1.618-1.176 12.122 12.122 0 0 1 -9.9 5.068 12.284 12.284 0 0 1 -11.361-7.775z" fill="#499a9a"/><path d="m30.76 16.987a12.114 12.114 0 0 1 6.745 2.034 1 1 0 1 0 1.11-1.664 14.117 14.117 0 0 0 -7.855-2.37q-.672 0-1.329.062a1 1 0 0 0 .186 1.992q.565-.054 1.143-.054z" fill="#499a9a"/><path d="m30.76 9.873a19.591 19.591 0 0 0 -3.278.276 1 1 0 0 0 .337 1.972 17.478 17.478 0 0 1 2.941-.248 17.244 17.244 0 0 1 9.64 2.927 1 1 0 1 0 1.114-1.661 19.235 19.235 0 0 0 -10.754-3.266z" fill="#499a9a"/><path d="m46.006 16.663h-4.068a1 1 0 0 0 -1 1v13.99h-2.169v-9.735a1 1 0 0 0 -1-1h-4.069a1 1 0 0 0 -1 1v9.735h-2.913a1 1 0 0 0 0 2h28.372a1 1 0 0 0 0-2h-2.915v-20.47a1 1 0 0 0 -1-1h-4.068a1 1 0 0 0 -1 1v20.47h-2.17v-13.99a1 1 0 0 0 -1-1zm-11.306 14.99v-8.735h2.068v8.735zm8.237 0v-12.99h2.068v12.99zm8.238-19.47h2.068v19.47h-2.067z" fill="#499a9a"/><path d="m56.888 57.289a1 1 0 0 0 .742-.33l4.112-4.544a1 1 0 0 0 -.071-1.415l-10.734-9.71a1 1 0 0 0 -1.413.07l-1.385 1.531-2.085-1.887a19.214 19.214 0 0 0 2.246-3.652 1 1 0 1 0 -1.81-.85 17.459 17.459 0 0 1 -15.73 10.019 17.248 17.248 0 0 1 -16.545-12.175 1 1 0 0 0 -1.909.6 19.308 19.308 0 0 0 32.434 7.569l2.06 1.861-1.384 1.531a1 1 0 0 0 .07 1.412l10.732 9.711a1 1 0 0 0 .67.259zm-6.552-13.843 9.251 8.369-2.769 3.061-9.251-8.369z" fill="#499a9a"/><path d="m16.371 22.5a1 1 0 0 0 1.414-1.414l-2.627-2.627v-6.039a1 1 0 0 0 -2 0v6.45a1 1 0 0 0 .293.707z" fill="#499a9a"/></svg>