<svg width="523" height="350" viewBox="0 0 523 350" fill="none" xmlns="http://www.w3.org/2000/svg">
<circle cx="187.5" cy="172" r="52" fill="white"/>
<path d="M150.584 177.035H155.756C157.429 177.035 158.037 178.216 158.037 179.302C158.037 180.388 157.546 181.103 156.633 181.401V181.425C157.37 181.532 157.803 182.236 157.85 183.238C157.92 184.824 157.967 185.218 158.248 185.552H156.937C156.738 185.314 156.738 184.956 156.68 183.93C156.598 182.403 156.095 181.937 155.065 181.937H151.824V185.551H150.584V177.034V177.035ZM155.288 180.84C156.505 180.84 156.797 180.089 156.797 179.492C156.797 178.681 156.318 178.132 155.323 178.132H151.824V180.839H155.288V180.84Z" fill="#082326"/>
<path d="M159.232 176.964H160.402V180.244H160.426C160.976 179.374 161.947 179.087 162.824 179.087C164.299 179.087 165.399 179.732 165.399 181.294V185.552H164.229V181.533C164.229 180.614 163.668 180.09 162.415 180.09C161.351 180.09 160.403 180.722 160.403 181.95V185.552H159.233V176.964H159.232Z" fill="#082326"/>
<path d="M167.797 182.785C167.891 184.073 169.014 184.765 170.055 184.765C170.722 184.765 171.635 184.539 172.033 183.657H173.273C172.688 185.159 171.319 185.768 170.113 185.768C167.727 185.768 166.557 184.229 166.557 182.428C166.557 180.627 167.727 179.088 170.113 179.088C171.728 179.088 173.436 180.043 173.436 182.631V182.787H167.796L167.797 182.785ZM172.196 181.855C172.021 180.722 171.154 180.09 170.055 180.09C168.955 180.09 168.007 180.734 167.831 181.855H172.196Z" fill="#082326"/>
<path d="M174.631 176.964H175.801V178.277H174.631V176.964ZM174.631 179.302H175.801V185.552H174.631V179.302Z" fill="#082326"/>
<path d="M177.229 179.302H178.398V180.244H178.422C178.972 179.374 179.943 179.087 180.82 179.087C182.295 179.087 183.395 179.732 183.395 181.294V185.552H182.225V181.533C182.225 180.614 181.664 180.09 180.412 180.09C179.347 180.09 178.399 180.722 178.399 181.95V185.552H177.229V179.302H177.229Z" fill="#082326"/>
<path d="M184.811 177.035H189.315C190.918 177.035 191.749 177.799 191.749 179.134C191.749 179.969 191.374 180.816 190.11 181.091V181.115C191.737 181.282 192.03 182.487 192.03 183.214C192.03 184.132 191.539 185.551 189.233 185.551H184.811V177.034V177.035ZM185.349 180.9H189.07C189.502 180.9 191.211 180.9 191.211 179.171C191.211 177.442 189.878 177.513 188.987 177.513H185.349V180.9ZM185.349 185.075H189.117C189.537 185.075 191.492 185.075 191.492 183.167C191.492 181.378 189.9 181.378 188.976 181.378H185.349V185.075Z" fill="#082326"/>
<path d="M193.213 179.445H193.752V180.888H193.775C194.173 179.814 195.086 179.254 196.256 179.254C196.419 179.254 196.537 179.278 196.7 179.326V179.874C196.572 179.826 196.419 179.802 196.08 179.802C194.524 179.802 193.752 181.007 193.752 182.247V185.551H193.213V179.444V179.445Z" fill="#082326"/>
<path d="M203.169 185.552H202.631V184.336H202.607C202.233 185.064 201.449 185.743 200.08 185.743C197.33 185.743 197.33 183.954 197.33 183.214V179.444H197.869V183.19C197.869 184.43 198.326 185.265 200.092 185.265C201.859 185.265 202.632 184.144 202.632 183.01V179.443H203.17V185.55L203.169 185.552ZM198.747 177.155H199.285V178.419H198.747V177.155ZM201.227 177.155H201.765V178.419H201.227V177.155Z" fill="#082326"/>
<path d="M210.053 181.366C209.983 180.59 208.953 179.732 207.514 179.732C205.618 179.732 204.67 181.104 204.67 182.559C204.67 183.549 205.349 185.266 207.514 185.266C208.719 185.266 209.865 184.682 210.135 183.417H210.673C210.357 185.016 209.023 185.743 207.514 185.743C205.549 185.743 204.133 184.454 204.133 182.558C204.133 180.411 205.677 179.254 207.514 179.254C209.352 179.254 210.521 180.327 210.592 181.365H210.053V181.366Z" fill="#082326"/>
<path d="M211.632 177.035H212.171V182.689L216.442 179.444H217.237L214.205 181.747L217.518 185.552H216.78L213.785 182.093L212.17 183.31V185.552H211.631V177.035H211.632Z" fill="#082326"/>
<path d="M218.326 182.617C218.361 184.144 219.379 185.265 221.18 185.265C222.982 185.265 223.521 184.072 223.732 183.524H224.27C223.767 185.063 222.713 185.743 221.122 185.743C219.074 185.743 217.787 184.478 217.787 182.451C217.787 181.174 218.582 179.254 221.134 179.254C223.216 179.254 224.41 180.661 224.433 182.617H218.325H218.326ZM223.825 182.141C223.603 180.47 222.456 179.732 221.076 179.732C219.531 179.732 218.56 180.686 218.326 182.141H223.825Z" fill="#082326"/>
<path d="M172.416 160.671C172.416 162.13 171.256 163.313 169.824 163.313C168.392 163.313 167.232 162.13 167.232 160.671C167.232 159.211 168.392 158.03 169.824 158.03C171.256 158.03 172.416 159.212 172.416 160.671Z" fill="#082326"/>
<path d="M182.781 160.671C182.781 162.13 181.621 163.313 180.189 163.313C178.758 163.313 177.598 162.13 177.598 160.671C177.598 159.211 178.758 158.03 180.189 158.03C181.621 158.03 182.781 159.212 182.781 160.671Z" fill="#082326"/>
<path d="M193.145 160.671C193.145 162.13 191.985 163.313 190.555 163.313C189.124 163.313 187.963 162.13 187.963 160.671C187.963 159.211 189.123 158.03 190.555 158.03C191.986 158.03 193.145 159.212 193.145 160.671Z" fill="#082326"/>
<path d="M203.512 160.671C203.512 162.13 202.352 163.313 200.921 163.313C199.489 163.313 198.33 162.13 198.33 160.671C198.33 159.211 199.49 158.03 200.921 158.03C202.352 158.03 203.512 159.212 203.512 160.671Z" fill="#082326"/>
<path d="M177.597 168.596C177.597 170.056 176.437 171.238 175.006 171.238C173.574 171.238 172.414 170.056 172.414 168.596C172.414 167.137 173.574 165.955 175.006 165.955C176.437 165.955 177.597 167.138 177.597 168.596Z" fill="#082326"/>
<path d="M187.964 168.596C187.964 170.056 186.804 171.238 185.372 171.238C183.94 171.238 182.781 170.056 182.781 168.596C182.781 167.137 183.941 165.955 185.372 165.955C186.803 165.955 187.964 167.138 187.964 168.596Z" fill="#082326"/>
<path d="M198.33 168.596C198.33 170.056 197.17 171.238 195.738 171.238C194.307 171.238 193.147 170.056 193.147 168.596C193.147 167.137 194.308 165.955 195.738 165.955C197.169 165.955 198.33 167.138 198.33 168.596Z" fill="#082326"/>
<circle cx="314.379" cy="172" r="52" fill="white"/>
<circle cx="250.5" cy="172" r="20" fill="#499A9A"/>
<g clip-path="url(#clip0_38_11863)">
<path d="M254.344 168.156L246.656 175.844" stroke="white" stroke-width="1.875" stroke-miterlimit="10" stroke-linecap="round"/>
<mask id="mask0_38_11863" style="mask-type:luminance" maskUnits="userSpaceOnUse" x="238" y="159" width="25" height="25">
<path d="M238.5 160H262.5V184H238.5V160Z" fill="white"/>
</mask>
<g mask="url(#mask0_38_11863)">
<path d="M255.305 172.498C256.578 172.269 257.836 171.471 258.971 170.334L259.337 169.963C261.641 167.656 262.544 164.77 260.137 162.359C257.727 159.953 254.891 160.858 252.584 163.162L252.213 163.528C251.094 164.645 250.303 165.883 250.06 167.135" stroke="white" stroke-width="1.875" stroke-miterlimit="10" stroke-linecap="round"/>
<path d="M250.997 176.805C250.769 178.077 249.971 179.336 248.834 180.471L248.463 180.837C246.156 183.141 243.27 184.044 240.859 181.637C238.452 179.226 239.358 176.391 241.662 174.083L242.027 173.713C243.145 172.593 244.382 171.803 245.635 171.56" stroke="white" stroke-width="1.875" stroke-miterlimit="10" stroke-linecap="round"/>
</g>
</g>
<path d="M0 136H61.5455C94.7186 136 127.097 125.846 154.329 106.902L160.365 102.703C214.189 65.2601 285.936 66.4738 338.463 105.715C364.78 125.377 396.75 136 429.601 136H522.5" stroke="url(#paint0_linear_38_11863)" stroke-width="1.5"/>
<circle opacity="0.5" cx="88.8265" cy="133.327" r="2.32653" fill="#28B67E"/>
<circle opacity="0.5" cx="2.32653" cy="2.32653" r="2.32653" transform="matrix(1 0 0 -1 86.5 218.653)" fill="#28B67E"/>
<circle opacity="0.5" cx="143.827" cy="93.3265" r="2.32653" fill="#28B67E"/>
<circle opacity="0.5" cx="2.32653" cy="2.32653" r="2.32653" transform="matrix(1 0 0 -1 141.5 258.653)" fill="#28B67E"/>
<circle opacity="0.5" cx="317.827" cy="93.3265" r="2.32653" fill="#28B67E"/>
<circle opacity="0.5" cx="2.32653" cy="2.32653" r="2.32653" transform="matrix(1 0 0 -1 315.5 258.653)" fill="#28B67E"/>
<circle opacity="0.5" cx="349.827" cy="93.3265" r="2.32653" fill="#28B67E"/>
<circle opacity="0.5" cx="2.32653" cy="2.32653" r="2.32653" transform="matrix(1 0 0 -1 347.5 258.653)" fill="#28B67E"/>
<circle opacity="0.5" cx="400.827" cy="93.3265" r="2.32653" fill="#28B67E"/>
<circle opacity="0.5" cx="2.32653" cy="2.32653" r="2.32653" transform="matrix(1 0 0 -1 398.5 258.653)" fill="#28B67E"/>
<circle opacity="0.5" cx="89.8265" cy="93.3265" r="2.32653" fill="#28B67E"/>
<circle opacity="0.5" cx="2.32653" cy="2.32653" r="2.32653" transform="matrix(1 0 0 -1 87.5 258.653)" fill="#28B67E"/>
<path opacity="0.2" d="M0 116H61.5455C94.7186 116 127.097 105.846 154.329 86.9017L160.365 82.7027C214.189 45.2601 285.936 46.4738 338.463 85.7153C364.78 105.377 396.75 116 429.601 116H522.5" stroke="url(#paint1_linear_38_11863)" stroke-width="1.5"/>
<path opacity="0.1" d="M0 96H61.5455C94.7186 96 127.097 85.8457 154.329 66.9017L160.365 62.7027C214.189 25.2601 285.936 26.4738 338.463 65.7153C364.78 85.3766 396.75 96 429.601 96H522.5" stroke="url(#paint2_linear_38_11863)" stroke-width="1.5"/>
<path d="M0 214H61.5455C94.7186 214 127.097 224.154 154.329 243.098L160.365 247.297C214.189 284.74 285.936 283.526 338.463 244.285C364.78 224.623 396.75 214 429.601 214H522.5" stroke="url(#paint3_linear_38_11863)" stroke-width="1.5"/>
<path opacity="0.5" d="M0 234H61.5455C94.7186 234 127.097 244.154 154.329 263.098L160.365 267.297C214.189 304.74 285.936 303.526 338.463 264.285C364.78 244.623 396.75 234 429.601 234H522.5" stroke="url(#paint4_linear_38_11863)" stroke-width="1.5"/>
<path opacity="0.1" d="M0 254H61.5455C94.7186 254 127.097 264.154 154.329 283.098L160.365 287.297C214.189 324.74 285.936 323.526 338.463 284.285C364.78 264.623 396.75 254 429.601 254H522.5" stroke="url(#paint5_linear_38_11863)" stroke-width="1.5"/>
<path d="M306.28 167.84V168.078H301.388V167.919C301.388 166.516 300.12 165.806 298.349 165.806C296.921 165.806 295.972 166.386 295.972 167.416C295.972 168.29 296.898 168.845 299.327 169.373C302.367 170.035 304.349 170.827 305.38 171.78C306.41 172.706 306.912 173.893 306.912 175.347C306.912 179.524 303.713 181.663 298.691 181.663C293.67 181.663 290.5 179.286 290.5 174.926H295.417C295.522 176.935 296.634 177.861 298.959 177.861C300.782 177.861 301.998 177.147 301.998 175.931C301.998 174.558 300.068 174.026 297.847 173.524C295.258 172.944 293.458 172.122 292.483 171.199C291.53 170.273 291.054 169.164 291.054 167.736C291.054 163.797 294.941 162 298.721 162C303.136 162 306.28 164.407 306.28 167.84Z" fill="#025064"/>
<path d="M319.336 162.398L326.393 181.269H321.267L320.103 177.884H313.522L312.332 181.269H307.284L314.341 162.398H319.336ZM314.657 174.238H318.938L316.851 167.632H316.799L314.657 174.238Z" fill="#025064"/>
<path d="M336.831 162.398C340.823 162.398 343.598 164.433 343.598 168.502C343.598 172.784 341.377 174.978 336.779 174.978H332.736V181.269H327.818V162.398H336.831ZM336.117 171.173C337.676 171.173 338.68 170.459 338.68 168.822C338.68 167.185 337.65 166.337 336.117 166.337H332.732V171.173H336.117Z" fill="#025064"/>
<defs>
<linearGradient id="paint0_linear_38_11863" x1="522.5" y1="88" x2="0" y2="88" gradientUnits="userSpaceOnUse">
<stop stop-color="#499A9A" stop-opacity="0"/>
<stop offset="0.5" stop-color="#499A9A"/>
<stop offset="1" stop-color="#499A9A" stop-opacity="0"/>
</linearGradient>
<linearGradient id="paint1_linear_38_11863" x1="522.5" y1="68" x2="0" y2="68" gradientUnits="userSpaceOnUse">
<stop stop-color="#499A9A" stop-opacity="0"/>
<stop offset="0.5" stop-color="#499A9A"/>
<stop offset="1" stop-color="#499A9A" stop-opacity="0"/>
</linearGradient>
<linearGradient id="paint2_linear_38_11863" x1="522.5" y1="48" x2="0" y2="48" gradientUnits="userSpaceOnUse">
<stop stop-color="#499A9A" stop-opacity="0"/>
<stop offset="0.5" stop-color="#499A9A"/>
<stop offset="1" stop-color="#499A9A" stop-opacity="0"/>
</linearGradient>
<linearGradient id="paint3_linear_38_11863" x1="522.5" y1="262" x2="0" y2="262" gradientUnits="userSpaceOnUse">
<stop stop-color="#499A9A" stop-opacity="0"/>
<stop offset="0.5" stop-color="#499A9A"/>
<stop offset="1" stop-color="#499A9A" stop-opacity="0"/>
</linearGradient>
<linearGradient id="paint4_linear_38_11863" x1="522.5" y1="282" x2="0" y2="282" gradientUnits="userSpaceOnUse">
<stop stop-color="#499A9A" stop-opacity="0"/>
<stop offset="0.5" stop-color="#499A9A"/>
<stop offset="1" stop-color="#499A9A" stop-opacity="0"/>
</linearGradient>
<linearGradient id="paint5_linear_38_11863" x1="522.5" y1="302" x2="0" y2="302" gradientUnits="userSpaceOnUse">
<stop stop-color="#499A9A" stop-opacity="0"/>
<stop offset="0.5" stop-color="#499A9A"/>
<stop offset="1" stop-color="#499A9A" stop-opacity="0"/>
</linearGradient>
<clipPath id="clip0_38_11863">
<rect width="24" height="24" fill="white" transform="translate(238.5 160)"/>
</clipPath>
</defs>
</svg>
