<svg xmlns="http://www.w3.org/2000/svg" height="511pt" viewBox="0 0 511.99993 511" width="511pt"><path d="m334.667969 197.542969h-11.589844c0-26.964844.097656-26.921875-.324219-31.253907-.410156-4.152343-4.109375-7.195312-8.261718-6.78125-4.152344.414063-7.1875 4.109376-6.78125 8.261719.332031 3.324219.25 3.238281.25 29.773438h-15.964844v-24.632813c0-19.851562-16.144532-35.996094-35.996094-35.996094-19.855469 0-36 16.144532-36 35.996094v24.632813h-15.960938v-24.632813c0-28.652344 23.308594-51.960937 51.960938-51.960937 16.980469 0 32.933594 8.355469 42.679688 22.351562 2.378906 3.425781 7.09375 4.273438 10.519531 1.886719 3.429687-2.390625 4.265625-7.097656 1.886719-10.523438-12.578126-18.058593-33.167969-28.832031-55.085938-28.832031-36.988281 0-67.078125 30.09375-67.078125 67.078125v24.632813h-11.589844c-9.6875 0-17.566406 6.921875-17.566406 15.425781v178.765625c0 8.503906 7.878906 15.429687 17.566406 15.429687h18.664063c4.183594 0 7.558594-3.386718 7.558594-7.558593 0-4.175781-3.375-7.558594-7.558594-7.558594h-18.664063c-1.269531 0-2.117187-.445313-2.449219-.726563v-177.9375c.332032-.28125 1.179688-.722656 2.449219-.722656h157.335938c1.269531 0 2.117187.441406 2.449219.722656v177.9375c-.332032.28125-1.179688.726563-2.449219.726563h-108.4375c-4.171875 0-7.558594 3.382813-7.558594 7.558594 0 4.171875 3.386719 7.558593 7.558594 7.558593h108.4375c9.683593 0 17.566406-6.925781 17.566406-15.429687v-178.765625c0-8.503906-7.882813-15.425781-17.566406-15.425781zm-57.785157 0h-41.765624v-24.632813c0-11.519531 9.363281-20.878906 20.882812-20.878906s20.882812 9.359375 20.882812 20.878906zm0 0" fill="#499a9a"/><path d="m216.953125 59.535156 31.488281-32.722656v66.460938c0 4.175781 3.382813 7.558593 7.558594 7.558593s7.558594-3.382812 7.558594-7.558593v-66.460938l31.484375 32.722656c2.898437 3.011719 7.683593 3.097656 10.6875.207032 3.007812-2.894532 3.101562-7.679688.207031-10.6875-.460938-.476563-44.578125-46.363282-45.085938-46.789063-3.113281-2.605469-7.605468-2.2460938-10.300781.550781l-44.488281 46.238282c-2.894531 3.003906-2.804688 7.789062.203125 10.683593 3.011719 2.898438 7.796875 2.804688 10.6875-.203125zm0 0" fill="#499a9a"/><path d="m295.042969 453.460938-31.484375 32.722656v-66.464844c0-4.171875-3.382813-7.558594-7.558594-7.558594s-7.558594 3.386719-7.558594 7.558594v66.464844l-31.488281-32.722656c-2.894531-3.007813-7.679687-3.101563-10.683594-.207032-3.007812 2.894532-3.101562 7.679688-.207031 10.6875 47.3125 49.167969 44.667969 46.550782 45.675781 47.234375 3.074219 2.105469 7.179688 1.632813 9.707031-.996093l44.492188-46.238282c2.894531-3.007812 2.800781-7.792968-.207031-10.6875-3.007813-2.894531-7.792969-2.800781-10.6875.207032zm0 0" fill="#499a9a"/><path d="m510.039062 251.433594c-.40625-.445313-46.160156-44.457032-46.59375-44.875-3.011718-2.894532-7.796874-2.800782-10.6875.207031-2.894531 3.007813-2.800781 7.792969.203126 10.6875l32.722656 31.484375h-66.460938c-4.175781 0-7.558594 3.386719-7.558594 7.558594 0 4.175781 3.382813 7.558594 7.558594 7.558594h66.460938l-32.722656 31.488281c-4.914063 4.730469-1.503907 13.003906 5.242187 13.003906 3.542969 0 .75 2.773437 51.523437-46.652344 2.867188-2.808593 3.078126-7.40625.3125-10.460937zm0 0" fill="#499a9a"/><path d="m26.3125 264.054688h66.464844c4.175781 0 7.558594-3.382813 7.558594-7.558594 0-4.171875-3.382813-7.558594-7.558594-7.558594h-66.464844l32.722656-31.484375c3.007813-2.894531 3.101563-7.679687.207032-10.6875-2.894532-3.007813-7.679688-3.101563-10.6875-.207031-49.652344 47.78125-46.902344 44.996094-47.621094 46.304687-1.617188 2.9375-1.121094 6.660157 1.382812 9.082031 49.804688 47.921876 47.261719 46.601563 51.476563 46.601563 6.746093 0 10.160156-8.273437 5.242187-13.003906zm0 0" fill="#499a9a"/><path d="m367.664062 89.613281 45.402344-.871093-46.996094 46.996093c-2.953124 2.949219-2.953124 7.738281 0 10.6875 2.953126 2.953125 7.738282 2.953125 10.691407 0l46.992187-46.996093-.871094 45.402343c-.082031 4.222657 3.316407 7.703125 7.558594 7.703125 4.105469 0 7.476563-3.289062 7.554688-7.414062 1.273437-66.226563 1.261718-64.296875 1.203125-64.96875-.011719-.160156-.089844-.675782-.097657-.730469-.621093-3.292969-3.34375-5.808594-6.714843-6.125-.148438-.011719-.671875-.03125-.785157-.027344-.023437 0-.046874-.003906-.074218-.003906l-64.152344 1.234375c-4.175781.082031-7.492188 3.527344-7.414062 7.703125.078124 4.171875 3.566406 7.480469 7.703124 7.410156zm0 0" fill="#499a9a"/><path d="m144.335938 423.378906-45.402344.875 46.996094-46.996094c2.949218-2.953124 2.949218-7.738281 0-10.691406-2.953126-2.949218-7.738282-2.949218-10.691407 0l-46.996093 46.996094.875-45.402344c.078124-4.171875-3.238282-7.621094-7.410157-7.699218-4.210937-.089844-7.625 3.234374-7.703125 7.410156-1.277344 66.210937-1.265625 64.300781-1.203125 64.96875.355469 4.042968 3.796875 6.964844 7.671875 6.886718l64.152344-1.234374c4.175781-.082032 7.492188-3.527344 7.414062-7.703126-.082031-4.171874-3.550781-7.492187-7.703124-7.410156zm0 0" fill="#499a9a"/><path d="m430.292969 360.460938c-4.171875.078124-7.492188 3.527343-7.410157 7.699218l.871094 45.402344-46.992187-46.996094c-2.953125-2.949218-7.738281-2.949218-10.691407 0-2.953124 2.953125-2.953124 7.738282 0 10.691406l46.996094 46.996094-45.402344-.875c-4.207031-.097656-7.621093 3.238282-7.703124 7.410156-.082032 4.175782 3.238281 7.625 7.410156 7.703126 69.511718 1.339843 64.628906 1.339843 65.933594 1.050781 2.617187-.574219 4.847656-2.519531 5.644531-5.335938.414062-1.496093.371093 2.53125-.953125-66.335937-.078125-4.175782-3.5625-7.5-7.703125-7.410156zm0 0" fill="#499a9a"/><path d="m144.625 74.5-64.152344-1.234375c-4.261718-.097656-7.792968 3.410156-7.703125 7.703125l1.234375 64.15625c.078125 4.179688 3.535156 7.492188 7.703125 7.410156 4.171875-.082031 7.492188-3.527344 7.410157-7.703125l-.875-45.402343c50.644531 50.644531 48.019531 49.210937 52.339843 49.210937 6.675781 0 10.121094-8.128906 5.347657-12.902344l-46.996094-46.996093 45.402344.871093c4.214843.089844 7.621093-3.238281 7.703124-7.410156.078126-4.175781-3.238281-7.621094-7.414062-7.703125zm0 0" fill="#499a9a"/></svg>