<svg xmlns="http://www.w3.org/2000/svg" id="Layer_1" viewBox="0 0 512 512" data-name="Layer 1"><path d="m270.067 156.4h-29.862a15.2 15.2 0 0 0 29.862 0zm41.39 0h-29.863a15.2 15.2 0 0 0 29.863 0zm41.389 0h-29.863a15.2 15.2 0 0 0 29.863 0zm-81.465-11.187 5.947-37.7h-25.538l-10.311 37.7zm40.482 0 2.182-37.7h-25.632l-5.948 37.7zm40.78 0-1.882-37.7h-25.731l-2.183 37.7zm-126.552 202.608v33.7l8.241-5.988a5.492 5.492 0 0 1 6.536-.069l8.687 6.311v-33.954zm34.457 0h43.3a.982.982 0 0 1 .977.976v132.045a.994.994 0 0 1 -.977.977h-132.048a1 1 0 0 1 -.7-.28l.011-.011a.974.974 0 0 1 -.291-.686v-132.042a.961.961 0 0 1 .977-.976h43.3v44.476h.008a5.511 5.511 0 0 0 8.709 4.444l13.833-10.05 13.94 10.128a5.5 5.5 0 0 0 8.96-4.268v-44.733zm-74.585 117.946h28.942a5.5 5.5 0 0 0 0-10.993h-28.942a5.5 5.5 0 0 0 0 10.993zm0-17.706h28.942a5.5 5.5 0 0 0 0-10.993h-28.942a5.5 5.5 0 0 0 0 10.993zm-26.131 27.489h-130.513a13.345 13.345 0 0 1 -13.319-13.319v-159.571a13.344 13.344 0 0 1 13.319-13.318h159.57a13.344 13.344 0 0 1 13.319 13.318v34.168h101.637a12.005 12.005 0 0 1 11.969 11.972v132.042a11.99 11.99 0 0 1 -11.969 11.969h-132.045a11.909 11.909 0 0 1 -8.447-3.522l-.011.011c-4.125-4.125-3.511-8.434-3.511-13.75zm-66.052-175.216v44.12l11.8-8.571a5.49 5.49 0 0 1 6.536-.069l12.315 8.947v-44.427zm41.64 0v55.2a5.5 5.5 0 0 1 -8.959 4.268l-17.569-12.764-17.392 12.637a5.511 5.511 0 0 1 -8.708-4.444h-.008v-54.9h-53.465a2.347 2.347 0 0 0 -2.326 2.326v159.574a2.346 2.346 0 0 0 2.326 2.326h130.513v-115.757a12.024 12.024 0 0 1 11.968-11.972h19.414v-34.168a2.347 2.347 0 0 0 -2.326-2.326zm-88.987 142.534h34.975a5.5 5.5 0 1 0 0-10.992h-34.975a5.5 5.5 0 1 0 0 10.992zm0-21.4h34.975a5.5 5.5 0 1 0 0-10.992h-34.975a5.5 5.5 0 1 0 0 10.992zm369.141-324.949h12.637a5.5 5.5 0 0 1 1.312.158 21.1 21.1 0 0 0 8.163-5.073c13.249-13.249 3.819-36-14.913-36s-28.161 22.752-14.912 36a21.1 21.1 0 0 0 7.713 4.915zm51.206-48.11a62.04 62.04 0 0 1 18.227 44.006c0 34.44-38.19 71.5-62.234 99.907-3.618-4.276-7.643-8.834-11.846-13.593-4.024-4.557-8.218-9.307-12.394-14.2-.093-.119-.192-.236-.3-.349-4.475-5.256-8.924-10.677-13.112-16.2l-.683-.907c-11.019-14.676-20.121-30.082-22.972-45.128a5.464 5.464 0 0 0 -.293-1.7 50.136 50.136 0 0 1 -.637-7.823 62.235 62.235 0 0 1 106.244-44.013zm-97.15 96.808c-2.311-3.383-4.5-6.805-6.524-10.259l.512 10.259zm16.7 21.83c-2.9-3.482-5.772-7.033-8.554-10.644h-13.403a15.237 15.237 0 0 0 21.959 10.644zm41.938 35.8v89.736a5.5 5.5 0 0 1 -5.5 5.5h-169.905a5.5 5.5 0 0 1 -5.5-5.5v-114.013a26.205 26.205 0 0 1 -18.42-25.018c0-.328.009-.692.029-1.091-.157-1.312-.5-1.545.126-3.488l13.236-48.4a5.477 5.477 0 0 1 5.282-4.036v-.022h102.084c-1.5-21.242 7.293-41.878 21.3-55.882a73.227 73.227 0 0 1 125 51.782c0 33.35-29.4 66.646-53.178 93.57-5.252 5.947-10.218 11.57-14.552 16.864zm-39.63 84.24v-75.904h-30.163v75.906zm-41.157 0h-89.122v-107.541a26.159 26.159 0 0 0 17.472-9.941 26.2 26.2 0 0 0 41.389 0 26.2 26.2 0 0 0 41.389 0 26.171 26.171 0 0 0 34.934 5.915c3.426 3.953 23.478 26.612 23.734 27.329v84.24h-17.644v-81.4a5.5 5.5 0 0 0 -5.5-5.5h-41.154a5.5 5.5 0 0 0 -5.5 5.5v81.4zm-70.381-86.758a5.5 5.5 0 0 0 -5.5 5.5v45.111a5.5 5.5 0 0 0 5.5 5.5h51.94a5.5 5.5 0 0 0 5.5-5.5v-45.115a5.5 5.5 0 0 0 -5.5-5.5zm31.468 22.2h14.979v-11.208h-14.983v11.213zm-25.972 0h14.98v-11.208h-14.98v11.213zm14.98 10.993h-14.98v11.917h14.98v-11.912zm25.971 0h-14.983v11.917h14.979v-11.912zm-219.773-22.159h-58.4a5.5 5.5 0 0 1 -5.5-5.5v-50.877a5.5 5.5 0 0 1 5.5-5.5h58.4v-19.94h.011a5.507 5.507 0 0 1 8.9-4.294l63.823 50.821a5.5 5.5 0 0 1 .074 8.647l-63.623 50.663a5.5 5.5 0 0 1 -9.183-4.076v-19.944zm-52.904-10.993h58.4a5.5 5.5 0 0 1 5.5 5.5v14.051l49.595-39.492-49.595-39.492v14.052a5.5 5.5 0 0 1 -5.5 5.5h-58.4zm362.191-93.095a32.085 32.085 0 1 1 41.794-30.583 32.16 32.16 0 0 1 -41.794 30.583z" fill-rule="evenodd" fill="#499a9a"/></svg>