<svg xmlns="http://www.w3.org/2000/svg" id="Layer_1" enable-background="new 0 0 512 512" viewBox="0 0 512 512"><path d="m481.287 274.619h-1.595c-2.232-8.464-6.331-16.105-11.806-22.384v-27.695c0-56.385-22.098-109.537-62.224-149.663-40.126-40.125-93.277-62.223-149.662-62.223-56.386 0-109.537 22.098-149.663 62.224-40.125 40.126-62.224 93.277-62.224 149.663v27.695c-5.474 6.279-9.573 13.92-11.805 22.384h-1.594c-16.384-.001-29.714 13.328-29.714 29.712v30.62c0 16.384 13.33 29.714 29.714 29.714h1.594c6.07 23.02 25.995 39.958 49.589 39.958h25.355c11.18 0 20.275-9.095 20.275-20.275v-129.413c0-11.18-9.095-20.275-20.275-20.275h-18.658v-10.121c0-92.308 75.098-167.406 167.405-167.406s167.405 75.098 167.405 167.406v10.121h-18.658c-11.18 0-20.275 9.095-20.275 20.275v129.413c0 11.18 9.095 20.275 20.275 20.275h25.356c2.736 0 5.421-.233 8.043-.671v10.294c0 21.647-17.612 39.258-39.259 39.258h-105.285c-3.498-17.563-19.025-30.842-37.601-30.842-21.142 0-38.342 17.2-38.342 38.342s17.2 38.342 38.342 38.342c18.576 0 34.104-13.28 37.601-30.842h105.285c29.918 0 54.259-24.34 54.259-54.258v-15.423c12.832-6.847 22.606-19.217 26.546-34.157h1.595c16.384 0 29.713-13.33 29.713-29.714v-30.62c.001-16.385-13.328-29.714-29.712-29.714zm-225.287 209.727c-12.871 0-23.342-10.471-23.342-23.342s10.471-23.342 23.342-23.342 23.342 10.471 23.342 23.342c.001 12.871-10.47 23.342-23.342 23.342zm-240-149.394v-30.62c0-8.006 6.431-14.527 14.397-14.697v60.015c-7.966-.171-14.397-6.691-14.397-14.698zm29.397 14.997v-60.613c0-21.877 16.374-39.675 36.5-39.675h4.864v139.963h-4.864c-20.126 0-36.5-17.798-36.5-39.675zm67.131-95.013v129.413c0 2.909-2.367 5.275-5.275 5.275h-5.491v-139.963h5.491c2.908 0 5.275 2.366 5.275 5.275zm272.291-159.215c-34.556-34.556-80.305-53.586-128.819-53.586s-94.264 19.03-128.82 53.586c-34.555 34.556-53.586 80.305-53.586 128.819v10.841c-5.118.885-9.984 2.573-14.481 4.939v-15.78c0-108.563 88.323-196.887 196.886-196.887s196.886 88.323 196.886 196.887v15.779c-4.497-2.366-9.363-4.054-14.481-4.938v-10.841c.001-48.514-19.03-94.263-53.585-128.819zm14.653 288.628v-129.413c0-2.909 2.366-5.275 5.275-5.275h5.492v139.963h-5.492c-2.909 0-5.275-2.366-5.275-5.275zm67.13-34.4c0 21.877-16.374 39.675-36.5 39.675h-4.864v-139.963h4.864c20.126 0 36.5 17.798 36.5 39.675zm29.398-14.997c0 8.007-6.432 14.528-14.398 14.698v-60.015c7.966.17 14.398 6.691 14.398 14.697zm-273.422 34.371c3.982 1.649 6.36 5.208 6.36 9.518v12.159c0 7.816 6.359 14.176 14.176 14.176h25.772c7.816 0 14.176-6.359 14.176-14.176v-12.159c0-4.311 2.377-7.869 6.36-9.518 3.983-1.651 8.18-.815 11.228 2.233l8.597 8.596c2.672 2.673 6.232 4.145 10.024 4.145s7.352-1.472 10.024-4.145l18.224-18.224c5.527-5.527 5.527-14.52 0-20.048l-8.597-8.597c-3.048-3.048-3.883-7.245-2.233-11.228s5.208-6.36 9.518-6.36h12.159c7.816 0 14.176-6.359 14.176-14.176v-25.772c0-7.817-6.359-14.176-14.176-14.176h-12.159c-4.31 0-7.869-2.377-9.518-6.36s-.814-8.18 2.233-11.228l8.598-8.598c5.526-5.527 5.526-14.52 0-20.047l-18.224-18.224c-2.672-2.672-6.232-4.145-10.024-4.145s-7.352 1.472-10.024 4.145l-8.598 8.597c-3.047 3.049-7.245 3.883-11.227 2.233-3.982-1.649-6.36-5.208-6.36-9.518v-12.156c0-7.816-6.359-14.176-14.176-14.176h-25.772c-7.816 0-14.176 6.359-14.176 14.176v12.158c0 4.311-2.377 7.869-6.36 9.518-3.982 1.648-8.18.814-11.228-2.233l-8.597-8.597c-2.672-2.673-6.232-4.145-10.024-4.145s-7.352 1.472-10.023 4.145l-18.224 18.224c-5.527 5.527-5.527 14.521 0 20.048l8.597 8.597c3.048 3.048 3.883 7.245 2.233 11.227-1.649 3.983-5.208 6.36-9.519 6.36h-12.158c-7.816 0-14.176 6.359-14.176 14.176v25.772c0 7.816 6.359 14.176 14.176 14.176h12.159c4.311 0 7.869 2.377 9.518 6.359 1.649 3.983.814 8.18-2.233 11.228l-8.597 8.597c-2.672 2.672-4.145 6.232-4.145 10.024s1.472 7.352 4.145 10.024l18.224 18.223c2.672 2.673 6.232 4.145 10.024 4.145s7.352-1.472 10.024-4.144l8.597-8.597c3.046-3.047 7.244-3.883 11.226-2.232zm-21.834-8.374-8.014 8.014-17.059-17.058 8.015-8.015c7.374-7.374 9.476-17.939 5.485-27.574-3.99-9.635-12.948-15.62-23.376-15.62h-11.334v-24.125h11.334c10.428 0 19.386-5.985 23.377-15.62s1.889-20.201-5.485-27.574l-8.015-8.015 17.059-17.058 8.015 8.015c7.374 7.374 17.941 9.476 27.575 5.484 9.634-3.991 15.62-12.948 15.62-23.376v-11.334h24.124v11.334c0 10.428 5.985 19.385 15.62 23.376s20.201 1.89 27.574-5.484l8.015-8.015 17.059 17.059-8.015 8.014c-7.374 7.374-9.476 17.939-5.485 27.575 3.991 9.634 12.949 15.619 23.376 15.619h11.334v24.125h-11.334c-10.428 0-19.385 5.985-23.376 15.62-3.991 9.634-1.889 20.2 5.485 27.575l8.015 8.014-17.058 17.059-8.015-8.015c-7.374-7.375-17.938-9.474-27.575-5.485-9.634 3.991-15.62 12.948-15.62 23.376v11.334h-24.124v-11.334c0-10.429-5.985-19.386-15.62-23.376-9.637-3.992-20.203-1.889-27.577 5.485zm112.93-72.314c0-31.801-25.872-57.673-57.673-57.673s-57.673 25.872-57.673 57.673 25.872 57.673 57.673 57.673 57.673-25.873 57.673-57.673zm-100.347 0c0-23.53 19.143-42.673 42.673-42.673s42.673 19.143 42.673 42.673-19.143 42.673-42.673 42.673-42.673-19.144-42.673-42.673zm50.173 32.555v-1.794c7.726-2.651 13.293-9.989 13.293-18.602 0-7.162-3.85-13.442-9.589-16.879.313.04.632.06.956.06 4.142 0 7.5-3.358 7.5-7.5 0-8.186-5.029-15.219-12.159-18.173v-2.224c0-4.142-3.358-7.5-7.5-7.5s-7.5 3.358-7.5 7.5v1.794c-7.725 2.651-13.293 9.989-13.293 18.602 0 7.162 3.849 13.442 9.588 16.879-.312-.04-.631-.06-.955-.06-4.142 0-7.5 3.358-7.5 7.5 0 8.186 5.029 15.219 12.16 18.173v2.223c0 4.142 3.358 7.5 7.5 7.5s7.499-3.357 7.499-7.499zm-8.634-49.374h1.134c2.525 0 4.659 2.134 4.659 4.66 0 2.233.976 4.238 2.524 5.612-1.907-.618-3.94-.952-6.05-.952h-2.267c-2.525 0-4.659-2.134-4.659-4.66s2.134-4.66 4.659-4.66zm2.267 33.638h-1.133c-2.526 0-4.66-2.134-4.66-4.66 0-2.232-.976-4.237-2.523-5.611 1.907.618 3.939.952 6.049.952h2.267c2.526 0 4.66 2.134 4.66 4.659 0 2.526-2.134 4.66-4.66 4.66z" fill="#499a9a"/></svg>