<svg id="SvgjsSvg1247" width="288" height="288" xmlns="http://www.w3.org/2000/svg" version="1.1" xmlns:xlink="http://www.w3.org/1999/xlink" xmlns:svgjs="http://svgjs.com/svgjs"><defs id="SvgjsDefs1248"></defs><g id="SvgjsG1249"><svg xmlns="http://www.w3.org/2000/svg" enable-background="new 0 0 500 500" viewBox="0 0 500 500" width="288" height="288"><path fill-rule="evenodd" d="m384.638 158.965c2.577 2.561 2.577 6.707 0 9.267l-54.741 54.719c-2.548 2.547-6.658 2.585-9.245 0l-27.399-27.36c-2.521-2.555-2.521-6.701 0-9.262 2.577-2.561 6.724-2.561 9.301 0l22.692 22.72 50.091-50.085c2.577-2.559 6.724-2.559 9.301.001zm-45.664 92.035c35.747 0 64.883-28.598 64.883-63.745s-29.135-63.745-64.883-63.745c-35.803 0-64.939 28.598-64.939 63.745s29.135 63.745 64.939 63.745zm0-140.596c-43.031 0-77.994 34.475-77.994 76.851s34.963 76.851 77.994 76.851c42.975 0 77.994-34.475 77.994-76.851s-35.019-76.851-77.994-76.851zm87.911 155.097 23.813-41.227-18.546-10.696c-2.465-1.418-3.698-4.264-3.138-7.043 2.698-13.011 2.697-25.547 0-38.566-.56-2.779.672-5.62 3.138-7.037l18.546-10.696-23.813-41.221-18.546 10.696c-2.465 1.423-5.547 1.093-7.676-.813-9.749-8.791-20.955-15.285-33.338-19.297-2.746-.874-4.595-3.39-4.595-6.236v-21.37h-47.569v21.376c0 2.846-1.849 5.362-4.538 6.236-12.383 4.006-23.645 10.5-33.394 19.297-2.073 1.905-5.211 2.236-7.676.812l-18.49-10.702-23.813 41.221 18.49 10.691c2.465 1.423 3.754 4.264 3.138 7.043-2.681 12.324-2.685 26.239 0 38.577.616 2.768-.672 5.614-3.138 7.032l-18.49 10.696 23.813 41.227 18.49-10.702c2.465-1.423 5.603-1.092 7.676.813 9.749 8.791 20.955 15.279 33.394 19.297 2.689.88 4.538 3.39 4.538 6.231v21.37h47.569v-21.37c0-2.841 1.849-5.351 4.595-6.231 12.383-4.018 23.589-10.506 33.338-19.297 2.129-1.905 5.211-2.236 7.676-.813zm-95.083 154.878v-104.765h-23.196c-3.642 0-6.555-2.925-6.555-6.55v-23.269c-10.926-4.079-20.955-9.878-29.976-17.324l-20.171 11.66c-3.14 1.803-7.148.693-8.965-2.404l-30.312-52.573c-.896-1.513-1.121-3.295-.672-4.975.743-2.785 2.528-3.701 4.594-4.852h-153.187v205.053c0 4.202 3.418 7.626 7.62 7.626h10.87v-155.619c0-8.595 7.004-15.599 15.576-15.599h91.105c8.572 0 15.576 7.004 15.576 15.599v65.779h102.647c3.586 0 6.555 2.936 6.555 6.55v83.289h10.87c4.203-.001 7.621-3.424 7.621-7.626zm-236.839-69.108h24.877v16.165c0 6.41 5.211 11.637 11.598 11.637h23.084c6.387 0 11.654-5.228 11.654-11.637v-16.165h24.821v76.733h-96.034zm37.988 0h20.115v14.691h-20.115zm107.69 27.803h23.028c6.443 0 11.654-5.228 11.654-11.637v-16.165h24.877v76.733h-96.092v-76.733h24.877v16.165c.002 6.409 5.212 11.637 11.656 11.637zm1.457-27.803h20.115v14.691h-20.115zm-110.66-53.576h23.084c6.387 0 11.654-5.216 11.654-11.637v-16.165h22.356c1.345 0 2.465 1.121 2.465 2.493v65.779h-96.034v-65.779c0-1.373 1.12-2.493 2.465-2.493h22.412v16.165c0 6.421 5.211 11.637 11.598 11.637zm1.513-27.802h20.115v14.697h-20.115zm-86.006-68.407v-12.534c0-2.824 1.457-5.155 4.034-6.382l145.286-70.233 29.584 14.063-13.223 22.961c-1.849 3.132-.729 7.138 2.353 8.948l20.227 11.643c-1.841 11.01-1.89 21.228-.392 32.268h-187.14c-.392 0-.729-.341-.729-.734zm415.967 14.714-20.171-11.649c1.87-11.197 1.869-23.394 0-34.593l20.171-11.649c3.13-1.802 4.149-5.888 2.409-8.948l-30.368-52.573c-1.793-3.138-5.827-4.208-8.965-2.398l-20.171 11.643c-9.021-7.441-19.05-13.246-29.976-17.325v-23.262c0-3.619-2.913-6.555-6.555-6.555h-60.68c-3.642 0-6.555 2.936-6.555 6.555v23.269c-10.926 4.073-20.955 9.884-29.976 17.324l-20.171-11.649c-3.143-1.816-7.148-.709-8.965 2.398l-10.478 18.227-33.394-15.862c-1.793-.852-3.866-.846-5.659.017l-148.144 71.601c-7.06 3.395-11.43 10.365-11.43 18.182v12.534c0 7.626 6.219 13.84 13.839 13.84h2.577v205.053c0 11.436 9.301 20.731 20.731 20.731h253.199c11.43 0 20.731-9.295 20.731-20.731v-104.766h24.373c3.642 0 6.555-2.925 6.555-6.55v-23.269c10.926-4.079 20.955-9.878 29.976-17.324l20.171 11.66c3.128 1.796 7.121.736 8.965-2.404l30.368-52.573c1.752-3.088.693-7.186-2.407-8.954z" clip-rule="evenodd" fill="#499a9a" class="svgShape color000000-0 selectable"></path></svg></g></svg>